<?xml version="1.0" encoding="UTF-8" standalone="no"?>
<svg height="619" width="419" viewBox="-5 -65 41.9 61.9" xmlns="http://www.w3.org/2000/svg">
 <polyline stroke-linejoin="bevel" transform="translate(-4.05,-4.05)" stroke="#000" points="0 -60 40 -60 40 -20 20 0 0 -20 0 -60" stroke-width="0.7" fill="#f6ff00"/>
 <path d="m4.5535-30.518c1.6647 1.3635 2.5235 3.3086 2.6837 5.1697-1.8611-0.16022-3.8055-1.0191-5.169-2.6837v6.7412c1.3635-1.6647 3.308-2.5235 5.169-2.6837-0.16021 1.8611-1.0191 3.8055-2.6837 5.169h6.7412c-1.6647-1.3635-2.5235-3.308-2.6837-5.169 1.8611 0.16021 3.8055 1.0191 5.169 2.6837v-6.7412c-1.3635 1.6647-3.308 2.5235-5.169 2.6837 0.16021-1.8611 1.0191-3.8062 2.6837-5.1697z" stroke="#000" stroke-width=".29204" fill="#f00"/>
 <path d="m21.822-59.101c1.6647 1.3635 2.5235 3.3086 2.6837 5.1697-1.8611-0.16022-3.8055-1.0191-5.169-2.6837v6.7412c1.3635-1.6647 3.308-2.5235 5.169-2.6837-0.16021 1.8611-1.0191 3.8055-2.6837 5.169h6.7412c-1.6647-1.3635-2.5235-3.308-2.6837-5.169 1.8611 0.16021 3.8055 1.0191 5.169 2.6837v-6.7412c-1.3635 1.6647-3.308 2.5235-5.169 2.6837 0.16021-1.8611 1.0191-3.8062 2.6837-5.1697z" stroke="#000" stroke-width=".29204" fill="#00f"/>
 <path stroke-linejoin="round" d="m-4.05-56.128v6.178l32.95 32.95 3.088-3.088-36.038-36.04z" stroke="#000" stroke-linecap="round" stroke-width="0.3" fill="#00f"/>
 <path stroke-linejoin="round" d="m-4.05-62.441v6.175l36.106 36.109 3.0875-3.0875-39.194-39.197z" stroke="#000" stroke-linecap="round" stroke-width="0.3"/>
 <path stroke-linejoin="round" d="m-4.05-64.05v1.4656l39.269 39.266 0.73125-0.73125v-4.7094l-35.291-35.292h-4.709z" stroke="#000" stroke-linecap="round" stroke-width="0.3" fill="#f00"/>
</svg>
