<?xml version="1.0" encoding="UTF-8" standalone="no"?>
<svg xmlns="http://www.w3.org/2000/svg" width="29" height="29" version="1.0">
  <path fill="#f8e700" fill-rule="evenodd" stroke="#000" stroke-width=".80000001" d="M14.030363 14.91093c-.116639-.152444-4.8584527.207299-8.0955194-.146384-6.7517065.603173-1.8670847-11.4322563 2.2047146-8.6729485 1.819167 1.886484 5.2109248 6.3074185 5.8908048 8.8193325z"/>
  <path fill="#f8e700" fill-rule="evenodd" stroke="#000" stroke-width=".80000001" d="M14.193606 15.044595c-.190339.024791-2.2497 4.311194-4.174532 6.937735-2.8534901 6.148735-10.83416658-4.099185-6.4086364-6.245814 2.5433268-.632203 8.0678474-1.359084 10.5831684-.691921zm.196569-.914227c.116639.152443 4.858453-.207299 8.09552.146383C29.2374 13.67358 24.35278 25.709009 20.28098 22.9497c-1.819167-1.886484-5.210925-6.307418-5.890805-8.819332z"/>
  <path fill="#f8e700" fill-rule="evenodd" stroke="#000" stroke-width=".80000001" d="M14.613594 14.694732c-.073701.177234 2.608752 4.103894 3.920988 7.084118 3.898214 5.545562-8.967082 7.333071-8.6133508 2.427135.7241588-2.518687 2.8569218-7.666503 4.6923628-9.511253zm-.738888-.639325c.190339-.02479 2.249701-4.3111931 4.174532-6.9377344 2.853491-6.14873505 10.834168 4.0991864 6.408637 6.2458134-2.543327.632203-8.067848 1.359085-10.583169.691921z"/>
  <path fill="#f8e700" fill-rule="evenodd" stroke="#000" stroke-width=".80000001" d="M13.630831 14.111748c.073701-.177233-2.608752-4.103894-3.9209877-7.0841182-3.8982155-5.545563 8.9670827-7.3330712 8.6133507-2.4271354-.72416 2.5186873-2.856921 7.6665036-4.692363 9.5112536z"/>
  <path fill="#f8e700" fill-rule="evenodd" d="M13.208501 14.499999c-.116639-.152444-4.0365907.61823-7.2736574.264547-6.64742056.655316-1.3953413-11.1963846 2.2047146-8.6729485 1.819167 1.886484 4.3890628 5.8964875 5.0689428 8.4084015zm.42233-.857887c.073701-.177233-2.608752-3.634258-3.9209877-6.6144822C5.9684762 1.691198 18.979522.09801973 18.323194 4.6004944c-.72416 2.5186873-2.856921 7.1968676-4.692363 9.0416176zm.71351.061068c.190339-.02479 2.00073-3.7869768 3.528784-6.6442119 3.066922-5.7346954 10.728501 4.4396709 6.58475 6.3045179-2.543327.632203-7.598213 1.006858-10.113534.339694zm.926401.955528c.116639.152443 3.977886-.735639 7.214953-.381957 6.582682-.687682 1.43542 11.216425-2.204715 8.672949-1.819167-1.886484-4.330358-5.779078-5.010238-8.290992zm-.774556.681773c-.073701.177234 2.72616 3.458145 4.038396 6.438369 3.970127 5.401735-8.7431527 6.885212-8.6133508 2.427135.7241588-2.518687 2.7395138-7.020754 4.5749548-8.865504z"/>
  <path fill="#f8e700" fill-rule="evenodd" d="M13.489153 15.220708c-.190339.024791-1.545247 4.135081-3.470079 6.761622-2.6257365 5.996899-10.59237113-4.260382-6.4086364-6.245814 2.5433268-.632203 7.3633944-1.182971 9.8787154-.515808z"/>
  <path fill="#b15d23" fill-rule="evenodd" d="M17.611337 14.940284c0 2.188456-1.590114 3.962551-3.55162 3.962551-1.961505 0-3.55162-1.774095-3.55162-3.962551s1.590115-3.962551 3.55162-3.962551c1.961506 0 3.55162 1.774095 3.55162 3.962551z"/>
  <path fill="#e45b36" fill-rule="evenodd" d="M14.059717 18.264028c-1.716717 0-3.108232-1.510309-3.107667-3.372968-.000565-1.86266 1.39095-3.66649 3.107667-3.66649 1.716717 0 3.34305 1.745126 3.342485 3.607786-.0391 2.023261-1.881795 3.596764-3.342485 3.431672z"/>
</svg>