<?xml version="1.0" encoding="UTF-8" standalone="no"?>
<svg xmlns="http://www.w3.org/2000/svg" width="328.74393" height="327.85519">
  <path fill="#d0aba1" d="M142.41616 326.19523c-2.03197-1.06569-5.10677-2.22007-6.83289-2.56529-1.72612-.34523-3.88861-1.51229-4.80552-2.59347-2.61546-3.08403-6.76745-3.66635-8.12013-1.13885-1.26305 2.36004-4.25468 2.74738-5.90074.764-1.34962-1.62619.3533-3.67621 3.05376-3.67621.99 0 1.8-.45 1.8-1 0-1.57806-6.61867-1.1644-8 .5-1.86521 2.24744-8.57123 1.95025-10.25558-.4545-1.01346-1.44692-2.41256-1.91289-5.38741-1.79426-2.80693.11193-4.86384-.50476-6.82258-2.0455-1.54228-1.21316-3.40263-2.20574-4.1341-2.20574-.73148 0-1.81163-.9-2.40033-2-.59528-1.11229-2.09382-2-3.37621-2-1.42577 0-4.56111-2.12851-8.21482-5.57686-3.24993-3.06727-8.10491-7.06033-10.78884-8.87347-5.43606-3.67236-29.62013-27.23312-29.62013-28.85672 0-.56951.74474-1.8584 1.65499-2.86421 1.56937-1.73414 1.49526-1.82874-1.43261-1.82874-2.16115 0-3.26955-.57327-3.69399-1.91054-.33351-1.0508-1.71383-2.63617-3.06738-3.52305-1.4353-.94044-2.46101-2.57222-2.46101-3.91515 0-1.26645-1.125-3.35951-2.5-4.65126-1.375-1.29175-2.5-2.76171-2.5-3.26658 0-.50488-.9-2.06213-2-3.46055-1.1-1.39842-2.01404-3.4944-2.03121-4.65773-.0172-1.16333-1.13986-3.91514-2.49488-6.11514-1.35501-2.2-2.46893-5.35-2.47538-7-.006-1.65-.90578-4.35-1.99853-6-1.09998-1.66091-1.98976-4.69165-1.99341-6.78984-.004-2.08441-.90659-5.55398-2.00659-7.71016-1.35076-2.64771-2-5.89377-2-9.99958 0-3.34358-.47858-10.37118-1.06351-15.61689-1.54711-13.87459.40654-46.17545 3.11379-51.48209 1.07235-2.10197 1.94972-5.129 1.94972-6.72674 0-1.59774.8425-3.97817 1.87222-5.28984s2.18751-4.25728 2.57285-6.5458c.38535-2.28852 1.56785-4.94576 2.62778-5.90499 1.05993-.95922 1.92715-2.78177 1.92715-4.0501 0-1.26833.83393-3.11109 1.85318-4.09501 2.35604-2.27439 7.14682-10.535 7.14682-12.32307 0-2.33396 5.17916-9.1323 13.68673-17.96566 4.5027-4.67513 9.17445-9.77153 10.38166-11.32533 3.15134-4.05612 21.87965-19.59069 25.43161-21.09475 1.65-.69869 3.6176-2.01505 4.37244-2.92525.75485-.91019 1.92047-1.6549 2.59028-1.6549 1.0655 0 9.44396-4.08521 15.86444-7.73526 1.19506-.67939 2.84784-1.24486 3.67284-1.25659.825-.0117 2.85-.9154 4.5-2.00815s4.01071-1.98979 5.24602-1.99341c1.23531-.004 4.83531-.86497 8-1.9141 3.16469-1.04914 8.67898-2.14806 12.25398-2.44206 3.575-.294 8.68991-1.50486 11.36648-2.6908 4.6482-2.05955 5.9938-2.13942 30-1.78058 20.47505.30605 25.68957.66923 28.13352 1.95946 1.65.87107 5.59898 1.87654 8.77552 2.23437 3.17653.35782 7.44487 1.54531 9.48519 2.63885 2.04032 1.09355 4.89315 1.98827 6.33962 1.98827 1.44647 0 3.70314.83471 5.01481 1.85492 1.31167 1.0202 4.54062 2.09198 7.17544 2.38173 2.63482.28975 5.55982 1.21998 6.5 2.06718.94018.84719 3.05942 1.86085 4.70942 2.25257 1.65.39172 3.675 1.28197 4.5 1.97832.825.69636 3.19194 1.96482 5.25987 2.81879 2.06793.85398 6.16451 3.14879 9.10351 5.09959 2.939 1.95079 5.74705 3.54922 6.24013 3.55205 2.33855.0134 23.53128 22.3693 25.86247 27.28192.89471 1.88545 2.97034 4.80235 4.61252 6.48202 1.64218 1.67966 4.13059 5.20702 5.5298 7.83858 1.39922 2.63156 3.63476 6.08091 4.96786 7.66522 1.33311 1.58431 2.42384 3.78756 2.42384 4.89611 0 1.10855.9 3.15971 2 4.55813 1.1 1.39842 2 3.19842 2 4s.84684 2.53399 1.88186 3.84981c1.15576 1.46931 2.155 4.94293 2.58977 9.00271.38934 3.63567 1.57611 8.08182 2.63726 9.88034 1.78391 3.02349 1.93604 5.52315 2.01781 33.15502.0842 28.436-.62302 37.82828-3.07528 40.84409-.46551.5725-1.00502 4.95284-1.1989 9.73411-.30281 7.46735-.6698 8.98874-2.60252 10.78896-1.67873 1.56364-2.25 3.21945-2.25 6.5216 0 3.40241-.46249 4.67338-2 5.49623-1.30762.69982-2 2.09382-2 4.02671 0 1.87334-.73267 3.4139-2 4.20536-1.20844.75469-2 2.33203-2 3.98542 0 1.81535-.84149 3.28777-2.5 4.37447-1.69127 1.10816-2.5 2.55299-2.5 4.46635 0 1.55555-.7875 3.4163-1.75 4.13499-.9625.71868-2.50522 2.94178-3.42827 4.94021-.92305 1.99843-2.97266 5.14843-4.55468 7-1.58203 1.85157-4.22046 5.43946-5.86319 7.97309-3.38433 5.21976-20.8595 21.93618-27.50471 26.31048-2.41953 1.59269-5.61843 3.7254-7.10866 4.73936-1.49023 1.01396-3.0903 1.84356-3.55572 1.84356-.46541 0-2.37106 1.125-4.23477 2.5-1.86371 1.375-4.13139 2.5-5.03929 2.5-.90791 0-2.46522.9-3.46071 2-.99549 1.1-2.5528 2-3.46071 2-.9079 0-3.17558 1.125-5.03929 2.5-1.86371 1.375-4.41526 2.5-5.67011 2.5-1.25485 0-3.75493.89832-5.55572 1.99626-1.80079 1.09795-4.5547 1.99795-6.1198 2-1.5651.002-4.0401.83894-5.5 1.85974-1.94557 1.36039-5.3247 2.02959-12.65437 2.50604-5.5.35751-12.475 1.36456-15.5 2.23789-3.36399.97118-11.13131 1.7742-20 2.06767-12.97295.42929-14.88908.27577-18.19448-1.45778zm-31.30552-15.20982c-.33992-.55-1.94148-1-3.55902-1-1.61754 0-2.94098.45-2.94098 1s1.60156 1 3.55902 1c2.11803 0 3.30878-.40488 2.94098-1zm-13.25-4.66228c-.6875-.27741-1.8125-.27741-2.5 0s-.125.50439 1.25.50439 1.9375-.22698 1.25-.50439zm101.9375-47.02083c-.72188-.28887-1.58438-.25335-1.91667.0789-.33229.33229.25834.56864 1.3125.52522 1.16495-.048 1.4019-.28494.60417-.60416zm6.8125-.31689c0-.55-.87344-1-1.94098-1s-2.2191.45-2.55902 1c-.35052.56716.48962 1 1.94098 1 1.40746 0 2.55902-.45 2.55902-1zm-19-1.8c0-1.41318-2.34521-3.2-4.2-3.2-2.08269 0-2.31516 1.08484-.6 2.8 1.34614 1.34614 4.8 1.63396 4.8.4zm-22.50245-2.79186c2.23312-2.40958 2.55553-2.48437 4.58422-1.06342 1.92067 1.34529 2.44905 1.35358 4.40929.0692 1.22492-.8026 2.96554-1.17592 3.86804-.8296 3.49077 1.33954 1.4911-2.60026-3.44063-6.77882-3.93694-3.33568-6.21523-6.55796-10.11464-14.30548l-5.0331-10-.003-11.19151c-.003-9.65681.28733-11.6614 2.11463-14.61804 1.16474-1.88458 2.11845-4.2734 2.11936-5.30848.003-3.158 7.32731-12.74634 11.11495-14.55025 1.92658-.91755 4.09359-2.38005 4.81558-3.25.76904-.92674 2.8625-1.58174 5.05534-1.58174 2.2285 0 4.77136-.80915 6.28528-2 2.02335-1.59157 4.05678-2 9.95728-2 6.3362 0 8.20414.43189 12.84227 2.96926 7.24603 3.96409 14.33268 11.5121 16.32898 17.39205 2.14782 6.32626 2.21271 21.88413.0986 23.63869-2.26621 1.88079-1.8159 4 .84996 4 2.8376 0 10.65004-5.44603 10.65004-7.42411 0-.77636 1.07846-3.58604 2.39658-6.24373 1.31812-2.65769 2.71135-7.20196 3.09607-10.09839.47429-3.57081 1.28628-5.58027 2.52214-6.24168 2.33056-1.24728 3.39836-5.89701 3.10612-13.52554-.18646-4.86736.16606-6.49141 1.82398-8.40301 2.50929-2.89323 2.509-2.8583.0551-6.56354-1.53137-2.3123-1.9925-4.71925-2.01161-10.5-.022-6.65077-.36242-7.99827-3.00659-11.90048-2.20189-3.24952-2.98179-5.56312-2.98179-8.84563 0-2.73155-.72156-5.46841-1.87175-7.09952-1.02947-1.4599-3.02306-4.93993-4.43021-7.7334-1.40715-2.79347-4.76774-7.74347-7.46798-11-2.70023-3.25653-5.41796-6.82097-6.03938-7.92097-1.3264-2.34789-1.27182-2.61892-1.71154 8.5-.41952 10.60822-1.96379 19.76952-3.65719 21.69621-.87197.99209-1.92552 2.92879-2.34123 4.30379-.41571 1.375-1.59394 3.57319-2.61828 4.88486s-1.86244 3.14886-1.86244 4.08263c0 2.42011-8.33962 8.80643-17.76666 13.60537-3.20156 1.62979-6.97863 2.34776-15.13045 2.8761l-10.86378.70411-4.99594-4.4371c-2.74777-2.44041-6.16971-4.7317-7.60433-5.09177-1.62493-.40783-2.83655-1.56375-3.21355-3.06583-.33284-1.32615-1.46469-3.18904-2.51523-4.13976-1.05053-.95072-1.91006-2.68869-1.91006-3.86216 0-1.17346-.92842-3.91622-2.06316-6.09501-1.13474-2.17879-2.32535-6.34966-2.6458-9.2686-.47512-4.3277-.21631-5.80412 1.40232-8 1.09173-1.48106 2.78922-4.39217 3.77222-6.46913 2.05954-4.3516 9.53895-11.35168 14.28442-13.36898 1.7875-.75986 3.25-2.11589 3.25-3.0134s-3.20023-4.89705-7.11162-8.88787c-8.09603-8.26045-12.41954-10.12679-21.16432-9.13606-4.99826.56628-16.80094 4.7739-19.51502 6.95705-.71003.57114-3.44362 2.03577-6.07464 3.25474-4.45333 2.06326-13.34765 8.08102-15.6344 10.578-.55.60056-2.90761 3.18463-5.23913 5.74237-2.33151 2.55774-6.97865 7.44694-10.32697 10.86488-3.34831 3.41794-6.421 7.46794-6.82819 9-.48821 1.83689-1.50974 2.8978-2.99948 3.11513-1.67603.2445-2.07716.76073-1.55409 2 1.6967 4.01988 1.63002 6.43374-.24855 8.99725-3.03565 4.14249-4.22715 8.57825-3.34949 12.46967.63144 2.79971.41893 3.79586-1.08438 5.08303-1.02922.88124-1.86972 2.90581-1.86972 4.5037 0 1.65778-.64336 3.14968-1.5 3.47841-2.04271.78386-1.9849 5.63837.0671 5.63837.86194 0 3.08599-1.4625 4.94235-3.25 6.35046-6.11491 11.99014-10.49056 14.4905-11.24272 1.375-.41363 3.08653-1.22203 3.8034-1.79643.71687-.57441 4.09187-1.62387 7.5-2.33214 3.40813-.70828 8.6716-2.01037 11.6966-2.89354 7.03399-2.05362 13.06609-1.37017 19.57276 2.21767 13.35164 7.36221 16.6589 11.03109 20.44194 22.67712 5.8472 18.00049-3.51002 38.17579-19.73165 42.54382-2.30923.62181-4.46916 1.56834-4.79984 2.10339-.7628 1.23424-9.76608 1.27919-11.03321.0551-.5225-.50476-2.975-1.21065-5.45-1.56866l-4.5-.65092-2.17856 4.81865c-2.90593 6.42751-3.6967 14.62672-1.95962 20.31866 1.36034 4.45746 1.41156 4.4969 5.41855 4.17254 3.53966-.28653 4.32958.0572 6.32048 2.75 1.2514 1.6926 3.11213 3.07746 4.13496 3.07746 1.02283 0 2.9023 1.125 4.17661 2.5 1.27431 1.375 2.84278 2.5 3.48549 2.5.64272 0 3.51612 1.2375 6.38533 2.75 3.78108 1.99319 7.4184 2.94655 13.21676 3.46418 16.38405 1.46264 18.92759 1.95128 20.29123 3.89815 1.69077 2.41391 1.83682 2.39206 4.70632-.70419zm-55.81005-34.05397c-1.37384-1.37385-.66124-3.49576 1.0625-3.1638.9625.18536 1.75.96836 1.75 1.73999 0 1.57886-1.76429 2.47201-2.8125 1.42381zm30.82258-14.33786c-.73755-1.19337.19857-3.01631 1.54894-3.01631 1.2168 0 1.22469 2.70662.0101 3.45729-.512.31644-1.21356.11799-1.55902-.44098zm9.60003-6.38363c-.86162-1.0382-.78129-1.66069.33375-2.58609 1.83331-1.52151 3.55614-.54655 3.55614 2.01243 0 2.24306-2.23131 2.57213-3.88989.57366zm86.55656-74.29935c-.99899-.99898-.80348-7.33333.22634-7.33333 1.1557 0 2.10699 2.52014 2.10699 5.58179 0 2.35633-.98737 3.09751-2.33333 1.75154zm-101.13405-2.28054c-.87924-1.42264.24199-3.05279 2.09972-3.05279.87615 0 1.37805.70256 1.19098 1.66713-.38952 2.00847-2.38616 2.84922-3.2907 1.38566zm173.46738 106.50623c0-.79254-.45-1.7191-1-2.05902-.55-.33992-1-.40328-1-.1408 0 .26247-.27314 1.18903-.60699 2.05901-.39831 1.03799-.0545 1.58179 1 1.58179.88385 0 1.60699-.64844 1.60699-1.44098zm4.60699-8.14081c-.33385-.86998-.62067-3.23248-.6374-5.25-.0367-4.42414-1.40863-2.56232-2.27093 3.08179-.50374 3.29716-.32608 3.75 1.4712 3.75 1.45313 0 1.86863-.45732 1.43713-1.58179zm4.39301-15.35919c0-2.16754-.45-4.2191-1-4.55902-.55-.33992-1 .0273-1 .81598 0 .78871-.28125 2.84027-.625 4.55902-.49487 2.47436-.28667 3.125 1 3.125 1.22511 0 1.625-.96982 1.625-3.94098zm-259.69951-34.3997c.28296-.73738.12484-1.97112-.35137-2.74164-1.16692-1.88812-3.45714.31605-2.61329 2.5151.73691 1.92035 2.26974 2.03748 2.96466.22654zm-3.8432-17.72842c-.85723-1.38704-1.45729-1.12841-1.45729.62812 0 .85746.45734 1.27636 1.01631.9309s.75742-1.04702.44098-1.55902z"/>
  <path fill="#aa9490" d="M148.69697 326.30998c-2.97752-.24224-6.34015-1.08937-7.47251-1.88251-1.13236-.79313-2.79802-1.44206-3.70147-1.44206-.90345 0-2.83283-.93621-4.28752-2.08047-3.96632-3.1199-13.33155-7.91953-15.45292-7.91953-1.02624 0-2.83786-.84298-4.02582-1.8733-1.18796-1.03031-3.89838-2.15129-6.02314-2.49105-2.12476-.33976-4.41687-1.28487-5.09356-2.10024-.6767-.81537-2.87264-1.78459-4.87987-2.15383-2.00724-.36924-4.72271-1.50615-6.03438-2.52646-1.31167-1.02032-3.08705-1.85512-3.94528-1.85512-.85823 0-2.79568-1.18345-4.30544-2.6299-1.64165-1.57279-3.37195-2.38932-4.30472-2.03138-2.47125.94831-1.82229 2.73589 1.4403 3.96738 3.46348 1.30732 3.99902 4.24205.95066 5.20956-1.58941.50446-3.35621-.62255-7.87234-5.02162-3.20265-3.11963-8.37992-7.37006-11.50505-9.44539-5.36754-3.56445-27.57327-25.42737-27.57327-27.14758 0-.44093.71571-1.20222 1.59047-1.69176.9541-.53395 1.45424-1.85418 1.25-3.29969-.27082-1.91667-.9363-2.40962-3.25295-2.40962-2.96331 0-4.55223-1.78575-2.64031-2.96738 1.41657-.87548 1.3464-4.53262-.087-4.53262-.62686 0-1.68679.74812-2.35539 1.66248-1.8773 2.56736-4.87906.96462-4.08899-2.18325.50632-2.01734.14309-2.72306-1.87471-3.64244-1.37649-.62717-2.79826-2.08451-3.15949-3.23855-.36123-1.15403-1.49488-3.17143-2.51922-4.4831-1.02431-1.31167-1.86241-3.38848-1.86241-4.61514 0-1.22666-.92572-3.40715-2.05716-4.84554-1.13144-1.43839-2.40209-4.79722-2.82366-7.46405s-1.52084-5.92578-2.44283-7.2421c-.92199-1.31633-1.67635-4.03599-1.67635-6.0437 0-2.0077-.98207-5.84508-2.18237-8.52749-2.09082-4.67251-2.18521-6.21964-2.25-36.87712-.0658-31.14626-.008-32.13012 2.18237-36.87712 1.2375-2.68241 2.25-6.10923 2.25-7.61514s.8348-3.81121 1.85512-5.12288c1.02031-1.31167 2.18232-4.16093 2.58223-6.33168.39992-2.17075 1.59012-5.04393 2.64489-6.38486 1.05477-1.34092 1.91776-3.16629 1.91776-4.05638 0-.89008 1.62137-3.8669 3.60304-6.61514 1.98167-2.74824 4.47767-6.7968 5.54668-8.9968 1.069-2.2 2.78369-5.575 3.81042-7.5 1.02674-1.925 9.21823-10.96357 18.20333-20.0857 11.56094-11.73728 18.85387-18.24153 24.94795-22.25 4.73628-3.11537 9.08225-5.6643 9.65771-5.6643 1.26353 0 11.12718-4.89872 13.23087-6.57103.825-.65582 2.625-1.50484 4-1.88669 1.375-.38186 4.3-1.5217 6.5-2.53299 2.2-1.01129 6.25-2.2919 9-2.84582 2.75-.55391 6.8-1.46987 9-2.03547 2.2-.5656 6.7-1.45126 10-1.96813 3.3-.51688 8.025-1.71229 10.5-2.65647 3.91853-1.49487 7.47197-1.65959 27.5-1.27476 17.96006.3451 23.65738.7761 26 1.9669 1.65.83873 5.79853 1.80449 9.21897 2.14613 3.42043.34165 7.91376 1.52954 9.98519 2.63975 2.07142 1.11022 5.05191 2.01858 6.6233 2.01858 1.5714 0 4.00125.9 5.39967 2 1.39842 1.1 3.9444 2.01407 5.65773 2.03127 1.71333.0172 5.36514 1.13809 8.11514 2.49086s5.50181 2.4637 6.11514 2.46873c.61333.005 2.18833.84724 3.5 1.87158s3.46917 2.20246 4.79445 2.61804c1.32527.41558 4.92527 2.50189 8 4.63625 3.07472 2.13436 6.18461 3.88124 6.91085 3.88196 2.25783.002 22.5432 21.20526 25.83271 27.00131 1.71681 3.025 4.29719 6.59094 5.73416 7.92431 1.43698 1.33338 2.61269 2.8618 2.61269 3.3965 0 1.20502 6.68773 11.36816 8.02421 12.19416.53669.33168.97579 1.43028.97579 2.44132 0 1.01105 1.51336 4.92199 3.36303 8.69099 3.31859 6.76218 5.63697 14.37047 5.63697 18.49904 0 1.16469.90448 3.58109 2.00996 5.3698 1.88889 3.05629 2.01449 5.02193 2.08526 32.63386.0444 17.34038-.33233 30.39975-.91933 31.86585-2.66108 6.64632-4.20228 14.08972-3.98626 19.25209.14248 3.40492-.24396 6.18641-.95881 6.90126-1.72183 1.72183-2.57343.3972-3.18952-4.96121-.71936-6.25664-3.18889-6.44809-4.23363-.32822-.41122 2.40886-1.42789 5.41787-2.25925 6.6867-.83137 1.26883-1.95808 4.29936-2.50381 6.73451-.54573 2.43516-2.74258 7.52614-4.88189 11.3133-2.13931 3.78716-4.20642 7.89824-4.59358 9.13574-.38715 1.2375-1.08869 2.25-1.55898 2.25-.47028 0-1.34535 1.4625-1.94461 3.25-.59925 1.7875-2.77165 5.1779-4.82755 7.53422-6.2517 7.16523-8.238 9.96036-8.238 11.59256 0 2.32611 2.12507.99871 5.5-3.4355 1.65-2.16789 4.9125-5.99867 7.25-8.51286 2.5429-2.73511 4.25-5.53261 4.25-6.96465 0-1.32126.84439-2.8453 1.88497-3.40221 1.03674-.55484 2.17031-2.14567 2.51905-3.53518.64588-2.5734 3.85834-3.52893 5.10151-1.51743 1.03274 1.671-.4406 4.74081-2.53865 5.28946-1.41116.36903-1.96688 1.3724-1.96688 3.55127 0 1.72784-.75434 3.60017-1.75 4.34362-.9625.71868-3.1 3.93792-4.75 7.15386-1.65 3.21595-3.55548 6.0739-4.2344 6.35101-.67891.27711-2.57749 2.85133-4.21906 5.72049-3.75062 6.5554-28.42392 29.56277-31.72982 29.58743-.4492.003-3.74172 2.02561-7.31672 4.49391-3.575 2.4683-7.22681 4.49056-8.11514 4.49391-.88833.003-2.68833.81151-4 1.79591-1.31167.9844-3.50986 2.35222-4.88486 3.03959-1.375.68738-3.625 1.90033-5 2.69544-1.375.79512-3.50162 1.4523-4.72583 1.46041-1.22421.008-3.69921.91306-5.5 2.011-1.80079 1.09795-4.3046 1.99795-5.56401 2-1.25941.002-3.95941.84397-6 1.87093-2.54285 1.27972-7.11799 2.08904-14.54159 2.57233-5.95728.38784-12.93228 1.35609-15.5 2.15169-4.99792 1.54858-20.20949 2.45522-29.08224 1.73336zm113.09308-40.46782c2.57367-2.12121 5.04867-3.85676 5.5-3.85678.45132-.00002 2.1485-1.68752 3.77149-3.75 1.623-2.06248 4.8855-5.47571 7.25-7.58496 4.05003-3.6128 5.55362-6.66501 3.28335-6.66501-.55867 0-4.96921 3.99128-9.80121 8.86952-4.83199 4.87823-9.6624 9.16937-10.73424 9.53587-3.07608 1.0518-8.73794 6.31775-8.02794 7.46656.93405 1.51133 3.45585.35525 8.75855-4.0152zm-72.1351-7.30336c-1.77542-2.13925-3.29258-.88581-1.95437 1.61466.77478 1.44769 1.40702 1.73499 2.16032.98169.7533-.7533.69303-1.51314-.20595-2.59635zm-12.96557-5.16781c2.05613-1.80456 4.36568-1.75993 5.92126.11442 1.73825 2.09446 3.67017 1.86928 4.28975-.5.54826-2.09655 4.11005-2.78017 5.21025-1 .33992.55 2.37564 1 4.52383 1 2.84841 0 4.18821-.52769 4.94898-1.9492.57375-1.07205 3.7534-2.93739 7.0659-4.14519 7.13288-2.60077 7.99611-3.56167 4.42081-4.921-1.46345-.5564-3.42046-1.94975-4.34889-3.09632-1.3298-1.64223-3.16552-2.18645-8.64935-2.56421-9.54175-.65728-15.77592-3.48041-23.46128-10.62439-5.1927-4.82691-7.38408-7.86806-10.89575-15.1209-4.02925-8.32184-4.43556-9.87371-4.8733-18.61298-.4123-8.23129-.1874-10.17114 1.64574-14.19514 1.16782-2.56352 2.12405-5.47313 2.12496-6.46581.002-2.33715 6.90318-12.27245 9.49835-13.67458 1.1-.59431 3.59919-2.10425 5.55375-3.35542 1.95456-1.25117 4.87956-2.27763 6.5-2.28102 1.62044-.003 4.23519-.67839 5.81056-1.5 1.67291-.87249 5.53423-1.49384 9.28324-1.49384 7.97038 0 14.74221 3.15292 21.42049 9.97323 3.91452 3.99778 4.79575 5.65707 5.84979 11.01464 1.88661 9.58943 2.09368 17.62508.50806 19.71585-.74926.98795-1.37659 2.80878-1.39409 4.04628-.0266 1.87934.50359 2.24916 3.2182 2.24488 1.7875-.003 5.05-1.11378 7.25-2.46879 2.2-1.35502 5.2375-2.47772 6.75-2.49488 1.5125-.0172 3.65-.93121 4.75-2.03121s2.64844-2 3.44098-2c2.08773 0 3.05057-2.07456 1.43714-3.09649-1.93064-1.22285-2.51135-1.12742-4.35431.71554-.89048.89047-1.90512 1.33297-2.25476.98333-.34965-.34964-.10322-1.16821.54762-1.81905.65083-.65083 1.19022-3.68083 1.19864-6.73333.0197-7.13015.91891-8.69075 4.04401-7.01825 2.0383 1.09086 2.55927.94476 4.37717-1.2275 1.13493-1.35616 3.49368-3.03311 5.24165-3.72655 1.74798-.69345 3.41219-1.8707 3.69823-2.61612.28604-.74542-1.051-4.31584-2.97121-7.93426-1.9202-3.61843-3.2279-7.00511-2.906-7.52596.32191-.52086 2.47878-1.45324 4.79306-2.07196 7.16509-1.91558 8.69282-4.34145 3.80678-6.04473-3.24393-1.13084-3.65235-2.60681-4.90672-17.73219l-.69228-8.34752-3.90907-1.33933c-2.14999-.73663-4.84999-2.29181-6-3.45595-1.95599-1.98002-1.97799-2.18091-.34093-3.11284.9625-.54792 1.75-1.67888 1.75-2.51325 0-2.08635-4.93333-8.38359-6.5678-8.38359-1.6717 0-5.4529-4.9911-8.71226-11.5-1.37707-2.75-3.49848-5.89894-4.71423-6.99764-1.21576-1.0987-2.85043-3.23519-3.63261-4.74776-1.24738-2.41217-1.22812-3.04623.15672-5.15976 1.74189-2.65847 1.78669-2.60018-4.46161-5.80461-1.88748-.968-3.68748-1.50388-4-1.19086-.31251.31303-.45603 6.04372-.31892 12.73488.35354 17.25313-1.77493 28.66251-6.84015 36.66575-.52214.825-1.62917 2.98123-2.46006 4.79163-1.48173 3.22849-7.12777 9.12127-8.79471 9.17906-.4651.0161-2.12286.93878-3.68393 2.05036-4.15254 2.95687-10.7106 5.07224-16.97044 5.474-3.025.19414-6.85.64351-8.5.99861-2.5377.54614-3.90461-.0585-8.87032-3.92402-3.22868-2.5133-6.47735-4.56964-7.21927-4.56964-1.79426 0-7.98941-9.79014-8.91634-14.09042-.40422-1.87527-1.35575-4.62473-2.11451-6.10992-2.1131-4.13616-1.65506-9.53156 1.33285-15.69999 3.0267-6.24853 11.36769-15.06178 16.11617-17.02867 5.68495-2.35478 5.13585-4.44555-3.32587-12.66375-10.79364-10.48301-13.668-11.78456-25.61768-11.60006-10.72187.16555-11.59215.50317-27.88503 10.81811-4.675 2.95972-10.4125 6.30088-12.75 7.4248-2.3375 1.12392-4.25 2.46961-4.25 2.99042 0 1.96668-8.20958 6.94498-10.50338 6.36927-1.7683-.44381-2.36948-.0525-2.84794 1.85384-.41056 1.6358-1.90548 2.92668-4.62758 3.99595-3.22786 1.26793-4.0211 2.08163-4.0211 4.12479 0 2.74737-2.44921 4.61563-6.05089 4.61563-2.20427 0-2.27957.82475-.4748 5.19991.53856 1.30558-.1503 2.05569-2.96958 3.23367-3.31095 1.3834-3.609 1.81522-3.04024 4.40476.53347 2.42887.0789 3.35538-2.95175 6.01633-1.97028 1.72993-4.41172 3.14533-5.42541 3.14533-1.0137 0-3.38424.64394-5.26788 1.43097-2.20409.92093-3.94067 1.1046-4.87212.51531-1.9232-1.21672-3.94733-1.18917-3.94733.0537 0 .55 1.125 1 2.5 1 3.16286 0 3.1629 1.42348.00016 5.18218-1.78933 2.12649-2.32696 3.65971-1.89159 5.39436.35131 1.39974.16941 2.42346-.43061 2.42346-.57137 0-1.18266-1.0125-1.35841-2.25-.19158-1.34895-1.12048-2.36365-2.31955-2.53378-1.77985-.25255-2 .28828-2 4.9134 0 5.48213 1.0417 6.7212 4.22038 5.02003 2.13569-1.14299 5.27962.22165 5.27962 2.29163 0 .73805-1.125 1.62426-2.5 1.96936-3.0517.76593-3.38801 4.17274-.50232 5.08862 1.09872.34872 2.22372 1.72905 2.5 3.06739.27627 1.33834.75538 3.63598 1.06467 5.10587.30929 1.46988 2.33429 4.29223 4.5 6.27188 4.66152 4.26105 5.20405 6.59026 1.30723 5.61222-1.95547-.49079-3.23846-.089-5 1.56591-4.15646 3.90478-2.43284 8.05467 1.76686 4.25399 1.67319-1.51421 1.87198-1.45215 2.95374.92205.86674 1.90229.87554 3.36102.0348 5.7727-1.68978 4.84731-1.4421 6.11287 1.125 5.74828 1.8882-.26817 2.3009-1.03265 2.56652-4.75425.20674-2.89649 1.1606-5.43783 2.75-7.32673 1.33842-1.59061 2.43348-3.91678 2.43348-5.16927 0-1.25249 1.125-3.49115 2.5-4.9748s2.50819-3.46186 2.5182-4.39602c.0257-2.39677 4.76453-9.10085 9.72107-13.75246 7.82609-7.34462 12.97354-11.446 14.37002-11.44976.76489-.002 2.83452-.88408 4.59919-1.96005 1.76466-1.07597 5.58966-2.25736 8.5-2.62531 2.91033-.36796 6.86652-1.3175 8.79152-2.11009 8.25004-3.39685 17.86394-1.10403 28.3023 6.7498 6.80972 5.12365 9.08398 8.81254 11.23132 18.21745 1.70065 7.44844 1.69986 8.15993-.0192 17.29244-1.64487 8.73851-2.13884 9.89073-5.98675 13.96436-7.56736 8.01127-14.63133 9.85181-32.52751 8.47514l-6.49981-.5-2.84423 5.70426c-2.71241 5.4399-2.84087 6.32041-2.77186 19 .0398 7.31266.53212 14.86777 1.09404 16.78914.56193 1.92137 1.02608 4.84637 1.03145 6.5.0114 3.52225 4.41556 13.5066 5.95779 13.5066.58277 0 1.89991-.52479 2.92698-1.16621 1.52551-.9527 2.37159-.76961 4.62129 1 1.94515 1.53006 4.14677 2.16621 7.4969 2.16621 4.47494 0 9.44934 1.58654 13.1157 4.18312 1.2933.91593 2.16582.73058 4.23954-.9006 2.22174-1.74763 3.57953-1.97616 9.10567-1.53257 3.91647.31437 7.00498.0977 7.78036-.54579 1.01985-.8464 1.20693-.24028.90454 2.93057l-.38124 3.99767 3.52891-.66202c1.9409-.36412 4.25814-.25393 5.14942.24485 2.31019 1.29285 13.74375.31976 15.62311-1.32965zm-9.38489-5.02506c-.35171-.35171-.39562-1.03405-.0976-1.51631.63919-1.03422 2.40372-.14245 2.40372 1.21481 0 1.07509-1.35536 1.25229-2.30615.3015zm15.30615-32.3015c0-1.35726-1.76453-2.24903-2.40372-1.21481-.59765.96702.26831 2.15579 1.57039 2.15579.45833 0 .83333-.42344.83333-.94098zm11.8455-18.50705c.221-1.14002-.13937-1.62085-1-1.33427-.74002.24642-1.50098 1.25007-1.691 2.23033-.221 1.14002.13937 1.62085 1 1.33427.74002-.24642 1.50098-1.25007 1.691-2.23033zm-149.3455-10.55197c0-3.12776-3.06418-3.94851-3.97911-1.06582-.82361 2.59496.18436 4.26923 2.32235 3.85749 1.00962-.19443 1.65676-1.28487 1.65676-2.79167zm144.16228-9.25c-.27741-.6875-.50439-.125-.50439 1.25s.22698 1.9375.50439 1.25c.27741-.6875.27741-1.8125 0-2.5zm-7.89145-.5625c.21771-.65313-.31666-1.1875-1.1875-1.1875-.87083 0-1.58333.7125-1.58333 1.58333 0 1.76593 2.15276 1.45839 2.77083-.39583zm39.22917-4.12848c0-.51754-.45-1.2191-1-1.55902s-1 .0835-1 .94098c0 .85746.45 1.55902 1 1.55902s1-.42344 1-.94098zM38.04061 175.09872c.73818-1.1944-2.08302-3.44577-3.34249-2.66737-.55007.33996-.74664 1.2787-.43682 2.08609.62138 1.61927 2.91935 1.97272 3.77931.58128zm-7.42997-4.16128c0-.4587-.48921-1.13634-1.08713-1.50588-1.38848-.85813-3.34604 1.04396-2.49371 2.42304.70978 1.14846 3.58084.41309 3.58084-.91716zm291.77083-44.13953c-.61807-1.85422-2.77083-2.16176-2.77083-.39583 0 .87083.7125 1.58333 1.58333 1.58333.87084 0 1.40521-.53438 1.1875-1.1875zM55.61064 115.45403c0-2.86236-2.53255-4.34674-4.31722-2.53042-.91359.9298-.64549 1.64279 1.178 3.13278 3.01102 2.46033 3.13922 2.43573 3.13922-.60236zm6.32129-12.32505c.39561-1.97807 1.52596-3.25187 3.67589-4.1424 2.28318-.94572 3.02499-1.8409 2.80371-3.38335-.81179-5.65868-8.24497-.76612-9.31651 6.13218-.52256 3.36406-.35522 4.25.80272 4.25.8091 0 1.71822-1.27659 2.03419-2.85643zm160.17871-28.14357c-.33992-.55-1.06803-1-1.61803-1s-.72189.45-.38197 1c.33992.55 1.06803 1 1.61803 1s.72189-.45.38197-1zm-115.79876 241.3679c-1.40618-1.40617-.64176-2.3679 1.88209-2.3679 1.62198 0 2.42845.46517 2.16714 1.25-.48136 1.44569-3.02046 2.14668-4.04923 1.1179zm-13.22947-4.41357c-.39376-.63712-2.23599-1.79352-4.09385-2.56978-4.46925-1.86738-4.76013-5.38455-.44531-5.38455 1.99014 0 3.12404.60313 3.52826 1.87671.39926 1.25794 1.92788 2.08974 4.63631 2.52284 3.10716.49685 3.9651 1.04515 3.71356 2.37329-.38526 2.03416-6.23041 2.97516-7.33897 1.18149zm216.88986-82.45433c-.81977-2.13626.30347-4.5 2.13837-4.5 2.12021 0 3.00638 2.68493 1.48943 4.51273-1.5749 1.89764-2.89651 1.893-3.6278-.0127zm4.44744-10.01971c-.84705-1.85906-.83583-3.12614.0448-5.05884 1.65166-3.62501 3.59112-2.50501 3.94747 2.27959.37083 4.97915-2.18061 6.75536-3.99224 2.77925z"/>
  <path fill="#a4847b" d="M142.61064 324.48531c-1.375-.79579-4.075-2.13517-6-2.9764-1.925-.84123-5.525-2.84856-8-4.46073-2.475-1.61217-6.3-3.45268-8.5-4.09002s-4.675-1.72364-5.5-2.414c-.825-.69036-3.75-2.03553-6.5-2.98927-2.75-.95375-7.025-2.44035-9.5-3.30356-2.475-.86321-5.175-2.14112-6-2.83979-.825-.69867-2.74937-1.58213-4.27638-1.96325-1.52701-.38111-3.23034-1.54117-3.78518-2.57791-.55484-1.03673-2.04823-1.88497-3.31864-1.88497-1.2704 0-3.12431-.9-4.1198-2-.99549-1.1-2.19023-2-2.65499-2-1.55403 0-.86772 2.53607 1.15499 4.26797 1.1.94185 2 2.36056 2 3.15269 0 .79213.97725 1.58404 2.17167 1.75979 2.68515.39511 3.56638 2.5991 1.37538 3.43987-1.10098.42248-3.00483-.84546-5.94809-3.96138-2.38085-2.52051-7.35504-6.61205-11.05377-9.09232-3.69873-2.48027-11.18451-8.98787-16.63507-14.46135-8.9917-9.02949-11.29485-12.077-9.16012-12.12058.4125-.008 1.35559-.39911 2.09575-.8682 1.92577-1.22047-3.12659-9.11649-5.83329-9.11649-1.64493 0-1.86588-.48292-1.36554-2.9846.72098-3.60492-2.12951-5.44348-4.15177-2.67788-2.12731 2.90926-3.64944 2.00185-2.94458-1.7554.56783-3.02678.37926-3.45589-1.64791-3.75-2.4822-.36013-8.89106-9.84854-8.89852-13.17439-.002-1.01325-.90414-2.98644-2.00414-4.38486-1.18816-1.5105-2-4.05678-2-6.27287 0-2.21609-.81184-4.76237-2-6.27287-1.1-1.39842-2.01975-4.04661-2.04389-5.88486-.0241-1.83825-.74795-5.14227-1.60845-7.34227-2.43932-6.23643-3.3464-18.00164-3.36755-43.67854-.016-19.3962.27295-24.4601 1.59759-28 .8894-2.3768 2.13576-6.8639 2.76969-9.97132.63394-3.10742 1.94011-6.51786 2.90261-7.57874.9625-1.06089 1.75-3.29526 1.75-4.96528s.83138-4.10959 1.84751-5.42126c1.01613-1.31167 2.15245-3.63329 2.52515-5.15915.3727-1.52587 2.2275-4.80473 4.12178-7.28637 1.89428-2.48164 4.30697-6.46264 5.36154-8.84666 1.05456-2.38402 2.41838-4.64421 3.0307-5.02265.61233-.37843 1.11332-1.50162 1.11332-2.49597 0-2.93232 32.41089-35.16291 40.68706-40.46072 3.95288-2.53036 7.44554-5.01888 7.76147-5.53006.31592-.51117 1.85942-1.21164 3.42999-1.5566 1.57057-.34495 5.27791-1.94882 8.23853-3.56415 2.96062-1.61532 6.50795-3.43103 7.88295-4.03491 1.375-.60388 4.36277-1.99578 6.63948-3.09312 2.27672-1.09734 6.10172-2.22181 8.5-2.49883 2.39829-.27701 6.01816-1.12527 8.04416-1.88502 2.02601-.75974 6.75101-1.6843 10.5-2.05457 3.749-.37027 8.5745-1.55605 10.72334-2.63506 3.62917-1.82234 5.62012-1.93468 28-1.57991 20.37416.32297 24.58701.64718 27.29336 2.10041 1.76019.94516 5.36019 1.72125 8 1.72464 2.63981.003 6.14966.73956 7.79966 1.63594 1.65.89637 5.14632 1.99288 7.7696 2.43667 2.62328.4438 5.94647 1.73263 7.38486 2.86407 1.53802 1.20981 4.10435 2.05987 6.2304 2.06375 1.98833.004 4.96514.90066 6.61514 1.99341 1.65 1.09275 3.675 1.99642 4.5 2.00815.825.0117 2.625.67438 4 1.47255 1.375.79816 4.3 2.38185 6.5 3.5193 5.88996 3.04524 8.28086 4.4972 10.24311 6.2205.96629.84862 2.81059 1.86457 4.09845 2.25767 3.63224 1.10869 19.8228 17.31146 24.19244 24.21068 2.15584 3.40386 5.26417 7.72009 6.90739 9.59162 1.64323 1.87153 3.45542 4.48655 4.0271 5.81115.57169 1.32461 2.58277 4.43338 4.46908 6.90838 1.88631 2.475 3.45952 5.45181 3.49604 6.61514.0365 1.16333.8823 3.18833 1.87951 4.5 2.54965 3.35363 6.27221 14.46353 7.64598 22.81924.31056 1.88891 1.32779 4.27765 2.26052 5.3083 1.51151 1.67019 1.69896 5.0474 1.72434 31.06561.0272 27.82474-.0783 29.50156-2.25146 35.80862-1.37733 3.99733-2.31064 9.14393-2.35749 13-.0426 3.5107-.28037 7.17712-.52827 8.14761-.71006 2.77972-2.30674.95762-2.30674-2.63241 0-1.78742-.675-4.12336-1.5-5.19098-1.48484-1.92151-1.51516-1.92151-3 0-.825 1.06762-1.5 3.26451-1.5 4.88197s-.85146 4.34395-1.89213 6.05887c-1.04067 1.71491-2.22093 4.69303-2.6228 6.61803-.77657 3.71983-8.47391 18.88994-11.61182 22.88486-1.03029 1.31167-1.87325 3.01564-1.87325 3.7866 0 1.5483-9.91132 14.32854-11.11206 14.32854-.41424 0-1.0695.99669-1.45613 2.21486-.82654 2.60419-20.98731 22.78514-22.76236 22.78514-.66717 0-3.37489 1.98479-6.01714 4.41064-2.64225 2.42585-5.89495 4.68443-7.2282 5.01905-1.33326.33463-2.42411 1.04984-2.42411 1.58936 0 1.52782 3.61249 1.1528 5-.51905.68469-.825 2.48565-1.5 4.00212-1.5 2.36078 0 11.47514-5.85174 15.49788-9.95018.55-.56035 4.03431-4.0633 7.74291-7.78432 3.70859-3.72103 6.74609-7.08345 6.75-7.47204.004-.3886 1.80148-2.6386 3.99462-5 2.19315-2.36141 3.99315-4.57462 4-4.91826.007-.34365 1.99639-2.69541 4.42118-5.22614 2.4248-2.53074 4.81542-5.82145 5.3125-7.3127 1.14791-3.44371 2.85911-4.04922 3.58616-1.26898.3875 1.48181-.194 2.84982-1.87268 4.40556-1.33908 1.24102-2.43469 2.71062-2.43469 3.26578 0 1.51774-4.99268 10.14613-6.36995 11.0086-.66108.41397-2.88127 3.31598-4.93376 6.44889-7.04324 10.7508-30.3731 29.92264-43.69629 35.90842-6.56047 2.94745-11.05742 5.39646-14.97251 8.15394-1.35987.95778-3.83487 1.75144-5.5 1.76367-1.66512.0122-4.15249.90222-5.52749 1.97776s-3.57571 1.96553-4.89047 1.97776c-1.31476.0122-4.23976.87732-6.5 1.92241-2.73752 1.26578-8.28277 2.24371-16.60953 2.92918-6.875.56596-14.46908 1.73589-16.87573 2.59983-5.9233 2.12638-28.48658 2.17604-32.12427.0707zm98.77106-28.31308c.24358-.73075-.21359-.95424-1.1875-.58051-.87096.33422-1.58356 1.04702-1.58356 1.58401 0 1.31439 2.27278.49134 2.77106-1.0035zm-60.77106-8.74584c0-1.46997-2.13489-1.97276-3.32466-.78299-.90433.90433 1.33682 3.45253 2.43797 2.77198.48768-.3014.88669-1.19645.88669-1.98899zm10.20894.43219c.20659-.61976 2.72573-1.35265 5.5981-1.62865 4.0595-.39007 5.96815-1.1969 8.57104-3.62317 1.84171-1.71674 3.14757-3.68385 2.90191-4.37135-.68716-1.92306-3.65384-1.48228-5.04792.75-1.79078 2.8675-8.72566 2.81476-10.27389-.0781-1.89874-3.54786-.50979-4.9219 4.97525-4.9219 3.89026 0 5.22195-.42182 6.01606-1.90562.56092-1.04809 4.17675-3.14418 8.03518-4.65798 3.85843-1.51381 7.01533-3.34045 7.01533-4.0592 0-1.54997-3.65392-3.70913-4.93599-2.91676-.49207.30411-2.23523-.57508-3.87369-1.95375-2.34749-1.97528-4.11441-2.51533-8.33468-2.54747-13.51875-.10293-27.42444-9.85144-34.22962-23.9965-5.09554-10.59145-6.92453-18.1437-6.13848-25.34685.35317-3.23627 1.23312-6.83627 1.95544-8 .72233-1.16373 1.59593-3.64846 1.94133-5.52163.93619-5.07718 7.29424-14.06198 11.06613-15.63798 1.76483-.73739 3.7433-1.98478 4.39661-2.77197.65331-.78719 3.50036-1.73802 6.32678-2.11296 2.82641-.37494 6.36702-1.31677 7.86801-2.09297 3.3574-1.73617 11.55497-.97423 17.71711 1.64675 2.34242.99632 6.43179 3.84392 9.08747 6.32801 4.02761 3.76735 5.04559 5.47279 6.13718 10.2817 1.93126 8.50798 2.13458 18.32489.43453 20.98-2.01748 3.15087-1.76026 6.04182.60434 6.79231 2.6563.84308 8.03494-.33952 10.19149-2.2408.94268-.83109 3.7373-1.88908 6.21027-2.35108 5.3037-.99083 12.57577-5.30035 12.57577-7.45255 0-.83171-1.16158-1.95383-2.58128-2.4936-2.99006-1.13682-2.75464-3.32304.40796-3.78843 1.29704-.19087 2.40825-1.26852 2.7622-2.67878.3257-1.29769 3.26752-4.68638 6.53738-7.53041 6.55975-5.7055 6.67793-6.39123 2.23255-12.95361-3.44367-5.08364-3.05104-6.64407 2.32713-9.24858 6.97806-3.37931 7.59957-5.12443 3.22273-9.04903-1.97524-1.77114-4.11274-4.47893-4.75-6.01731-1.62141-3.91412-1.44723-11.93917.30953-14.26182 2.32213-3.07013 1.85439-4.07109-3.41844-7.31549l-4.95024-3.04592.20024-7.65418c.18313-7.00013.0009-7.79396-2.13261-9.28986-2.26364-1.58716-12.04626-9.71683-15.25104-12.67411-.87114-.80386-2.04795-1.46157-2.61514-1.46157-.56719 0-2.22705-.94061-3.68858-2.09026-2.43157-1.91266-2.60239-2.50439-2.01069-6.96486.61936-4.66899.5254-4.92699-2.22753-6.11649-1.58079-.68303-4.7979-2.96846-7.14912-5.07873-6.07749-5.45466-8.47999-3.1343-4.09723 3.95716 1.99881 3.23415 2.09971 4.42356 1.6642 19.61803-.39693 13.84849-.77492 16.85051-2.62782 20.87029-1.19031 2.58232-2.1642 5.10913-2.1642 5.61514 0 .506-.8721 2.0287-1.93801 3.38378-1.06591 1.35508-2.22433 3.60459-2.57429 4.99891-.60412 2.40702-3.39539 4.86139-11.63458 10.23036-4.64851 3.02914-6.38788 3.55875-15.1642 4.61731-3.95391.4769-8.6892 1.16948-10.52287 1.53905-2.9547.59552-3.80784.21627-7.5-3.33401-2.29133-2.20328-5.49663-4.42843-7.12289-4.94477-4.38289-1.39158-8.65566-9.20118-12.83515-23.45961-.96448-3.29036-.73378-4.34666 2.29157-10.492 3.58387-7.27988 10.26627-14.57962 16.32193-17.82981 6.1672-3.31006 5.84631-4.86751-2.68882-13.05024-10.80013-10.35421-14.89552-12.40872-26.21766-13.15245-8.23729-.54108-9.69534-.3658-14.05295 1.68938-2.67415 1.2612-6.21208 3.26437-7.86208 4.45148-7.33107 5.27442-20.62583 12.54234-22.94292 12.54234-1.49685 0-3.05701.85023-3.79861 2.0701-.69216 1.13856-3.59295 3.18298-6.44621 4.54317-4.13357 1.97053-5.2512 3.02311-5.5 5.1799-.26204 2.27153-.7947 2.70683-3.31226 2.70683-2.85501 0-3-.20208-3-4.18129 0-3.6336-.19648-4.00931-1.5-2.86828-.825.72215-2.61442 1.65391-3.97648 2.07056-1.36207.41665-3.90472 1.69378-5.65033 2.83805-2.63117 1.72478-3.28632 2.92846-3.83171 7.03981-.62166 4.68628-.48951 5.09107 2.40032 7.35271 1.68201 1.31637 3.0582 3.03578 3.0582 3.82092 0 2.14746-3.77569 1.71516-5-.57248-1.29406-2.41797-2.81042-2.52152-5.84094-.39885-2.00535 1.4046-2.11271 1.80355-.87462 3.25 2.59934 3.03676 2.6851 3.87795.63621 6.24034-1.87437 2.16117-1.90506 2.44674-.38261 3.55999 1.43762 1.0512 1.12345 1.36966-2.38962 2.4222-3.17335.95076-4.67897.9492-6.98799-.007-4.76286-1.97284-9.35288 1.83692-7.15684 5.94025 1.57554 2.94393 1.17639 4.15796-1.25359 3.81285-1.70962-.2428-2.32373-1.07965-2.55701-3.48444-.39897-4.11283-2.92845-5.16109-4.225-1.75091-.5324 1.4003-.96799 3.16515-.96799 3.92188 0 .75674-.45 1.654-1 1.99392-1.72541 1.06636-1.0967 2.51274 1.52563 3.50974 1.38909.52814 2.79034 1.65008 3.11388 2.49321.75038 1.95547-1.25709 6.84099-3.73089 9.07974-2.62653 2.37698-2.38962 4.25848.63167 5.01678 1.72848.43382 3.16657.0708 4.5-1.13594 1.90609-1.72498 1.95971-1.68899 1.95971 1.31506 0 2.6224.41328 3.13632 2.73816 3.40499 2.27497.26289 2.83446.91423 3.30747 3.85039.31311 1.94368.9075 4.08118 1.32085 4.75.99932 1.61692.14721 1.53303-3.47982-.34258-3.91768-2.02591-9.25396-1.55518-9.71105.85665-.52895 2.791 1.66255 4.85894 3.88741 3.66823 1.45332-.77779 2.08535-.55756 2.93018 1.02102.76125 1.42242 2.09333 2.01271 4.54198 2.01271 3.98784 0 4.24323.74069 1.4707 4.26539-2.59539 3.29951-2.93651 6.6717-.81442 8.05107 1.30409.84766 2.1237.7083 3.57874-.6085 2.58027-2.33511 3.2298-2.15209 3.2298.91002 0 2.92938-4.96378 9.22743-6.79221 8.61795-.6485-.21617-1.70271.75619-2.34269 2.16079-1.00657 2.2092-.80131 3.10128 1.52107 6.61064 1.81814 2.74739 3.64573 4.24902 5.66222 4.65232 3.60987.72197 4.44011 3.21103 3.08411 9.24613-1.13152 5.03603-.55179 7.32281 1.74333 6.87663 2.21742-.43108 2.48657-12.46666.33538-14.9974-.82197-.96699-1.2465-2.82009-.97338-4.24882.26641-1.39363-.11381-3.3219-.84492-4.28504-2.00999-2.64789-1.67125-4.00925 1.35709-5.45408 2.30445-1.09947 2.80128-2.0399 3.06653-5.80457.1851-2.62712 1.08857-5.32298 2.17587-6.49253 1.02264-1.1 2.17676-3.35 2.56471-5s1.48725-3.9 2.44289-5c.95564-1.1 2.04876-3.31165 2.42917-4.91478.38041-1.60313 1.67697-4.19717 2.88124-5.76453 6.43795-8.37921 19.64827-19.82092 22.88448-19.82092 1.09431 0 3.13382-.9 4.53224-2 1.51177-1.18916 4.05678-2 6.27746-2 2.05417 0 6.55211-.9 9.99541-2 7.97046-2.54625 8.82851-2.51844 16.04788.52015 6.9846 2.93978 14.51053 8.41317 17.69201 12.8669 3.37807 4.72892 5.92485 18.67848 4.43032 24.26635-.64361 2.40642-1.17021 5.74843-1.17021 7.42669 0 3.7543-1.0938 5.87179-5.26299 10.18858-4.60113 4.76404-6.07842 5.72886-11.07362 7.23219-3.75576 1.13032-4.8481 1.11595-7.18122-.0945-1.77346-.92008-3.15711-1.09111-3.89212-.4811-1.45099 1.20421-10.27177 1.6295-13.7103.66104-2.46151-.69329-2.80792-.33696-5.718 5.88173-2.92973 6.2607-3.1046 7.31929-3.22416 19.51856-.0695 7.09436.13526 13.32226.4551 13.83977.31984.51751 1.03802 4.15961 1.59595 8.09355.55794 3.93394 2.11819 9.33078 3.46722 11.99298 2.35139 4.64023 2.63042 4.84205 6.74847 4.88116 2.36262.0224 7.53256.45942 11.48876.97107 6.43953.83282 8.35217 1.61679 13.88864 5.69283.8937.65796 1.94891.37179 3.36945-.91378 1.82782-1.65416 2.36491-1.71297 4.62025-.50595 2.01666 1.07928 2.95574 1.11364 4.47671.16378 4.26776-2.66526 8.12634-.51251 4.21185 2.34983-1.60105 1.17072-1.52742 1.36919.92205 2.48524 1.99541.90917 3.45534.93638 5.82976.10865 2.52267-.87941 3.77517-.79013 6.15094.43843 2.07095 1.07093 3.95478 1.30469 6.16025.76442 1.74736-.42805 4.5625-.65519 6.25587-.50475 1.85148.16448 3.59454-.34784 4.37244-1.28515 1.7292-2.08356 3.37187-1.96406 5.51223.40103 1.21154 1.33873 1.57021 2.76971 1.13193 4.51598-.52871 2.10654-.1977 2.72504 1.88148 3.51554 1.38768.5276 2.52306 1.64541 2.52306 2.48402 0 1.76599 1.65363 2.06387 2.20894.39792zM65.61064 102.98541c0-1.11111.66667-2 1.5-2s1.5.88889 1.5 2-.66667 2-1.5 2-1.5-.88889-1.5-2zm69.36163 181.5c-.61925-1.61373-3.90165-2.05328-4.77543-.63948-.78738 1.27402.44603 2.13948 3.04908 2.13948 1.63534 0 2.13526-.43438 1.72635-1.5zm-17.36163-3.5c0-2.76698-.27429-3-3.53138-3-2.22974 0-3.74536.55759-4.11188 1.51273-.86558 2.25566 1.50451 4.48727 4.7657 4.48727 2.53062 0 2.87756-.3617 2.87756-3zm107.18358-2.75c.33303-2.89433 1.24083-3.11124 7.06642-1.68847 3.54182.86501 3.72552-1.24014.22437-2.57127-1.38909-.52814-2.78723-1.642-3.10698-2.47525-.40839-1.06423-2.01969-1.51501-5.41536-1.51501-5.61194 0-7.19889 1.57194-4.11114 4.07224 1.20625.97677 2.15911 2.89123 2.15911 4.33805 0 3.54328 2.7735 3.40363 3.18358-.16029zm-117.18358-5.25c0-1.1-.45-2-1-2s-1 .9-1 2 .45 2 1 2 1-.9 1-2zm128.36514-7.07258c3.10023-2.43864 3.38289-3.92742.74564-3.92742-2.5887 0-6.60048 3.39864-5.71087 4.83805 1.00978 1.63386 1.94956 1.4615 4.96523-.91063zm-173.36514-7.92742c0-.55-.45-1-1-1s-1 .45-1 1 .45 1 1 1 1-.45 1-1zm121.5-21.89101c0-.76506-.77511-1.87995-1.72248-2.47753-2.16147-1.36342-4.33764.46651-3.41477 2.87146.76076 1.98251 5.13725 1.64691 5.13725-.39393zm11.05385.80388c.36954-.59793.15236-1.60666-.48262-2.24164-.87268-.87268-1.37235-.80204-2.04689.28938-.95311 1.54218-.4725 3.03939.97566 3.03939.48508 0 1.18431-.48921 1.55385-1.08713zm25.94615-9.91287c-.33992-.55-.81648-1-1.05902-1-.24254 0-.44098.45-.44098 1s.47656 1 1.05902 1c.58246 0 .7809-.45.44098-1zm-26.10699-6.58179c.33385-.86998.60699-2.70298.60699-4.07332 0-3.2885-2.56756-2.78765-4.81842.93991-1.48181 2.45397-1.50338 2.89765-.18158 3.73469 2.20154 1.39414 3.70633 1.18818 4.39301-.60128zm-11.42819-2.35247c1.6889-3.15575 1.27086-4.58901-.79356-2.72073-1.00581.91025-2.55425 1.65499-3.44098 1.65499-1.81264 0-3.00955 1.3874-2.03643 2.36052 1.35849 1.35849 5.28484.54781 6.27097-1.29478zm35.53518-3.06574c.33992-.55-.0835-1-.94098-1-.85746 0-1.55902.45-1.55902 1s.42344 1 .94098 1c.51754 0 1.2191-.45 1.55902-1zm-129.91821-9c.23001 0 .41821-.45.41821-1s-.52707-1-1.17126-1c-.64419 0-2.00135-.75122-3.0159-1.66938-1.72834-1.56412-1.93399-1.54836-3.26163.25-1.24658 1.68855-1.2146 1.96112.2659 2.26644.92559.19089 2.12022.76322 2.65475 1.27186.53452.50863 1.58382.68996 2.33178.40294.74797-.28703 1.54813-.52186 1.77815-.52186zm104.41821-.0714c0-.58928-.675-1.74643-1.5-2.57143s-1.5-3.04285-1.5-4.92857c0-3.54332-.79783-4.23074-2.70118-2.32739-.68519.68519-.80225 2.14345-.30989 3.86022 1.26673 4.41684 6.01107 9.12653 6.01107 5.96717zm-100-6.36955c0-.79254-.45-1.7191-1-2.05902-.55-.33992-1 .30852-1 1.44098s.45 2.05902 1 2.05902 1-.64844 1-1.44098zm88.39301-1.14081c1.05242-2.74255.67824-3.41821-1.89301-3.41821-1.75758 0-2.5.54444-2.5 1.83333 0 3.32451 3.27241 4.50511 4.39301 1.58488zm-78.67837-3.0369c-.95892-.95892-3.8104 1.65472-3.08531 2.82796.36126.58453 1.24428.34569 2.17947-.5895.86468-.86468 1.27231-1.87199.90584-2.23846zm103.77528.60238c-.34546-.55897-1.04702-.75742-1.55902-.44098-1.38704.85723-1.12841 1.45729.62812 1.45729.85746 0 1.27636-.45734.9309-1.01631zm14.51008-2.28369c0-1.44095-1.95378-3.7-3.2-3.7-.96627 0-1.07076 3.39591-.13333 4.33333 1.14485 1.14486 3.33333.72905 3.33333-.63333zm-113.44615-.78713c.36954-.59793.15236-1.60666-.48262-2.24164-.87268-.87268-1.38472-.79038-2.09756.33713-.51867.8204-.94994 1.82914-.95836 2.24164-.0236 1.15507 2.78148.88782 3.53854-.33713zm-75.55385-5.91287c0-.55-.47656-1-1.05902-1-.58246 0-.7809.45-.44098 1 .33992.55.81648 1 1.05902 1 .24254 0 .44098-.45.44098-1zm-10-2.9678c0-1.42558-4.09287-2.33933-5.25828-1.17392-1.76933 1.76933 1.02779 4.33544 3.36329 3.08552 1.04224-.55779 1.89499-1.41801 1.89499-1.9116zm93-.60552c0-.93124-.68037-1.44138-1.66713-1.25-2.50877.48655-2.85325 2.82332-.4162 2.82332 1.22833 0 2.08333-.64569 2.08333-1.57332zm207.78761-56.56237c.36522-1.89642-2.68819-3.36376-4.08761-1.96434-1.44505 1.44505.0387 4.29697 2.03549 3.91242.95785-.18446 1.8813-1.0611 2.05212-1.94808zm-278.73488-9.50303c.55177-1.45128.80418-2.83774.56089-3.08102-1.0027-1.0027-4.61362 1.93612-4.61362 3.75489 0 2.88178 2.88314 2.40238 4.05273-.67387zm170.94727-55.36131c0-2.53333-.38889-3-2.5-3-2.73663 0-3.45341 2.64659-1.3 4.8 2.13443 2.13443 3.8 1.34547 3.8-1.8zM93.74176 311.6434c-1.39169-1.67688-.47755-2.65799 2.47653-2.65799 2.77056 0 4.16238 1.89817 2.27047 3.09649-1.96489 1.24454-3.46522 1.10595-4.747-.4385zm-7.19437-4.23421c-1.08413-1.30629-1.06229-1.73178.12755-2.48468.78964-.49966 1.7181-.91537 2.06326-.92379 1.23681-.0302 3.03179 2.91784 2.39951 3.94089-.94234 1.52474-3.08974 1.27567-4.59032-.53242zm219.24683-71.17378c.18693-1.62459.92468-2.75 1.80272-2.75 1.94322 0 2.59961 3.51375.86209 4.61486-2.30874 1.46312-2.99267.9845-2.66481-1.86486zm4.81642-8.16667c0-1.22833.64569-2.08333 1.57332-2.08333.93124 0 1.44138.68037 1.25 1.66713-.48655 2.50877-2.82332 2.85325-2.82332.4162zm4.45766-8.33306c-.8844-2.30472-.16499-6.02536 1.25546-6.49298 2.00303-.65941 2.78457 4.6736.95327 6.50489-1.4572 1.4572-1.64536 1.45619-2.20873-.0119z"/>
  <path fill="#8d7370" d="M142.51896 323.88488c-1.87457-.9986-4.00084-1.8345-4.72504-1.85755-.7242-.0231-2.79167-1.16692-4.59439-2.54192-1.80272-1.375-3.6852-2.51001-4.18328-2.52224-.49809-.0122-2.03061-.90222-3.40561-1.97776s-3.22048-1.96553-4.10106-1.97776c-.88058-.0122-3.7169-1.14724-6.30292-2.52224-2.58601-1.375-5.46554-2.50297-6.39893-2.50659-.9334-.004-3.04709-.90066-4.69709-1.99341-1.65-1.09275-3.59085-1.98979-4.31301-1.99341-1.91763-.01-13.87427-5.92486-15.19654-7.51809-.62075-.74797-2.40996-1.64137-3.97601-1.98533-1.56605-.34396-3.09583-1.27289-3.39952-2.06428-.65904-1.71743-3.21143-1.90078-4.19972-.30168-.38986.6308.29874 1.89271 1.54632 2.83376 1.27928.96497 2.09593 2.48805 1.89382 3.53207-.302 1.55997-.95582 1.26836-4.35534-1.94252-2.2-2.07791-6.475-5.40257-9.5-7.38811-6.11833-4.01595-24-21.78769-24-23.85247 0-.72596.64844-1.31994 1.44098-1.31994.79254 0 1.69998-.41906 2.01653-.93124.81435-1.31766-4.20776-8.42164-6.5774-9.30401-1.08601-.40438-1.89999-1.30438-1.80885-2 .46233-3.52871-.17693-4.76475-2.46427-4.76475-1.31616 0-2.66298.70352-2.99294 1.56338-.32996.85986-1.05432 1.28255-1.60969.93931-.67415-.41664-.65494-1.28707.0578-2.61882 1.4817-2.76858.71805-4.33659-2.12448-4.36218-1.76087-.0159-3.01356-1.09924-4.65015-4.02169-3.17906-5.67681-4.28753-8.36817-4.28753-10.41011 0-.97895-.9-2.5944-2-3.58989-1.35489-1.22616-2-3.07997-2-5.74726 0-2.42309-.76916-4.91511-2-6.47987-1.22937-1.56289-2-4.05678-2-6.47235 0-2.16137-1.00194-6.25882-2.22652-9.10545-2.14094-4.97673-2.22743-6.36776-2.25-36.18538-.0227-29.98191.0511-31.18155 2.22652-36.19507 1.2375-2.85196 2.25-6.50377 2.25-8.11514s.83113-4.00295 1.84696-5.31462c1.01582-1.31167 2.12159-4.12817 2.45725-6.25889.33567-2.13071 1.25131-4.60571 2.03477-5.5.78345-.89428 1.76595-2.74227 2.18334-4.10663.74702-2.4419 3.34897-6.59229 6.59477-10.51934.90917-1.1 1.98148-3.125 2.38291-4.5.40143-1.375 1.51909-3.4 2.4837-4.5.9646-1.1 2.03487-3.125 2.37838-4.5.72246-2.89186 29.83248-32.69407 37.34189-38.22981 2.78278-2.05139 6.2378-4.17775 7.67782-4.72525 1.44001-.54749 2.61821-1.448 2.61821-2.00114 0-.55313 1.2375-1.30604 2.75-1.67313 3.13274-.76032 11.45883-4.84039 15.40437-7.54867 1.4599-1.0021 3.43179-1.822 4.38197-1.822.95017 0 3.13071-.85286 4.84563-1.89524 1.71491-1.04238 5.54926-2.21906 8.52077-2.61484 2.9715-.39579 6.7965-1.28933 8.5-1.98566 1.70349-.69633 6.24631-1.59242 10.09515-1.9913 3.84884-.39888 8.77623-1.63248 10.94976-2.74133 3.70772-1.89154 5.37588-1.98881 27.00211-1.57444 19.05224.36505 23.60533.73315 26.25058 2.12223 1.82417.95792 5.47923 1.68219 8.5 1.68432 3.52129.002 6.39239.66999 8.55609 1.98921 1.79103 1.09201 5.16603 2.26015 7.5 2.59586 2.33396.33572 5.46285 1.46557 6.95308 2.51079 1.49023 1.04522 4.10559 1.9004 5.81192 1.9004 2.67868 0 10.33221 2.86994 16.28852 6.1079.99547.54116 4.82047 2.60262 8.5 4.58101 3.67953 1.9784 7.76324 4.43274 9.07491 5.45409 1.31167 1.02135 3.05838 1.857 3.88158 1.857 2.05667 0 20.15433 18.66954 23.23356 23.96774 1.375 2.36586 4.1288 6.15347 6.11955 8.41691 1.99075 2.26344 3.96028 5.24035 4.37672 6.61535.41644 1.375 1.37277 3.175 2.12519 4 3.97818 4.36198 6.37895 7.98981 6.38228 9.64436.002 1.0206.9173 3.35409 2.03388 5.18553 2.61654 4.29169 6.96238 17.23014 6.96238 20.72839 0 1.48811.97767 4.28755 2.17259 6.22098 2.09906 3.39634 2.17334 4.5058 2.19487 32.78077.0159 20.86676-.31273 29.6691-1.14508 30.67202-1.67264 2.01541-4.37903 14.40602-4.19392 19.20093.23745 6.15058.088 7.0856-.96163 6.01702-.51325-.5225-1.07575-2.74626-1.25-4.94168-.23541-2.96592-.79999-4.08335-2.197-4.3484-2.32798-.44166-3.58334 1.41622-3.60826 5.34008-.0105 1.65-.86513 4.38749-1.89924 6.08332-1.03411 1.69582-2.21462 4.62082-2.62335 6.5-.8921 4.10153-10.05458 22.31127-12.06628 23.98084-.78249.6494-1.4227 2.00134-1.4227 3.00431 0 1.00298-2.925 5.16407-6.5 9.24687-3.575 4.08281-6.5 7.86238-6.5 8.39905 0 1.31124-20.80471 21.13589-25.4862 24.28561-2.04369 1.375-4.57035 3.2875-5.6148 4.25-1.04445.9625-2.51331 1.75-3.26414 1.75-.75083 0-2.49787.891-3.88231 1.98001-1.38444 1.089-3.69513 2.42786-5.13486 2.97524-2.71707 1.03303-3.54873 2.9565-1.36769 3.16323 2.40337.22781 4.26211-.30979 5.79157-1.67509.84786-.75686 4.66018-2.54995 8.47181-3.98465 3.81163-1.43469 8.83104-4.26233 11.15426-6.28364 7.9601-6.92568 19.24597-18.67718 25.37807-26.4251 3.37355-4.2625 6.51304-7.75 6.97663-7.75.46358 0 1.12853-.9 1.47766-2 .62448-1.96755 3.5-2.86495 3.5-1.09229 0 1.46722-5.21592 11.09229-6.01102 11.09229-.39989 0-2.40639 2.67841-4.4589 5.95202-4.61602 7.36225-29.27407 30.04798-32.66037 30.04798-.52288 0-2.39497.98317-4.1602 2.18483-7.63157 5.1951-8.70151 5.81517-10.03416 5.81517-.7731 0-2.51433.8721-3.86941 1.93801-1.35508 1.06591-3.63265 2.23138-5.06127 2.58994-1.42861.35856-3.37534 1.51145-4.32606 2.56199-.98834 1.09209-3.05399 1.91288-4.8236 1.91665-1.70225.004-4.44501.90066-6.09501 1.99341-1.65 1.09275-4.13166 1.98979-5.51481 1.99341-1.38314.004-4.08314.84393-6 1.86735-2.47117 1.31936-6.80715 2.07442-14.90275 2.59514-6.55793.42182-14.00642 1.56164-17.5 2.67799-8.26253 2.64022-27.53741 2.50193-32.67412-.23442zm66.06272-25.86041c.80907-.51167 1.16598-1.23537.79313-1.60823-.9151-.91509-3.76417.24885-3.76417 1.53779 0 1.2701 1.03529 1.29465 2.97104.0704zm-16.56422-7.52383c.80119-3.19221 4.35417-4.10116 9.29007-2.37667 5.17447 1.80785 5.62623 1.72875 6.2945-1.10209.36167-1.53204 1.51304-2.68935 3.04508-3.06079 2.08874-.50641 2.41415-1.09453 2.13894-3.8658-.2898-2.91816-.0764-3.23323 1.99063-2.93921 1.35569.19284 2.87083 1.49211 3.65582 3.13496.73733 1.5431 2.42905 3.21947 3.75937 3.72525 1.33032.50579 2.41877 1.61433 2.41877 2.46342 0 1.17742.65265 1.38723 2.75.88408 3.93358-.94367 3.99317-1.21067.83264-3.73078-2.21076-1.76281-2.68179-2.75986-2.12803-4.50459.63785-2.00967 1.1544-2.17423 5.01005-1.59604 6.03268.90466 7.06294-1.65318 1.78534-4.43245-1.2375-.65169-2.25-1.58607-2.25-2.0764 0-.49033 2.49842-2.03532 5.55204-3.43331 5.02043-2.29843 5.44794-2.73633 4.46482-4.57331-.65032-1.21513-2.09769-2.0315-3.6017-2.0315-3.17923 0-7.99028 2.45039-8.76259 4.46301-.93671 2.44102-4.58038 1.85706-5.62945-.90221-1.09206-2.87233-3.86788-4.5608-7.49787-4.5608-1.43343 0-3.83793-.91063-5.34333-2.02362-1.76571-1.30545-5.38899-2.33691-10.2095-2.90641-4.10983-.48553-9.43501-1.59762-11.83374-2.4713-5.30614-1.93263-17.8091-13.82163-18.67331-17.75635-.32666-1.48727-1.16585-3.17878-1.86487-3.75891-.69901-.58013-1.82558-2.97372-2.50348-5.3191-.6779-2.34537-1.65205-5.64626-2.16478-7.33531-1.4205-4.67942-1.14089-16.16636.45552-18.71418.76327-1.21815 1.67848-3.87473 2.03381-5.9035.89639-5.11805 7.11856-14.37819 10.6417-15.83753 1.58756-.65759 3.86664-2.0457 5.06461-3.0847 1.19798-1.039 3.47374-1.88909 5.05725-1.88909s4.49461-.675 6.46911-1.5c9.24474-3.8627 23.40715.27774 30.63467 8.95617 5.02732 6.03655 7.54676 21.88158 4.71734 29.66785-.7243 1.99321-1.03614 4.35571-.69297 5.25.93622 2.43974 6.63286 2.02794 12.0907-.87402 2.58601-1.375 5.83541-2.5 7.22086-2.5 6.45044 0 13.79749-7.11787 15.75594-15.26446.36552-1.52045 2.94164-5.27886 5.7247-8.35202 5.51571-6.09064 5.80105-8.14431 1.83253-13.18946-2.88215-3.66405-2.35054-5.40542 2.55957-8.3844 5.34082-3.24029 6.59025-6.61206 3.86266-10.424-6.78373-9.48057-7.92175-14.27921-4.36024-18.38566 3.36773-3.88302 2.42256-7.23111-2.73182-9.67703-4.36502-2.07134-6.26818-6.31055-6.26818-13.96211 0-6.13142-1.78347-9.36086-5.16957-9.36086-2.1743 0-20.18579-16.46964-20.63652-18.86995-.89855-4.78511-2.82817-7.21469-8.74946-11.01644-3.52386-2.26248-7.07461-4.11361-7.89055-4.11361-2.18984 0-3.5539-3.26157-3.5539-8.49762 0-4.61795-.008-4.62834-3.24181-4.31574-4.61323.44592-4.55541 2.79071.19442 7.88445 2.22607 2.38723 4.04739 5.042 4.04739 5.89948 0 .85748.87247 3.18689 1.93883 5.17648 4.02101 7.50233 3.67943 34.60834-.53798 42.69163-.76369 1.46372-1.3913 3.36139-1.39469 4.21704-.003.85565-1.13116 3.08057-2.50616 4.94428-1.375 1.86371-2.5 3.90082-2.5 4.52692 0 1.18149-4.53132 4.99784-11.59879 9.76866-4.08943 2.76053-15.21256 5.37453-18.12086 4.25851-.77387-.29697-2.70619.13188-4.29404.95299-4.34154 2.2451-5.95142 1.85999-9.88992-2.36582-1.97801-2.12231-5.28389-4.40721-7.34639-5.07755-2.0625-.67035-3.75-1.57112-3.75-2.00172 0-.43059-1.14662-2.47253-2.54804-4.53764-1.40142-2.06511-2.81569-5.16541-3.14282-6.88955-.32713-1.72414-1.25051-4.43697-2.05196-6.02852-2.03719-4.04552-1.81613-8.57065.64282-13.15852 1.155-2.15498 2.11873-4.37481 2.14163-4.93295.0797-1.9421 6.49852-8.22833 12.70837-12.44578 3.87557-2.63211 6.25-4.94584 6.25-6.09022 0-3.17549-12.54263-14.80674-20.72088-19.21526-4.1456-2.23469-16.43617-4.14427-21.07388-3.27423-3.97272.74529-10.68986 3.94296-17.35421 8.26142-5.3609 3.47384-16.90586 8.68529-22.58274 10.19397-2.32744.61854-5.47744 2.41488-7 3.99187-1.52256 1.57699-3.78079 3.16672-5.01829 3.53273-1.98219.58626-2.25.3074-2.25-2.34291 0-4.59397-1.71013-4.6879-5.78935-.31796-4.26109 4.56477-12.46452 9.19944-15.07489 8.51681-.97651-.25536-2.35722.23666-3.06824 1.09339-1.07408 1.29419-1.01997 1.66238.31986 2.17652 1.9194.73654 2.17975 4.40484.31262 4.40484-.715 0-1.80975-.50975-2.43278-1.13278-1.61868-1.61868-4.26722-.29904-4.26722 2.12615 0 1.27307.9521 2.41812 2.5 3.00663 4.04026 1.5361 3.18011 4-1.39641 4-3.20833 0-4.44447.62421-7 3.5348-2.12665 2.42212-3.10359 4.57069-3.10359 6.82568 0 3.97219-3.88115 8.16537-6.84127 7.39128-2.83164-.74049-3.68484.11674-6.53734 6.56828l-2.57328 5.82004 2.47594 2.29463c3.38695 3.13891 3.65178 2.3516-3.51973 10.4636-1.65238 1.86908-3.00432 3.69158-3.00432 4.05 0 1.61637 2.68091 3.05169 5.7 3.05169 4.1964 0 8.02897 3.41672 6.24447 5.56691-.65415.7882-2.08672 1.43309-3.18349 1.43309-1.65986 0-1.88965.46097-1.3708 2.75 1.68796 7.44681 1.80345 9.31177.66183 10.68733-.89865 1.08281-1.84234 1.21268-3.69457.50847-1.3682-.52019-2.87802-.9458-3.35515-.9458-1.63206 0-2.1479 4.02876-.97203 7.59168 1.11523 3.37919 1.24489 3.4605 2.54904 1.59857 2.1148-3.0193 6.27306-3.66516 8.80112-1.367 1.16577 1.05975 3.13208 2.44889 4.36958 3.08697 1.2375.63808 2.25 1.86256 2.25 2.72106 0 3.41597-3.21993 12.36872-4.44851 12.36872-.71863 0-1.86493.67275-2.54734 1.49499-.99985 1.20476-.92208 1.98133.40061 4 1.88186 2.87208 4.17632 3.1941 6.67116.9363 1.4884-1.34698 2.32696-1.39087 5.93283-.31052 5.06471 1.51742 5.57317 2.55073 3.59034 7.29632-2.19345 5.24965-.32675 10.94237 3.74078 11.408l2.83987.3251-.50678-8.48558c-.27873-4.66707-.99417-9.39628-1.58987-10.50936-.5957-1.11307-1.08309-3.31335-1.08309-4.88951 0-1.57616-.5625-3.43933-1.25-4.14038-1.00393-1.02372-.70864-1.71027 1.5-3.48756 2.05956-1.65733 2.75-3.09623 2.75-5.73108 0-2.18242.94918-4.8047 2.5-6.90672 1.375-1.86371 2.5-4.39399 2.5-5.62285s.69373-2.92803 1.54163-3.77593c.8479-.84789 2.04769-2.99329 2.66619-4.76754 1.48806-4.26864 5.82159-10.60353 9.95381-14.5508 7.94495-7.58933 12.59615-11.18386 15.3701-11.87827 1.63255-.40868 4.31827-1.56522 5.96827-2.57009 1.66706-1.01527 4.9026-1.8287 7.28212-1.83078 2.35516-.002 5.95516-.71268 8-1.57915 4.92433-2.08664 10.97482-2.11876 14.91889-.0792 1.75982.91004 3.88924 1.65462 4.73205 1.65462.8428 0 2.77765 1.10649 4.29966 2.45886 1.522 1.35237 4.24594 3.65597 6.0532 5.11911 1.80725 1.46315 3.93054 3.90683 4.71842 5.43042 1.97744 3.82396 4.77114 17.8554 3.95304 19.85432-.36855.90051-1.02536 4.7225-1.45958 8.49331-.72211 6.27097-1.16103 7.24095-5.14364 11.36699-4.5592 4.72341-10.75829 8.21776-14.64465 8.25503-2.65587.0254-8.20951-3.76767-8.20951-5.60709 0-1.76554-1.98521-2.78575-3.15142-1.61954-.6362.6362-.43134 1.52296.58713 2.54144 2.58089 2.58088 1.8234 3.48383-3.54159 4.2217-4.00787.55123-5.44683.3613-6.6913-.88317-1.44721-1.44721-1.21829-1.92433 2.62624-5.47358 2.87316-2.65249 4.01227-4.40772 3.5843-5.52299-.872-2.27241-3.1484-2.04498-3.92182.39182-.35377 1.11465-1.7341 2.74141-3.06738 3.61501-1.45417.95281-2.42416 2.55147-2.42416 3.99532 0 1.32382-1.39006 5.43456-3.08903 9.13499-2.9343 6.39104-3.09588 7.40424-3.22601 20.22804-.20101 19.80937 3.18767 35.3297 8.71549 39.91738.85064.70597 1.84451 2.87144 2.20859 4.81216.40306 2.14851 1.34923 3.70829 2.41918 3.98809.97121.25398 2.02163 1.7816 2.34835 3.41523.43929 2.19646 1.52062 3.34406 4.20955 4.46757 1.99013.83153 4.58475 1.3741 5.76582 1.20572 1.8059-.25746 2.09837-.86944 1.83905-3.84805-.45884-5.27026 1.92687-6.9764 8.30901-5.94219 2.75.44563 6.85259.5714 9.11687.27949 3.69613-.47651 4.53661-.15154 8.22409 3.17988l4.10723 3.71064 2.66076-2.09296c3.7526-2.9518 5.89028-2.61606 8.95885 1.40704 2.08382 2.73203 3.38133 3.5 5.91338 3.5 2.09868 0 4.57647 1.05907 7.01882 3 2.07626 1.65 4.11138 3 4.52249 3 .41112 0 1.48462-1.125 2.38555-2.5 2.13694-3.26138 3.31304-3.15363 5.38847.49368 2.07565 3.64769 3.77738 3.84021 4.61031.52155zm3.59318-12.51523c0-.55.675-1 1.5-1s1.5.45 1.5 1-.675 1-1.5 1-1.5-.45-1.5-1zm-87-2.37756c0-2.15634 2.55956-3.75368 6.96078-4.34401 5.10673-.68495 5.13726.58579.0834 3.47157-4.48823 2.56281-7.04418 2.87937-7.04418.87244zm-35-182.06342c0-.79254.45-1.7191 1-2.05902.55-.33992 1 .30852 1 1.44098s-.45 2.05902-1 2.05902-1-.64844-1-1.44098zm65.3939 192.85646c.50567-1.65778-.07-2.46462-2.81175-3.94117-4.39171-2.36509-8.58215-.93085-8.58215 2.93737 0 2.09033.45412 2.44164 3.06039 2.36754 1.68321-.0479 3.80348.65607 4.7117 1.56429 1.76089 1.7609 2.33254 1.29874 3.62181-2.92803zm102.6061-3.41548c0-.55-.45-1-1-1s-1 .45-1 1 .45 1 1 1 1-.45 1-1zm3-16.55902c0-.24254-.45-.44098-1-.44098s-1 .47656-1 1.05902c0 .58246.45.7809 1 .44098.55-.33992 1-.81648 1-1.05902zm11-6.04797c0-.87491-1.09383-1.39301-2.94098-1.39301-3.75114 0-4.89351 1.75452-1.87326 2.87706 2.78971 1.03686 4.81424.41277 4.81424-1.48405zm-193-2.58333c0-2.63887-2.4088-1.77264-2.8189 1.0137-.23864 1.62135.076 2.01519 1.25 1.56469.86289-.33113 1.5689-1.4914 1.5689-2.57839zm-11.20819-8.51498c1.2605-.29911 2.11799-1.05028 1.90554-1.66927-.43025-1.25359-7.67065-.95384-9.06022.37509-1.49243 1.4273.45323 3.21602 2.72573 2.50586 1.17543-.36731 3.16845-.91257 4.42895-1.21168zm133.79299-12.43191c.64024-1.03593-3.07915-4.78704-4.79962-4.84055-1.13984-.0355-2.93844 3.92077-2.27241 4.99843.83669 1.35379 6.21193 1.23379 7.07203-.15788zm10.74877-.28968c.78411-2.04335-1.65125-3.85543-3.15736-2.34932-.64692.64692-1.17621 1.76121-1.17621 2.47621 0 1.76427 3.64886 1.65744 4.33357-.12689zm-1.33357-9.57311c0-.55-.45-1-1-1s-1 .45-1 1 .45 1 1 1 1-.45 1-1zm27 0c0-.55-.675-1-1.5-1s-1.5.45-1.5 1 .675 1 1.5 1 1.5-.45 1.5-1zm-35-.94098c0-.51754-.45-1.2191-1-1.55902s-1 .0835-1 .94098c0 .85746.45 1.55902 1 1.55902s1-.42344 1-.94098zm-147.61182-1.93546c1.55509-1.71835 1.56125-1.92899.0732-2.5-2.66916-1.02426-4.21141-.71734-4.85764.96668-1.35593 3.53352 2.00075 4.60926 4.78444 1.53332zm155.35518-2.37356c1.6464-2.08247 2.06929-6.6606.71879-7.78141-.93048-.77223-1.923-.19451-3.81154 2.21859-2.36222 3.01836-2.43314 3.39564-.94704 5.03776 1.90203 2.10172 2.71024 2.20676 4.03979.52506zm-9.55948-4.25423c1.60559-3.52388.5506-4.00118-4.10103-1.85538-5.04998 2.32955-5.3114 4.35961-.56141 4.35961 2.78736 0 3.75929-.52203 4.66244-2.50423zm34.81612-3.10276c0-1.8149-2.62692-1.80761-3.32411.009-.29595.77123-.3001 1.64023-.009 1.9311.91851.91852 3.33333-.48714 3.33333-1.94032zm-46.75.19032c.1375-.50416-.3125-1.10416-1-1.33333-.6875-.22917-1.25.33333-1.25 1.25 0 1.69335 1.79279 1.75975 2.25.0833zm-83.30233-9.02027c1.02106-1.23031.79121-1.59049-1.35942-2.13027-1.42354-.35728-2.58825-1.05082-2.58825-1.5412 0-1.61255-2.65424-.93113-4.55525 1.16946-2.20966 2.44164-1.20463 3.41165 3.89032 3.75478 2.01059.13541 3.88244-.37298 4.6126-1.25277zm104.4823.55025c.30141-.48768-.12204-1.44278-.94098-2.12245-.85844-.71244-1.48899-2.90724-1.48899-5.18286 0-3.52131-.24272-3.91263-2.25-3.62755-1.9468.27649-2.20965.83154-1.95055 4.119.40966 5.19771 4.82505 9.73518 6.63052 6.81386zm-99.42997-6.0203c0-1.97081-1.8699-4.09301-3.6064-4.09301-.91091 0-.94974.83627-.15851 3.41432 1.08178 3.52478 3.76491 4.00846 3.76491.67869zm86.8-.29301c1.69893-1.69893 1.48811-4.75221-.37754-5.46813-.86765-.33295-2.26158.0787-3.09762.91472-1.2012 1.2012-1.28244 1.96411-.38728 3.63675 1.29322 2.4164 2.15757 2.62153 3.86244.91666zm22.2.17525c0-.56361 1.125-1.45248 2.5-1.97525 2.90417-1.10416 3.22665-2.50718.7911-3.44179-1.13202-.43439-2.30604.12026-3.47777 1.64301-1.96516 2.55389-2.34564 4.79878-.81333 4.79878.55 0 1-.46114 1-1.02475zm17.83356-7.61903c-.43543-2.28323-4.83356-3.19059-4.83356-.9972 0 .82397.73607 2.23419 1.63571 3.13384 1.91275 1.91274 3.73758.69348 3.19785-2.13664zm-105.83356-8.91524c0-1.69692-2.5769-1.93459-3.5691-.32918-.75384 1.21975 1.49206 3.05385 2.77135 2.2632.43876-.27117.79775-1.14148.79775-1.93402zm-26-.69098c0-1.17109-1.45675-.87974-1.875.375-.20625.61875.13125.95625.75.75.61875-.20625 1.125-.7125 1.125-1.125zm101-2.75c0-.55-.675-1-1.5-1s-1.5.45-1.5 1 .675 1 1.5 1 1.5-.45 1.5-1zm-171.74609-5.25c.56435-1.6773-.28406-4.75-1.31152-4.75-1.36853 0-1.87862 1.52784-1.27752 3.82646.62741 2.39922 1.93553 2.86584 2.58904.92354zm304.24609-48.25c0-1.31273-.77318-2.10981-2.25-2.31955-1.84568-.26213-2.25.15469-2.25 2.31955s.40432 2.58168 2.25 2.31955c1.47682-.20974 2.25-1.00682 2.25-2.31955zm-140 .5c.33992-.55-.0835-1-.94098-1-.85746 0-1.55902.45-1.55902 1s.42344 1 .94098 1c.51754 0 1.2191-.45 1.55902-1zm-89.5 184.10699c0-1.16627 2.92079-2.27398 4.09024-1.55122 1.76249 1.08928.88095 2.44423-1.59024 2.44423-1.375 0-2.5-.40186-2.5-.89301zm-5.75-2.82527c-2.01735-.72364-1.43273-3.28172.75-3.28172 1.1 0 2 .64844 2 1.44098 0 1.73923-1.05826 2.44758-2.75 1.84074zm-9.87656-5.75094c-.34129-.88937-.37384-1.86372-.0723-2.16521.96246-.96246 4.82443.75779 4.42108 1.96929-.61313 1.84162-3.66448 1.97909-4.34874.19592zm223.62656-58.56216c0-1.97211.50352-2.96862 1.5-2.96862.91545 0 1.5.93256 1.5 2.39301 0 1.31616-.675 2.65203-1.5 2.96862-1.12574.43198-1.5-.16509-1.5-2.39301zm4-7.96862c0-1.33333.66667-2 2-2 1.33333 0 2 .66667 2 2 0 1.33333-.66667 2-2 2-1.33333 0-2-.66667-2-2zm5-8.58333c0-1.76593 2.15276-1.45839 2.77083.39583.21771.65312-.31666 1.1875-1.1875 1.1875-.87083 0-1.58333-.7125-1.58333-1.58333zm4.36163-8.91667c-.69065-1.7998.20941-4.5 1.5-4.5 1.29058 0 2.19064 2.7002 1.5 4.5-.31659.825-.99159 1.5-1.5 1.5-.50842 0-1.18342-.675-1.5-1.5z"/>
  <path fill="#584c51" d="M140.88236 322.54835c-2.87555-1.21751-6.06099-2.96724-7.07874-3.8883-1.01775-.92105-2.31684-1.67464-2.88686-1.67464s-2.22917-.93823-3.68699-2.08495c-1.45782-1.14672-4.331-2.54145-6.38485-3.09939-2.05386-.55794-4.40928-1.58294-5.23428-2.27779-.825-.69484-2.999-1.54616-4.83111-1.89183-1.83211-.34567-4.4803-1.53243-5.88486-2.63726s-3.78237-2.00878-5.28403-2.00878c-1.50166 0-3.80347-.83138-5.11514-1.84751-1.31167-1.01613-3.60937-2.14644-5.106-2.51181-1.49662-.36536-3.19995-1.55898-3.78518-2.65249-.58524-1.09354-2.09203-1.98819-3.34853-1.98819-1.25646 0-3.26265-1.125-4.4582-2.5s-2.70377-2.5-3.3516-2.5c-.64783 0-2.0008-.74474-3.00661-1.65499-1.7124-1.5497-1.82874-1.53062-1.82874.3 0 1.07525.5325 2.48749 1.18333 3.13832 1.89179 1.89179.0197 2.71043-2.00594.87721-1.00918-.9133-2.14659-1.66054-2.52757-1.66054-1.29874 0-9.1278-5.49181-12.14289-8.51781-1.65381-1.65979-5.10067-5.37229-7.65969-8.25-2.55902-2.8777-5.14652-5.23219-5.75-5.23219-.60348 0-1.09724-.675-1.09724-1.5s.68912-1.5 1.53138-1.5c.84227 0 1.79041.675 2.10699 1.5.85351 2.22421 6.80514 1.93552 8.48966-.41179 1.01119-1.40906 2.1775-1.78087 4.43524-1.41391 2.58103.41951 3.36346 1.27147 4.97014 5.41179 1.17312 3.02306 2.51821 4.91391 3.4956 4.91391.8738 0 2.46224.66069 3.52986 1.4682 5.05999 3.82718 6.09409-.51599 1.39669-5.86604-3.13296-3.56824-3.84563-5.37509-4.68354-11.87432-.299-2.31924-1.21539-4.16235-2.37917-4.78518-1.04107-.55717-1.89285-1.61151-1.89285-2.34299 0-.73147-.81814-2.40314-1.8181-3.71481-.99995-1.31167-2.37396-5.08486-3.05335-8.38486-.67939-3.3-1.86858-8.25-2.64266-11-.77407-2.75-1.646-7.475-1.93762-10.5-.85823-8.90248-1.71738-13.41553-2.81355-14.77932-.74109-.92202-.42871-1.91751 1.11851-3.56445 1.34941-1.43638 2.14677-3.58187 2.14677-5.7764 0-2.15374.95777-4.78945 2.5-6.87983 1.375-1.86371 2.5-4.35639 2.5-5.53929 0-1.18291.9-2.96522 2-3.96071 1.1-.99549 2-2.70615 2-3.80148 0-5.83143 20.09097-26.69852 25.7055-26.69852 1.45036 0 3.50598-.7864 4.56804-1.74755 1.21824-1.10249 4.38484-1.98043 8.57874-2.37844 3.65625-.347 8.57705-1.36418 10.93511-2.26042 4.07419-1.54848 4.50657-1.52966 8.69514.37845 2.42426 1.10438 5.33684 2.00796 6.47239 2.00796 1.13556 0 2.84775.9465 3.80487 2.10333.95711 1.15683 3.33819 3.13096 5.29129 4.38697 1.99577 1.28345 4.48037 4.19456 5.67285 6.64667 2.42371 4.9839 4.15088 15.37202 3.15054 18.949-.37131 1.32772-.71997 5.01158-.77479 8.18637-.0922 5.33829-.41926 6.1204-4.34968 10.40095-4.27814 4.65926-10.49088 8.26406-14.31291 8.30475-2.0493.0218-7.44533-4.72382-7.42808-6.53276.005-.5199-1.41367-2.1147-3.15251-3.544-3.45178-2.83729-3.18432-4.90128.63513-4.90128 1.43741 0 2.60688.73502 2.96507 1.86356.43887 1.38277 1.93225 2.02236 5.78833 2.47905 5.58067.66095 7.15035-.0509 6.5851-2.98639-.28851-1.49825-1.29035-1.86165-5.19499-1.88438-4.78764-.0279-5.38128-.38961-8.13514-4.95722-.81491-1.35162-1.50901-1.46478-3.75-.61137-1.5125.57599-2.75 1.74303-2.75 2.59344 0 .8504-1.13579 2.06369-2.52398 2.69619-1.38818.6325-2.78194 2.17781-3.09723 3.43403-.31529 1.25622-2.17545 3.50609-4.13369 4.99971l-3.56043 2.71568-2.2131-2.7755c-1.94947-2.44487-2.48046-2.63241-4.45747-1.57435-1.85761.99417-2.1492 1.7876-1.6921 4.60435.30374 1.87176.13055 3.4032-.38487 3.4032s-.93713-.45-.93713-1-1.24767-1-2.7726-1c-2.1596 0-3.20285.79895-4.7187 3.6137-1.93062 3.58495-1.93044 3.62671.023 5.25 1.08301.89996 2.74444 2.83967 3.69206 4.31046 1.96226 3.04558 5.47198 4.53009 7.02902 2.97305.73528-.73528.25396-1.41483-1.60066-2.25985-1.45866-.66461-2.65212-1.54723-2.65212-1.96136 0-1.12332 8.18072-6.926 9.76439-6.926 1.54777 0 1.00402 2.55666-1.59511 7.5-.86755 1.65-1.71656 5.25-1.8867 8-.83168 13.44252-.75558 19.29701.29246 22.5.62988 1.925 1.45953 6.2 1.84366 9.5.70017 6.01488 7.86088 22.65056 11.62197 27 .9512 1.1 2.02315 2.97043 2.38211 4.15651.37769 1.24797 2.2405 2.79184 4.42155 3.66453 2.0729.82941 4.35742 2.21713 5.07671 3.08382.84179 1.01429 2.14955 1.36454 3.67001.98293 3.20636-.80474 10.10549 4.6618 11.19631 8.87143 1.11762 4.31301 5.42653 5.77519 8.51523 2.88955 7.0936-6.62726 10.01832-9.95395 10.90062-12.39877 1.22548-3.39574 3.0681-3.51106 5.15715-.32278.8747 1.33497 2.61396 2.57247 3.86501 2.75 1.80506.25615 2.28187.9707 2.30969 3.46132.0507 4.53516 2.05095 6.46574 6.35845 6.13684 3.46951-.26492 3.59553-.15915 3.31795 2.78475-.42963 4.55639 2.52198 6.82965 7.72607 5.95042 3.09425-.52277 4.06247-1.14206 4.06247-2.59845 0-1.3833.70577-1.9121 2.55202-1.9121 1.91692 0 2.80359.72166 3.5629 2.89982 1.58478 4.54609 9.27958 5.53238 16.38508 2.10018 2.2-1.06268 4.72681-1.94741 5.61514-1.96607.88833-.0187 2.80791-.97216 4.26573-2.11888 1.45782-1.14672 4.23993-2.52379 6.18248-3.06015 2.42353-.66917 3.85039-1.81293 4.54683-3.6447 1.78065-4.68346 5.12431-5.72723 4.67767-1.4602-.25236 2.41092.0204 2.71113 2.21215 2.43473 1.375-.17339 6.325-2.18859 11-4.4782 4.675-2.28962 9.69589-4.62275 11.15753-5.18474 3.47998-1.33801 9.15915-6.18595 18.76892-16.02179 11.39889-11.66705 13.98556-14.57485 16.67924-18.75 1.33067-2.0625 2.86375-3.75 3.40685-3.75 1.70805 0 1.07302 3.84237-.94588 5.72327-2.35689 2.19577-7.06666 9.02966-7.06666 10.25373 0 .96214-17.22644 16.84588-23.10927 21.30804-5.26011 3.98983-19.96762 12.69615-22.53676 13.34097-1.21373.30462-2.98464 1.41339-3.93536 2.46393-.95072 1.05053-2.7141 1.91006-3.91861 1.91006s-3.00451.9-4 2c-1.03783 1.14679-3.07997 2-4.78695 2-1.63734 0-4.3801.86222-6.09502 1.91604-1.71491 1.05382-4.91803 2.23749-7.11803 2.63039-2.2.39289-4.62656 1.21394-5.39236 1.82455-.7658.61061-7.76168 1.61801-15.54642 2.23866-9.17421.73142-15.2637 1.70227-17.30798 2.7594-5.08473 2.62942-26.07932 2.11629-32.98152-.8061zm7.52828-15.76294c2.22943-2.22943 1.31576-3.41191-2.30927-2.98871-3.67927.42953-5.02931 1.50825-3.99073 3.18871.85429 1.38227 4.84441 1.25559 6.3-.2zm-72.8-26.8c0-.55-.47656-1-1.05902-1-.58246 0-.7809.45-.44098 1 .33992.55.81648 1 1.05902 1 .24254 0 .44098-.45.44098-1zm5.5-49.5c0-1.00833-.50706-2.00235-1.12679-2.20893-1.31709-.43903-2.65382 2.44588-1.78481 3.85196.9313 1.50688 2.9116.38939 2.9116-1.64303zm-8.5-20.05902c0-.24254-.70156-.44098-1.55902-.44098-.85746 0-1.27636.45734-.9309 1.01631.57081.92358 2.48992.48015 2.48992-.57533zm2-22.28046c0-1.01479-1.17619-2.3754-2.62348-3.03483-2.44828-1.11551-2.51506-1.31513-1-2.98925 2.16684-2.39433 2.0525-4.13644-.27148-4.13644-1.49216 0-1.99057.90342-2.34472 4.25-.56438 5.3331.61284 7.75 3.77486 7.75 1.72646 0 2.46482-.55104 2.46482-1.83948zm23.92742-.79538c2.6837-3.41178 2.62608-4.66087-.17742-3.84563-2.68088.77958-5.96767 4.31928-5.18562 5.58465 1.01964 1.64982 3.27183.91952 5.36304-1.73902zm-17.86996-3.4725c.756-1.4126.79632-2.43886.12231-3.11287-1.48775-1.48775-3.17977-.009-3.17977 2.77925 0 2.99919 1.5409 3.16733 3.05746.33362zm12.79177-.97594c2.62115-3.31674 1.83165-5.53661-2.17185-6.10667-2.45638-.34976-4.67738 2.88118-4.67738 6.80428 0 3.45095 3.88326 3.05543 6.84923-.69761zm41.14245-2.93678c-.83424-2.01404-1.77678-2.89263-2.71639-2.53207-.79137.30368-1.62706.55215-1.85708.55215-.23001 0-.41821.81313-.41821 1.80696 0 1.05767 1.14033 2.22926 2.75 2.82537 3.55508 1.31656 3.77695 1.05405 2.24168-2.65241zm-57.99168-10.55324c0-3.28234-3.34535-2.99021-3.81955.33354-.2427 1.70114.17815 2.23978 1.75 2.23978 1.55658 0 2.06955-.63784 2.06955-2.57332zm9 .57332c0-2.07031-2.41251-2.7596-3.5-1-.83704 1.35436.29243 3 2.05902 3 .79254 0 1.44098-.9 1.44098-2zm25.46899-2.94983c.32287-.5224-.37232-1.46325-1.54486-2.09078-1.91274-1.02366-2.0633-1.68991-1.46469-6.48109.59939-4.79732.44953-5.45665-1.47425-6.48623-3.53368-1.89117-5.06343-.6596-3.6924 2.97267.88867 2.35434.8818 3.52605-.0292 4.98482-1.02792 1.64594-.71201 2.32754 2.30753 4.97873 3.68199 3.23283 4.93309 3.68294 5.89788 2.12188zm21.53101-1.03112c0-1.10887-4.79508-2.5573-5.64671-1.70568-.30446.30446-.25694 1.03351.10559 1.6201.82758 1.33904 5.54112 1.41184 5.54112.0856zm-17.17668-12.69794c-.42944-2.22992-2.20795-2.27795-2.63295-.0711-.2108 1.0946.27967 1.75 1.30963 1.75 1.00339 0 1.52034-.65585 1.32332-1.67889zM87.61064 306.42639c0-.85746.45-1.2809 1-.94098.55.33992 1 1.04148 1 1.55902 0 .51754-.45.94098-1 .94098s-1-.70156-1-1.55902zm113.33583-.008c-.33077-.86197-.0884-2.08018.53853-2.70714 1.40744-1.40744 4.74172 1.4685 3.68495 3.1784-.9981 1.61495-3.53139 1.33229-4.22348-.47126zm8.16417-3.43298c-1.02802-1.66337.37899-2.88667 4.12943-3.59026 3.30869-.62071 3.52815-.88744 3.1173-3.78873-.24308-1.71656-.7614-3.85044-1.15182-4.74197-1.32604-3.02803 2.48095-3.18054 5.56791-.22305 3.02702 2.90007 3.62251 5.62998 1.58718 7.27616-.6875.55605-2.55321 2.1488-4.14602 3.53943-2.92058 2.54986-7.95077 3.39435-9.10398 1.52842zm27.68045-13.25c.2444-1.72083 1.14019-2.36759 3.80884-2.75 2.53907-.36384 3.84167-1.2368 4.78329-3.20561.7117-1.48809 2.62902-3.65623 4.26071-4.8181 1.63169-1.16186 2.96671-2.98184 2.96671-4.04438 0-1.54123-.70779-1.93191-3.5-1.93191-1.925 0-3.5-.20973-3.5-.46607s.75835-2.05634 1.68521-4c1.28675-2.69834 2.29165-3.53031 4.25-3.51862 3.28688.0196 5.10536 1.1932 5.55476 3.5848.19636 1.04494.39144 2.06749.43352 2.27233.0421.20485.77152-.20435 1.62097-.90934 1.06626-.88491 1.34847-2.17409.91148-4.16371-.59326-2.70109-.47055-2.84116 1.95554-2.23225 2.80473.70394 3.73875-1.18853 1.08852-2.20551-1.81074-.69485-2.01109-4.30375-.25-4.5032.6875-.0779 2.375-.19036 3.75-.25 1.79119-.0777 2.5-.67159 2.5-2.09473 0-2.80374-2.89479-3.03109-7.56952-.59448-2.41163 1.25701-5.87617 2.08078-8.75117 2.08078-2.61751 0-7.44116.70076-10.71921 1.55724-9.6223 2.51408-28.20312 1.87367-32.9601-1.13601-1.1-.69596-4.25-1.55551-7-1.9101-13.63362-1.75799-17.09935-3.21494-24.07261-10.11989-3.62029-3.58482-7.26152-7.95186-8.09162-9.70454-.8301-1.75269-2.36954-4.7617-3.42097-6.6867-2.17084-3.97446-2.4363-6.55966-.77877-7.58407.75085-.46405.32703-1.31254-1.25-2.50247-2.15779-1.62815-2.35941-2.44104-2.10778-8.49811.31542-7.59249.62263-8.41535 3.14184-8.41535 1.59658 0 1.68687-.43153.79187-3.78464-.82098-3.07583-.66621-4.50952.82641-7.65498 2.32221-4.8937 8.60605-11.56038 10.8965-11.56038.9595 0 2.49168-.85836 3.40484-1.90747 1.84496-2.11962 11.95148-4.45011 19.16029-4.41822 13.80935.0611 24.1393 7.58869 25.51414 18.59258.4152 3.32314.33158 5.73311-.19892 5.73311-1.52079 0-3.31522-2.28493-3.31522-4.22144 0-1.00179-1.08686-2.31664-2.41525-2.9219-1.32838-.60525-2.63625-1.9456-2.90638-2.97856-.31766-1.21475-1.38701-1.8781-3.02759-1.8781-2.75822 0-9.65078-3.64153-9.65078-5.09878 0-1.62047-4.7693-.94481-5.42688.76883-.58547 1.5257.8288 3.2769 2.67688 3.31464 1.25996.0257.83342 2.82015-.5 3.27567-.96318.32905-.99525 1.1191-.13978 3.44314.85462 2.32173.80522 3.56637-.21457 5.4063-1.83025 3.30217-1.73488 7.54605.18614 8.28321 2.52311.96821 3.15176.73388 3.70481-1.38097.28593-1.09338 1.72115-2.44469 3.18939-3.00291 3.46291-1.3166 2.99393-3.85819-1.19859-6.49575-3.59111-2.25921-4.01494-3.65638-1.69358-5.58295 1.25552-1.04198 1.9292-1.06143 3.25-.0938.9164.67137 2.90083 1.99527 4.40986 2.94202 1.50902.94674 2.74652 2.21411 2.75 2.81636.0107 1.84811 3.52935 4.40414 6.08506 4.4203 4.13751.0262 5.2137 1.41172 5.1518 6.63272-.0316 2.66859-.36681 6.74451-.74484 9.05762-.64681 3.95779-.53084 4.24492 1.96778 4.87203 3.59576.90248 9.40801-.14236 11.54372-2.07515.96204-.87063 3.99235-1.93756 6.73404-2.37096 6.35099-1.00396 13.92241-5.63137 17.76876-10.85971 1.65-2.24284 4.0125-4.64758 5.25-5.34386 1.61306-.90759 2.25-2.1872 2.25-4.52025 0-2.07148.97517-4.41322 2.68298-6.44284 2.58693-3.07439 2.64161-3.38581 1.52729-8.69836-1.14628-5.4649-1.12631-5.55411 2.44994-10.94195 3.28383-4.94731 3.55291-5.87734 3.01484-10.42049-.48797-4.12018-.25005-5.32911 1.36708-6.94624 1.07683-1.07683 3.10583-1.95787 4.5089-1.95787 1.9762 0 2.88464-.79845 4.0316-3.54351.81431-1.94893 2.14135-3.79708 2.94897-4.10699.80762-.30991 1.4684-1.16377 1.4684-1.89747 0-2.12258-2.0223-2.79703-3.31653-1.10609-.77604 1.0139-3.23085 1.65084-7.13053 1.85013l-5.94706.30393-1.05294-3.57024c-.57912-1.96364-1.84745-4.77101-2.81853-6.23861-1.43054-2.162-1.53884-3.03145-.57071-4.58166 1.81262-2.90247-1.25663-7.10949-5.18675-7.10949-2.38855 0-2.97695-.42915-2.97695-2.17126 0-1.19419.76858-3.02053 1.70796-4.05854 2.49123-2.75278.75739-4.77913-6.79871-7.94567-3.51136-1.47151-7.4024-3.8591-8.64677-5.30576-2.3759-2.76216-2.95356-5.97363-1.26248-7.01877 1.53188-.94675 1.20087-2.34759-1-4.23203-1.1-.94185-2-2.23234-2-2.86777 0-.63542-.68833-1.72657-1.52961-2.42478-1.21964-1.01221-2.07684-1.02013-4.22995-.0391-2.44273 1.11298-2.91689.97859-4.97039-1.40874-1.40985-1.63907-2.27005-3.94424-2.27005-6.08334 0-1.89433-.3375-3.44731-.75-3.45107-.4125-.004-1.82051-1.57876-3.1289-3.5-2.80401-4.11739-5.44331-4.45724-7.71306-.99317-3.09097 4.71742-6.55429 1.64506-4.43351-3.93302.56401-1.48345 1.02547-3.08574 1.02547-3.56065 0-1.8278-3.26938-4.00633-6.01241-4.00633-1.57826 0-3.15189-.45682-3.49695-1.01515-1.3721-2.2201-12.49064-5.37449-12.49064-3.54366 0 .24266 2.25 2.7879 5 5.65609 2.75 2.8682 5 5.82602 5 6.57294 0 .74692 2.025 3.84419 4.5 6.88282 2.475 3.03863 4.5 6.30715 4.5 7.26337 0 .95622.7875 2.85121 1.75 4.21108 2.52098 3.5618 2.58339 30.85405.0817 35.71244-.91759 1.78197-1.98604 4.70697-2.37434 6.5-.3883 1.79304-1.55005 4.45454-2.58167 5.91444-1.03161 1.4599-1.87566 3.17035-1.87566 3.80098 0 1.51725-6.95803 7.87754-9.5 8.68389-1.1.34893-3.27203 1.69785-4.82673 2.99759-3.36152 2.81027-5.34634 2.96902-7.92652.63398-1.81098-1.63891-1.96125-1.63891-2.87843 0-.60846 1.08727-2.1776 1.72919-4.22688 1.72919-1.79255 0-4.13269.66069-5.20031 1.4682-2.75499 2.08376-4.77094 1.87409-7.23888-.75292-1.70762-1.81768-2.02314-3.04418-1.54347-6 .52929-3.26181.35585-3.71528-1.42098-3.71528-1.11312 0-2.28287.675-2.59946 1.5-.31658.825-1.69067 1.5-3.05353 1.5-1.88669 0-3.29698-1.25267-5.91061-5.25-1.88798-2.8875-3.72886-6.91849-4.09085-8.95776-.36198-2.03927-1.31356-4.96427-2.11461-6.5-1.88257-3.60919-1.85162-4.10754.53123-8.55342 1.1-2.05237 2-4.52052 2-5.4848 0-1.93058 13.50912-15.25402 15.46662-15.25402 3.9934 0 6.21457-8.33163 2.53271-9.50021-1.10037-.34925-3.16084-2.15605-4.57882-4.01512-1.41798-1.85907-4.00518-4.29327-5.74933-5.40933-1.74415-1.11606-4.97118-3.26075-7.17118-4.76599-4.18507-2.86342-14.77639-6.15308-20.12788-6.2517-3.53786-.0652-7.39776 1.39737-18.84503 7.1407-6.87914 3.4514-8.59397 3.92318-12.5 3.43897-4.24006-.52562-4.6539-.36292-6.52709 2.5661-1.44652 2.26185-3.52208 3.62723-7.5 4.93378-6.76152 2.22083-8.40838 2.28058-10 .3628-.68469-.825-2.0056-1.5-2.93535-1.5-2.06048 0-6.58809 4.66628-7.51969 7.75-.44585 1.47579-1.46345 2.25-2.95736 2.25-1.25269 0-3.09211.9-4.0876 2-2.29988 2.54133-3.26259 2.51475-5.4201-.14965l-1.74068-2.14966-3.24309 4.51592c-1.7837 2.48376-4.56003 5.48958-6.16961 6.6796-1.60959 1.19001-2.92652 3.07168-2.92652 4.18148 0 1.10979-1.07362 3.01281-2.38582 4.22891-2.46433 2.28387-5.58923 8.316-6.57572 12.6934-.30987 1.375-1.23279 2.56059-2.05093 2.63465-.81814.0741-2.06117.18656-2.76228.25-.70111.0634-1.72884 1.30969-2.28383 2.76944-.555 1.45974-2.61481 5.25557-4.57737 8.43516-3.3877 5.48851-3.48721 5.89683-1.96617 8.06842 2.26876 3.23911 1.99108 6.22663-.89788 9.65996-2.77344 3.29605-3.08786 5.91466-1.30289 10.85092 1.10572 3.05783.98438 3.53258-1.58963 6.21927-2.38833 2.49288-2.62157 3.21734-1.63142 5.06745.67815 1.26712 1.23145 7.71002 1.33963 15.59922.10137 7.39226.37388 13.44161.60557 13.44299.23169.001 1.23575-.73459 2.23124-1.63549 1.47557-1.33538 2.09059-1.40513 3.32874-.37756 2.2659 1.88053 1.8404 5.47987-1.05452 8.92029-1.75011 2.07988-2.36833 3.70388-1.93261 5.07672.78797 2.48267 2.36395 2.58629 4.08453.26856 1.15331-1.55357 1.46235-1.58163 2.75331-.25 1.14049 1.17642 1.31318 3.12949.8005 9.05368-.61686 7.12806-.5404 7.55066 1.35693 7.5 2.67449-.0714 3.22064 4.43306.95647 7.88863-2.07268 3.1633-5.07325 3.31676-6.01602.30769-.38772-1.2375-1.54305-3.32319-2.56739-4.63486s-1.86244-3.60443-1.86244-5.09501c0-1.49059-.9-3.52464-2-4.52013-1.39409-1.26163-2-3.07997-2-6.00198 0-2.71216-.68424-4.98094-1.93827-6.42684-1.14389-1.31892-2.2207-4.55788-2.62739-7.90301-.37902-3.11749-1.39036-7.01817-2.24742-8.66817-1.27811-2.4606-1.63657-8.40875-1.99364-33.08217-.41941-28.98149-.35774-30.25762 1.68569-34.87712 1.16657-2.63722 2.12103-6.50322 2.12103-8.5911 0-2.59028.79414-4.73995 2.5-6.76724 1.52611-1.81369 2.5-4.21684 2.5-6.169 0-1.75885.9-4.34208 2-5.7405 1.1-1.39842 2-3.24521 2-4.10398 0-1.52054 3.70814-7.64201 7.06854-11.66889.91794-1.1 1.95033-3.19253 2.29419-4.65007.41759-1.77002 1.63328-3.00149 3.66077-3.70828 2.56288-.89342 2.9399-1.43931 2.42126-3.50573-.8408-3.35001.39937-4.98657 15.77118-20.81203 12.85624-13.23565 19.17788-18.57475 27.03406-22.83229 2.0625-1.11773 3.75-2.45271 3.75-2.96661s1.6875-1.24495 3.75-1.62456 4.82319-1.525 6.13486-2.54531c1.31167-1.02032 2.93848-1.85512 3.61514-1.85512.67666 0 2.37445-.9 3.77287-2 1.39842-1.1 3.27972-2 4.18067-2 .90094 0 3.75138-1.125 6.33431-2.5 3.12912-1.66576 6.29569-2.5 9.48938-2.5 2.63622 0 5.80205-.66107 7.03517-1.46904 1.23312-.80797 5.86945-1.87487 10.30295-2.37089 4.54213-.50817 9.21077-1.65526 10.69503-2.62778 2.34804-1.5385 5.05347-1.68048 24.91186-1.30741 18.06.33929 22.98165.73627 25.99564 2.09682 2.09315.94487 6.2447 1.68118 9.5 1.68489 4.08759.005 6.66131.58885 8.78212 1.99341 1.65 1.09275 4.60007 1.98979 6.55572 1.99341 2.21438.004 4.834.94967 6.94428 2.50659 2.12125 1.56501 4.71839 2.49896 6.94428 2.49722 1.95565-.002 5.58072.95819 8.05572 2.1327 13.18066 6.2549 23.34545 11.88273 24.25596 13.42953.41577.70634 2.21577 1.60422 4 1.99529 3.79254.83125 19.7106 16.51095 23.74404 23.38849 1.375 2.34456 4.4125 6.48149 6.75 9.19318 2.3375 2.71169 4.25 5.6221 4.25 6.46756 0 .84547 1.74179 3.64295 3.87064 6.21662 2.12886 2.57368 4.14991 6.17841 4.49122 8.01052.34132 1.83211 1.52453 4.4803 2.62936 5.88486 1.10483 1.40456 2.00878 3.60473 2.00878 4.88925 0 1.28453 1.13521 4.81733 2.52269 7.85066 1.54185 3.37085 2.29748 6.41243 1.94347 7.82292-.37755 1.50429.13679 3.21801 1.47732 4.92221 2.63147 3.34538 2.82636 7.33656.30652 6.27738-.9625-.40457-2.79539-.96146-4.0731-1.23754-2.11508-.457-2.29416-.19925-2 2.8786.30809 3.22346.50898 3.38055 4.3231 3.38055h4l-.0141 24.5c-.0123 21.35261-.23727 24.9115-1.7515 27.70323-.95558 1.76178-2.08417 5.58678-2.50797 8.5-.74961 5.15285-.85898 5.29677-4.02509 5.29677-3.82063 0-5.16248 1.67968-5.19265 6.5-.012 1.925-.91597 4.85-2.00872 6.5-1.09275 1.65-1.98979 3.83925-1.99341 4.865-.009 2.48701-9.41515 21.89926-11.41618 23.55997-.86683.7194-2.02342 2.94309-2.57019 4.94152-.60777 2.22139-3.33103 6.07027-7.00718 9.90349-3.30714 3.4485-6.01301 6.7182-6.01301 7.26601 0 1.41859-21.20713 21.96401-22.67141 21.96401-.66835 0-1.8032.81925-2.52189 1.82055-1.37223 1.91185-7.25547 5.17945-9.32548 5.17945-.66633 0-2.35567.9-3.75409 2-3.57466 2.81183-6.96315 2.68243-6.54668-.25zm-36.78744-44.33179c1.0485-2.73233.6805-3.41821-1.83399-3.41821-2.75518 0-4.00515 1.39501-3.17902 3.54789.74613 1.94437 4.25192 1.85368 5.01301-.12968zm-12.14301-.91821c-.36905-1.47618-3.5115-1.2155-4.02805.33415-.30489.91466.29775 1.22908 1.91667 1 1.29876-.18378 2.24888-.78415 2.11138-1.33415zm-1.93553-6.03117c2.10274-.39448 3.72028-.22162 4.13003.44136 1.48148 2.39709 5.58815 1.14879 7.63531-2.32089 1.1068-1.87588 2.77912-3.70614 3.71628-4.06725 1.59381-.61413 1.59083-.72003-.0461-1.639-3.16292-1.77565-4.9274-6.68405-4.57716-12.73265.31179-5.38465.2096-5.66407-2.17282-5.94101-1.8099-.21039-2.77604.34169-3.5 2-1.38015 3.16139-3.92707 2.92239-4.31113-.40455-.35018-3.03338-1.67433-2.90611-6.52963.62763l-2.84075 2.06753-2.19681-2.75c-2.62614-3.28744-4.16592-3.47011-5.6635-.67186-1.28788 2.40642-.61815 4.92186 1.31044 4.92186.73226 0 1.89008.5587 2.57294 1.24156.68285.68285 2.91035 1.70714 4.95 2.2762 3.20665.89465 3.75155 1.48039 4.02705 4.32882.30175 3.1199.50689 3.27722 3.87752 2.9738 4.26995-.38439 6.53298 1.9937 4.37344 4.5958-1.87605 2.26049-3.77734 1.96696-6.79306-1.04876-3.04294-3.04294-5.16051-2.3897-6.75375 2.08342-.80607 2.26308-.63594 2.99324.9713 4.16848 1.07171.78364 2.49201 1.21627 3.15623.96138.66423-.25489 2.7631-.75523 4.66418-1.11187zm36.58034-9.84208c1.54641-1.86332.33205-4.62675-2.03318-4.62675-2.14816 0-3.3776 2.21301-2.5 4.5.71951 1.87501 3.02866 1.93958 4.53318.12675zm7.60519-4.71008c0-.77917-1.0125-1.56047-2.25-1.73622-2.42753-.34476-3.25126 2.25238-1 3.15288 1.89144.75658 3.25.16439 3.25-1.41666zm-11.58736-5.66667c3.94691-2.24642 3.91951-4.68839-.075-6.68109-1.73928-.86767-3.217-1.46313-3.28382-1.32325-1.28087 2.68149-2.52846 7.9864-2.05745 8.74851.86888 1.40589 1.88358 1.26647 5.41624-.74417zm-25.16264-9.19356c2.61162-2.1787 2.87358-4.29403.75-6.05644-.825-.68469-1.5-2.48469-1.5-4s.675-3.31531 1.5-4c2.09082-1.73523 1.87153-4.09008-.4371-4.6938-1.0654-.27861-2.3722-1.75469-2.90398-3.28018-.79935-2.293-.59365-3.15202 1.1871-4.95749 2.12151-2.15096 2.12472-2.20561.21285-3.6262-2.48285-1.84485-2.87356-1.81785-5.59608.38672-2.25134 1.82302-2.25291 1.84443-.47493 6.5.98112 2.56902 2.17272 4.67095 2.648 4.67095 1.67588 0 .83766 2.53545-1.27426 3.85436-1.73532 1.08372-2.58196 1.09808-4.49146.0761-2.95449-1.58119-7.37014.12859-7.37014 2.85378 0 3.93426 9.73103 14.12792 13.5 14.14181 1.1.004 3.0125-.83729 4.25-1.86965zm-11.20301-5.9804c-.88963-1.43947 1.32814-5.28433 2.77071-4.80347 1.82867.60955 1.43827 5.15074-.47446 5.5191-.91122.17549-1.94453-.14655-2.29625-.71563zm39.45301 2.42396c0-.83333-.88889-1.5-2-1.5s-2 .66667-2 1.5.88889 1.5 2 1.5 2-.66667 2-1.5zm-43.03635-15.9562c1.3742-1.65581.59443-3.5438-1.46365-3.5438-1.79951 0-2.82371 1.71403-2.12 3.54789.71035 1.85112 2.04522 1.8496 3.58365-.004zm142.03635-19.5438c0-.55-.45-1-1-1s-1 .45-1 1 .45 1 1 1 1-.45 1-1zm-20-27.12244c0-2.21089-.46336-2.87756-2-2.87756-1.6 0-2 .66667-2 3.33333 0 1.83334.2961 3.62943.65799 3.99133 1.23659 1.23658 3.34201-1.56504 3.34201-4.4471zm-118-2.90894c0-1.34973-2.60923-2.32817-3.96842-1.48813-.58531.36174-.80531 1.07661-.48887 1.58861.78314 1.26716 4.45729 1.18433 4.45729-.10048zm10.60567-3.1396c.68699-1.11157-2.34193-7.82902-3.53014-7.82902-2.66387 0-4.65082 6.28186-2.62706 8.30561 1.52954 1.52954 5.08755 1.25414 6.1572-.47659zm12.89433-9.34272c0-1.31245-.78158-2.0971-2.30388-2.31291-1.33442-.18918-2.69158-1.34636-3.22525-2.75-.51344-1.35047-1.73454-2.42339-2.75806-2.42339-2.0249 0-6.21281 5.02827-6.21281 7.45951 0 2.21366 2.73767 1.89917 4-.45951 1.18552-2.21516 5-2.74919 5-.7 0 1.88082 2.21065 3.80608 3.97919 3.46549.83644-.16108 1.52081-1.18672 1.52081-2.27919zm-20.68045-1.2363c.23944-1.68589-.17881-2.25-1.66821-2.25-3.3366 0-5.15134 1.11687-5.15134 3.17035 0 1.6048.58404 1.90005 3.25 1.64301 2.49095-.24017 3.32463-.83886 3.56955-2.56336zm101.18045-3.12756c0-2.90565-2.44784-4.49267-4.01571-2.60352-1.06406 1.28212-.95949 1.787.61733 2.98053 2.56746 1.94339 3.39838 1.85121 3.39838-.37701zM178.424 110.27247c.17234-1.20587 1.18484-2.4691 2.25-2.80717 2.26381-.7185 2.63753-4.47989.44511-4.47989-.82034 0-2.05358-.9-2.74054-2-1.28229-2.05327-5.76793-2.81171-5.76793-.97525 0 .56361 1.125 1.45248 2.5 1.97525 3.03111 1.15243 3.34428 4.59726.5 5.5-1.9483.61837-2.7065 3.46017-1.29876 4.8679 1.34181 1.34182 3.80078.0975 4.11212-2.08084zm136.41782-3.53567c-1.66708-3.54977-5.23118-5.23038-5.23118-2.46669 0 1.85015 5.34606 7.76924 6.22408 6.89122.40605-.40605-.0408-2.39709-.9929-4.42453zm-33.53732 2.604c.5639-1.46948-1.88369-4.35539-3.69386-4.35539-1.84231 0-4.04157 2.72809-3.44744 4.27638.87315 2.2754 6.27554 2.33517 7.1413.079zm-93.19386-22.84169c0-2.20616-3.1089-3.3048-4.739-1.6747-1.68076 1.68076-.0229 4.3372 2.48453 3.98114 1.47517-.20948 2.25447-1.00674 2.25447-2.30644zm-10.69037-8.2637c-.18536-.9625-.99969-1.75-1.80963-1.75-.80994 0-1.62427.7875-1.80963 1.75-.23646 1.22785.30348 1.75 1.80963 1.75s2.04609-.52215 1.80963-1.75zm54.90431-26.62321c-.44071-1.33997-4.71394-2.15251-4.71394-.89634 0 .47825.50483 1.37438 1.12186 1.99141 1.34579 1.34579 4.117.50098 3.59208-1.09507zM81.61064 42.98541c0-.55-.675-1-1.5-1s-1.5.45-1.5 1 .675 1 1.5 1 1.5-.45 1.5-1zm-5.37235-3.20653c.32894-.53226.14561-1.42021-.40742-1.97324-1.2689-1.2689-5.22023.68116-5.22023 2.57628 0 1.50369 4.6324 1.00729 5.62765-.60304zm13.87235-.79347c.36058-.58342-.65628-1-2.44098-1-1.68246 0-3.05902.45-3.05902 1s1.09844 1 2.44098 1 2.7191-.45 3.05902-1zm92.5.23978c0-.41812-1.16715-2.01894-2.59368-3.55738-1.82866-1.97213-3.37464-2.7065-5.24145-2.48978-3.13269.36368-3.93473 2.89466-1.64339 5.186 1.62614 1.62615 9.47852 2.33956 9.47852.86116zm-79.19938-3.70707c1.28907-1.28906-1.06731-3.53271-3.71022-3.53271-3.29688 0-4.57901 1.28431-3.66361 3.66981.4516 1.17686 1.40178 1.41448 3.76569.94169 1.73893-.34778 3.36259-.83324 3.60814-1.07879zm29.26512-1.56789c2.44721-1.30971 2.51331-4.64626.10718-5.40994-1.00489-.31894-5.16739-.55452-9.25-.5235-4.08261.031-8.95509-.0759-10.82774-.2375-4.16953-.35988-4.98367 1.31763-2.05894 4.24236 1.80779 1.80779 2.8665 2.05547 6.47383 1.51452 2.62869-.3942 4.56549-.23752 4.96028.40126.8343 1.34993 8.08058 1.35868 10.59539.0128zm21.93426-3.54815c0-1.76593-2.15276-1.45839-2.77083.39583-.21771.65312.31666 1.1875 1.1875 1.1875.87083 0 1.58333-.7125 1.58333-1.58333zm9-.47569c0-.58246-.45-.7809-1-.44098-.55.33992-1 .81648-1 1.05902 0 .24254.45.44098 1 .44098s1-.47656 1-1.05902zm77.13922-3.97425c-2.43151-2.02565-5.13922-2.6155-5.13922-1.11954 0 1.01889 3.90223 3.00374 6 3.05186 1.02641.0236.75463-.58654-.86078-1.93232zm-11.68034 254.96674c-1.17263-1.89735.53762-2.36554 2.27922-.62395 1.55894 1.55895 1.56168 1.69048.0352 1.69048-.9104 0-1.95188-.47994-2.31442-1.06653zm10.23585-4.28661c-.69831-1.81976.097-2.64686 2.54526-2.64686 1.27279 0 1.79535.57797 1.57185 1.73852-.42208 2.1917-3.37467 2.84312-4.11711.90834zM42.86064 259.02192c-1.2375-1.56906-2.25-3.53786-2.25-4.37512 0-.83726-1.0125-1.66609-2.25-1.84184-1.5416-.21894-2.54734-1.32892-3.19439-3.52547-.61089-2.07376-1.67033-3.30978-3-3.5-2.29492-.32832-3.47483-5.27486-1.68513-7.06456 1.30544-1.30544 6.12952 1.68015 6.12952 3.79353 0 2.56206 2.88417 1.60162 4.48467-1.49341 2.94125-5.68774 8.94522-6.6139 8.3323-1.28533-.2351 2.04395-1.28552 3.22895-4.06697 4.58805-3.2444 1.58531-3.75 2.29314-3.75 5.25 0 3.03335.46741 3.60464 3 3.66674.275.007 1.87119-.24203 3.5471-.55284 1.6759-.3108 3.7009-.13606 4.5.38832 1.26427.82964 1.25637 1.11325-.0608 2.18442-.83257.67705-2.30544 2.4685-3.27305 3.981-2.20396 3.44505-3.61449 3.39846-6.4632-.21349zm259.82895-15.45318c-.0434-1.05416.19293-1.64479.52522-1.3125.33229.33229.36781 1.19479.0789 1.91667-.31922.79773-.55618.56078-.60416-.60417zm3.92105-7.02431c0-.85746.45-1.55902 1-1.55902s1 .42344 1 .94098c0 .51754-.45 1.2191-1 1.55902s-1-.0835-1-.94098zm-268.41026-5.18577c-.70326-1.83266 1.16245-4.64444 2.52357-3.80322.48768.3014.88669 1.64645.88669 2.98899 0 2.76481-2.43835 3.34699-3.41026.81423zm-9.19871-9.79663c-.79479-2.07117 1.56423-4.02136 3.05775-2.52784.62067.62067.36892 1.56209-.70489 2.6359-1.56053 1.56054-1.71529 1.55343-2.35286-.10806zm286.60897-5.13564c0-.85746.45-1.2809 1-.94098.55.33992 1 1.04148 1 1.55902 0 .51754-.45.94098-1 .94098s-1-.70156-1-1.55902zm-212-15.75518c0-2.01322 2.55555-3.91804 4.70196-3.50468 1.01102.1947 1.79804 1.21569 1.79804 2.33258 0 1.51001-.77931 2.06144-3.25 2.29966-2.30797.22253-3.25-.1043-3.25-1.12756zm-82-8.6858c0-1.50615.52215-2.04609 1.75-1.80963.9625.18536 1.75.99969 1.75 1.80963 0 .80994-.7875 1.62427-1.75 1.80963-1.22785.23646-1.75-.30348-1.75-1.80963zm0-15.55902c0-.85746.45-1.2809 1-.94098.55.33992 1 1.04148 1 1.55902 0 .51754-.45.94098-1 .94098s-1-.70156-1-1.55902zm223.34508-87.98411c-.32569-.84872-.3415-1.79378-.0351-2.10013.87571-.87571 2.69007.60965 2.69007 2.20228 0 1.91885-1.90756 1.84546-2.65492-.10215z"/>
</svg>