<?xml version="1.0" encoding="UTF-8" standalone="no"?>
<svg
   xmlns:dc="http://purl.org/dc/elements/1.1/"
   xmlns:cc="http://creativecommons.org/ns#"
   xmlns:rdf="http://www.w3.org/1999/02/22-rdf-syntax-ns#"
   xmlns:svg="http://www.w3.org/2000/svg"
   xmlns="http://www.w3.org/2000/svg"
   xmlns:sodipodi="http://sodipodi.sourceforge.net/DTD/sodipodi-0.dtd"
   xmlns:inkscape="http://www.inkscape.org/namespaces/inkscape"
   version="1.1"
   id="svg10"
   width="400"
   height="408.61322"
   viewBox="0 0 399.99998 408.61321"
   sodipodi:docname="Seme_denari_carte_catalane.svg"
   inkscape:version="1.0.2-2 (e86c870879, 2021-01-15)">
  <metadata
     id="metadata16">
    <rdf:RDF>
      <cc:Work
         rdf:about="">
        <dc:format>image/svg+xml</dc:format>
        <dc:type
           rdf:resource="http://purl.org/dc/dcmitype/StillImage" />
        <dc:title />
      </cc:Work>
    </rdf:RDF>
  </metadata>
  <defs
     id="defs14" />
  <sodipodi:namedview
     pagecolor="#ffffff"
     bordercolor="#666666"
     borderopacity="1"
     objecttolerance="10"
     gridtolerance="10"
     guidetolerance="10"
     inkscape:pageopacity="0"
     inkscape:pageshadow="2"
     inkscape:window-width="1920"
     inkscape:window-height="1001"
     id="namedview12"
     showgrid="false"
     inkscape:zoom="1.1196396"
     inkscape:cx="-3.1176578"
     inkscape:cy="280.72377"
     inkscape:window-x="-9"
     inkscape:window-y="-9"
     inkscape:window-maximized="1"
     inkscape:current-layer="g18"
     inkscape:document-rotation="0" />
  <g
     inkscape:groupmode="layer"
     inkscape:label="Image"
     id="g18"
     transform="translate(-161.4796,-144.2141)">
    <g
       id="g22"
       transform="matrix(1.2889062,0,0,1.2889062,-46.652447,-76.064158)">
      <path
         id="path26"
         style="fill:#c7b64e;stroke-width:1.33333"
         d="m 316.47266,189.45703 c -15.38859,0.74131 -29.95715,7.77426 -44.04372,14.01341 -12.80963,5.67358 -25.42736,12.32489 -36.35127,21.09669 -12.19426,9.79188 -23.42038,21.30377 -31.75759,34.53524 -8.4665,13.43665 -14.76218,28.62398 -17.71671,44.22834 -2.96649,15.66753 -1.82354,32.03583 0.32295,47.83659 1.97577,14.54405 4.52633,29.5788 11.45995,42.51549 6.28549,11.72743 16.99299,20.52337 26.34215,29.99085 7.54348,7.63894 14.78695,15.92897 23.92926,21.55707 11.64666,7.1698 25.03855,11.30695 38.24825,14.85019 8.60373,2.30778 17.50151,3.95139 26.40824,4.09336 9.76483,0.15565 19.51251,-1.6071 29.08078,-3.56269 8.91775,-1.82264 17.82801,-4.08707 26.23297,-7.58062 5.67276,-2.3579 10.97569,-5.5766 16.11553,-8.94141 12.48729,-8.17485 23.85552,-17.94761 35.57084,-27.19488 4.10983,-3.24402 9.13372,-5.66133 12.17749,-9.92159 5.12343,-7.17109 6.833,-16.30233 9.15547,-24.8041 5.04664,-18.47402 10.84176,-37.3848 10.27104,-56.52722 -0.57085,-19.14666 -4.43837,-39.01793 -13.6235,-55.82727 -12.84226,-23.50209 -33.30673,-43.05439 -55.40116,-58.19071 -11.87233,-8.13342 -26.16792,-12.19277 -39.90969,-16.46693 -8.63116,-2.68458 -17.48272,-6.13474 -26.51128,-5.69981 z"
         sodipodi:nodetypes="aaaaaaaaaaaaaaaaaaaaaa" />
      <path
         style="fill:#3c3b38;stroke-width:1.33333"
         d="m 329.01921,480 c 4.65548,-11.68339 6.2522,-14.66667 7.84996,-14.66667 0.98863,0 1.79751,0.50332 1.79751,1.11851 0,0.61517 1.95,3.42885 4.33333,6.25263 2.38333,2.82377 5.58879,6.62092 7.12323,8.4381 4.66577,5.52554 6.64254,3.16708 8.33508,-9.94444 0.83068,-6.43505 2.11738,-12.30716 2.85934,-13.04912 0.9098,-0.9098 1.34902,-0.85598 1.34902,0.16528 0,0.83287 3.39229,4.85287 7.53844,8.93334 8.25525,8.1245 13.67452,9.84194 13.94393,4.41904 0.16566,-3.33435 0.84154,-10.03508 1.68991,-16.75412 0.307,-2.43144 0.95197,-4.81459 1.43327,-5.29588 0.48129,-0.4813 3.86834,0.80753 7.5268,2.86404 8.75632,4.92217 14.0332,6.40768 15.65212,4.40629 0.73317,-0.90637 0.85884,-5.71988 0.30164,-11.55367 -1.38542,-14.50484 -0.19304,-17.08153 5.95054,-12.85908 3.84198,2.64056 16.78562,4.09803 18.06143,2.03372 0.55724,-0.90164 -0.20507,-4.68478 -1.69401,-8.407 C 428.25213,414.05497 427.88296,412 430.53753,412 c 1.29326,0 2.75568,-0.40431 3.24983,-0.89847 0.49416,-0.49415 4.48855,-0.75193 8.87643,-0.57285 12.85217,0.52452 16.50108,-1.91789 10.7036,-7.16455 -1.44795,-1.31037 -3.02206,-3.60946 -3.49803,-5.10912 -0.47597,-1.49964 -2.29128,-4.26437 -4.03404,-6.14386 -1.74275,-1.87948 -3.16864,-3.80918 -3.16864,-4.2882 0,-0.93092 3.38313,-2.59314 6.66667,-3.2755 7.7101,-1.60228 10.4358,-2.56513 13.66666,-4.82781 4.44608,-3.11373 4.7125,-6.68643 0.66667,-8.94024 -2.93675,-1.63599 -11.67067,-11.56564 -11.66167,-13.25692 0.003,-0.47069 2.85275,-1.9376 6.33334,-3.25979 10.56342,-4.01278 12.97674,-5.55873 13.41489,-8.59345 0.31135,-2.15653 -0.43145,-3.12199 -2.87356,-3.73492 -1.8114,-0.45464 -4.65495,-2.27584 -6.31897,-4.04713 -1.66404,-1.77128 -3.82095,-3.22052 -4.79311,-3.22052 -0.97249,0 -1.76759,-1.42663 -1.76759,-3.17158 0,-2.26797 1.14138,-3.64434 4.00614,-4.83097 5.96324,-2.47005 12.23141,-10.18868 11.73629,-14.45207 -0.225,-1.93742 -1.30909,-3.64078 -2.40909,-3.78526 -1.1,-0.14448 -5.45,-0.64279 -9.66667,-1.10735 -7.82552,-0.86216 -8.94563,-1.77555 -6,-4.89265 3.52364,-3.72879 11.32189,-13.89207 12.79271,-16.67247 0.84734,-1.60179 1.54062,-4.06297 1.54062,-5.46931 0,-2.27565 -1.33612,-2.64352 -12.14504,-3.3438 -6.67977,-0.43276 -12.46053,-1.10233 -12.84613,-1.48794 -0.77829,-0.7783 1.02596,-5.89739 5.81189,-16.48972 4.98908,-11.04192 4.89518,-11.16904 -7.48738,-10.13638 -12.03418,1.00362 -11.85591,1.18618 -8.76979,-8.98181 1.74749,-5.75757 2.55359,-12.06456 2.23821,-17.51203 -0.12773,-2.20625 -4.13509,-3.47866 -4.13509,-1.31296 0,1.31482 -12.15575,5.6463 -15.84561,5.6463 -3.1749,0 -3.36647,-0.48954 -1.53251,-3.91632 0.70871,-1.32422 1.61536,-6.01306 2.01481,-10.41963 0.67694,-7.46784 0.52354,-8.06497 -2.25865,-8.79253 -1.64171,-0.42931 -4.19837,-0.004 -5.68148,0.94412 -3.75552,2.40197 -16.82625,6.4991 -17.75875,5.56662 -0.42245,-0.42245 -1.40628,-5.64384 -2.18628,-11.60308 -1.87501,-14.325 -3.73561,-15.61761 -11.79156,-8.1919 -3.24969,2.99546 -7.19316,6.13381 -8.76325,6.9741 -2.61427,1.39911 -3.10778,0.99059 -5.85906,-4.85013 -1.65238,-3.50785 -3.36437,-6.67792 -3.80441,-7.04459 -0.44004,-0.36666 -1.37292,-2.41532 -2.07307,-4.55256 -0.70014,-2.13724 -2.55226,-4.73528 -4.1158,-5.77344 -2.64881,-1.75874 -3.07284,-1.53908 -6.21409,3.21923 -1.8542,2.80872 -4.81848,6.82433 -6.58727,8.92359 l -3.21597,3.81681 -7.56849,-10.23412 c -4.70844,-6.36676 -8.34956,-10.07643 -9.63542,-9.81681 -1.1368,0.22952 -2.96624,3.1173 -4.0654,6.4173 -1.09916,3.3 -2.83681,6.94724 -3.86144,8.10499 -1.02464,1.15775 -1.86297,2.87279 -1.86297,3.81121 0,3.23971 -6.994,0.0577 -11.71757,-5.33108 -6.26488,-7.14713 -8.78467,-6.85429 -11.4623,1.33208 -1.1844,3.62112 -2.15346,7.75115 -2.15346,9.17783 0,3.50945 -4.8619,4.61587 -8.1,1.84331 -1.41167,-1.20871 -2.57954,-2.8143 -2.59514,-3.56799 -0.0156,-0.75369 -2.38537,-3.03749 -5.26604,-5.07511 -5.20357,-3.68073 -5.24719,-3.68677 -6.72147,-0.93206 -0.81614,1.52498 -1.83508,6.9615 -2.26429,12.08116 -0.86484,10.31576 -2.01157,12.03538 -5.42365,8.13316 -1.26284,-1.44426 -5.29608,-3.68919 -8.96275,-4.98875 -3.66667,-1.29956 -7.23667,-2.86367 -7.93333,-3.47579 -2.84432,-2.49916 -3.4,-0.51477 -3.4,12.14168 0,7.39819 -0.58912,13.61875 -1.33334,14.0787 -0.73333,0.45322 -1.33333,-0.11136 -1.33333,-1.25464 0,-1.14328 -0.9,-2.0787 -2,-2.0787 -2.54309,0 -2.04619,0.10114 -10.30357,-2.097 -3.86636,-1.02924 -7.52743,-1.87817 -8.13571,-1.88717 -1.19047,-0.017 0.13251,7.78439 1.69313,9.98417 0.52026,0.73334 1.69718,3.95714 2.61536,7.16402 2.09927,7.33196 0.81286,8.89348 -6.10294,7.40836 -2.80479,-0.60231 -6.09539,-1.12747 -7.31246,-1.16707 -1.21708,-0.0396 -2.66708,-0.52197 -3.22222,-1.07197 -1.64856,-1.63327 -5.45494,-1.14074 -7.17184,0.92801 -1.2823,1.54507 -0.78935,3.33267 2.48184,9 9.4084,16.30012 9.27128,16.97792 -3.49975,17.30005 -13.16952,0.33219 -13.514,0.37743 -15.12312,1.98655 -1.07244,1.07244 -0.99317,2.23611 0.29253,4.29485 0.96995,1.55314 2.13294,2.82387 2.5844,2.82387 0.45148,0 3.70168,2.19967 7.22268,4.8882 l 6.4018,4.88813 -3.87673,3.34034 c -20.00579,8.76776 0,0 -13.07523,5.2435 -10.85461,3.02123 -10.57282,5.38564 1.55764,13.06999 l 10.04056,6.36045 -4.53318,3.76047 c -2.49326,2.06825 -5.63255,4.71473 -6.9762,5.88104 -1.34366,1.16632 -4.49366,3.33048 -7,4.80927 -7.34534,4.33385 -5.87182,6.47534 7.10968,10.33258 10.48889,3.11659 12.0433,5.31598 6,8.48959 -14.8957,7.82241 -19.31357,11.60311 -13.55862,11.60311 1.48008,0 4.31124,0.82905 6.29152,1.84233 1.98026,1.01329 6.02592,2.24499 8.99039,2.73711 7.04284,1.16917 9.75935,5.02749 5.50315,7.81626 -3.06806,2.01027 -12.89308,16.84864 -12.89308,19.47194 0,0.80613 0.45,1.54312 1,1.63762 2.87206,0.4938 8.50498,1.05978 15.66666,1.57414 6.12992,0.44026 8.10366,1.09752 8.44344,2.81164 0.24388,1.23038 -0.1197,2.95824 -0.808,3.83968 -3.34298,4.28114 -9.24813,16.73182 -8.4918,17.9045 0.51324,0.79576 5.28227,1.06515 11.90256,0.6723 9.00922,-0.53462 11.29222,-1.11516 12.38026,-3.14818 0.73372,-1.37097 2.06292,-2.48296 2.95378,-2.47226 1.18011,0.0149 1.14863,0.31924 -0.116,1.12137 -1.6259,1.03129 -2.16844,8.4707 -3.48759,12.63647 -0.54308,1.71498 -1.17633,3.4008 -1.82039,5.08047 -0.93196,2.43054 -2.95628,4.92171 -2.95628,7.22807 0,1.2232 7.13582,0.49182 15.36201,-1.57453 4.7172,-1.18493 9.40952,-1.83484 10.42736,-1.44425 1.46705,0.56296 1.71211,3.35856 1.18229,13.48773 -0.84026,16.06423 -0.91882,16.03577 15.35256,5.56125 4.65786,-2.99844 6.44848,-3.41569 2.65169,-2.07968 -1.91087,0.6724 1.05456,-1.04809 2.42726,-2.5269 3.29943,-3.55448 2.43728,1.58849 3.93249,14.18046 1.2181,10.25818 1.71352,11.69016 4.16687,12.04364 2.05492,0.29608 3.24467,-0.71 4.54123,-3.84016 0.96625,-2.33274 3.40229,-6.04292 5.41344,-8.24482 2.19504,-2.40328 3.34868,-4.8654 2.8862,-6.15984 -0.53613,-1.50064 0.25689,-1.22158 2.60789,0.91772 1.85807,1.69074 5.00135,7.09074 6.98508,12 5.1029,12.62846 5.27576,12.87932 9.19811,13.34781 2.67696,0.31975 3.5334,-0.16451 3.5404,-2 0.005,-1.33204 0.90452,-4.14048 2,-6.24097 1.09548,-2.1005 1.99179,-4.57703 1.99179,-5.5034 0,-0.92639 0.89661,-2.42846 1.99246,-3.33794 2.39959,-1.99148 4.80731,0.57612 11.58239,12.3515 5.86208,10.18853 8.60591,10.11172 12.77768,-0.35775 z m 3.49788,-22.0245 c -4.19709,2.18884 -7.09621,2.59362 -7.33755,1.02447 -0.60177,-3.91275 -0.29652,-5.57887 1.84048,-10.04552 1.32768,-2.77504 4.2202,-9.97504 6.42783,-16 2.20763,-6.02496 6.08499,-15.22821 8.61635,-20.45167 2.53136,-5.22344 4.60248,-10.77344 4.60248,-12.33333 0,-1.55988 0.6,-2.83615 1.33333,-2.83615 0.73333,0 1.33333,-1.16458 1.33333,-2.58797 0,-3.484 2.21384,-4.65108 3.7194,-1.96083 1.08844,1.94502 1.3008,1.95469 2.01563,0.0919 0.52993,-1.38108 1.83155,-1.84372 3.86532,-1.37408 4.36521,1.00804 7.6418,1.58952 13.73299,2.43713 2.93333,0.40819 7.00257,1.41956 9.04275,2.2475 2.04018,0.8279 4.02812,1.18662 4.41764,0.7971 0.38952,-0.38952 4.32006,0.13436 8.73453,1.16419 4.41447,1.02984 8.60281,1.51612 9.30743,1.08064 0.70462,-0.43548 2.00485,-0.19311 2.88938,0.53861 0.88455,0.73172 3.10827,1.32738 4.9416,1.32438 5.80827,-0.0105 12,0.62594 12,1.23349 0,3.09631 -16.92908,20.31695 -21.57869,21.95032 -1.96827,0.69145 -4.53211,2.71229 -5.6974,4.49075 -1.16529,1.77846 -2.64459,3.23357 -3.28732,3.23357 -1.11581,0 -13.63579,7.84143 -17.07705,10.6956 -0.90226,0.74832 -3.45226,1.72295 -5.66667,2.16583 -2.21442,0.44288 -4.0262,1.36565 -4.0262,2.0506 0,0.68494 -0.63782,0.85116 -1.41735,0.36938 -0.77955,-0.48178 -2.42955,0.0181 -3.66667,1.1109 -1.23713,1.09277 -5.84932,3.0284 -10.24932,4.3014 -4.4,1.27298 -8.9,2.6323 -10,3.0207 -1.1,0.38843 -2.66732,0.6043 -3.48292,0.47963 -0.81561,-0.1246 -3.21561,0.67707 -5.33333,1.78149 z M 348.79872,443 c -2.61887,2.31923 -2.61807,2.33333 0.1308,2.33333 1.52112,0 4.48425,-0.8963 6.58474,-1.99178 2.1005,-1.09548 4.71908,-2.04388 5.81908,-2.10748 1.1,-0.0636 4.4,-1.52407 7.33334,-3.2454 2.93333,-1.72134 7.73333,-4.3349 10.66667,-5.80792 2.93333,-1.47303 7.32036,-4.5163 9.74896,-6.76282 2.42858,-2.24653 4.87052,-4.0846 5.42652,-4.0846 0.556,0 3.03786,-1.80966 5.51526,-4.02149 3.91898,-3.49887 4.25343,-4.26719 2.57347,-5.91199 -1.67268,-1.63769 -3.60131,-0.7562 -14.42244,6.59194 -6.87035,4.66533 -14.22035,9.19852 -16.33334,10.07374 -2.11297,0.87523 -3.84177,2.04574 -3.84177,2.60114 0,0.5554 -1.95,1.79942 -4.33333,2.76452 -4.53255,1.83538 -10.39702,5.60969 -14.8679,9.56881 z M 359.8797,427.97584 C 363.84686,425.78913 367.64589,424 368.32197,424 c 1.27672,0 10.17056,-6.9592 18.08407,-14.15032 l 4.56724,-4.15031 -3.65292,-0.91682 c -2.799,-0.70251 -4.90979,-0.044 -9.02956,2.81698 C 364.97037,416.84989 359.82861,420 358.05012,420 c -1.05199,0 -3.53124,1.5 -5.50944,3.33333 -1.9782,1.83334 -4.10912,3.33334 -4.73536,3.33334 -0.62626,0 -1.13864,1.2 -1.13864,2.66666 0,3.8625 4.60032,3.38987 13.21302,-1.35749 z M 347.5613,416 c 1.34207,0 18.33632,-8.33457 19.10538,-9.36993 0.36666,-0.49364 2.01666,-1.60846 3.66666,-2.47738 3.42686,-1.80464 4.03909,-5.48602 0.91235,-5.48602 -2.11671,0 -7.35913,2.37917 -8.57901,3.89341 -0.36667,0.45515 -2.16667,1.56096 -4,2.45739 -7.29488,3.56686 -12,7.3129 -12,9.55396 0,0.78572 0.40258,1.42857 0.89462,1.42857 z m -31.56129,41.81412 c 0,1.4734 -11.02043,0.70777 -18.66667,-1.29684 -4.03333,-1.05741 -11.23333,-2.80564 -16,-3.88493 -4.76666,-1.0793 -10.29237,-3.16311 -12.27934,-4.6307 -1.98698,-1.46758 -4.48698,-2.66833 -5.55555,-2.66833 -1.06859,0 -2.14288,-0.45 -2.38734,-1 -0.24444,-0.55 -4.34444,-3.66488 -9.1111,-6.92195 -14.12892,-9.6543 -27.99284,-21.5803 -34.19059,-29.41138 -3.19209,-4.03334 -6.70508,-8.28367 -7.80661,-9.44519 -2.94014,-3.10023 -2.53479,-3.57758 2.9972,-3.52948 10.36497,0.0901 47.56661,-3.98193 57.66667,-6.31211 6.1123,-1.41014 7.51086,-1.38837 8.39958,0.1308 0.58644,1.00247 1.78644,1.83946 2.66667,1.85996 0.88023,0.0205 4.20532,5.46042 7.38909,12.08867 3.18378,6.62825 6.65166,12.38252 7.7064,12.78725 1.14656,0.43983 1.60907,1.70839 1.15056,3.15302 -0.42436,1.33706 0.81328,5.58589 2.76984,9.50877 1.94536,3.90041 4.5227,9.18208 5.72743,11.73704 1.20473,2.55496 3.84043,7.42132 5.85709,10.81413 2.01667,3.3928 3.66667,6.55239 3.66667,7.02128 z m -24,-14.47771 c 0,-2.88501 -2.81904,-4.93316 -9.33333,-6.78102 -4.79679,-1.36067 -23.2513,-10.30611 -23.77778,-11.52578 C 258.64445,424.46332 257.88253,424 257.19573,424 c -0.68679,0 -3.67592,-1.53223 -6.64251,-3.40495 -13.86856,-8.75484 -17.21988,-10.03836 -17.21988,-6.59505 0,1.1 0.45,2.00217 1,2.00617 0.55,0.003 2.82188,1.71406 5.04861,3.80148 4.16976,3.9089 10.72684,7.83504 32.61806,19.53054 14.05085,7.50673 20,8.69604 20,3.99822 z m -4,-14.58294 c 0,-3.4727 -3.13281,-7.31064 -6.58671,-8.06924 -2.24397,-0.49286 -4.07996,-1.44844 -4.07996,-2.12351 0,-0.67505 -0.66632,-1.22739 -1.4807,-1.22739 -1.95322,0 -21.25063,-9.34768 -23.99314,-11.6223 -2.16043,-1.79184 -6.52616,-1.0777 -6.52616,1.06756 0,0.63796 1.35,1.9749 3,2.97098 1.65,0.99608 6.9,4.2399 11.66667,7.20846 4.76666,2.96857 12.13572,6.45556 16.37568,7.74886 4.23996,1.2933 8.02537,2.86332 8.41203,3.48895 0.72092,1.16648 3.21229,1.59896 3.21229,0.55763 z m -1.67129,-21.73959 c 0.4501,-1.35033 -11.08878,-7.67125 -13.23814,-7.25176 -0.50018,0.0976 -3.11504,-0.74407 -5.81078,-1.87041 -2.69574,-1.12636 -5.15063,-1.79866 -5.45529,-1.49399 -1.19304,1.19303 1.24344,4.93561 3.21316,4.93561 1.14714,0 3.09374,0.91227 4.32579,2.02726 1.23204,1.11498 4.8793,2.85241 8.10499,3.86094 6.49487,2.03066 8.12692,1.9924 8.86027,-0.20765 z m 36.0764,31.33036 c -2.74875,8.58781 -5.07178,12.31117 -5.07178,8.12907 0,-0.83972 -2.16085,-6.08972 -4.8019,-11.66667 -2.64106,-5.57695 -8.057,-17.03991 -12.03543,-25.47324 -14.15841,-30.01249 -14.16388,-30.02161 -17.82933,-29.78305 -4.66308,0.30348 -15.71374,1.42044 -31.33334,3.16704 -11.27761,1.26108 -16.21993,2.00485 -26.7598,4.02717 -3.58549,0.68796 -4.47356,-0.16719 -3.3212,-3.19813 1.21139,-3.18616 18.72917,-26.95639 28.56329,-38.75807 8.73834,-10.48665 9.3625,-12.31013 5.9078,-17.25963 -1.61054,-2.30744 -3.25718,-4.49533 -3.65918,-4.862 -0.402,-0.36666 -2.80043,-3.66666 -5.32986,-7.33333 -4.4346,-6.42841 -14.53366,-19.29507 -16.22134,-20.66667 -0.45116,-0.36666 -1.23663,-2.00101 -1.74548,-3.63188 -0.50886,-1.63088 -2.30891,-4.05366 -4.00014,-5.38398 -1.69121,-1.33031 -3.50996,-3.78936 -4.04164,-5.46454 -0.55018,-1.73346 -1.7115,-2.75998 -2.69533,-2.38245 -1.1444,0.43917 -1.51267,-0.16248 -1.0896,-1.78029 0.69391,-2.65358 4.82093,-4.33696 6.61337,-2.69768 1.9312,1.76617 10.85418,2.8374 11.73695,1.40904 0.51093,-0.82671 1.70979,-0.89143 3.10397,-0.16756 2.18319,1.1335 22.71266,3.8404 29.60486,3.9036 1.83333,0.0168 7.77476,0.0762 13.20316,0.13213 5.4284,0.0559 10.03924,-0.0677 10.24631,-0.27481 0.20706,-0.20706 0.60192,-2.05995 0.87746,-4.11752 0.27555,-2.05759 1.15506,-4.14675 1.95446,-4.64259 0.79941,-0.49584 2.44109,-4.30128 3.64818,-8.45652 1.2071,-4.15524 3.06675,-8.27871 4.13258,-9.16325 1.06581,-0.88456 1.94206,-2.28482 1.94606,-3.11168 0.005,-0.82688 0.95476,-3.30342 2.11164,-5.50342 1.15688,-2.2 3.61126,-8.8 5.45415,-14.66666 3.268,-10.40336 5.75933,-15.27298 5.75933,-11.25731 0,1.06848 2.9006,7.93848 6.44578,15.26667 3.54517,7.32818 7.70237,16.32397 9.23822,19.99064 4.7076,11.23881 13.08867,26.4429 15.36939,27.8816 1.50381,0.94858 3.53112,0.86841 6.66121,-0.26346 2.47474,-0.89486 6.85134,-1.90122 9.72579,-2.23634 2.87445,-0.33512 9.12628,-1.25235 13.89295,-2.03827 12.22736,-2.01605 15.95623,-2.58929 21.77167,-3.34695 2.80774,-0.3658 6.55774,-1.0297 8.33333,-1.47534 1.77559,-0.44571 3.22833,-0.46656 3.22833,-0.0464 0,0.80036 -19.34194,33.91061 -24.82514,42.49657 -1.74618,2.73428 -3.17486,5.54141 -3.17486,6.23809 0,0.69668 -0.75,2.0619 -1.66666,3.03383 -5.35712,5.68007 -5.50211,6.25939 -2.85826,11.42107 1.38871,2.71121 3.57492,6.109 4.85826,7.55062 1.28333,1.44163 2.33333,3.56367 2.33333,4.71566 0,1.152 1.2,2.84394 2.66667,3.75989 1.46666,0.91595 2.66666,2.42693 2.66666,3.35773 0,0.93082 1.2,2.71986 2.66667,3.97566 1.46667,1.2558 2.66667,3.45933 2.66667,4.89673 0,1.43741 0.7644,3.09328 1.69868,3.67972 0.93426,0.58644 2.69293,2.63207 3.90814,4.54584 1.21523,1.91377 3.02327,4.31377 4.0179,5.33333 2.49961,2.56227 7.22488,10.59251 8.27202,14.05767 0.82431,2.72776 0.61628,2.80656 -4.1813,1.5836 -2.77683,-0.70784 -10.44878,-2.15076 -17.04878,-3.20651 -15.9661,-2.55393 -23.31235,-3.99994 -35.65741,-7.01868 -7.43312,-1.8176 -10.63219,-2.10978 -11.42435,-1.04342 -0.60515,0.8146 -3.97837,8.38109 -7.49607,16.81442 -3.51769,8.43334 -8.09445,18.95144 -10.17056,23.37358 -2.0761,4.42213 -5.15704,12.3589 -6.8465,17.63726 z m 2.92822,-55.33495 c 0,-4.9648 -0.6097,-11.12293 -1.3549,-13.68476 -0.74519,-2.56182 -1.66831,-6.3905 -2.05136,-8.50817 -0.97415,-5.38541 -3.28355,-9.32655 -4.65908,-7.95101 -1.77527,1.77526 -5.61519,25.38858 -5.77631,35.52106 -0.10655,6.70003 0.37401,9.38054 1.84885,10.31292 7.06752,4.46804 11.9928,-1.97565 11.9928,-15.69004 z m -30.66666,-7.67596 c 0,-1.1 0.61485,-2 1.36633,-2 0.75148,0 1.91583,-1.35 2.58743,-3 0.6716,-1.65 2.4528,-4.8 3.95821,-7 3.47249,-5.07465 3.64065,-10 0.34143,-10 -1.49452,0 -4.4722,3.17256 -7.82144,8.33334 -7.53642,11.61272 -7.51419,11.55937 -5.71683,13.72506 2.09971,2.53 5.28487,2.49479 5.28487,-0.0584 z m 48.47066,1.21396 c 4.3119,-1.32334 4.33192,-1.52392 0.8054,-8.06308 -4.47361,-8.29537 -13.13442,-17.78821 -15.42658,-16.90862 -2.59239,0.9948 -2.25236,4.50022 0.81718,8.42441 1.43406,1.83333 2.62072,4.03333 2.63702,4.88889 0.0163,0.85555 0.50521,1.75555 1.08644,2 0.58124,0.24444 2.44304,2.71526 4.13734,5.49071 2.49324,4.08419 3.62631,4.87876 5.9432,4.16769 z m 28.1092,-7.18096 c 4.19082,-1.59334 4.47074,-5.62694 0.80744,-11.63493 -2.87856,-4.721 -5.6535,-6.39131 -19.3873,-11.66963 -5.13334,-1.97289 -10.53334,-4.10618 -12,-4.74062 -4.5231,-1.95658 -8.66667,-2.8788 -8.66667,-1.92888 0,2.02184 26.33384,26.9083 30.66667,28.98113 5.60485,2.68137 4.48101,2.55132 8.57986,0.99293 z m -89.51049,-13.04674 c 8.37267,-6.78427 11.16757,-10.27051 9.20573,-11.48282 -0.51797,-0.32006 -7.53261,1.41406 -15.58808,3.8536 -10.76043,3.25875 -15.44764,5.36719 -17.66667,7.94695 -3.61338,4.20081 -3.88076,8.06237 -0.68702,9.92255 5.53149,3.2218 10.82821,1.02905 24.73604,-10.24028 z m 41.65789,-15.59232 c 6.39836,-6.39835 2.53734,-22.0606 -5.43833,-22.0606 -4.91177,0 -12.62227,7.4552 -12.62227,12.20433 0,5.30749 3.52152,11.89559 5.87564,10.99223 1.02006,-0.39143 2.25072,-0.0708 2.73486,0.71254 1.51297,2.44806 6.03884,1.56278 9.4501,-1.8485 z m -33.39393,-7.13008 4,-1.23266 -5.68389,-2.33393 c -3.12615,-1.28367 -9.11568,-2.4157 -13.3101,-2.5156 -6.55686,-0.1562 -7.6965,0.17988 -8.12774,2.39687 -0.27587,1.4182 0.3723,3.2182 1.44038,4 2.27276,1.66358 15.90374,1.46574 21.68135,-0.31468 z m 55.83355,1.62328 c 3.02488,-0.52666 9.28788,-0.86562 13.91778,-0.75322 l 8.41799,0.20435 -0.41799,-4.3358 -0.418,-4.3358 -13.12325,0.18992 c -7.21779,0.10445 -13.701,0.76767 -14.40713,1.4738 -0.70615,0.70615 -0.87559,2.91073 -0.37654,4.89909 0.8575,3.41652 1.20959,3.56258 6.40714,2.65766 z m 13.43312,-20.73578 c 0.69666,-0.63325 2.43686,-1.15136 3.8671,-1.15136 1.43024,0 5.73738,-1.53476 9.57142,-3.41057 6.12977,-2.99903 7.06707,-4.00277 7.76733,-8.31795 0.5248,-3.23397 0.19392,-5.5098 -0.97033,-6.67405 -2.96031,-2.96031 -9.71131,-3.27265 -15.14118,-0.70053 -5.84157,2.76716 -28.90764,25.13994 -27.78752,26.95233 0.93726,1.51652 19.7719,-4.04252 22.69318,-6.69787 z m -64.26667,6.64887 c 3.37568,0.67437 -0.68484,-4.57743 -12.77176,-16.51879 -13.72139,-13.55616 -13.9494,-13.69061 -21.68088,-12.78493 -2.76956,0.32443 -4.70848,6.7082 -3.01086,9.91303 1.96908,3.71729 6.35804,7.59046 8.60126,7.59046 0.95135,0 2.20955,0.83203 2.79599,1.84895 0.58644,1.01692 4.05154,2.85573 7.70022,4.08625 3.6487,1.23051 7.2487,2.7454 8,3.3664 0.75132,0.62102 3.16603,1.3923 5.36603,1.71398 2.2,0.32168 4.45,0.67478 5,0.78465 z M 329.25688,312 c 1.92669,0 9.95897,-9.77659 13.38621,-16.29319 3.2792,-6.2351 3.28536,-6.3116 0.66667,-8.2882 -1.4537,-1.09725 -3.2359,-1.8177 -3.96046,-1.60101 -2.07848,0.6216 -13.07406,23.13701 -12.0826,24.74125 0.48988,0.79263 1.38546,1.44115 1.99018,1.44115 z m -24.18859,-4.2928 c 0.42513,-3.47931 -7.25001,-17.64839 -11.78096,-21.74884 -2.10136,-1.90171 -2.94029,-2.0196 -4.59564,-0.64579 -2.10929,1.75056 -2.76021,6.13846 -1.02501,6.90966 0.55,0.24444 3.33609,3.44444 6.1913,7.1111 2.85523,3.66667 6.45523,7.79032 8,9.16368 2.76914,2.46183 2.81435,2.45071 3.21031,-0.78981 z M 316.72508,308 c 2.67174,0 4.37109,-4.83973 6.02173,-17.14992 0.75101,-5.60088 1.6974,-12.37223 2.10309,-15.04744 0.89022,-5.87036 -2.50285,-13.8932 -6.29522,-14.88493 -1.83062,-0.47871 -3.52724,0.56748 -5.73195,3.53449 -5.43009,7.30756 -5.25256,13.38848 1.1838,40.5478 0.39103,1.65 1.61437,3 2.71855,3 z m 108.36921,92 c -0.65345,0 2.19169,-0.051 2.98951,-1.54171 1.18198,-2.20852 -2.12935,-5.58398 -5.88235,-13.0858 -2.53324,-5.06364 -6.07616,-11.19394 -7.87314,-13.62289 -1.797,-2.42895 -3.66008,-5.31627 -4.14018,-6.41627 -0.48009,-1.1 -2.38153,-4.4 -4.22541,-7.33333 -1.84388,-2.93333 -3.72776,-6.23333 -4.1864,-7.33333 -0.45864,-1.1 -2.18924,-3.5 -3.84579,-5.33334 -3.45346,-3.82204 -8.59718,-12.71648 -8.59718,-14.86614 0,-1.81979 9.47856,-17.64239 10.92968,-18.24496 0.58868,-0.24446 1.07032,-1.22099 1.07032,-2.17008 0,-0.9491 0.9,-2.47256 2,-3.38548 1.1,-0.91292 2,-2.79926 2,-4.19184 0,-1.3926 1.56472,-4.89647 3.47717,-7.78636 4.11307,-6.21527 7.23431,-11.82414 11.14181,-20.0218 5.26594,-11.04758 5.82591,-12 7.05547,-12 0.67312,0 1.90328,1.8 2.73368,4 0.83041,2.2 1.97829,4 2.55085,4 0.57256,0 1.04102,0.80781 1.04102,1.79514 0,2.01604 3.95926,10.51039 5.37802,11.53819 1.17208,0.84911 2.59818,8.10716 3.27476,16.66667 0.52538,6.64676 0.85875,8.42652 2.99699,16 0.62113,2.2 1.04533,7.6 0.94267,12 -0.25704,11.01582 -4.45172,37.75882 -6.72395,42.86817 -1.02767,2.31083 -1.86849,4.66511 -1.86849,5.23173 0,0.56663 -2.48647,6.02595 -5.52548,12.13183 C 428.76885,395.00428 425.74775,400 425.09429,400 Z m 10.97947,-37.66667 c 3.88479,-10.09269 1.89883,-66.22742 -2.4986,-70.62485 -2.39173,-2.39173 -7.67901,3.16471 -6.19827,6.51381 2.36554,5.35046 3.73296,35.3495 2.33984,51.33438 -1.17277,13.45665 -0.97181,16.2977 1.06383,15.03961 0.67069,-0.41451 1.21945,-0.11825 1.21945,0.65836 0,2.99248 2.48276,1.21207 4.07375,-2.92131 z m -15.89404,-7.71738 c 2.65268,0.15896 3.30308,-32.56427 0.90519,-45.5425 l -1.40294,-7.5932 -3.32194,2.17663 c -3.19223,2.09161 -3.28498,2.54436 -2.37508,11.5932 0.52078,5.17912 1.1294,15.23001 1.35248,22.33531 0.26436,8.4203 1.03068,13.62577 2.20076,14.94928 0.98733,1.11681 2.17602,2.05338 2.64153,2.08128 z M 408.50659,334.33333 C 407.58687,314.36159 405.57737,307.5106 402.83585,315 c -1.57185,4.29403 -0.71741,20.81759 1.26836,24.52803 3.08698,5.76806 4.8134,3.73093 4.40238,-5.1947 z m -199.94897,54.19066 c -2.36119,0.90609 -3.15555,0.89556 -5.55761,-0.0737 -0.93211,-6.1947 0,-0.0881 -1.51487,-7.6007 -0.82943,-0.9994 -2.15068,-5.29347 -2.93613,-9.54236 -0.78546,-4.2489 -2.2374,-8.9812 -3.22656,-10.51624 -0.98916,-1.53504 -1.48471,-6.73744 -2.1371,-10.12432 -0.91228,-4.73611 -2.24846,-9.43724 -2.48436,-14.25464 -0.55923,-11.42021 1.41344,-33.05979 2.55968,-34.20603 0.7733,-0.77329 1.4031,-2.336 1.3991,-3.47267 -0.004,-1.13666 1.7615,-7.76666 3.92289,-14.73333 2.16137,-6.96667 5.63006,-12.66743 6.13741,-14.86743 3.05366,-4.18833 -0.79257,-5.23524 0.90383,-1.18129 0.69659,2.53988 2.56617,6.43736 4.15465,8.66108 1.58847,2.22372 4.01331,6.14564 5.38855,8.71539 1.37524,2.56973 2.91484,4.97225 3.42133,5.33892 1.26574,0.91629 9.41158,12.96341 9.41158,13.91904 0,0.42454 1.78174,2.63633 3.95944,4.91508 2.17769,2.27874 4.31813,5.27328 4.75652,6.65453 0.43838,1.38124 1.65664,2.51135 2.70722,2.51135 1.05058,0 1.91015,0.91882 1.91015,2.04184 0,1.12302 0.84088,2.36453 1.86861,2.7589 2.12678,0.81612 3.86744,5.32339 3.4915,9.04087 -0.13952,1.37955 -3.96358,7.37955 -8.4979,13.33333 -4.5343,5.95378 -10.03326,13.52506 -12.21988,16.82506 -2.18661,3.3 -4.645,6.6 -5.46306,7.33333 -0.81808,0.73333 -2.91808,4.03333 -4.66667,7.33333 -1.7486,3.3 -3.62927,6.2 -4.17927,6.44444 -0.55,0.24446 -1,1.23026 -1,2.19068 0,0.96044 -0.94906,2.11044 -2.10905,2.55556 z m -1.54941,-23.54252 c 1.8253,-0.62582 1.92094,-4.84188 0.33985,-14.98147 -0.57176,-3.66667 -1.2174,-17.09509 -1.43476,-29.84096 -0.39893,-23.39316 -1.47561,-28.54308 -4.73235,-22.63552 -3.6414,6.60533 -1.6932,52.95131 2.70087,64.25152 0.80736,2.07628 2.21424,3.51917 3.12639,3.20643 z M 216.71604,349 c 0.40598,2.38333 1.28985,4.33333 1.96416,4.33333 2.57308,0 3.58112,-4.94602 2.58108,-12.66666 -0.56994,-4.4 -0.65049,-11.28989 -1.14875,-16.92131 -0.28807,-3.25577 -0.75009,-6.4942 -1.06389,-9.74759 -0.11231,-1.16443 -0.22384,-2.32946 -0.29305,-3.49725 -0.0905,-1.52683 0.99906,-3.18959 -0.15965,-4.58575 -2.75497,-3.31954 -3.64896,-2.12453 -3.80424,5.08523 -0.0829,3.85 -0.35004,8.5368 -0.5936,10.41511 -0.42385,3.26877 0.96189,18.45026 2.51792,27.58489 z m 14.66651,-5.07963 c 0.90268,-1.46057 1.09715,-17.45297 0.26264,-21.60053 -0.58858,-2.9254 -3.31461,-5.76152 -4.44822,-4.62791 -1.03374,1.03372 -0.76668,22.80728 0.31426,25.6242 0.90187,2.3502 2.62595,2.61931 3.87132,0.60424 z m 53.65397,-76.19785 c -1.22473,1.63772 -3.66174,2.27968 -8.67556,2.28668 -8.42802,0.0111 -9.99625,-0.42763 -8.77996,-2.45641 0.69424,-1.158 0.44212,-1.17532 -0.99169,-0.0681 -1.98128,1.52998 -2.649,1.5332 -13.92262,0.0673 -15.21096,-1.97791 -24.66666,-2.26172 -24.66666,-0.7404 0,1.03933 -0.6544,0.97182 -2.08446,-0.21502 -1.24386,-1.03232 -5.14205,-1.65198 -9.66666,-1.53665 -4.17022,0.10631 -6.91308,-0.23868 -6.09526,-0.76665 0.81783,-0.52796 1.94878,-2.45994 2.51323,-4.29327 0.56444,-1.83333 2.74532,-5.30421 4.84637,-7.71307 2.10106,-2.40884 3.82011,-5.29425 3.82011,-6.41201 0,-1.11776 0.51981,-1.71104 1.15513,-1.31839 0.63534,0.39266 2.24747,-0.49309 3.58255,-1.96833 1.33507,-1.47524 3.21525,-2.37992 4.17819,-2.0104 1.08585,0.41668 1.7508,-0.34095 1.7508,-1.99483 0,-1.46666 0.9,-3.01202 2,-3.43413 1.1,-0.42212 2,-1.60328 2,-2.62483 0,-1.02153 0.792,-1.85734 1.76,-1.85734 0.968,0 4.21338,-2.1 7.21196,-4.66667 2.99857,-2.56667 6.10656,-4.66667 6.90665,-4.66667 0.80009,0 1.45472,-0.6 1.45472,-1.33333 0,-0.73333 1.49492,-1.33333 3.32204,-1.33333 1.87803,0 4.04592,-1.15914 4.98739,-2.66667 0.91594,-1.46667 2.29417,-2.66667 3.0627,-2.66667 0.76855,0 3.71686,-1.18254 6.55181,-2.62788 5.82114,-2.9678 14.25546,-5.68958 24.07606,-7.76945 3.66667,-0.77655 8.46667,-1.87281 10.66667,-2.43615 2.2,-0.56333 4.7292,-1.06308 5.62045,-1.11068 9.77973,-0.5976 1.35978,-7.11239 3.64356,1.832 0.39638,0.64134 -0.17588,1.51011 -1.27166,1.9306 -1.09579,0.4205 -1.99235,1.73688 -1.99235,2.92532 0,1.18843 -3.63559,10.05726 -8.07908,19.70851 -4.44348,9.65125 -8.29553,18.52765 -8.56011,19.72533 -0.26457,1.19768 -1.75169,4.66826 -3.30469,7.7124 -1.553,3.04414 -2.46553,6.11422 -2.02785,6.8224 0.43768,0.70818 0.13925,1.2876 -0.66316,1.2876 -1.0327,0 0.19558,1.91967 0.0764,2.86884 -0.0887,0.70678 -0.1026,1.53014 -0.58326,2.05586 -0.92056,1.00686 -2.83967,0.1512 -3.82178,1.46449 z m -12.54168,-8.0194 c 0.81398,-1.30339 2.44264,-2.36979 3.61925,-2.36979 1.17661,0 3.28228,-1.26885 4.67927,-2.81968 1.397,-1.55082 3.88998,-3.33597 5.53998,-3.967 C 289.29181,249.41523 290.678,244 288.00916,244 c -2.27687,0 -12.00915,4.57707 -12.00915,5.64787 0,0.56034 -1.05,1.0438 -2.33333,1.0743 -3.16727,0.0753 -12.81035,8.76066 -11.70766,10.54483 1.36375,2.2066 8.87766,1.09128 10.53582,-1.56388 z m -19.1615,-6.59201 c 0,-0.85562 0.36393,-1.19162 0.80875,-0.74682 0.74301,0.74302 1.55566,0.2544 6.23752,-3.75033 1.30237,-1.11401 15.87416,-9.51229 26.28707,-15.15024 1.1,-0.59559 2.194,-2.06856 2.43109,-3.27329 1.12409,-5.71155 -14.30309,-0.1389 -29.43418,10.63228 -3.48504,2.48084 -6.86602,4.51062 -7.51332,4.51062 -1.08225,0 -5.4836,5.76991 -5.4836,7.18866 0,0.3387 1.05,0.89021 2.33334,1.22557 3.93916,1.02941 4.33333,0.97152 4.33333,-0.63645 z m -10.56411,-7.67522 c 2.1436,-2.14358 3.89744,-3.58142 3.89744,-3.1952 0,0.38622 2.07616,-1.12066 4.61368,-3.34865 2.53754,-2.22797 7.33754,-5.64715 10.66667,-7.59815 13.55931,-7.55909 4.52361,-1.69691 11.078,-6.3482 1.26958,-1.14894 2.90832,-2.21525 3.64166,-2.36957 5.01748,-1.05583 8.68223,-3.16136 8.77193,-5.03989 0.0668,-1.39734 0.3522,-1.59039 0.78055,-0.52792 0.97646,2.42204 3.11418,0.64621 3.11418,-2.587 0,-2.36631 -0.57972,-2.6387 -4.11221,-1.9322 -2.26171,0.45234 -5.71171,1.93985 -7.66667,3.30556 -1.95494,1.36572 -5.21972,2.88588 -7.25504,3.37814 -2.03532,0.49226 -4.83532,2.02976 -6.22221,3.41666 -1.38691,1.3869 -2.83218,2.21112 -3.21171,1.83158 -0.37953,-0.37953 -1.47953,-0.003 -2.44444,0.83706 -0.96492,0.83992 -5.65439,4.43442 -10.42105,7.98778 -10.55154,7.86576 -15.23824,12.75059 -14.061,14.6554 1.53273,2.48003 4.79588,1.56896 8.83022,-2.4654 z m 107.93146,22.29346 c -1.48537,-1.59436 -2.70068,-3.42415 -2.70068,-4.0662 0,-0.64204 -1.5,-4.4467 -3.33333,-8.45476 -1.83334,-4.00808 -3.33334,-7.65392 -3.33334,-8.10186 0,-0.79714 -5.65943,-13.60082 -9.09145,-20.10653 -1.66927,-3.16426 -3.92126,-5.99874 -5.57521,-9.17103 -1.58979,-3.04923 -1.87168,-5.44238 -4.1593,-9.44072 -2.58025,-4.50981 -3.68597,-7.74298 -2.91254,-8.51641 0.77342,-0.77343 5.14034,-0.70519 11.50282,0.17976 5.64086,0.78457 10.85151,1.05851 11.57923,0.60876 0.72772,-0.44976 1.32312,-0.21337 1.32312,0.52529 0,0.73868 3.6,2.35315 8,3.58774 4.4,1.23457 8,2.76561 8,3.40232 0,0.63669 1.2,1.15762 2.66667,1.15762 1.46666,0 2.66666,0.51787 2.66666,1.15082 0,0.63294 3.45,2.20278 7.66667,3.48852 4.21667,1.28573 9.76667,3.93545 12.33334,5.88825 2.56666,1.9528 6.20028,4.52053 8.07468,5.70608 1.87441,1.18555 8.77441,7.51645 15.33333,14.06869 11.08037,11.06908 16.55232,18.18175 15.1028,19.63127 -0.33236,0.33237 -3.58327,0.9208 -7.22423,1.30761 -3.64096,0.38682 -9.61992,1.28776 -13.28658,2.0021 -3.66667,0.71434 -13.56667,2.53484 -22,4.04554 -24.46394,4.38235 -27.47978,4.49135 -30.63266,1.10714 z m 20.66757,-11.53208 c -5.56444,-3.2831 -20.81804,-8.52526 -21.83821,-7.50508 -0.38125,0.38125 -0.13148,2.24741 0.55505,4.14702 0.87968,2.43407 3.41347,4.37532 8.58158,6.57478 11.33012,4.82188 21.82239,2.16469 12.70158,-3.21672 z m 9.96506,-4.0374 c 0,1.3861 3.64088,1.3891 7.16335,0.005 2.42081,-0.9512 2.42242,-1.05532 0.0529,-3.42483 -1.34409,-1.34409 -4.36262,-3.24555 -6.70785,-4.22544 -2.34523,-0.97991 -4.46903,-2.29451 -4.71955,-2.92135 C 376.29416,239.52143 349.10709,228 345.04622,228 c -2.1665,0 -0.95629,6.62097 1.44515,7.90617 1.37024,0.73341 2.79817,1.02652 3.17319,0.65151 0.375,-0.375 3.15788,0.60877 6.18417,2.18616 3.02629,1.5774 6.34871,2.54321 7.38315,2.14627 1.03442,-0.39695 2.16034,0.007 2.50204,0.89725 0.34169,0.89044 3.99134,3.32409 8.11035,5.40812 4.11898,2.08401 7.48908,4.31759 7.48908,4.96349 z m 21.33336,-7.25743 c 0,-1.80748 -12.7664,-12.90244 -14.84616,-12.90244 -0.63461,0 -1.16682,-0.75 -1.18272,-1.66667 -0.0159,-0.91666 -5.08887,-4.21733 -11.27331,-7.3348 -9.71507,-4.89722 -15.59516,-6.90441 -31.03115,-10.5926 -2.0366,-0.48661 -3,-0.11025 -3,1.17196 0,2.61823 2.72752,5.08878 5.6181,5.08878 1.32994,0 3.45994,0.54956 4.73333,1.22124 4.84729,2.55685 13.072,5.99093 15.21808,6.35402 1.22988,0.2081 8.98683,4.88879 17.23766,10.40154 14.9752,10.00564 18.52617,11.58866 18.52617,8.25897 z"
         id="path24"
         sodipodi:nodetypes="sssssssssssssssssssssssssssscssssssssssssssssssssssssssssssssssscssssssssssssssssssssscsssssssssssccccscssssssssssssssssscsaassssssssssssssscsssssssssssssssssssssscssssssssssssssssssssssssssssssssscssssssssssssssssssssssssssssscsssssssssssscsssssssssssssssssssssssssssssssssssssssssssssssssscssssssssssssssssssssssssssssssssssssssssssssssssssssssssssssssssssssssssssssscssssssscccsssssssssssssssssssssssssssssssssssssssssssssssssssssssssssssssssssssssssssssscssssssssssccssaascsccsssssssssssssssssssssssssssaaassssssssssscssssssssssssssssssssssssssccsssssssaassssssssssssssssssssssssccsssssssssssssssssaassssssssssssssssssssssssssssscssssssssssssssssss" />
    </g>
  </g>
</svg>
