<?xml version="1.0" encoding="UTF-8" standalone="no"?>
<!-- Created with Inkscape (http://www.inkscape.org/) -->

<svg
   xmlns:dc="http://purl.org/dc/elements/1.1/"
   xmlns:cc="http://creativecommons.org/ns#"
   xmlns:rdf="http://www.w3.org/1999/02/22-rdf-syntax-ns#"
   xmlns:svg="http://www.w3.org/2000/svg"
   xmlns="http://www.w3.org/2000/svg"
   xmlns:sodipodi="http://sodipodi.sourceforge.net/DTD/sodipodi-0.dtd"
   xmlns:inkscape="http://www.inkscape.org/namespaces/inkscape"
   width="396.1344"
   height="673.30511"
   id="svg2"
   version="1.1"
   inkscape:version="0.47 r22583"
   sodipodi:docname="Nuovo documento 1">
  <defs
     id="defs4">
    <inkscape:perspective
       sodipodi:type="inkscape:persp3d"
       inkscape:vp_x="0 : 526.18109 : 1"
       inkscape:vp_y="0 : 1000 : 0"
       inkscape:vp_z="744.09448 : 526.18109 : 1"
       inkscape:persp3d-origin="372.04724 : 350.78739 : 1"
       id="perspective10" />
    <inkscape:perspective
       sodipodi:type="inkscape:persp3d"
       inkscape:vp_x="0 : 526.18109 : 1"
       inkscape:vp_y="0 : 1000 : 0"
       inkscape:vp_z="744.09448 : 526.18109 : 1"
       inkscape:persp3d-origin="372.04724 : 350.78739 : 1"
       id="perspective2932" />
    <inkscape:perspective
       id="perspective2942"
       inkscape:persp3d-origin="0.5 : 0.33333333 : 1"
       inkscape:vp_z="1 : 0.5 : 1"
       inkscape:vp_y="0 : 1000 : 0"
       inkscape:vp_x="0 : 0.5 : 1"
       sodipodi:type="inkscape:persp3d" />
    <inkscape:perspective
       id="perspective2956"
       inkscape:persp3d-origin="0.5 : 0.33333333 : 1"
       inkscape:vp_z="1 : 0.5 : 1"
       inkscape:vp_y="0 : 1000 : 0"
       inkscape:vp_x="0 : 0.5 : 1"
       sodipodi:type="inkscape:persp3d" />
    <inkscape:perspective
       id="perspective2970"
       inkscape:persp3d-origin="0.5 : 0.33333333 : 1"
       inkscape:vp_z="1 : 0.5 : 1"
       inkscape:vp_y="0 : 1000 : 0"
       inkscape:vp_x="0 : 0.5 : 1"
       sodipodi:type="inkscape:persp3d" />
    <inkscape:perspective
       id="perspective3056"
       inkscape:persp3d-origin="372.04724 : 350.78739 : 1"
       inkscape:vp_z="744.09448 : 526.18109 : 1"
       inkscape:vp_y="0 : 1000 : 0"
       inkscape:vp_x="0 : 526.18109 : 1"
       sodipodi:type="inkscape:persp3d" />
  </defs>
  <sodipodi:namedview
     id="base"
     pagecolor="#ffffff"
     bordercolor="#666666"
     borderopacity="1.0"
     inkscape:pageopacity="0.0"
     inkscape:pageshadow="2"
     inkscape:zoom="0.35"
     inkscape:cx="110.21006"
     inkscape:cy="390.93829"
     inkscape:document-units="px"
     inkscape:current-layer="layer1"
     showgrid="false"
     inkscape:window-width="550"
     inkscape:window-height="481"
     inkscape:window-x="88"
     inkscape:window-y="116"
     inkscape:window-maximized="0" />
  <metadata
     id="metadata7">
    <rdf:RDF>
      <cc:Work
         rdf:about="">
        <dc:format>image/svg+xml</dc:format>
        <dc:type
           rdf:resource="http://purl.org/dc/dcmitype/StillImage" />
        <dc:title></dc:title>
      </cc:Work>
    </rdf:RDF>
  </metadata>
  <g
     inkscape:label="Livello 1"
     inkscape:groupmode="layer"
     id="layer1"
     transform="translate(-264.78994,-249.99537)">
    <g
       transform="matrix(-1,0,0,-1,757.14286,1059.0101)"
       id="layer1-7"
       inkscape:label="Livello 1">
      <g
         transform="translate(-145.30531,-20.322347)"
         inkscape:label="Livello 1"
         id="layer1-0">
        <g
           id="g2986"
           transform="translate(634.28571,62.857143)">
          <path
             style="fill:#d7aba6"
             d="m -75.64413,765.65122 c -4.26264,-0.78255 -7.57459,-2.03987 -9.06736,-3.44226 -1.29349,-1.21516 -5.11018,-3.29039 -8.48154,-4.61162 -3.79523,-1.48734 -7.30425,-3.73992 -9.21366,-5.91461 -2.2272,-2.53664 -4.24868,-3.70916 -7.27674,-4.22075 -3.19729,-0.54018 -5.15137,-1.75234 -8.22973,-5.1051 -3.38091,-3.68227 -4.87387,-4.52903 -9.18768,-5.21095 -3.2686,-0.5167 -6.33041,-1.80681 -8.37891,-3.53051 -4.48943,-3.7776 -7.91492,-3.2401 -10.1853,1.59821 -2.42388,5.16545 -4.597,6.11426 -9.79966,4.27865 -2.52342,-0.89031 -7.79707,-1.48724 -13.13924,-1.48724 -9.78062,0 -13.43224,-1.22603 -16.19074,-5.43603 -0.91471,-1.39603 -3.49058,-3.47054 -5.72414,-4.61002 -4.65676,-2.3757 -6.53918,-5.94978 -7.51741,-14.27302 -0.96612,-8.22018 1.34563,-28.33313 3.83631,-33.37702 1.97308,-3.99569 1.99069,-4.32024 0.36881,-6.79554 -4.04462,-6.17287 -10.07597,-5.42209 -16.16815,2.01262 -2.14657,2.6196 -4.60432,4.46402 -6.43684,4.83052 -1.63043,0.32609 -3.75822,1.57302 -4.72843,2.77097 -5.32581,6.57594 -7.7489,7.39264 -11.3246,3.81694 -3.156,-3.156 -2.2407,-7.04754 2.16434,-9.20191 2.40363,-1.17555 4.19773,-3.07968 5.38734,-5.71778 1.31373,-2.91333 2.68153,-4.25163 5.19224,-5.08024 2.18583,-0.72139 4.28612,-2.51495 5.85462,-4.99962 1.91709,-3.03687 3.47476,-4.1699 7.204,-5.24011 4.17455,-1.198 5.09856,-1.9907 7.53482,-6.46404 l 2.77678,-5.09858 -1.00396,-21.07327 c -0.55217,-11.5903 -0.72067,-29.5424 -0.37444,-39.89357 0.34622,-10.35116 0.33867,-19.97908 -0.0168,-21.39537 -0.41795,-1.66524 -1.70841,-2.94533 -3.65233,-3.62298 -2.45585,-0.85612 -3.00603,-1.60651 -3.00603,-4.09993 0,-3.36381 -2.23405,-6.08745 -7.0256,-8.56526 -3.17651,-1.64263 -5.9744,-6.58495 -5.9744,-10.55343 0,-1.172 -1.34575,-3.38803 -2.99056,-4.92451 -1.6448,-1.53648 -3.5573,-4.51592 -4.25,-6.62098 -1.0655,-3.238 -1.95206,-4.06784 -5.75719,-5.38889 -3.53312,-1.22662 -4.99681,-2.46623 -6.82476,-5.77995 -1.59305,-2.88787 -3.17083,-4.3886 -5.00226,-4.75796 -1.47137,-0.29674 -5.1998,-1.18126 -8.28539,-1.9656 -4.50253,-1.14452 -6.81607,-1.20181 -11.71813,-0.29018 -4.77314,0.88766 -6.95754,0.85551 -9.99551,-0.14711 -2.90854,-0.9599 -4.41099,-1.00286 -5.96613,-0.17058 -1.14322,0.61184 -4.47067,1.11857 -7.39433,1.12608 -7.94784,0.0204 -9.48987,0.71466 -11.2262,5.05417 -1.10706,2.76682 -2.69535,4.45567 -5.56915,5.92178 -3.23377,1.64974 -4.01346,2.58513 -3.98495,4.78072 0.0195,1.50133 0.67854,3.85468 1.46456,5.22968 2.23733,3.91379 1.81154,5.69575 -1.64922,6.90217 -9.81992,3.42324 -15.04432,-1.45738 -13.38741,-12.50647 0.46159,-3.07808 1.81812,-5.75471 4.46853,-8.81701 2.09315,-2.41845 4.09327,-5.54284 4.44471,-6.94308 0.45928,-1.82991 1.62523,-2.81822 4.14584,-3.5142 1.92878,-0.53256 4.85624,-2.10371 6.50548,-3.49146 1.64923,-1.38774 6.19203,-3.55167 10.09509,-4.80874 l 7.09648,-2.28557 4.01914,4.76159 4.01915,4.7616 3.44903,-4.02942 c 3.96806,-4.63579 6.39796,-5.03693 12.29318,-2.02941 2.81826,1.43777 5.89377,2 10.94036,2 5.19969,0 8.7755,0.68234 13.78984,2.63138 3.72339,1.44726 7.93588,3.04727 9.36109,3.55558 1.44884,0.51674 3.31545,2.44278 4.23382,4.36862 2.08381,4.36979 4.19638,4.36975 6.77467,-1.2e-4 2.26131,-3.83263 12.20085,-9.84993 20.21252,-12.23645 3.57906,-1.06613 4.72934,-1.86729 4.48857,-3.12625 -0.27106,-1.41739 -1.81087,-1.73932 -9.46565,-1.97901 l -9.14192,-0.28624 -3.71711,4.53624 c -4.73899,5.78332 -7.0895,5.85565 -13.00789,0.40026 -4.83312,-4.45501 -8.88044,-5.74342 -18.28404,-5.82046 -6.17084,-0.0506 -7.64187,-0.70116 -12.44482,-5.50411 -3.02349,-3.02349 -4.20792,-3.53944 -8.12525,-3.53944 -4.22287,0 -4.79013,0.30874 -7.16736,3.90098 -3.14173,4.74748 -5.86826,5.67759 -8.60902,2.93683 -1.74229,-1.74229 -1.923,-2.7958 -1.34049,-7.81476 0.6424,-5.53492 0.5481,-5.88635 -2.0559,-7.66202 -1.50106,-1.02357 -5.05917,-4.11103 -7.90692,-6.86103 -7.62332,-7.36163 -13.14568,-11.5 -15.34592,-11.5 -1.22117,0 -2.41073,1.12209 -3.19385,3.01272 -0.70463,1.70113 -2.24428,3.26279 -3.53656,3.58714 -2.84129,0.71311 -9.16323,-2.18023 -10.59037,-4.84687 -1.85406,-3.46435 1.48047,-5.22685 10.77521,-5.69537 3.64084,-0.18353 1.49388,-7.42746 -3.0919,-10.43217 -1.40311,-0.91936 -2.55111,-2.16805 -2.55111,-2.77488 0,-0.60683 -4.65808,-8.13396 -10.35129,-16.72695 -18.90942,-28.54076 -19.82239,-30.31943 -20.95827,-40.83187 -0.972,-8.99571 -1.09532,-9.31149 -5.3427,-13.68145 -4.21196,-4.33351 -4.34774,-4.67319 -4.34774,-10.8766 0,-3.74379 -0.84567,-8.97944 -2.03609,-12.60564 -1.11985,-3.41123 -1.79072,-6.59927 -1.49081,-7.08453 0.29991,-0.48526 -0.0685,-1.49604 -0.8186,-2.24617 -2.97929,-2.9793 -5.32239,-23.48437 -3.45815,-30.26319 1.28238,-4.66304 1.38437,-10.97348 0.28911,-17.88736 -0.55464,-3.50115 -0.26818,-6.86368 1.02824,-12.06985 1.68826,-6.77965 1.69684,-7.51083 0.14169,-12.07494 -3.03508,-8.90745 -1.50083,-19.50273 3.55639,-24.55995 2.36128,-2.36129 2.82307,-3.50693 2.32592,-5.77042 -0.34116,-1.55331 -0.10613,-4.13988 0.5223,-5.74793 0.62843,-1.60804 1.20952,-7.35123 1.2913,-12.76264 0.13835,-9.15434 0.31969,-9.97734 2.60625,-11.82835 2.52167,-2.04135 6.0867,-2.10069 17.63135,-0.29347 3.07079,0.48071 4.49192,0.23706 5.70751,-0.97853 2.31127,-2.31127 1.08864,-4.37996 -3.28461,-5.55755 -6.81275,-1.83449 -6.10116,-8.54302 1.25116,-11.7953 4.13636,-1.82971 4.45902,-2.27743 6.15397,-8.53907 1.24809,-4.6108 1.68209,-9.1026 1.4359,-14.86104 -0.31681,-7.4105 -0.16247,-8.29098 1.51206,-8.6258 1.17369,-0.23467 3.46783,1.20029 6.18965,3.87155 l 4.32475,4.24442 7.57558,-3.74316 c 4.16657,-2.05874 8.02262,-4.57846 8.56899,-5.59937 0.54638,-1.02091 4.42665,-4.44013 8.62283,-7.59827 7.1458,-5.37808 7.98515,-5.74427 13.24136,-5.77684 3.08657,-0.0191 7.46449,0.34041 9.72871,0.79897 4.05528,0.82128 4.14488,0.77733 6,-2.94347 3.39785,-6.81505 13.87538,-9.90254 17.97825,-5.29779 2.69282,3.02222 7.58268,4.86199 12.92253,4.86199 4.35594,0 10.51424,-2.22406 10.45464,-3.77568 -0.0153,-0.39838 -1.3653,-2.49198 -3,-4.65246 -2.478,-3.27501 -2.96958,-4.85457 -2.95656,-9.5 0.0322,-11.48545 4.29404,-22.056644 8.38576,-20.800274 1.95848,0.601356 4.69056,7.463284 5.74468,14.428404 0.56603,3.74001 1.908,8.31922 2.98217,10.17604 1.07417,1.85682 1.82225,3.48377 1.66241,3.61545 -0.15985,0.13168 -2.20314,1.43061 -4.54064,2.88651 -2.3375,1.45591 -4.25,3.07562 -4.25,3.59937 0,1.79204 3.8677,3.02264 9.5,3.02264 9.13041,0 11.87719,-2.8407 7.3778,-7.63008 l -2.1222,-2.25898 4.8722,-3.11317 c 5.63237,-3.5989 8.15655,-3.4924 14.34879,0.60543 4.29246,2.84062 4.58952,3.4705 3.01989,6.40337 -1.35755,2.53662 2.15748,4.99343 7.14424,4.99343 7.06266,0 8.4556,-1.6719 4.71251,-5.65623 -2.6864,-2.85954 -1.95659,-3.89061 7.01278,-9.9077 5.41212,-3.6307 6.77464,-4.143 8.88496,-3.34065 4.39731,1.67185 14.24913,9.14014 14.24615,10.79947 -0.002,0.88281 -1.35028,2.50511 -2.99712,3.60511 -3.33887,2.23019 -3.82261,3.97036 -1.36576,4.91314 3.50426,1.34471 8.32669,-0.57601 11.49732,-4.57925 2.5929,-3.2738 3.64105,-3.89021 6.18578,-3.6378 2.53682,0.25163 3.50416,1.15156 5.62327,5.23139 3.46847,6.67771 4.78877,7.32949 10.45987,5.16368 3.52491,-1.34618 5.21457,-2.78453 7.14936,-6.08599 1.39346,-2.37776 3.18979,-4.57502 3.99186,-4.8828 4.05834,-1.55733 7.66888,3.97585 7.60935,11.66139 -0.0687,8.87467 4.98024,15.89712 11.57561,16.10011 l 3.77334,0.11613 0.09217,-6.5 c 0.19694,-13.88841 2.1192,-31.54117 3.78549,-34.76341 0.92053,-1.78013 1.878,-3.23659 2.1277,-3.23659 0.69138,0 4.64665,8.04713 5.6384,11.47153 1.48231,5.11826 2.10398,28.5747 0.89832,33.89509 -0.60655,2.67665 -0.84761,5.67072 -0.53569,6.65351 0.6837,2.15416 6.29825,4.97987 9.89474,4.97987 2.16997,0 2.59887,-0.45493 2.59887,-2.7566 0,-1.51613 -0.44708,-4.31548 -0.99351,-6.22078 -0.78172,-2.72568 -0.67513,-3.78255 0.5,-4.95768 1.32468,-1.32468 1.49351,-1.20963 1.49351,1.01783 0,1.6211 1.44027,3.9126 4.06297,6.46428 5.18633,5.04588 8.13022,9.78592 7.34638,11.82858 -0.33792,0.88062 -0.0613,3.90687 0.61479,6.72501 1.12397,4.68522 1.60799,5.29144 5.65368,7.08104 7.40971,3.27767 8.15255,9.97909 1.31038,11.8215 -2.08041,0.56019 -4.0347,1.67563 -4.34289,2.47874 -1.37586,3.58545 5.8314,5.93887 10.51357,3.43305 5.4793,-2.93243 8.96289,1.71976 13.745,18.35587 3.7346,12.99202 3.81946,14.48733 0.84612,14.90961 -1.2375,0.17575 -2.025,0.76955 -1.75,1.31955 0.275,0.55 0.95,0.83377 1.5,0.63059 2.85472,-1.05456 4.17079,-0.19404 6.68255,4.36941 1.51363,2.75 3.28822,7.36181 3.94354,10.24848 1.02282,4.50551 0.935,6.09558 -0.6204,11.23272 -1.74092,5.74986 -1.74232,6.24125 -0.0358,12.54564 1.29381,4.77971 1.5748,7.97501 1.03481,11.76728 -0.75879,5.32885 -0.81029,8.08533 -0.50834,27.20588 0.129,8.1685 -0.25691,12.15834 -1.49922,15.5 -0.92011,2.475 -2.01851,6.3 -2.44088,8.5 -0.42237,2.2 -1.33519,6.925 -2.02849,10.5 -0.6933,3.575 -1.6988,8.90453 -2.23444,11.8434 -0.69764,3.82765 -1.90263,6.32803 -4.2479,8.81445 -2.64557,2.80481 -3.3889,4.56235 -3.87267,9.1566 -0.70897,6.733 -3.79712,16.14708 -6.57783,20.05223 -1.09239,1.53413 -2.74518,5.81096 -3.67286,9.50406 -1.36967,5.45267 -2.2042,6.98235 -4.44005,8.13856 -3.41638,1.76667 -8.98202,11.39672 -8.98202,15.54129 0,5.55012 -3.49826,9.4912 -4.18045,4.70963 -0.62692,-4.39419 -3.80247,-3.26166 -10.50828,3.74768 -7.81685,8.17066 -7.83186,10.31828 -0.0835,11.94601 1.76026,0.36979 4.16824,2.48092 6.78897,5.95205 4.48161,5.93585 5.98325,9.99867 5.98325,16.18821 0,2.25906 0.50117,5.54505 1.11372,7.30221 1.39571,4.00372 -0.32948,6.25247 -6.13001,7.99035 -3.00892,0.9015 -4.45662,2.10168 -5.9147,4.90347 -2.1903,4.20877 -11.09715,12.2098 -13.59212,12.2098 -1.7802,0 -13.85415,-6.36368 -16.72689,-8.81605 -1.17636,-1.00423 -1.75,-2.93974 -1.75,-5.90468 0,-7.30927 -1.11286,-8.40658 -8.31132,-8.19518 -3.40377,0.1 -9.56368,-0.12768 -13.68868,-0.50586 -11.77307,-1.07935 -16.22398,2.6077 -10.07827,8.34866 4.04315,3.77687 3.90112,5.64644 -0.54031,7.11224 -4.81406,1.58879 -11.59757,0.72261 -14.9417,-1.90789 -3.16234,-2.48749 -7.11254,-2.71261 -11.97184,-0.68227 -3.157,1.31908 -3.46788,1.81621 -3.46788,5.54546 0,4.70272 -2.79585,8.18667 -8.4735,10.55895 -6.80712,2.84419 -7.47582,8.73467 -1.5265,13.44662 2.88632,2.28601 3.99654,3.91032 3.98758,5.83403 -0.0166,3.57158 -4.27437,18.56105 -6.8643,24.16597 -2.6949,5.83211 -2.64401,8.02799 0.31906,13.76841 1.85258,3.58902 2.73739,7.65345 3.66418,16.83155 1.10129,10.90614 1.04872,12.63275 -0.53276,17.5 -2.27625,7.00549 -4.05159,8.90004 -8.34004,8.90004 -3.44818,0 -3.4547,0.009 -2.77627,3.75 2.28889,12.62188 3.92447,17.54025 7.64011,22.97462 2.17184,3.17646 4.64909,8.15091 5.50499,11.05434 0.94112,3.19247 2.45684,5.86907 3.83487,6.77199 1.25327,0.82118 3.09822,3.31049 4.0999,5.53181 1.99111,4.41549 3.98548,5.91724 7.8583,5.91724 1.61283,0 3.9307,1.41771 6.40678,3.91865 2.5513,2.57692 5.3893,4.2869 8.28864,4.99414 2.42493,0.59152 5.75896,1.57597 7.40896,2.18768 1.65,0.6117 4.8,1.77644 7,2.5883 3.18338,1.17476 5.12285,1.26202 9.5,0.42742 10.10379,-1.92649 23.43268,-3.96899 30.03199,-4.60207 7.76702,-0.74509 10.08173,-1.80132 8.15777,-3.72248 -0.94321,-0.94184 -5.54485,-1.30307 -16.99164,-1.33385 -19.28224,-0.0518 -24.77058,-0.87564 -26.83617,-4.02814 -1.48061,-2.25969 -5.42089,-4.04042 -14.06172,-6.35491 -2.696,-0.72213 -4.94869,-2.17668 -6.29136,-4.06228 -1.40719,-1.97622 -3.30508,-3.15631 -5.80022,-3.60653 -5.2904,-0.95459 -6.96807,-2.03456 -8.83217,-5.68557 -0.90432,-1.7712 -3.27147,-5.08694 -5.26035,-7.36833 -5.87491,-6.73895 -10.9542,-15.49794 -12.25495,-21.13308 -1.41501,-6.13017 -0.62372,-7.57342 4.07898,-7.43971 4.16754,0.11849 4.93367,0.7606 7.19112,6.02703 1.08117,2.52227 3.46266,6.03971 5.2922,7.81653 1.99585,1.93835 3.59906,4.68383 4.008,6.86367 0.58081,3.09598 1.33067,3.9113 5.07241,5.5152 2.83501,1.21523 5.32027,3.2866 7.01387,5.84581 2.54405,3.84431 2.83925,3.98534 9.80264,4.683 9.56003,0.95782 15.37984,2.80815 18.63182,5.92374 l 2.68065,2.56823 27.93357,0.06 c 17.5905,0.0378 28.97592,-0.33663 30.74866,-1.01122 8.58231,-3.26584 15.68491,0.33373 15.68491,7.94906 0,5.5746 -1.45056,7.97971 -4.81268,7.97971 -3.60422,0 -7.18732,2.58671 -7.18732,5.18867 0,3.38943 4.06165,8.93914 7.63495,10.43216 5.77626,2.41348 6.0638,9.34749 0.43534,10.49863 -4.19589,0.85815 -7.33106,-0.26323 -11.86453,-4.24366 l -3.47748,-3.05327 -15.11414,0.68399 c -12.88201,0.58298 -15.90733,1.03914 -20.48498,3.08874 -2.95397,1.32261 -6.23092,2.40474 -7.28212,2.40474 -3.21751,0 -8.84704,2.80858 -8.84704,4.41379 0,2.31228 3.29833,3.58621 9.28504,3.58621 6.83734,0 11.14877,1.48694 13.14493,4.53347 2.20675,3.36792 7.8754,4.74235 17.84148,4.32586 7.86561,-0.32871 8.85367,-0.60404 11.59529,-3.23115 3.30977,-3.17152 8.42828,-4.44645 14.63326,-3.6449 l 4,0.51672 0,4.99553 0,4.99552 -4.5,0.81778 c -10.54091,1.91559 -10.47216,1.87465 -10.80565,6.43539 -0.24007,3.28331 0.15362,4.56361 1.83516,5.96792 1.17744,0.98332 3.0169,3.6256 4.08768,5.87172 1.26809,2.66002 3.35208,4.87363 5.97726,6.34907 4.52777,2.54474 6.31932,6.04795 5.45342,10.6636 -0.49823,2.65577 -1.65556,3.67374 -7.81634,6.87513 -3.97734,2.06678 -7.90653,4.32648 -8.73153,5.02156 -2.23346,1.88172 -33.5822,2.7379 -42.21557,1.15296 z m 40.05438,-13.54312 c 0.24522,-1.73488 -0.72151,-3.40378 -3.5,-6.04216 -2.11135,-2.00487 -4.62191,-4.63875 -5.57902,-5.85306 -2.24129,-2.84356 -3.92069,-2.78478 -7.544,0.26404 -3.8269,3.22012 -6.36584,4.12473 -14.07687,5.01547 -4.28486,0.49497 -7.01025,1.38398 -8.35,2.72373 -3.57692,3.57692 -1.01382,4.30057 14.00179,3.95315 10.76898,-0.24916 14.45996,0.0167 17.20929,1.23952 4.75096,2.11311 7.41884,1.67043 7.83881,-1.30069 z m -114.01256,-29.43936 c 0.43279,-2.24732 -10.88707,-12.81765 -14.90948,-13.92228 -3.15168,-0.86551 -7.45232,-5.92346 -12.16782,-14.31049 -1.78692,-3.17823 -3.66657,-5.81287 -4.177,-5.85477 -1.73932,-0.14274 -2.27733,4.95108 -1.54525,14.63038 1.18652,15.68791 4.17963,18.55524 21.4733,20.57087 10.09938,1.17712 10.90024,1.09837 11.32625,-1.11371 z m -16.8895,-118.9137 c -0.0348,-2.3375 -0.40501,-9.15624 -0.82271,-15.15276 -0.69742,-10.01229 -0.96763,-11.07406 -3.30839,-13 -3.92794,-3.23187 -5.08556,-6.24498 -4.33141,-11.27404 0.74539,-4.97059 -0.46508,-7.3232 -3.76794,-7.3232 -2.54278,0 -5.7063,2.75276 -5.7063,4.96537 0,2.7237 4.84867,14.24415 6.93065,16.46727 2.73352,2.9188 4.06544,6.94745 4.0938,12.38246 0.0455,8.72891 3.06214,17.1849 6.13054,17.1849 0.46475,0 0.81655,-1.9125 0.78176,-4.25 z m 1.24864,-104.4362 2.07293,-4.68621 -2.23994,-1.81379 c -2.88134,-2.33317 -4.5431,-2.28908 -7.01838,0.1862 -3.65004,3.65004 -1.78129,11 2.79678,11 1.79658,0 2.78037,-1.0505 4.38861,-4.6862 z m 112.33228,-24.5638 c -0.51325,-6.83445 -1.12854,-9.58839 -2.35616,-10.54582 -3.51238,-2.73931 -6.03072,4.19177 -5.37322,14.78838 0.18311,2.95107 2.65078,5.00744 6.009,5.00744 l 2.41503,0 -0.69465,-9.25 z m -17.63926,-1.83366 c 1.29373,-2.31281 1.24482,-2.99423 -0.46658,-6.5 -1.49051,-3.05328 -2.708,-4.1131 -5.52462,-4.80919 -4.22709,-1.04466 -8.43713,-0.22242 -9.21295,1.79932 -0.32174,0.83845 1.58558,3.72326 4.6397,7.0175 5.71581,6.16519 8.1842,6.74753 10.56445,2.49237 z M -353.97127,232.93594 c -0.31643,-0.51199 -1.56127,-0.91659 -2.76631,-0.8991 -2.11895,0.0308 -2.1286,0.079 -0.29366,1.46797 1.95479,1.47966 4.08167,1.08426 3.05997,-0.56887 z m 51.54271,-66.60744 c 0,-1.97889 -0.43992,-2.3998 -2.23978,-2.14301 -2.49969,0.35663 -3.652,3.65036 -1.6993,4.8572 2.03056,1.25496 3.93908,-0.0601 3.93908,-2.71419 z m 258,-1.71647 c 0,-0.21616 -0.675,-0.65203 -1.5,-0.96862 -0.825,-0.31658 -1.5,-0.13972 -1.5,0.39301 0,0.53274 0.675,0.96862 1.5,0.96862 0.825,0 1.5,-0.17686 1.5,-0.39301 z m -246.32417,-5.89149 c 0.74702,-1.20871 -4.12018,-5.7155 -6.17258,-5.7155 -3.24846,0 -3.02505,6.52712 0.24743,7.22858 2.31973,0.49724 5.12553,-0.21927 5.92515,-1.51308 z m -52.12927,600.14247 -2.72315,-2.14203 2.8383,-2.29072 c 3.80641,-3.07206 2.40629,-5.35167 -4.71238,-7.67249 -3.10434,-1.01207 -6.87979,-3.23188 -8.97275,-5.2756 -2.93258,-2.86359 -4.63669,-3.6477 -9.04496,-4.16186 -3.72079,-0.43398 -8.29981,-2.16213 -14.53771,-5.48663 -10.46385,-5.57674 -12.72724,-7.68033 -12.72724,-11.82864 0,-4.39986 2.63016,-6.67798 8.34379,-7.22698 5.96424,-0.57309 7.98954,-2.07908 7.98954,-5.94092 0,-3.08414 -3.81891,-7.8321 -6.29956,-7.8321 -2.56285,0 -4.53002,-3.45746 -4.83621,-8.5 l -0.3036,-5 12.46969,-0.52914 c 14.4025,-0.61117 16.54739,-0.37189 14.86269,1.65805 -0.86788,1.04574 -0.84254,2.47971 0.10357,5.85886 1.42373,5.08507 3.20188,6.99988 5.74809,6.18987 7.59601,-2.41645 15.78507,-5.84707 17.36042,-7.27274 3.44769,-3.12012 2.28447,-3.9133 -5.6877,-3.87834 -8.47933,0.0372 -8.78533,-0.19268 -9.68645,-7.27656 -0.50963,-4.00634 0.0261,-5.15958 1.64499,-3.54074 0.3901,0.3901 2.45131,0.58349 4.58049,0.42976 5.33375,-0.38511 9.95594,2.17279 10.70635,5.92485 0.32756,1.63776 0.90802,3.17087 1.28993,3.4069 0.38191,0.23603 4.26128,-0.44882 8.62084,-1.52189 8.26463,-2.03427 13.42646,-5.78831 13.42646,-9.76466 0,-3.37263 -2.1372,-4.18422 -11.0185,-4.18422 -14.98276,0 -24.09801,-4.06971 -28.2482,-12.61205 l -2.14684,-4.41885 2.0801,-2.08011 c 3.50296,-3.50295 13.98991,-5.13448 28.04261,-4.36278 9.27217,0.50918 12.51969,1.04775 13.5,2.23885 5.81614,7.06673 14.82319,9.29349 19.33628,4.78039 3.92971,-3.9297 3.20924,-5.18166 -3.37813,-5.87017 -3.20798,-0.3353 -6.58298,-0.89755 -7.5,-1.24945 -4.4973,-1.72577 0.94579,-8.42583 6.84509,-8.42583 3.58184,0 4.74672,1.03559 6.18665,5.5 0.53218,1.65 1.49261,2.955 2.13427,2.9 0.64167,-0.055 2.46682,-0.1675 4.05589,-0.25 4.59811,-0.23872 7.61078,-3.32389 7.61078,-7.79394 0,-3.59691 0.20599,-3.8531 3.53397,-4.39527 5.05506,-0.82353 5.83199,-1.54281 7.09826,-6.57166 0.86823,-3.44806 2.25827,-5.44257 5.98051,-8.58121 3.66128,-3.08724 4.99142,-4.97335 5.42915,-7.69848 1.37827,-8.58049 6.95567,-16.86303 12.5514,-18.63905 1.29155,-0.40992 3.03258,-2.76733 4.50851,-6.10466 1.64901,-3.72871 3.46965,-6.06535 5.79491,-7.43729 1.86475,-1.10023 3.95007,-3.35142 4.63403,-5.00265 2.17116,-5.24164 7.67844,-6.51559 12.3344,-2.85321 2.07016,1.62839 2.63486,2.93897 2.63486,6.11513 0,3.36597 -0.60399,4.59578 -3.60884,7.34812 -3.06072,2.80351 -3.90221,4.56547 -5.54037,11.60074 -1.06235,4.56234 -2.54422,8.98553 -3.29307,9.8293 -1.58591,1.78695 -5.98106,14.29832 -7.56478,21.53413 -0.6019,2.75 -2.16798,6.575 -3.48017,8.5 -1.3122,1.925 -3.3428,5.975 -4.51245,9 -1.16965,3.025 -3.3702,7.075 -4.89011,9 -1.51991,1.925 -3.90874,6.01574 -5.30851,9.09052 -1.44732,3.17924 -3.88355,6.54364 -5.64836,7.80029 -3.69262,2.62938 -5.85527,8.9291 -4.15558,12.10501 1.40298,2.62148 5.94515,2.62353 9.27511,0.004 3.32362,-2.61436 4.57779,-2.52298 5.69477,0.41489 0.88456,2.32655 -0.0196,7.67705 -1.72123,10.18541 -1.70372,2.51147 -5.85498,3.50271 -16.17758,3.86286 -5.9996,0.20933 -11.79316,0.85412 -12.87458,1.43288 -1.08141,0.57876 -2.90234,2.63891 -4.0465,4.57812 -1.14417,1.93921 -2.54939,3.52584 -3.12271,3.52584 -0.57333,0 -3.70678,2.3625 -6.96324,5.25 -13.93872,12.35948 -16.14542,13.95308 -21.14891,15.27298 -2.78303,0.73415 -7.38943,2.87678 -10.23647,4.76141 -2.84703,1.88463 -6.46203,4.20852 -8.03332,5.1642 -5.06672,3.08164 -1.918,4.04316 13.54403,4.13592 l 14.08738,0.0845 3.08031,-4.37006 c 1.8659,-2.64718 4.0787,-4.55945 5.61274,-4.85044 7.90005,-1.49856 11.90554,-2.8024 15.03244,-4.89326 1.925,-1.28719 5.16982,-2.86776 7.2107,-3.51238 2.74155,-0.86593 4.30862,-2.25391 6,-5.3143 3.78898,-6.85576 10.10845,-6.93989 14.69607,-0.19564 l 2.69851,3.96706 13.50194,0 13.50195,0 4.04058,-4.25 c 4.66454,-4.9063 6.63411,-5.2726 8.99298,-1.6725 2.23181,3.40617 0.86044,7.43229 -3.16599,9.2948 -1.63721,0.75732 -4.41852,2.73907 -6.18071,4.40387 -4.20278,3.97055 -8.36961,4.59039 -31.3549,4.66422 -20.25368,0.0651 -20.12932,0.0325 -23.8253,6.2384 -2.3736,3.98552 -3.24341,4.3094 -14.54069,5.41435 -6.09698,0.59633 -7.29251,1.06758 -10,3.94171 -1.69133,1.79542 -4.20014,3.61279 -5.57514,4.0386 -1.375,0.42581 -9.79913,0.67687 -18.72029,0.5579 l -16.22029,-0.21629 -0.63812,2.54247 c -0.78751,3.13772 -3.21509,3.27912 -6.87474,0.40044 z m 100.91168,-187.49753 c -2.2647,-2.44366 -2.40188,-3.16729 -1.84831,-9.75 0.32888,-3.91074 1.25449,-9.75963 2.05692,-12.99754 0.80242,-3.2379 1.09315,-6.22558 0.64605,-6.63928 -0.44709,-0.41371 -3.41708,-1.49443 -6.59996,-2.40162 -4.88768,-1.39308 -6.20869,-2.2931 -8.5,-5.79114 -1.49212,-2.27794 -4.47642,-5.91477 -6.63178,-8.08185 -4.80878,-4.8349 -4.10911,-7.03514 2.38888,-7.51228 3.22498,-0.23681 4.80141,0.18938 6.45839,1.74604 1.20562,1.13262 4.34982,2.79454 6.9871,3.69315 5.83473,1.98809 8.14186,6.17149 7.12889,12.92646 -0.60239,4.01699 -0.47353,4.29189 2.96192,6.31886 4.60089,2.71459 6.08899,6.5021 6.81026,17.33351 l 0.57966,8.70476 -3.02486,2.54524 c -3.85332,3.24237 -6.34396,3.21741 -9.41316,-0.0943 z m -56.12229,-26.78438 -5.16404,-2.4044 0.8266,-3.66506 c 0.45463,-2.01577 0.97845,-3.77299 1.16405,-3.90492 0.18559,-0.13193 3.23669,-1.02229 6.78021,-1.97857 4.36052,-1.17676 7.69213,-2.86742 10.30848,-5.23113 3.5179,-3.17822 4.33281,-3.46543 9.05723,-3.19221 l 5.19152,0.30023 0.31293,4.36112 c 0.28885,4.02564 -0.0292,4.68897 -4.13498,8.62297 -4.49271,4.30477 -14.02756,9.52414 -17.36602,9.50614 -0.99656,-0.005 -4.13575,-1.09175 -6.97598,-2.41417 z m 190.26821,1.26223 c -2.00999,-1.16719 -6.62262,-6.1519 -10.35416,-11.1894 -1.70185,-2.29746 -2.25,-4.39736 -2.25,-8.61948 l 0,-5.58203 -5.25,-2.50619 c -4.24191,-2.02496 -5.31188,-3.03961 -5.57226,-5.28416 -0.46818,-4.03589 1.38789,-5.65703 6.47682,-5.65703 8.26047,0 13.34544,3.54805 13.34544,9.31181 0,1.34382 0.67293,3.00178 1.4954,3.68437 0.82247,0.68259 2.03137,3.02997 2.68643,5.21639 0.65507,2.18642 2.26935,4.72054 3.58729,5.63137 1.31794,0.91083 3.96841,2.97035 5.88994,4.5767 l 3.49368,2.92065 2.17363,-2.51117 c 1.1955,-1.38115 3.43122,-3.28147 4.96826,-4.22295 3.22463,-1.97515 5.06959,-6.01987 4.24483,-9.30598 -0.33032,-1.3161 -2.19757,-3.10645 -4.42512,-4.24286 -3.1539,-1.609 -4.05189,-2.75325 -4.94537,-6.30155 -0.60043,-2.38456 -2.23409,-5.40878 -3.63034,-6.72049 -3.19026,-2.99709 -3.20107,-4.55614 -0.0459,-6.62347 4.69224,-3.07447 10.12313,0.27174 19.3625,11.93007 7.24161,9.13754 9.47178,14.06371 8.85285,19.55484 -0.44657,3.96196 -1.19878,5.15449 -5.8602,9.29055 -7.74145,6.86896 -10.66647,8.08495 -16.37227,6.80625 -3.17411,-0.71133 -5.80785,-0.71878 -8.31109,-0.0235 -4.64513,1.29019 -7.17031,1.25512 -9.56034,-0.13274 z m -39.03273,-20.40972 c -2.14072,-2.14072 -1.97401,-5.64705 0.41275,-8.68133 2.39476,-3.04445 5.97173,-4.0947 9.44642,-2.77363 2.13757,0.81271 2.56683,1.61129 2.55409,4.75164 -0.0188,4.64084 -0.74484,5.85286 -4.32014,7.21219 -3.88551,1.47727 -6.25604,1.32822 -8.09312,-0.50887 z m -187.63491,-26.0932 c -2.63723,-0.32109 -4.01734,-1.20218 -5.30956,-3.38974 -0.96035,-1.62573 -3.10473,-3.65845 -4.7653,-4.51717 -4.02959,-2.08378 -5.89833,-6.95557 -5.97914,-15.58761 -0.0823,-8.78676 1.59566,-11.14588 7.10752,-9.99295 2.66306,0.55703 4.02165,1.6686 5.73355,4.69106 1.23393,2.17857 2.25091,5.16925 2.25996,6.64594 0.0353,5.76692 1.48969,7.48756 6.93991,8.21056 5.95382,0.7898 8.43013,-0.24476 10.59187,-4.4251 2.92698,-5.66017 11.88135,-2.94627 9.98568,3.02646 -0.33539,1.0567 -2.38646,3.32842 -4.55794,5.04827 -2.17149,1.71985 -4.21616,4.19482 -4.54373,5.49994 -0.32756,1.30511 -1.14355,2.82772 -1.81331,3.38357 -1.44301,1.1976 -10.60389,2.02109 -15.64951,1.40677 z"
             id="path2992" />
          <path
             style="fill:#d64752"
             d="m -70.34959,761.7403 c -5.95374,-3.03772 -1.86335,-6.15467 7.92103,-6.03598 7.1156,0.0863 12.38438,1.64757 11.77091,3.48798 -1.05796,3.17389 -14.94376,4.97061 -19.69194,2.548 z m 40.14125,-6.98526 c -0.56357,-0.6875 -1.52992,-3.13987 -2.14745,-5.44971 -0.72829,-2.72415 -2.17334,-4.94777 -4.11286,-6.32884 -1.64455,-1.17102 -3.66985,-3.44365 -4.50068,-5.05029 -1.36624,-2.64201 -1.99222,-2.92116 -6.55065,-2.92116 -2.77204,0 -6.02298,0.53264 -7.22432,1.18364 -1.20134,0.651 -6.90926,2.7885 -12.68426,4.75 l -10.5,3.56636 -2.5,5.24644 c -2.24206,4.70514 -2.82861,5.24681 -5.6849,5.25 -4.68019,0.005 -8.17658,-1.61404 -12.91393,-5.98077 -2.32095,-2.13938 -6.01958,-4.37437 -8.21919,-4.96667 -2.45512,-0.66109 -5.21331,-2.45959 -7.14353,-4.65798 -1.8866,-2.14873 -5.42297,-4.47991 -8.84134,-5.82823 -3.13341,-1.23593 -7.44741,-3.44316 -9.58666,-4.90497 -2.13925,-1.4618 -4.50753,-2.65782 -5.26284,-2.65782 -0.75531,0 -5.38673,-4.02492 -10.29204,-8.94427 -4.90531,-4.91935 -10.72983,-10.08755 -12.94336,-11.4849 -4.87354,-3.07653 -11.51492,-11.62648 -13.58195,-17.48507 -1.40196,-3.97358 -5.52479,-9.22962 -16.28026,-20.75509 -5.15302,-5.52194 -5.46521,-8.86405 -1.75,-18.73444 2.83979,-7.54464 3.09552,-12.06263 1.06201,-18.76313 -2.42451,-7.9889 -2.09432,-47.79754 0.4403,-53.0831 0.72529,-1.5125 1.58399,-2.74832 1.90821,-2.74627 0.75241,0.005 9.46793,10.84716 10.85042,13.49829 0.5742,1.10111 1.51086,6.6619 2.08146,12.35731 0.84126,8.39683 1.69089,11.73119 4.49238,17.63034 1.9002,4.00128 4.16161,9.69049 5.02536,12.64269 0.86375,2.9522 3.34489,7.72052 5.51365,10.59626 2.24945,2.98274 4.22856,6.9177 4.60755,9.16095 0.3654,2.16277 1.5916,4.75989 2.72489,5.77137 1.13329,1.01148 3.76285,4.13137 5.84346,6.93307 2.18012,2.93571 5.1954,5.65991 7.11662,6.42964 1.83353,0.73459 4.99569,2.80557 7.02702,4.60218 2.03132,1.79661 5.63132,3.77876 8,4.40478 2.36867,0.62602 6.33167,2.41914 8.80667,3.98472 2.475,1.56558 7.13916,3.82925 10.3648,5.03039 7.53267,2.80495 9.6352,4.92855 9.6352,9.73177 0,7.06917 3.2534,9.55844 14.59105,11.16405 4.5382,0.64269 8.09453,1.97631 12.46682,4.67504 5.70985,3.52432 6.7277,3.80008 15.27974,4.1397 5.03931,0.20011 10.12518,0.83626 11.30193,1.41365 2.76767,1.358 4.36046,4.93941 4.36046,9.80454 0,3.01921 0.59583,4.34905 2.68477,5.99221 1.47662,1.16151 3.50419,3.45928 4.50572,5.10616 1.00153,1.64688 2.60588,3.27744 3.56523,3.62347 3.98058,1.43575 7.24428,4.51409 7.24428,6.83283 0,4.49398 -6.30315,8.24212 -8.77978,5.22086 z m -318.75878,-14.89129 c -11.05339,-5.97473 -12.94422,-6.85871 -14.67076,-6.85871 -1.02869,0 -3.53993,-0.82926 -5.58052,-1.84281 -2.04059,-1.01354 -5.81609,-2.41319 -8.39002,-3.11032 -8.87401,-2.40348 -11.83288,-8.42065 -5.57014,-11.32745 1.7875,-0.82966 4.68141,-1.80985 6.4309,-2.17822 4.48842,-0.94506 5.68016,-2.79555 5.0238,-7.80077 -0.46127,-3.51752 -1.4212,-5.00759 -5.63075,-8.74043 -2.79107,-2.475 -5.07451,-5.27167 -5.07431,-6.21482 7.7e-4,-3.6526 7.68655,-5.03306 12.92884,-2.32217 3.20151,1.65557 4.06484,3.31781 4.08683,7.86878 0.0194,4.02226 0.84486,5.28435 4.32014,6.60565 4.81017,1.82882 9.00933,1.25286 13.21755,-1.81293 2.17085,-1.58152 6.44283,-3.59244 9.4933,-4.46872 3.05046,-0.87627 6.56266,-2.6751 7.80488,-3.99738 2.28351,-2.43068 6.03075,-4.23654 14.0461,-6.76905 5.21644,-1.64818 8.10272,-6.07773 8.10272,-12.4352 0,-6.3414 -2.59385,-8.45416 -10.37923,-8.45416 -5.0528,0 -7.53683,-0.61739 -12.53693,-3.11597 -7.29343,-3.64457 -8.37947,-5.41561 -5.0006,-8.15469 3.72869,-3.02265 12.28883,-1.88762 21.27802,2.82137 5.20874,2.72861 8.73784,3.84809 13.28026,4.21271 7.97979,0.64054 10.58527,-0.0751 15.13369,-4.15665 2.04864,-1.83836 5.61368,-4.29904 7.92231,-5.46817 2.37674,-1.20363 5.49093,-4.0056 7.17926,-6.4595 1.63995,-2.38359 4.55609,-5.53463 6.48031,-7.0023 2.58865,-1.97446 3.91014,-4.08423 5.08101,-8.11186 1.12897,-3.88354 2.45715,-6.06622 4.63495,-7.61696 1.93454,-1.37751 4.47047,-5.15384 6.92405,-10.31078 3.97455,-8.35375 6.26718,-11.45381 10.54207,-14.25482 1.5285,-1.00152 3.01385,-3.5055 3.95061,-6.65992 1.58771,-5.3464 3.9596,-8.72246 6.12808,-8.72246 0.71934,0 3.09475,-1.8596 5.2787,-4.13243 2.58471,-2.68992 4.51758,-3.92263 5.53713,-3.53139 2.36899,0.90907 1.87914,4.72786 -0.9907,7.72333 -1.58449,1.65384 -3.11067,5.04225 -4.01271,8.90893 -0.80063,3.43199 -2.78973,8.10559 -4.42023,10.38577 -3.2672,4.56905 -6.51715,13.17607 -7.53296,19.95001 -0.3613,2.40933 -1.72619,6.13901 -3.03308,8.28819 -3.19937,5.26133 -4.04514,7.16926 -5.37184,12.11807 -0.62083,2.31576 -2.66497,6.22301 -4.54254,8.68277 -1.87758,2.45975 -3.73362,6.1772 -4.12454,8.26098 -0.47626,2.53865 -2.26955,5.44782 -5.4352,8.81723 -5.64408,6.0074 -9.96989,14.18196 -9.96989,18.84031 0,3.89773 -1.79315,5.83868 -7.5,8.11822 -2.35148,0.93927 -5.00213,3.06618 -6.43159,5.16078 -1.33738,1.95967 -4.26238,4.82605 -6.5,6.36973 -2.23763,1.54369 -4.96841,3.80697 -6.06841,5.02951 -1.1,1.22255 -3.575,3.03113 -5.5,4.01908 -1.925,0.98795 -4.59908,2.97373 -5.94239,4.41284 -1.37712,1.47532 -5.08448,3.43635 -8.5,4.49612 -9.74275,3.02301 -23.07586,9.81328 -24.50224,12.47849 -1.13233,2.11578 -4.85617,4.60346 -6.89098,4.60346 -0.40783,0 -2.52416,-0.96358 -4.70295,-2.14129 z m 61.97757,1.0426 c -1.10427,-1.78674 2.585,-4.03607 6.06099,-3.69536 2.23532,0.2191 3,0.80384 3,2.29405 0,1.63077 -0.76767,2.05594 -4.15822,2.30301 -2.47063,0.18004 -4.46039,-0.18591 -4.90277,-0.9017 z m 110.81099,-8.39017 c -1.2375,-0.8935 -2.25,-2.5333 -2.25,-3.64399 0,-1.89052 0.49478,-1.99101 7.75,-1.57412 7.97687,0.45836 17.25,2.48523 17.25,3.77041 0,0.7775 -4.83133,1.61526 -14.5,2.51433 -4.61295,0.42895 -6.52014,0.18237 -8.25,-1.06663 z m -14.46223,-10.7234 c -3.81565,-2.89422 -4.64212,-9.72917 -2.64138,-21.84416 1.1247,-6.8103 3.06229,-10.18086 4.80075,-8.3512 1.1372,1.19685 4.32798,24.0829 3.89238,27.91824 -0.38307,3.37281 -3.20657,4.43523 -6.05175,2.27712 z m 112.40378,-34.4913 c -3.23682,-0.63218 -2.43251,-3.2516 1.74816,-5.69324 4.8995,-2.86146 19.92359,-3.59704 22.42281,-1.09782 1.61654,1.61654 1.6212,1.85513 0.0697,3.56947 -0.91443,1.01043 -3.52327,2.06338 -5.79743,2.33989 -7.6591,0.93126 -16.11884,1.33569 -18.44328,0.8817 z m 36.83487,-6.24707 c -0.60989,-1.1396 -0.99703,-2.62941 -0.8603,-3.31068 0.52063,-2.59416 -1.2024,-6.41736 -3.38914,-7.52008 -8.58435,-4.3289 -14.0932,-5.30584 -26.27698,-4.65994 -8.19581,0.43449 -12.95105,0.26597 -15,-0.53157 -2.49947,-0.97291 -2.73007,-1.3188 -1.38216,-2.07315 3.04639,-1.70488 12.53204,-2.18834 20.95744,-1.06813 6.04842,0.80417 9.41194,0.81719 11.92472,0.0462 1.925,-0.59067 7.55,-1.48889 12.5,-1.99602 4.95,-0.50714 10.72862,-1.20423 12.84138,-1.54909 6.21796,-1.01493 10.85054,2.73191 8.52207,6.89266 -0.48127,0.85998 -3.08779,2.29855 -5.79228,3.19684 -6.08737,2.0219 -7.36173,3.51019 -8.03779,9.38712 -0.4374,3.80216 -0.9261,4.69243 -2.71572,4.9472 -1.39921,0.1992 -2.58026,-0.43284 -3.29124,-1.76131 z m -120.60495,-87.50624 c -0.75647,-3.01401 0.15012,-5.92594 1.57147,-5.0475 1.2881,0.79609 1.31621,6.19527 0.0364,6.98625 -0.53388,0.32995 -1.25741,-0.54248 -1.60785,-1.93875 z m -33.69176,-39.5411 c -1.52332,-1.19824 -3.41068,-3.41821 -4.19415,-4.93326 -0.91255,-1.76468 -3.06573,-3.38143 -5.99143,-4.49877 -5.28607,-2.01876 -6.54413,-3.85569 -6.54413,-9.55524 0,-3.38768 -0.60205,-4.68325 -3.39962,-7.31574 -3.58008,-3.36883 -5.04318,-6.51178 -3.82755,-8.22212 0.39994,-0.5627 1.91377,-1.77722 3.36405,-2.69893 1.45028,-0.92171 3.59176,-3.22087 4.75884,-5.10925 1.18604,-1.91904 3.55154,-3.95915 5.36312,-4.62538 1.78264,-0.65558 5.04116,-2.02361 7.24116,-3.04005 4.28171,-1.97825 17.60584,-6.26452 17.99635,-5.78929 0.12926,0.1573 1.03904,2.00997 2.02173,4.11704 1.0549,2.26191 3.95827,5.43526 7.08858,7.74776 4.14147,3.05948 5.44772,4.69413 5.96823,7.46873 0.3665,1.9536 2.1901,5.3758 4.05245,7.60488 4.50772,5.3954 4.95358,7.7459 2.51499,13.25872 -1.97423,4.4631 -2.15219,4.58887 -6.49267,4.58887 -3.90902,0 -5.45705,0.75071 -12.47501,6.04969 -9.3683,7.07362 -13.32147,8.19586 -17.44494,4.95234 z m 88.82699,-13.22454 c -2.12425,-3.03279 -1.96242,-3.77749 0.82086,-3.77749 2.82813,0 5.07902,2.3678 4.2657,4.48727 -0.84257,2.19569 -3.29077,1.85407 -5.08656,-0.70978 z m 19.83184,0.79265 c -0.92367,-2.40706 0.28253,-4.49458 3.24867,-5.62231 3.66755,-1.3944 4.93912,0.075 3.20511,3.70386 -1.53802,3.21866 -5.50261,4.39717 -6.45378,1.91845 z m -26.38854,-10.57014 c 0,-0.55 0.19844,-1 0.44098,-1 0.24254,0 0.7191,0.45 1.05902,1 0.33992,0.55 0.14148,1 -0.44098,1 -0.58246,0 -1.05902,-0.45 -1.05902,-1 z m 35.70124,0.3679 c -1.03757,-1.03757 -0.82167,-9.63094 0.28561,-11.3679 1.28677,-2.01853 4.08879,-0.27308 5.27516,3.28604 1.47656,4.42967 -2.88052,10.76212 -5.56077,8.08186 z m -153.50124,-17.5679 c -3.20225,-3.20225 0.17694,-7.86055 4.32961,-5.96846 1.83375,0.83551 2.47039,1.90423 2.47039,4.14702 0,2.64253 -0.35114,3.02144 -2.8,3.02144 -1.54,0 -3.34,-0.54 -4,-1.2 z m 145.79332,-1.60432 c -1.49545,-1.21095 -2.09982,-2.47577 -1.69146,-3.53992 0.94773,-2.46975 3.58408,-2.0002 4.89245,0.87137 1.64697,3.6147 -0.16602,5.12612 -3.20099,2.66855 z m 11.97448,-18.4384 c -3.08942,-2.08196 -3.4678,-2.8236 -3.4678,-6.79711 0,-4.25996 0.13971,-4.47378 3.11243,-4.76327 2.68157,-0.26114 3.71005,0.41071 7.42967,4.85338 3.41867,4.08322 4.10276,5.49921 3.28673,6.8031 -1.61991,2.58836 -6.44396,2.54362 -10.36103,-0.0961 z m -258.26656,-0.38938 c -1.41229,-1.41228 -0.64305,-2.49874 1.54876,-2.18745 1.2375,0.17575 2.25,0.76339 2.25,1.30585 0,1.20042 -2.82446,1.85591 -3.79876,0.8816 z m 108.52642,-2.60178 c -3.09192,-3.09191 -3.67769,-3.2637 -13.34351,-3.9131 -9.39332,-0.6311 -10.33191,-0.88944 -13.24689,-3.64613 -4.7064,-4.45083 -7.13066,-5.36129 -15.87052,-5.96033 -7.61178,-0.52172 -8.06463,-0.68946 -9.84535,-3.64672 -1.02662,-1.70491 -3.18079,-3.99984 -4.78705,-5.09984 -5.944,-4.07058 -24.72005,-21.89756 -27.25942,-25.88155 -1.4438,-2.26515 -3.85009,-5.24345 -5.34732,-6.61845 -1.49723,-1.375 -3.64373,-4.3 -4.77001,-6.5 -1.12628,-2.2 -3.7745,-6.025 -5.88495,-8.5 -2.11044,-2.475 -5.87015,-6.87752 -8.3549,-9.78338 -4.02391,-4.70586 -4.51774,-5.81916 -4.51774,-10.1849 0,-5.81585 -1.178,-9.26612 -4.51952,-13.23729 -2.372,-2.81897 -4.66207,-9.3566 -5.91349,-16.88171 -0.3365,-2.02342 -2.15958,-5.41331 -4.18194,-7.77598 -3.81761,-4.46001 -4.62835,-7.84577 -6.01918,-25.13674 -0.47748,-5.93601 -1.22346,-8.48679 -3.57733,-12.23209 -3.78005,-6.01454 -4.45489,-10.96938 -2.28376,-16.76791 4.94574,-13.20877 4.86395,-12.74602 3.51573,-19.89133 -1.17789,-6.24256 -1.10668,-7.21256 0.98379,-13.40136 1.78782,-5.29283 2.10587,-7.76042 1.53887,-11.9395 -0.39309,-2.8973 -0.78861,-7.06436 -0.87894,-9.26014 -0.15358,-3.7334 0.0628,-4.06554 3.33577,-5.12096 1.925,-0.62074 4.625,-2.23886 6,-3.59581 3.06412,-3.02392 9.72413,-22.85631 10.869,-32.36606 0.81587,-6.77695 1.63661,-7.98406 6.131,-9.0172 4.61308,-1.06043 4.91533,-1.30157 5.77118,-4.60439 0.55274,-2.1331 2.16873,-4.18455 4.59351,-5.83129 2.64058,-1.79331 4.82817,-4.73622 7.43804,-10.00622 3.2605,-6.58379 4.25104,-7.73038 8.38496,-9.70597 2.63543,-1.25946 5.46639,-3.55846 6.46637,-5.25128 3.67219,-6.21653 8.4024,-4.3105 9.71784,3.91578 0.45152,2.82367 1.43578,4.55884 3.26633,5.75826 2.5436,1.66663 2.67761,1.64565 4.59238,-0.71899 1.60838,-1.98627 1.9,-3.57137 1.58042,-8.59039 -0.31695,-4.97759 -1.11847,-7.3318 -4.19093,-12.30958 -2.08947,-3.3852 -3.54789,-6.80936 -3.24095,-7.60924 0.98337,-2.56261 3.60289,-1.55984 5.31741,2.03553 0.91531,1.91942 2.50506,3.75674 3.53278,4.08293 2.67853,0.85013 6.42003,-1.96518 8.79281,-6.6162 l 2.04787,-4.01416 9.32678,0.27001 9.32678,0.27001 4.113,-3.71585 c 2.26215,-2.04371 5.13684,-3.9145 6.38821,-4.15731 6.31992,-1.22626 42.63901,-2.45632 46.50035,-1.57488 2.73269,0.62381 6.61824,0.61601 11,-0.0221 4.03338,-0.58734 16.7802,-0.72546 31.50044,-0.34134 l 24.72558,0.64522 2.61541,2.93535 c 2.38554,2.67736 3.02486,2.88335 7.27442,2.34383 2.56245,-0.32534 7.42097,-0.8666 10.79669,-1.2028 l 6.13768,-0.61129 4.13266,5.59418 c 4.7575,6.43998 7.15812,7.90041 16.57721,10.08485 4.97051,1.15274 7.83145,2.49647 10.55608,4.95801 2.05568,1.85719 4.6863,3.67781 5.84582,4.04583 1.21839,0.3867 2.33615,1.8017 2.64823,3.35247 0.297,1.47584 1.4101,4.25835 2.47355,6.18335 1.06345,1.925 3.46974,6.61555 5.34731,10.42345 2.37853,4.82387 4.56707,7.70669 7.21682,9.50622 2.4821,1.68567 4.09924,3.7258 4.65578,5.87358 0.85585,3.30282 1.1581,3.54396 5.77118,4.60439 4.49439,1.03314 5.31513,2.24025 6.131,9.0172 1.14487,9.50975 7.80488,29.34214 10.869,32.36606 1.375,1.35695 4.075,2.97507 6,3.59581 3.27299,1.05542 3.48935,1.38756 3.33577,5.12096 -0.0903,2.19578 -0.48586,6.36284 -0.87894,9.26014 -0.567,4.17908 -0.24895,6.64667 1.53888,11.9395 2.09046,6.1888 2.16167,7.1588 0.98379,13.40136 -1.34823,7.14531 -1.43001,6.68256 3.51572,19.89133 2.17113,5.79853 1.49629,10.75337 -2.28376,16.76791 -2.35387,3.7453 -3.09985,6.29608 -3.57733,12.23209 -1.39083,17.29097 -2.20157,20.67673 -6.01918,25.13674 -2.02236,2.36267 -3.84544,5.75256 -4.18194,7.77598 -1.25142,7.52511 -3.54149,14.06274 -5.91349,16.88171 -3.20499,3.80891 -4.51952,7.39704 -4.51952,12.33641 0,4.72773 -1.04732,6.95094 -5.89195,12.5072 -1.98443,2.27593 -4.41849,5.31598 -5.40902,6.75568 -0.99053,1.4397 -3.53914,3.50439 -5.66357,4.58819 -2.12444,1.08381 -5.589,4.10857 -7.69904,6.7217 -2.11003,2.61313 -5.07032,5.81079 -6.57842,7.10593 -1.50809,1.29513 -3.52844,3.68613 -4.48966,5.31334 -2.47365,4.18756 -13.79407,12.2679 -20.08164,14.33397 -6.04226,1.98547 -7.68099,4.56118 -6.86689,10.79315 0.47627,3.64586 0.40208,3.75 -2.67157,3.75 -1.73879,0 -4.73347,0.4593 -6.65484,1.02068 -1.92137,0.56137 -6.56103,1.66844 -10.31036,2.46016 -3.74933,0.79172 -8.24933,2.18425 -10,3.09452 -1.75067,0.91026 -5.88304,1.77055 -9.18304,1.91176 -3.67491,0.15724 -8.32817,1.24058 -12.00794,2.7956 -9.16446,3.87279 -17.29253,5.26912 -23.80274,4.0891 -6.2413,-1.13128 -8.96282,-0.42996 -12.88475,3.32033 l -2.69543,2.57747 -3.13164,-2.6351 c -4.14684,-3.48933 -6.16569,-3.89381 -17.38202,-3.48247 -9.14621,0.33542 -9.60854,0.46498 -12.83928,3.59795 -1.84328,1.7875 -4.01365,3.25 -4.82304,3.25 -0.80939,0 -2.92687,-1.45525 -4.7055,-3.23388 z m -80.56349,-110.33334 c 0.83346,-2.17196 -1.28244,-4.21451 -2.79695,-2.7 -1.28004,1.28004 -0.48705,4.26722 1.13278,4.26722 0.58452,0 1.3334,-0.70525 1.66417,-1.56722 z m -26.60234,-27.54832 c 1.28209,-2.39561 0.37353,-18.62242 -1.17454,-20.97706 -0.76706,-1.16672 -1.17638,-1.07843 -2.39357,0.51633 -2.49394,3.26756 -2.80776,8.17393 -0.99574,15.56802 1.8099,7.38546 2.71213,8.3527 4.56385,4.89271 z m 301.44019,-4.89271 c 1.81202,-7.39409 1.4982,-12.30046 -0.99574,-15.56802 -2.22198,-2.91123 -3.20446,-0.55447 -4.00959,9.61813 -0.66669,8.4234 0.18397,12.95814 2.43077,12.95814 0.47141,0 1.62996,-3.15371 2.57456,-7.00825 z M -320.23652,216.98304 c -0.1787,-6.48421 -1.61081,-10.45525 -3.37692,-9.36374 -1.11355,0.68822 -0.45036,14.54888 0.79232,16.55959 1.40547,2.27408 2.74297,-1.4497 2.5846,-7.19585 z m 280.43813,-1.13119 c 0.66042,-7.81268 -0.48196,-10.86078 -2.59247,-6.91725 -1.27596,2.38416 -1.70759,13.17752 -0.59872,14.97171 1.45232,2.3499 2.54478,-0.40744 3.19119,-8.05446 z M -283.42856,196.3826 c 0,-4.88435 -0.19692,-5.45902 -1.5,-4.37756 -1.73726,1.4418 -1.95818,5.27536 -0.46482,8.06574 1.61508,3.0178 1.96482,2.36129 1.96482,-3.68818 z m 32,-20.45088 c 0,-1.4311 -0.53852,-1.96962 -1.73852,-1.73852 -2.60673,0.50201 -2.89745,3.81184 -0.3348,3.81184 1.43109,0 2.07332,-0.64223 2.07332,-2.07332 z m 156.5,-7.92668 c 0,-0.80994 -0.7875,-1.62427 -1.75,-1.80963 -1.22785,-0.23646 -1.75,0.30348 -1.75,1.80963 0,1.50615 0.52215,2.04609 1.75,1.80963 0.9625,-0.18536 1.75,-0.99969 1.75,-1.80963 z"
             id="path2990" />
          <path
             style="fill:#484247"
             d="m -70.34959,761.7403 c -5.95374,-3.03772 -1.86335,-6.15467 7.92103,-6.03598 7.1156,0.0863 12.38438,1.64757 11.77091,3.48798 -1.05796,3.17389 -14.94376,4.97061 -19.69194,2.548 z m 40.14125,-6.98526 c -0.56357,-0.6875 -1.52992,-3.13987 -2.14745,-5.44971 -0.72829,-2.72415 -2.17334,-4.94777 -4.11286,-6.32884 -1.64455,-1.17102 -3.66985,-3.44365 -4.50068,-5.05029 -1.36624,-2.64201 -1.99222,-2.92116 -6.55065,-2.92116 -2.77204,0 -6.02298,0.53264 -7.22432,1.18364 -1.20134,0.651 -6.90926,2.7885 -12.68426,4.75 l -10.5,3.56636 -2.5,5.24644 c -2.24206,4.70514 -2.82861,5.24681 -5.6849,5.25 -4.68019,0.005 -8.17658,-1.61404 -12.91393,-5.98077 -2.32095,-2.13938 -6.01958,-4.37437 -8.21919,-4.96667 -2.45512,-0.66109 -5.21331,-2.45959 -7.14353,-4.65798 -1.8866,-2.14873 -5.42297,-4.47991 -8.84134,-5.82823 -3.13341,-1.23593 -7.44741,-3.44316 -9.58666,-4.90497 -2.13925,-1.4618 -4.50753,-2.65782 -5.26284,-2.65782 -0.75531,0 -5.38673,-4.02492 -10.29204,-8.94427 -4.90531,-4.91935 -10.72983,-10.08755 -12.94336,-11.4849 -4.89473,-3.0899 -11.51747,-11.63369 -13.60565,-17.55222 -0.84572,-2.39705 -3.66818,-6.70181 -6.27212,-9.56614 -15.72726,-17.29995 -16.10186,-18.25307 -11.73444,-29.85624 2.83979,-7.54464 3.09552,-12.06263 1.06201,-18.76313 -2.43185,-8.0131 -2.17014,-47.19049 0.33541,-50.2095 2.10338,-2.53441 4.62429,-1.93238 7.99799,1.91006 5.30153,6.03811 5.92003,7.66478 6.96705,18.32365 0.82829,8.43201 1.65964,11.70965 4.47232,17.63236 1.9002,4.00128 4.16161,9.69049 5.02536,12.64269 0.86375,2.9522 3.34489,7.72052 5.51365,10.59626 2.24945,2.98274 4.22856,6.9177 4.60755,9.16095 0.3654,2.16277 1.5916,4.75989 2.72489,5.77137 1.13329,1.01148 3.76285,4.13137 5.84346,6.93307 2.18012,2.93571 5.1954,5.65991 7.11662,6.42964 1.83353,0.73459 4.99569,2.80557 7.02702,4.60218 2.03132,1.79661 5.63132,3.77277 8,4.39147 2.36867,0.6187 6.60698,2.63122 9.41846,4.47226 2.81149,1.84104 7.01619,3.91791 9.34377,4.61527 6.34601,1.90131 10.04444,5.81242 10.04444,10.62207 0,6.28835 3.38048,8.62703 14.80965,10.2456 4.59883,0.65128 7.72048,1.78732 10.60667,3.86002 5.20675,3.7392 10.35911,5.15489 18.78663,5.1619 10.46898,0.009 13.79705,2.57033 13.79705,10.61961 0,2.81987 1.03867,4.69992 5.22246,9.45295 2.87235,3.26316 5.61538,5.93302 6.09563,5.93302 2.27105,0 6.68191,4.31001 6.68191,6.52914 0,4.49398 -6.30315,8.24212 -8.77978,5.22086 z m -318.75878,-14.89129 c -11.05339,-5.97473 -12.94422,-6.85871 -14.67076,-6.85871 -1.02869,0 -3.53993,-0.82926 -5.58052,-1.84281 -2.04059,-1.01354 -5.81609,-2.41319 -8.39002,-3.11032 -8.87401,-2.40348 -11.83288,-8.42065 -5.57014,-11.32745 1.7875,-0.82966 4.68141,-1.80985 6.4309,-2.17822 4.48842,-0.94506 5.68016,-2.79555 5.0238,-7.80077 -0.46127,-3.51752 -1.4212,-5.00759 -5.63075,-8.74043 -2.79107,-2.475 -5.07451,-5.27167 -5.07431,-6.21482 9.9e-4,-4.66212 10.8056,-4.87549 14.7488,-0.29125 1.30653,1.51893 2.25799,3.95829 2.26687,5.81183 0.0194,4.04875 0.84011,5.30857 4.32014,6.63168 4.81017,1.82882 9.00933,1.25286 13.21755,-1.81293 2.17085,-1.58152 6.45529,-3.59606 9.52099,-4.47676 3.06569,-0.88071 6.44069,-2.55962 7.5,-3.73093 2.48853,-2.75164 8.70728,-5.91578 11.63617,-5.92056 3.32432,-0.005 8.68453,-3.58909 9.81477,-6.56182 0.53629,-1.41055 0.97507,-4.75268 0.97507,-7.42696 0,-6.34563 -3.19834,-9.31921 -9.02198,-8.38797 -4.39027,0.70203 -9.90892,-0.89566 -15.22802,-4.40862 -4.49495,-2.96866 -4.88527,-5.82441 -1,-7.31647 3.92511,-1.50735 8.08868,-0.57518 18.16721,4.06744 7.52169,3.46483 9.91649,4.09639 15.95575,4.20792 6.39367,0.11807 7.58283,-0.18231 11.8664,-2.99745 2.61835,-1.72077 6.91351,-4.53655 9.5448,-6.25729 2.77338,-1.81367 5.59449,-4.71702 6.71217,-6.90784 1.0604,-2.07857 3.71783,-5.19678 5.90539,-6.92936 3.04283,-2.40997 4.34645,-4.41969 5.5481,-8.55321 1.11751,-3.84412 2.45145,-6.0302 4.62323,-7.57665 1.93454,-1.37751 4.47047,-5.15384 6.92405,-10.31078 3.97455,-8.35375 6.26718,-11.45381 10.54207,-14.25482 1.5285,-1.00152 3.01385,-3.5055 3.95061,-6.65992 1.6248,-5.4713 3.96584,-8.72246 6.28073,-8.72246 0.8033,0 3.16514,-1.8648 5.24854,-4.14401 2.53115,-2.76904 4.3177,-3.94074 5.38447,-3.53139 2.16196,0.82963 2.02366,5.2538 -0.21473,6.8687 -2.58574,1.86549 -3.22434,3.19873 -4.83104,10.08607 -0.78589,3.36882 -2.58247,7.63753 -3.99238,9.48603 -3.28016,4.3005 -6.9667,13.7005 -7.82737,19.95831 -0.36894,2.6825 -1.75065,6.65455 -3.07048,8.82678 -3.22541,5.30852 -4.06718,7.20571 -5.39535,12.15999 -0.62083,2.31576 -2.66497,6.22301 -4.54254,8.68277 -1.87758,2.45975 -3.73362,6.1772 -4.12454,8.26098 -0.47626,2.53865 -2.26955,5.44782 -5.4352,8.81723 -5.64408,6.0074 -9.96989,14.18196 -9.96989,18.84031 0,3.89773 -1.79315,5.83868 -7.5,8.11822 -2.35148,0.93927 -5.00213,3.06618 -6.43159,5.16078 -1.33738,1.95967 -4.26238,4.82605 -6.5,6.36973 -2.23763,1.54369 -4.96841,3.80697 -6.06841,5.02951 -1.1,1.22255 -3.575,3.03113 -5.5,4.01908 -1.925,0.98795 -4.60523,2.98028 -5.95608,4.4274 -1.4732,1.5782 -5.09859,3.43377 -9.05936,4.63682 -3.63181,1.10313 -8.79034,3.11291 -11.4634,4.46619 -2.67306,1.35327 -5.43742,2.4605 -6.14302,2.4605 -0.7056,0 -3.5329,2.25 -6.2829,5 -2.75,2.75 -5.60128,5 -6.33618,5 -0.7349,0 -3.11883,-0.96358 -5.29762,-2.14129 z m 63.03856,1.14129 c -0.92114,-1.49043 0.16586,-2.69932 3.0862,-3.43228 3.29896,-0.82799 5.96109,1.06791 4.30369,3.06496 -1.31427,1.58359 -6.47952,1.84033 -7.38989,0.36732 z m 109.75,-8.48886 c -1.2375,-0.8935 -2.25,-2.5333 -2.25,-3.64399 0,-1.89052 0.49478,-1.99101 7.75,-1.57412 7.97687,0.45836 17.25,2.48523 17.25,3.77041 0,0.7775 -4.83133,1.61526 -14.5,2.51433 -4.61295,0.42895 -6.52014,0.18237 -8.25,-1.06663 z m -14.98662,-11.73078 c -2.99963,-3.19296 -3.76188,-9.48013 -2.25161,-18.5716 2.53599,-15.26607 5.0352,-14.44199 7.49754,2.47221 1.99621,13.71226 1.76544,17.70811 -1.04593,18.11062 -1.13051,0.16186 -2.99911,-0.73294 -4.2,-2.01123 z m 113.09336,-35.29309 c -1.41575,-3.68938 5.00656,-6.47215 14.959,-6.48169 9.56573,-0.009 13.07083,3.68147 6.21638,6.54545 -4.90728,2.05039 -20.38198,2.00379 -21.17538,-0.0638 z m 37.35211,-3.11175 c -0.38987,-0.38987 -0.70885,-2.33373 -0.70885,-4.31968 0,-5.28342 -2.15351,-7.55753 -9.99381,-10.55348 -3.85341,-1.47246 -7.00619,-3.04385 -7.00619,-3.49196 0,-1.4885 6.38958,-3.17508 15.5,-4.09135 4.95,-0.49785 10.72862,-1.18733 12.84138,-1.53219 6.21796,-1.01493 10.85054,2.73191 8.52207,6.89266 -0.48127,0.85998 -3.08779,2.29855 -5.79228,3.19684 -6.08737,2.0219 -7.36173,3.51019 -8.03779,9.38712 -0.42453,3.69034 -0.94992,4.69615 -2.57453,4.9287 -1.12263,0.1607 -2.36013,-0.0268 -2.75,-0.41666 z m -44.015,-18.015 c -0.35171,-0.35171 -0.40015,-1.02671 -0.10765,-1.5 0.62914,-1.01796 10.7406,-1.14516 15.49199,-0.19488 2.81831,0.56366 3.02896,0.78269 1.375,1.42971 -2.39476,0.93682 -15.87441,1.15009 -16.75934,0.26517 z m -76.90512,-71.0604 c -0.2635,-1.00763 -0.15032,-2.72487 0.25151,-3.81609 0.65556,-1.78025 0.80674,-1.69406 1.47196,0.83919 0.42045,1.60112 0.31158,3.253 -0.2515,3.81608 -0.65716,0.65716 -1.15486,0.37342 -1.47197,-0.83918 z m 75.29902,-51.69439 c -1.45324,-1.75105 -0.46233,-4.27451 1.92352,-4.89843 2.24337,-0.58665 2.98873,0.0179 2.98873,2.42418 0,2.51465 -3.4405,4.2476 -4.91225,2.47425 z m -20.48076,-1.18752 c -0.89543,-2.33344 -0.82906,-2.41821 1.89301,-2.41821 1.83333,0 2.5,0.53333 2.5,2 0,2.43237 -3.49252,2.76486 -4.39301,0.41821 z m 30.05968,-10.08488 c -1.07402,-1.07401 -0.76495,-9.15455 0.37713,-9.8604 1.61452,-0.99783 3.9562,1.4972 3.9562,4.21526 0,4.26366 -2.48176,7.49671 -4.33333,5.64514 z m -153.70184,-17.87571 c -1.58339,-1.90787 -0.036,-3.80894 2.67895,-3.29118 2.63423,0.50236 3.12546,4.83356 0.54822,4.83356 -1.07091,0 -2.52314,-0.69407 -3.22717,-1.54238 z m 156.20298,-20.05264 c -1.79158,-1.25487 -2.21223,-2.37447 -1.97251,-5.25 0.25761,-3.09017 0.70397,-3.7014 2.88847,-3.95536 2.06549,-0.24013 3.1186,0.50779 5.25,3.72856 1.46643,2.21592 2.66623,4.71359 2.66623,5.55038 0,2.06958 -5.84189,2.02091 -8.83219,-0.0736 z m -148.28211,-2.15498 c -2.9536,-2.48563 -4.26811,-2.81226 -13.67348,-3.39762 -9.76135,-0.60751 -10.60101,-0.8323 -13.55898,-3.63 -4.72312,-4.46721 -7.13994,-5.37632 -15.8865,-5.97582 -7.61178,-0.52172 -8.06463,-0.68946 -9.84535,-3.64672 -1.02662,-1.70491 -3.18079,-3.99984 -4.78705,-5.09984 -5.944,-4.07058 -24.72005,-21.89756 -27.25942,-25.88155 -1.4438,-2.26515 -3.85009,-5.24345 -5.34732,-6.61845 -1.49723,-1.375 -3.64373,-4.3 -4.77001,-6.5 -1.12628,-2.2 -3.7745,-6.025 -5.88495,-8.5 -2.11044,-2.475 -5.87015,-6.87752 -8.3549,-9.78338 -4.02391,-4.70586 -4.51774,-5.81916 -4.51774,-10.1849 0,-5.81585 -1.178,-9.26612 -4.51952,-13.23729 -2.372,-2.81897 -4.66207,-9.3566 -5.91349,-16.88171 -0.3365,-2.02342 -2.15958,-5.41331 -4.18194,-7.77598 -3.81761,-4.46001 -4.62835,-7.84577 -6.01918,-25.13674 -0.48593,-6.04114 -1.21236,-8.46885 -3.73457,-12.48084 -4.43076,-7.04785 -4.38044,-14.11827 0.15075,-21.17951 2.6208,-4.08417 3.21795,-6.03005 3.21795,-10.48607 0,-8.84531 3.40033,-10.95366 13.23103,-8.20378 6.0209,1.68419 8.20515,1.42686 17.26897,-2.03448 2.59447,-0.99079 7.55262,-1.54296 14.11045,-1.57143 9.29734,-0.0404 10.42101,0.16686 13.97199,2.57662 3.60449,2.44607 4.18416,2.54603 8.70824,1.50175 4.27539,-0.98688 5.44203,-0.86265 9.89699,1.05382 4.54414,1.95484 5.36409,2.03386 8.18131,0.78846 1.83755,-0.81232 5.60971,-1.27257 9.13102,-1.11411 9.7022,0.43662 19.60635,0.48593 25.5,0.12694 3.025,-0.18425 12.7,-0.0182 21.5,0.36899 10.69682,0.47065 17.56316,0.33383 20.71613,-0.4128 3.90924,-0.92572 5.59827,-0.82379 9.8721,0.59574 4.89822,1.62693 5.41978,1.62287 10.43356,-0.0814 5.08712,-1.72917 5.55868,-1.72771 13.06617,0.0403 6.62513,1.56019 8.63441,1.65948 13.45092,0.66464 4.68496,-0.96766 6.40028,-0.90918 9.93746,0.33881 5.56717,1.96421 12.95949,1.91795 18.03499,-0.11286 3.00272,-1.20145 5.53243,-1.44358 9.77024,-0.93517 13.86487,1.66336 16.08462,1.71375 22.46479,0.5099 5.51839,-1.04125 7.79541,-1.03285 12.50055,0.0461 3.1642,0.72559 10.02809,1.41612 15.25309,1.5345 5.225,0.11839 12.30808,0.77931 15.74018,1.46873 8.30451,1.66816 15.65742,0.91169 18.67272,-1.92104 3.01693,-2.83425 10.82401,-5.18444 14.66819,-4.4156 3.8028,0.76056 4.91891,2.90036 4.91891,9.43049 0,4.18222 0.6438,6.23147 3.21795,10.24294 4.53119,7.06124 4.58151,14.13166 0.15075,21.17951 -2.52221,4.01199 -3.24864,6.4397 -3.73457,12.48084 -1.39083,17.29097 -2.20157,20.67673 -6.01918,25.13674 -2.02236,2.36267 -3.84544,5.75256 -4.18194,7.77598 -1.25142,7.52511 -3.54149,14.06274 -5.91349,16.88171 -3.20499,3.80891 -4.51952,7.39704 -4.51952,12.33641 0,4.72773 -1.04732,6.95094 -5.89195,12.5072 -1.98443,2.27593 -4.41849,5.31598 -5.40902,6.75568 -0.99053,1.4397 -3.53914,3.50439 -5.66357,4.58819 -2.12444,1.08381 -5.589,4.10857 -7.69904,6.7217 -2.11003,2.61313 -5.07032,5.81079 -6.57842,7.10593 -1.50809,1.29513 -3.52844,3.68613 -4.48966,5.31334 -2.47365,4.18756 -13.79407,12.2679 -20.08164,14.33397 -5.64316,1.85432 -7.1867,3.90528 -7.1867,9.54923 0,1.58174 -0.42787,3.14032 -0.95081,3.46352 -0.52295,0.3232 -7.0103,2.11378 -14.41633,3.97905 -7.40603,1.86528 -14.48134,3.93508 -15.72291,4.59954 -1.24156,0.66447 -4.76672,1.32042 -7.83367,1.45768 -3.17312,0.14201 -8.16205,1.33178 -11.57628,2.76074 -9.49343,3.97329 -16.5179,5.21812 -21.85784,3.8735 -6.18148,-1.55651 -10.17871,-1.43113 -13.7822,0.43231 -2.77891,1.43703 -3.39721,1.42977 -7.18109,-0.0842 -3.44052,-1.37663 -6.08747,-1.53619 -15.65962,-0.944 -10.76484,0.66599 -11.73438,0.90072 -14.80405,3.58423 -1.80663,1.57937 -3.68461,2.87158 -4.17327,2.87158 -0.48866,0 -2.35897,-1.2375 -4.15623,-2.75 z m -81.22153,-109.81722 c 0.83346,-2.17196 -1.28244,-4.21451 -2.79695,-2.7 -1.28004,1.28004 -0.48705,4.26722 1.13278,4.26722 0.58452,0 1.3334,-0.70525 1.66417,-1.56722 z m -26.60234,-27.54832 c 1.28209,-2.39561 0.37353,-18.62242 -1.17454,-20.97706 -0.76706,-1.16672 -1.17638,-1.07843 -2.39357,0.51633 -2.49394,3.26756 -2.80776,8.17393 -0.99574,15.56802 1.8099,7.38546 2.71213,8.3527 4.56385,4.89271 z m 301.44019,-4.89271 c 1.81202,-7.39409 1.4982,-12.30046 -0.99574,-15.56802 -2.22198,-2.91123 -3.20446,-0.55447 -4.00959,9.61813 -0.66669,8.4234 0.18397,12.95814 2.43077,12.95814 0.47141,0 1.62996,-3.15371 2.57456,-7.00825 z"
             id="path2988" />
        </g>
      </g>
    </g>
  </g>
</svg>
