<?xml version="1.0" encoding="UTF-8" standalone="no"?>
<!-- Created with Inkscape (http://www.inkscape.org/) -->
<svg
   xmlns:dc="http://purl.org/dc/elements/1.1/"
   xmlns:cc="http://creativecommons.org/ns#"
   xmlns:rdf="http://www.w3.org/1999/02/22-rdf-syntax-ns#"
   xmlns:svg="http://www.w3.org/2000/svg"
   xmlns="http://www.w3.org/2000/svg"
   xmlns:sodipodi="http://sodipodi.sourceforge.net/DTD/sodipodi-0.dtd"
   xmlns:inkscape="http://www.inkscape.org/namespaces/inkscape"
   width="199.91399"
   height="197.61855"
   id="svg3047"
   sodipodi:version="0.32"
   inkscape:version="0.46"
   version="1.0"
   sodipodi:docname="denaribolognesi.svg"
   inkscape:output_extension="org.inkscape.output.svg.inkscape">
  <defs
     id="defs3049">
    <inkscape:perspective
       sodipodi:type="inkscape:persp3d"
       inkscape:vp_x="0 : 526.18109 : 1"
       inkscape:vp_y="0 : 1000 : 0"
       inkscape:vp_z="744.09448 : 526.18109 : 1"
       inkscape:persp3d-origin="372.04724 : 350.78739 : 1"
       id="perspective3055" />
    <inkscape:perspective
       id="perspective3064"
       inkscape:persp3d-origin="372.04724 : 350.78739 : 1"
       inkscape:vp_z="744.09448 : 526.18109 : 1"
       inkscape:vp_y="0 : 1000 : 0"
       inkscape:vp_x="0 : 526.18109 : 1"
       sodipodi:type="inkscape:persp3d" />
  </defs>
  <sodipodi:namedview
     id="base"
     pagecolor="#ffffff"
     bordercolor="#666666"
     borderopacity="1.0"
     inkscape:pageopacity="0.0"
     inkscape:pageshadow="2"
     inkscape:zoom="0.98994949"
     inkscape:cx="177.52116"
     inkscape:cy="174.89678"
     inkscape:document-units="px"
     inkscape:current-layer="layer1"
     showgrid="false"
     inkscape:window-width="1280"
     inkscape:window-height="750"
     inkscape:window-x="-8"
     inkscape:window-y="-8" />
  <metadata
     id="metadata3052">
    <rdf:RDF>
      <cc:Work
         rdf:about="">
        <dc:format>image/svg+xml</dc:format>
        <dc:type
           rdf:resource="http://purl.org/dc/dcmitype/StillImage" />
      </cc:Work>
    </rdf:RDF>
  </metadata>
  <g
     inkscape:label="Livello 1"
     inkscape:groupmode="layer"
     id="layer1"
     transform="translate(-30.890143,-199.80623)">
    <g
       id="g3070"
       transform="matrix(0.8602952,0,0,0.8602952,-229.20522,24.187898)">
      <path
         style="fill:#e9b607"
         d="M 418.125,206.53125 C 398.84527,205.92622 379.66724,209.59582 362.95355,219.51206 C 336.32428,236.1204 314.3471,261.79403 306.40625,292.53125 C 303.77173,307.9341 304.19722,324.10178 305.40625,339.65625 C 309.63013,362.95369 322.07017,384.40287 339.61336,400.23836 C 357.359,418.93864 382.6995,429.46561 408.1875,431.6875 C 437.14032,432.44329 467.57431,426.23567 489.68863,406.43353 C 510.78178,389.29726 526.64346,365.10165 531.03125,338.15625 C 537.42999,302.95213 526.53609,264.53911 500.15625,239.75 C 487.07057,226.0129 470.63301,215.02413 452.15625,210.09375 C 441.24169,206.15952 429.58203,206.62356 418.125,206.53125 z M 418.28125,209.03125 C 445.4931,208.18623 472.43639,217.78747 492.6875,235.96875 C 523.59992,262.22778 536.47525,307.06948 526.09375,346.125 C 518.76277,376.34336 497.05194,401.83267 469.98384,416.51618 C 451.28754,425.58826 430.00183,428.84024 409.3141,428.78724 C 383.49132,426.34138 357.98731,416.03732 340.03125,396.96875 C 319.95787,377.99388 307.33748,351.23847 307.27407,323.37574 C 306.55731,304.78331 309.63174,285.86097 318.65625,269.5 C 329.57819,247.92563 348.13694,230.29314 369.64838,219.52954 C 384.63494,212.19112 401.55874,209.01853 418.28125,209.03125 z M 417.4375,226.09375 C 397.83452,226.67511 378.41426,233.04356 362.8125,244.9375 C 334.37102,264.76772 318.7694,302.04815 326.15625,336.125 C 329.9307,355.98059 341.13343,374.33677 355.8125,388.21875 C 373.14068,404.11774 396.33288,412.69265 419.84375,411.96875 C 433.73844,412.3826 447.53738,409.34447 460,403.25 C 465.77254,400.71472 470.96645,396.30378 476.34375,393.25 C 487.42931,382.47138 499.51034,372.30059 504.63559,357.10858 C 519.98223,322.22481 513.50375,276.96809 484.28125,251.21875 C 470.90682,239.46694 455.13205,229.66865 437.21875,227.0625 C 430.75807,225.90252 424.03255,226.07707 417.4375,226.09375 z"
         id="path3076" />
      <path
         style="fill:#e70b00"
         d="M 394.5,431.61222 C 368.68168,426.13516 352.32081,416.73384 332.66818,396.08229 C 309.9439,372.20296 300.73232,346.38854 302.42953,311.34187 C 303.43543,290.57055 308.23001,275.73507 319.5492,258.36991 C 325.84512,248.71112 341.37753,232.21713 351,224.97207 C 369.33864,211.16433 392.04916,204.07646 417.95245,204.07646 C 438.02184,204.07646 451.79144,206.79223 468.4894,214.04382 C 481.97381,219.89984 502.00456,236.64489 513.03319,251.281 C 537.12263,283.25009 541.60033,329.94488 524.08922,366.57646 C 518.03229,379.24698 509.79218,390.29338 498.43166,400.97208 C 477.28601,420.84865 462.75771,428.00868 435.4323,432.02026 C 417.70726,434.62243 408.24515,434.5281 394.5,431.61222 z M 433.5335,425.07154 C 462.10762,420.87246 479.23738,412.14728 498.36189,392.05069 C 520.86415,368.40466 531.09466,336.38642 526.5611,303.79615 C 522.42508,274.06374 508.22776,249.70004 484.71256,231.9808 C 465.76089,217.70029 444.81731,211.10835 418.32236,211.08467 C 386.77255,211.05646 361.5225,221.57619 339.88127,243.76497 C 329.92036,253.97791 324.71815,261.28278 319.45537,272.44675 C 313.0043,286.13145 311.00156,293.11927 309.85217,305.95364 C 306.5213,343.14703 316.17403,370.52927 341.44582,395.57646 C 358.89095,412.86655 375.41496,421.0882 402.5,425.95445 C 410.70829,427.4292 419.11814,427.18993 433.5335,425.07154 z M 405,412.06248 C 377.29106,408.82875 350.88229,390.43373 336.10896,364.07646 C 329.09018,351.55416 327.82704,347.90685 323.81453,328.57646 C 321.25621,316.25162 325.40388,294.33297 333.27604,278.57646 C 340.83636,263.44412 351.49498,251.57319 366.36304,241.72618 C 377.96684,234.04105 383.09595,231.7886 397.5,228.05234 C 408.69002,225.14976 410.44497,224.96358 423.5,225.29412 C 443.03023,225.78859 453.89327,229.1574 470.46036,239.85734 C 496.42658,256.62774 511.05216,280.86455 513.43718,311.07646 C 514.50729,324.63193 511.59915,342.87354 506.50226,354.57646 C 501.43561,366.20992 499.05891,370.13424 492.69323,377.37738 C 484.13359,387.1169 475.96447,395.07646 474.52816,395.07646 C 473.95915,395.07646 471.24504,396.69283 468.4968,398.66839 C 462.25329,403.15652 453.62173,407.07646 449.98256,407.07646 C 448.45984,407.07646 446.96401,407.72788 446.65849,408.52405 C 446.35296,409.32022 444.39232,410.42053 442.3015,410.96918 C 436.80874,412.41051 413.76869,413.08581 405,412.06248 z M 408.62456,402.61247 C 409.26333,400.94786 399.75463,389.25231 394.12547,384.77882 C 390.53042,381.92184 390.50395,381.9177 380.01183,382.57353 C 367.88482,383.33155 366,383.72627 366,385.50785 C 366,387.34355 379.32625,396.07929 382.11803,396.07368 C 382.87812,396.07215 385.3,396.91673 387.5,397.95051 C 393.17904,400.61909 403.09267,403.8962 405.78138,403.99372 C 407.03615,404.03923 408.31557,403.41766 408.62456,402.61247 z M 441.40398,401.57646 C 443.98999,400.20146 446.89601,399.07646 447.86178,399.07646 C 448.82756,399.07646 450.49125,398.41577 451.55887,397.60826 C 452.62649,396.80076 454.65906,396.12576 456.07569,396.10826 C 457.4983,396.0907 459.70279,394.95727 461,393.57646 C 462.29175,392.20146 464.17019,391.07646 465.17431,391.07646 C 466.17844,391.07646 467,390.67773 467,390.1904 C 467,389.70307 468.575,388.55696 470.5,387.64348 C 474.2218,385.87737 474.76758,384.46483 472.75,381.82028 C 471.77534,380.54274 469.1502,380.07828 460.83236,379.71172 C 448.32892,379.1607 449.43915,378.59591 435.7414,392.47576 C 428.81046,399.49885 427.21881,401.63519 428.11384,402.71363 C 429.89325,404.85768 436.25692,404.31318 441.40398,401.57646 z M 433.4556,387.57135 L 446.4112,375.07646 L 451.74501,375.07646 C 454.67861,375.07646 461.4022,375.55855 466.68633,376.14776 C 474.45271,377.01376 476.46379,376.96585 477.18069,375.89776 C 477.66847,375.17105 477.87026,367.25261 477.62912,358.30123 L 477.19068,342.026 L 479.67049,340.30123 C 481.03438,339.35261 483.57898,337.0619 485.32515,335.21078 C 487.07132,333.35965 489.18199,331.55965 490.01553,331.21078 C 490.84907,330.8619 493.76626,328.16787 496.49817,325.22405 L 501.46527,319.87163 L 498.98264,317.87358 C 497.61719,316.77465 493.13747,312.65824 489.02771,308.726 C 484.91795,304.79375 480.64295,301.11247 479.52771,300.54537 C 477.6317,299.58125 477.5,298.57453 477.5,285.04537 C 477.5,277.08747 477.82781,269.41172 478.22847,267.98815 C 478.69859,266.31779 478.4616,264.72242 477.56025,263.48975 C 476.28102,261.74029 474.90115,261.59602 461.15153,261.77422 L 446.1395,261.96877 L 442.52466,259.09605 C 440.53649,257.51606 434.88467,252.14029 429.96506,247.1499 C 425.04544,242.15951 420.20615,238.07646 419.21109,238.07646 C 417.13758,238.07646 403,251.6889 403,253.68539 C 403,254.41178 401.9875,255.52816 400.75,256.16624 C 399.5125,256.80432 397.53021,258.20847 396.34491,259.28657 C 394.35264,261.09867 393.18161,261.20067 380.84491,260.63666 C 373.50521,260.30111 365.925,259.87454 364,259.68874 C 358.28985,259.13759 357.76199,259.69543 358.53681,265.46229 C 358.91474,268.27508 359.56224,271.02646 359.97572,271.57646 C 360.38919,272.12646 361.01187,277.79526 361.35943,284.1738 L 361.99138,295.77115 L 348.99569,307.61862 C 341.84806,314.13474 336.01595,319.71593 336.03544,320.02128 C 336.20361,322.65616 347.19278,333.51963 355.07252,338.84062 C 359.07943,341.54638 359.80892,342.61149 360.96999,347.45136 C 362.06102,351.99929 362.06627,354.05196 360.99974,359.07769 C 360.02512,363.6703 359.98862,365.46508 360.85226,366.32873 C 361.48352,366.95998 362,368.97729 362,370.81164 C 362,372.64599 362.74606,375.28546 363.65792,376.67713 C 365.27279,379.14174 365.53888,379.19284 373.90792,378.6458 C 378.63356,378.3369 385.02613,377.80625 388.11363,377.46658 C 393.01628,376.9272 393.9066,377.10503 395.14324,378.87058 C 395.92203,379.98246 398.73689,382.69169 401.39847,384.8911 C 404.06006,387.09051 406.9824,390.02521 407.89256,391.41267 C 410.07679,394.74234 416.85185,400.0778 418.8875,400.07135 C 419.77438,400.06854 426.33002,394.44354 433.4556,387.57135 z M 411,384.63421 C 407.425,381.12006 403.40609,376.79997 402.06908,375.03403 C 398.25546,369.99693 394.83767,369.07181 382.19655,369.65496 C 371.74264,370.13722 371.12854,370.05681 370.51558,368.12554 C 369.95939,366.37316 369.83482,355.97081 370.2447,345.50648 C 370.3579,342.61667 367.42805,337.17676 365.72136,337.10788 C 363.73527,337.02773 347,322.75128 347,321.13716 C 347,320.10617 349.85284,317.18223 353.75,314.21894 C 357.4625,311.39605 362.69887,307.09333 365.38638,304.65733 L 370.27275,300.22824 L 369.5777,292.40235 C 369.19543,288.09811 368.91636,282.93746 368.95755,280.93424 C 368.99875,278.93102 368.58778,276.12243 368.04428,274.69293 C 365.77648,268.72817 369.02181,267.56994 384.06167,268.97647 C 398.46531,270.32349 399.89403,269.88351 406.46749,262.07646 C 409.47761,258.50146 413.18571,254.11396 414.70772,252.32646 C 416.22973,250.53896 418.24272,249.07646 419.18104,249.07646 C 420.11936,249.07646 422.37498,250.95609 424.19354,253.25341 C 426.01209,255.55073 430.05636,260.10849 433.1808,263.38176 L 438.86159,269.33317 L 453.14072,269.23546 C 461.90727,269.17548 467.66406,269.5329 468.05242,270.16128 C 468.40033,270.72421 468.5171,277.53065 468.3119,285.2867 L 467.93881,299.3886 L 474.47279,305.73253 C 478.06647,309.22169 481.36697,312.07646 481.80721,312.07646 C 483.2025,312.07646 489,318.60718 489,320.17892 C 489,321.00791 486.88501,323.46149 484.30002,325.63132 C 481.71503,327.80115 476.97593,332.10905 473.76869,335.20443 C 467.37259,341.37745 467.33878,341.54214 469.99712,353.57646 C 471.72989,361.42071 471.93738,364.11095 470.99984,366.57689 C 470.12284,368.88356 469.55568,369.07646 463.65048,369.07646 C 460.13101,369.07646 455.50738,368.51281 453.37573,367.82389 C 451.24408,367.13498 447.63105,366.70873 445.34677,366.87666 C 441.46371,367.16214 440.46486,367.95917 429.99175,379.12923 C 423.83076,385.70021 418.49972,391.06456 418.14498,391.05002 C 417.79024,391.03548 414.575,388.14837 411,384.63421 z M 427.55357,362.07646 C 432.29592,362.07646 435.32336,361.61024 436.18661,360.747 C 436.91781,360.01579 438.68725,358.77829 440.11869,357.997 C 445.46252,355.08028 451,351.01721 451,350.01293 C 451,349.44179 452.53078,347.53494 454.40174,345.77548 C 460.81359,339.74574 464.73696,323.27356 462.19004,313.07646 C 461.43449,310.05146 460.49323,305.47726 460.09836,302.91156 C 459.32933,297.91485 454.09747,290.45664 449.14622,287.29889 C 447.6908,286.37067 445.91198,284.8159 445.1933,283.84384 C 444.47461,282.87178 443.30685,282.07646 442.59828,282.07646 C 441.88971,282.07646 440.49549,281.17646 439.5,280.07646 C 438.50451,278.97646 436.97227,278.07369 436.09501,278.0703 C 435.21776,278.06691 433.21106,277.39191 431.63569,276.5703 C 427.85426,274.59815 414.59691,274.60175 409,276.57646 C 406.6617,277.40146 403.6386,278.07646 402.282,278.07646 C 400.9254,278.07646 398.67129,278.97646 397.27287,280.07646 C 395.87445,281.17646 394.1873,282.07646 393.52365,282.07646 C 392.0902,282.07646 380,294.45128 380,295.91848 C 380,296.4768 379.24665,297.68696 378.32588,298.60772 C 376.70067,300.23294 376.10251,302.54033 373.82135,315.98404 C 372.9181,321.30726 373.01045,323.26829 374.36705,327.57193 C 375.26517,330.4211 376,333.43045 376,334.25936 C 376,335.08828 376.9,336.58097 378,337.57646 C 379.1,338.57195 380,340.44025 380,341.72825 C 380,343.24065 381.83843,345.84207 385.19073,349.07326 C 388.04563,351.82502 390.67103,354.07646 391.02495,354.07646 C 391.37886,354.07646 394.20542,355.85363 397.30619,358.02572 C 401.9469,361.27655 403.96579,362.04479 408.72197,362.36971 C 411.89989,362.58681 415.79375,362.60964 417.375,362.42045 C 418.95625,362.23125 423.53661,362.07646 427.55357,362.07646 z M 414,351.86111 C 400.70282,349.9346 391.06806,341.21 386.61544,327.06347 L 388.68812,319.96915 L 386.02263,313.27175 C 387.11018,310.17746 388,306.82735 388,305.82704 C 388,304.82674 390.79042,301.09024 394.20093,297.5237 C 402.2459,289.1107 408.60197,286.07646 418.18043,286.07646 C 424.21874,286.07646 426.18205,286.59041 433.30959,290.03693 C 438.75338,292.66927 442.55754,295.29097 444.65357,297.85482 C 448.22731,302.22618 452,313.27314 452,319.36619 C 452,324.55211 449.13787,335.23202 447.35825,336.6867 C 446.61121,337.29734 446,338.17781 446,338.6433 C 446,340.07881 438.7438,346.03294 433.94121,348.53824 C 427.96755,351.65444 420.808,352.84746 414,351.86111 z M 355.39301,371.49467 C 355.72686,370.62469 356,364.8001 356,358.55114 L 356,347.18939 L 351.88174,343.88292 C 349.6167,342.06437 345.12061,338.21396 341.89043,335.32646 C 332.73402,327.14143 330.14806,328.81766 334.84386,339.89406 C 336.402,343.56938 338.01106,347.92646 338.41955,349.57646 C 338.82804,351.22646 340.02575,353.38149 341.08113,354.36542 C 342.13651,355.34934 343.00193,356.92434 343.00428,357.86542 C 343.00664,358.80649 344.35471,361.60146 346,364.07646 C 347.64529,366.55146 348.99336,369.07019 348.99572,369.67365 C 348.99948,370.63779 352.37088,372.82225 354.14301,373.00878 C 354.49667,373.046 355.05917,372.36466 355.39301,371.49467 z M 492.63211,362.56907 C 494.94079,358.17313 497.99302,352.40199 499.41485,349.7443 C 500.83668,347.08661 502,343.42225 502,341.60129 C 502,339.5808 502.58461,338.0661 503.5,337.71483 C 505.2126,337.05765 505.6541,328.59875 504.02825,327.59392 C 502.68945,326.76649 498.19034,329.70801 494,334.15038 C 492.075,336.19116 489.55579,338.14304 488.40176,338.4879 C 487.24772,338.83275 485.78522,340.25243 485.15176,341.64273 C 483.9431,344.29544 483.52143,366.66575 484.62583,369.54376 C 485.8542,372.74485 488.49714,370.44244 492.63211,362.56907 z M 505.57987,311.61424 C 505.93546,310.19748 505.30665,306.39346 504.09892,302.65515 C 502.94452,299.08186 502,294.6707 502,292.85255 C 502,291.03441 501.04913,287.75351 499.88695,285.56165 C 496.48099,279.13805 487.67393,266.07646 486.74864,266.07646 C 485.2412,266.07646 482.8681,273.19914 483.46566,275.93005 C 483.78415,277.38558 483.645,281.4924 483.15644,285.05633 C 482.04335,293.17597 483.85232,298.0245 489.8828,303.08483 C 492.17137,305.00523 495.94647,308.25271 498.27192,310.30146 C 503.24894,314.68628 504.74154,314.95441 505.57987,311.61424 z M 340.15539,309.55223 C 342.54492,307.6139 347.1557,303.53126 350.40155,300.47968 L 356.30311,294.93137 L 355.64944,281.30181 C 355.28993,273.80554 354.55894,267.2354 354.02502,266.70148 C 352.51101,265.18748 348.14116,267.65852 346.75633,270.81173 C 346.08851,272.33233 344.98746,273.92663 344.30954,274.35461 C 342.60803,275.42882 338,284.80563 338,287.1938 C 338,288.26797 337.28327,290.24069 336.40727,291.57764 C 335.53127,292.91458 334.44096,296.83625 333.98436,300.29245 C 333.52776,303.74866 332.83824,308.03896 332.45209,309.82646 C 331.84072,312.65653 332.01234,313.07646 333.78039,313.07646 C 334.8971,313.07646 337.76585,311.49056 340.15539,309.55223 z M 475.28278,256.11921 C 476.81959,254.72861 474.87253,252.51932 468.73204,248.68618 C 465.30442,246.54653 461.30342,243.97582 459.84094,242.97348 C 458.37846,241.97115 455.00346,240.61038 452.34094,239.94954 C 449.67842,239.28871 446.6,238.19744 445.5,237.52449 C 444.4,236.85154 441.71555,235.98685 439.53456,235.60297 C 437.35356,235.21909 434.42856,234.33032 433.03456,233.62794 C 429.68754,231.94151 428,232.66772 428,235.79449 C 428,237.66366 430.44282,240.83684 437.13593,247.66192 C 445.7606,256.45664 446.53008,256.99595 450.88593,257.29917 C 457.55756,257.76358 474.36382,256.95074 475.28278,256.11921 z M 401.29759,248.82646 C 410.33563,238.92019 413,235.5983 413,234.23612 C 413,231.48609 403.68976,231.7795 399.57856,234.65909 C 398.4656,235.43865 396.48859,236.07646 395.18522,236.07646 C 393.88185,236.07646 391.67129,236.97646 390.27287,238.07646 C 388.87445,239.17646 386.50166,240.07646 385,240.07646 C 383.49834,240.07646 381.12555,240.97646 379.72713,242.07646 C 378.32871,243.17646 376.86838,244.07646 376.48197,244.07646 C 374.57464,244.07646 366,250.62788 366,252.08516 C 366,254.0151 373.06813,255.92505 382,256.40868 C 385.025,256.57248 388.9109,256.78974 390.63533,256.89148 C 393.37976,257.0534 394.7091,256.04787 401.29759,248.82646 z"
         id="path3074"
         sodipodi:nodetypes="cssssssssssccsssssssssccsssssssssssssssccssssssccsssssssssssccccsscccsscccssssscccssssssssscccsssssssssssssccssssssscccssssssscccscccsssssssssssccsssssssssssssssssssssssssssscccccssssssssscccccssssssssccssssssssccsssssssscccccssssssssccsssssssssccssssssssssc" />
      <path
         style="fill:#070503"
         d="M 394.5,431.61222 C 368.68168,426.13516 352.32081,416.73384 332.66818,396.08229 C 309.9439,372.20296 300.73232,346.38854 302.42953,311.34187 C 303.43543,290.57055 308.23001,275.73507 319.5492,258.36991 C 325.84512,248.71112 341.37753,232.21713 351,224.97207 C 369.33864,211.16433 392.04916,204.07646 417.95245,204.07646 C 438.02184,204.07646 451.79144,206.79223 468.4894,214.04382 C 481.97381,219.89984 502.00456,236.64489 513.03319,251.281 C 537.12263,283.25009 541.60033,329.94488 524.08922,366.57646 C 518.03229,379.24698 509.79218,390.29338 498.43166,400.97208 C 477.28601,420.84865 462.75771,428.00868 435.4323,432.02026 C 417.70726,434.62243 408.24515,434.5281 394.5,431.61222 z M 433.5335,425.07154 C 462.10762,420.87246 479.23738,412.14728 498.36189,392.05069 C 520.86415,368.40466 531.09466,336.38642 526.5611,303.79615 C 522.42508,274.06374 508.22776,249.70004 484.71256,231.9808 C 465.76089,217.70029 444.81731,211.10835 418.32236,211.08467 C 386.77255,211.05646 361.5225,221.57619 339.88127,243.76497 C 329.92036,253.97791 324.71815,261.28278 319.45537,272.44675 C 313.0043,286.13145 311.00156,293.11927 309.85217,305.95364 C 306.5213,343.14703 316.17403,370.52927 341.44582,395.57646 C 358.89095,412.86655 375.41496,421.0882 402.5,425.95445 C 410.70829,427.4292 419.11814,427.18993 433.5335,425.07154 z M 405,412.06248 C 377.29106,408.82875 350.88229,390.43373 336.10896,364.07646 C 329.09065,351.555 327.79892,347.82398 323.81837,328.57646 C 322.39227,321.68074 323.35889,308.14469 325.95913,298.59813 C 332.81198,273.43851 345.54752,255.51216 366.36304,241.72618 C 377.96684,234.04105 383.09595,231.7886 397.5,228.05234 C 408.69002,225.14976 410.44497,224.96358 423.5,225.29412 C 443.03023,225.78859 453.89327,229.1574 470.46036,239.85734 C 496.36298,256.58667 511.01374,280.85894 513.45263,311.0837 C 514.5604,324.81212 511.40847,343.36899 505.81049,356.07646 C 499.80613,369.70645 498.1271,372.09843 485.6329,384.82191 C 476.17044,394.45804 475.49673,395.07646 474.46163,395.07646 C 473.92922,395.07646 471.24504,396.69283 468.4968,398.66839 C 462.25329,403.15652 453.62173,407.07646 449.98256,407.07646 C 448.45984,407.07646 446.96401,407.72788 446.65849,408.52405 C 446.35296,409.32022 444.39232,410.42053 442.3015,410.96918 C 436.80874,412.41051 413.76869,413.08581 405,412.06248 z M 408.62456,402.61247 C 409.22548,401.0465 400.77108,390.44839 394.59542,385.0261 L 391.01556,381.88294 L 380.25778,382.55677 C 374.341,382.92737 368.7125,383.45124 367.75,383.72091 C 364.75099,384.56119 365.81216,386.76666 370.75,389.95593 C 373.3625,391.64329 376.02398,393.46746 376.6644,394.00963 C 377.30482,394.5518 379.10482,395.27943 380.6644,395.6266 C 382.22398,395.97377 385.3,397.06158 387.5,398.04396 C 393.59692,400.76646 403.22859,403.90113 405.78138,403.99372 C 407.03615,404.03923 408.31557,403.41766 408.62456,402.61247 z M 441.5,401.59859 C 444.25,400.24582 447.20149,399.12493 448.05887,399.10773 C 448.91625,399.09053 450.49125,398.41577 451.55887,397.60826 C 452.62649,396.80076 454.65906,396.12576 456.07569,396.10826 C 457.4983,396.0907 459.70279,394.95727 461,393.57646 C 462.29175,392.20146 464.17019,391.07646 465.17431,391.07646 C 466.17844,391.07646 467,390.67773 467,390.1904 C 467,389.70307 468.575,388.55696 470.5,387.64348 C 474.22524,385.87574 474.76273,384.4773 472.75,381.78941 C 471.76079,380.46837 469.27487,380.02813 460.83452,379.67926 C 448.33595,379.16266 449.43089,378.60428 435.7414,392.47576 C 428.81046,399.49885 427.21881,401.63519 428.11384,402.71363 C 429.86394,404.82237 435.98259,404.3127 441.5,401.59859 z M 433.4556,387.57135 L 446.4112,375.07646 L 451.74501,375.07646 C 454.67861,375.07646 461.4022,375.55855 466.68633,376.14776 C 474.45216,377.0137 476.46527,376.96578 477.18817,375.89776 C 477.68006,375.17105 477.88842,367.24765 477.65119,358.29022 L 477.21986,342.00399 L 479.67659,340.29022 C 481.02779,339.34765 483.75061,336.88896 485.72729,334.82646 C 487.70398,332.76396 489.81148,331.07078 490.41063,331.06384 C 491.00978,331.0569 493.72124,328.51885 496.43608,325.42373 L 501.37217,319.79624 L 498.93608,317.83589 C 497.59624,316.75769 493.13747,312.65824 489.02771,308.726 C 484.91795,304.79375 480.64295,301.11337 479.52771,300.54736 C 477.65699,299.59794 477.48569,298.47531 477.31516,286.04736 C 477.2135,278.63837 477.58512,270.82665 478.14099,268.688 C 479.86066,262.0717 478.56612,261.54852 461.03712,261.7757 L 446.1395,261.96877 L 442.51098,259.08519 C 440.5153,257.49922 434.88886,252.12345 430.00778,247.13903 C 425.12671,242.15462 420.31368,238.07646 419.31216,238.07646 C 417.14419,238.07646 403,251.51489 403,253.57468 C 403,254.36196 401.9875,255.52816 400.75,256.16624 C 399.5125,256.80432 397.52129,258.21685 396.32509,259.3052 C 394.29409,261.15307 393.23539,261.23847 380.32509,260.59591 C 372.72129,260.21745 364.7,259.83326 362.5,259.74213 L 358.5,259.57646 L 358.80006,265.03432 C 358.96509,268.03614 359.46628,270.96114 359.91381,271.53432 C 360.36133,272.10749 361.01187,277.79526 361.35943,284.1738 L 361.99138,295.77115 L 348.99569,307.61862 C 341.84806,314.13474 336.01595,319.71593 336.03544,320.02128 C 336.20623,322.69716 348.41935,334.73291 355.18639,338.89411 C 360.70911,342.29015 363.00561,350.53395 360.90318,359.41579 C 360.01171,363.18186 360.03599,364.77519 361.01264,366.60008 C 361.70288,367.88981 362.00499,369.94936 361.684,371.17686 C 361.31712,372.57979 361.84569,374.45539 363.10723,376.22705 L 365.11409,379.04543 L 375.67168,378.61298 C 381.47835,378.37513 386.47768,377.93211 386.7813,377.62849 C 388.14139,376.26841 393.96201,377.18413 395.20106,378.95312 C 395.92402,379.98529 398.52426,382.50804 400.97939,384.55924 C 403.43451,386.61043 406.4003,389.5859 407.57002,391.17137 C 410.38064,394.98094 416.86192,400.07777 418.8875,400.07135 C 419.77438,400.06854 426.33002,394.44354 433.4556,387.57135 z M 411,384.63421 C 407.425,381.12006 403.40609,376.79997 402.06908,375.03403 C 398.25546,369.99693 394.83767,369.07181 382.19655,369.65496 C 369.17115,370.25585 369.79374,370.88517 370.00522,357.33178 C 370.08036,352.51636 370.15526,346.8953 370.17168,344.84055 C 370.20525,340.6387 370.45979,340.90877 356.25,330.06937 C 350.44495,325.64121 347,322.32267 347,321.1588 C 347,320.04435 349.39208,317.56275 352.99414,314.94036 C 356.29092,312.54021 361.52697,308.24314 364.62981,305.3913 L 370.27134,300.20614 L 369.577,292.3913 C 369.19511,288.09314 368.91636,282.93746 368.95755,280.93424 C 368.99875,278.93102 368.58778,276.12243 368.04428,274.69293 C 365.77648,268.72817 369.02181,267.56994 384.06167,268.97647 C 398.45488,270.32252 399.88816,269.88184 406.50373,262.07646 C 409.53378,258.50146 413.2475,254.12329 414.75645,252.3472 C 416.2654,250.5711 418.20331,249.1086 419.06291,249.0972 C 420.79874,249.07417 424.74137,252.98069 427.62055,257.57646 C 428.65425,259.22646 430.82429,261.70146 432.44287,263.07646 C 434.06145,264.45146 436.17367,266.42168 437.13669,267.45472 C 438.70089,269.13265 440.40932,269.32258 453.15375,269.23537 C 462.04078,269.17456 467.66177,269.52919 468.06146,270.1759 C 468.41434,270.74688 468.51285,277.5356 468.28037,285.26194 L 467.85768,299.30983 L 474.43222,305.69314 C 478.04822,309.20397 481.36697,312.07646 481.80721,312.07646 C 483.2025,312.07646 489,318.60718 489,320.17892 C 489,321.00791 486.88819,323.46149 484.30709,325.63132 C 476.61697,332.0961 469.87437,338.47308 468.98134,340.12602 C 468.1535,341.65833 469.01894,350.11263 470.94782,359.33608 C 471.58166,362.36694 471.59928,365.00023 470.99634,366.58608 C 470.1235,368.88182 469.54938,369.07646 463.65048,369.07646 C 460.13101,369.07646 455.50738,368.51281 453.37573,367.82389 C 451.24408,367.13498 447.63105,366.70873 445.34677,366.87666 C 441.46371,367.16214 440.46486,367.95917 429.99175,379.12923 C 423.83076,385.70021 418.49972,391.06456 418.14498,391.05002 C 417.79024,391.03548 414.575,388.14837 411,384.63421 z M 427.55357,362.07646 C 432.29592,362.07646 435.32336,361.61024 436.18661,360.747 C 436.91781,360.01579 438.68725,358.77829 440.11869,357.997 C 445.46252,355.08028 451,351.01721 451,350.01293 C 451,349.44179 452.53078,347.53494 454.40174,345.77548 C 460.81359,339.74574 464.73696,323.27356 462.19004,313.07646 C 461.43449,310.05146 460.49323,305.47726 460.09836,302.91156 C 459.32933,297.91485 454.09747,290.45664 449.14622,287.29889 C 447.6908,286.37067 445.91198,284.8159 445.1933,283.84384 C 444.47461,282.87178 443.30685,282.07646 442.59828,282.07646 C 441.88971,282.07646 440.49549,281.17646 439.5,280.07646 C 438.50451,278.97646 436.97227,278.07369 436.09501,278.0703 C 435.21776,278.06691 433.21106,277.39191 431.63569,276.5703 C 427.85426,274.59815 414.59691,274.60175 409,276.57646 C 406.6617,277.40146 403.6386,278.07646 402.282,278.07646 C 400.9254,278.07646 398.67129,278.97646 397.27287,280.07646 C 395.87445,281.17646 394.1873,282.07646 393.52365,282.07646 C 392.0902,282.07646 380,294.45128 380,295.91848 C 380,296.4768 379.24665,297.68696 378.32588,298.60772 C 376.70067,300.23294 376.10251,302.54033 373.82135,315.98404 C 372.9181,321.30726 373.01045,323.26829 374.36705,327.57193 C 375.26517,330.4211 376,333.43045 376,334.25936 C 376,335.08828 376.9,336.58097 378,337.57646 C 379.1,338.57195 380,340.42026 380,341.68383 C 380,343.84017 388.98838,354.07646 390.88184,354.07646 C 391.31447,354.07646 394.20542,355.85363 397.30619,358.02572 C 401.9469,361.27655 403.96579,362.04479 408.72197,362.36971 C 411.89989,362.58681 415.79375,362.60964 417.375,362.42045 C 418.95625,362.23125 423.53661,362.07646 427.55357,362.07646 z M 409,350.80769 C 397.11851,346.62802 390.58815,339.68528 386.58993,326.98242 L 386.18812,320.68343 L 386.02263,313.27175 C 387.11018,310.17746 388,306.82735 388,305.82704 C 388,304.82674 390.79042,301.09024 394.20093,297.5237 C 402.25736,289.09871 408.59838,286.07646 418.21852,286.07646 C 424.33875,286.07646 426.19627,286.56874 433.34767,290.08598 C 443.41235,295.03604 447.06027,299.17212 450.05381,309.02772 C 451.7216,314.51855 452.11737,317.67938 451.67138,321.94642 C 450.9892,328.47322 448.74181,335.40707 446.51081,337.86829 C 436.93312,348.43434 431.55668,351.29922 420.5,351.72839 C 415.89038,351.90732 411.01671,351.51712 409,350.80769 z M 426.46138,347.76192 C 433.1627,346.21571 441.89428,338.08891 445.09288,331.8663 C 447.81299,326.57453 447.78336,312.53229 445.04073,307.1563 C 442.01822,301.23169 434.98586,294.8028 429.41636,292.87272 C 421.98297,290.29671 412.15566,290.06366 409.81153,292.40779 C 409.07929,293.14002 407.2554,294.04653 405.75844,294.42224 C 402.0048,295.36434 396.65989,300.27473 393.47786,305.70445 C 391.19361,309.60223 390.79441,311.48297 390.67431,318.91292 C 390.55483,326.30365 390.88661,328.23758 392.93256,332.07646 C 396.28044,338.35816 397.23014,339.71932 400.3226,341.86217 C 408.07631,347.90421 415.43684,349.272 426.46138,347.76192 z M 412.02043,333.82646 C 401.66691,328.53607 399.38471,316.40257 407.09206,307.62439 C 410.74203,303.46731 415.72387,301.67252 421.73282,302.34981 C 438.18577,304.2043 441.71829,327.30464 426.59893,334.17103 C 421.16604,336.63835 417.34676,336.54808 412.02043,333.82646 z M 426.0156,331.21336 C 430.6364,328.74264 433.33041,323.97891 433.24648,318.42723 C 433.13098,310.78672 427.25587,305.08394 419.5,305.08394 C 408.8062,305.08394 402.35965,315.56762 407.20634,325.07646 C 410.99094,332.50157 418.82566,335.0578 426.0156,331.21336 z M 355.39301,371.49467 C 355.72686,370.62469 356,364.8001 356,358.55114 L 356,347.18939 L 351.84857,343.88292 C 349.56528,342.06437 345.13709,338.21396 342.00815,335.32646 C 332.75212,326.78465 330.04852,328.60018 334.93268,340.07779 C 336.61971,344.04224 338,348.11557 338,349.12965 C 338,350.14372 339.125,352.18731 340.5,353.67096 C 341.875,355.15461 343.00193,357.0903 343.00428,357.97248 C 343.00664,358.85467 344.35471,361.60146 346,364.07646 C 347.64529,366.55146 348.99336,369.07019 348.99572,369.67365 C 348.99948,370.63779 352.37088,372.82225 354.14301,373.00878 C 354.49667,373.046 355.05917,372.36466 355.39301,371.49467 z M 492.63211,362.56907 C 494.94079,358.17313 497.99302,352.40199 499.41485,349.7443 C 500.83668,347.08661 502,343.42225 502,341.60129 C 502,339.5808 502.58461,338.0661 503.5,337.71483 C 505.2126,337.05765 505.6541,328.59875 504.02825,327.59392 C 502.68945,326.76649 498.19034,329.70801 494,334.15038 C 492.075,336.19116 489.55579,338.14304 488.40176,338.4879 C 487.24772,338.83275 485.78522,340.25243 485.15176,341.64273 C 483.9431,344.29544 483.52143,366.66575 484.62583,369.54376 C 485.8542,372.74485 488.49714,370.44244 492.63211,362.56907 z M 505.57987,311.61424 C 505.93546,310.19748 505.30665,306.39346 504.09892,302.65515 C 502.94452,299.08186 502,294.6707 502,292.85255 C 502,291.03441 501.04913,287.75351 499.88695,285.56165 C 496.48099,279.13805 487.67393,266.07646 486.74864,266.07646 C 485.2412,266.07646 482.8681,273.19914 483.46566,275.93005 C 483.78415,277.38558 483.645,281.4924 483.15644,285.05633 C 482.04335,293.17597 483.85232,298.0245 489.8828,303.08483 C 492.17137,305.00523 495.94647,308.25271 498.27192,310.30146 C 503.24894,314.68628 504.74154,314.95441 505.57987,311.61424 z M 340.3788,309.50796 C 342.64546,307.54529 347.15544,303.4629 350.40097,300.43598 L 356.30193,294.9325 L 355.68759,281.3411 C 355.3497,273.86583 354.61897,267.29543 354.06375,266.74021 C 352.52518,265.20164 348.17923,267.58796 346.73527,270.76419 C 346.05587,272.25865 344.4875,274.49482 343.25,275.73347 C 342.0125,276.97211 341,278.6259 341,279.40856 C 341,280.19122 340.325,281.39177 339.5,282.07646 C 338.675,282.76115 338,284.4136 338,285.74856 C 338,287.08353 337.27126,289.58501 336.38057,291.30741 C 335.48989,293.0298 334.39958,297.16996 333.95766,300.50775 C 333.51575,303.84554 332.83824,308.03896 332.45209,309.82646 C 331.8228,312.73946 331.9837,313.07646 334.0038,313.07646 C 335.24339,313.07646 338.11214,311.47064 340.3788,309.50796 z M 475.28278,256.1193 C 476.81742,254.73048 474.87542,252.52083 468.73204,248.66569 C 465.30442,246.51476 461.375,244.04064 460,243.16763 C 457.15434,241.36088 446.91034,237.64366 439.5,235.72885 C 436.75,235.01826 433.6,233.96658 432.5,233.39179 C 429.68088,231.91869 428,232.81617 428,235.79449 C 428,239.16315 445.03113,256.77301 448.88153,257.38558 C 452.69369,257.99207 474.36176,256.95281 475.28278,256.1193 z M 401.29759,248.82646 C 410.33563,238.92019 413,235.5983 413,234.23612 C 413,231.48609 403.68976,231.7795 399.57856,234.65909 C 398.4656,235.43865 396.48859,236.07646 395.18522,236.07646 C 393.88185,236.07646 391.67129,236.97646 390.27287,238.07646 C 388.87445,239.17646 386.5411,240.07646 385.08765,240.07646 C 383.6342,240.07646 381.33238,240.86011 379.97251,241.81789 C 376.65879,244.15181 372.10475,246.70798 368.75,248.11705 C 366.91095,248.88949 366,250.01493 366,251.51457 C 366,253.40364 366.82734,253.9425 371.25,254.93395 C 374.1375,255.58126 378.975,256.24489 382,256.40868 C 385.025,256.57248 388.9109,256.78974 390.63533,256.89148 C 393.37976,257.0534 394.7091,256.04787 401.29759,248.82646 z"
         id="path3072"
         sodipodi:nodetypes="cssssssssssccsssssssssccssssssssssssssscccccssssssccsssssssssssccccsscccsscccsssscccsssssscccscccssssscccsssssccssssssscccssssssssssscccsssssssssssccssssssssssssssssssssssssssscccccssssssssccsssssssscccsssccssscccccssssssssccssssssssccsssssssscccccssssssssssccssssssccsssssssssssc" />
    </g>
    <path
       style="fill:#0e020b;fill-opacity:1;stroke:none;stroke-opacity:1"
       d="M 129.10965,270.45034 C 120.56535,269.97436 113.41255,275.90235 108.14195,282.01366 C 106.07395,284.30336 104.26005,286.89914 103.82889,290.03742 C 102.33963,294.70665 102.98293,299.72146 103.32961,304.51649 C 105.00596,313.19646 110.96203,321.08133 119.13907,324.61226 C 125.13524,327.60757 132.16809,327.20185 138.60556,326.13909 C 145.70115,324.73492 151.1349,319.37283 155.55224,314.00278 C 158.17697,309.46646 159.25934,304.11717 159.60214,298.90931 C 159.43039,293.34925 157.7161,287.81528 155.04334,282.99951 C 152.22124,278.46307 147.65863,275.49659 142.86863,273.35 C 139.57785,271.66464 136.07002,270.06179 132.25895,270.45034 C 131.20914,270.44001 130.15949,270.43982 129.10965,270.45034 z M 129.23448,274.48297 C 136.455,274.35697 143.78481,276.84492 148.72555,282.15458 C 152.45612,285.66168 155.03419,290.43668 155.08332,295.6824 C 155.39403,301.77149 155.42332,308.60742 151.08058,313.39021 C 147.42134,317.69831 142.86408,321.92602 137.16533,323.28744 C 132.7605,323.67535 128.16625,324.1376 123.91525,322.69215 C 119.73092,321.45182 115.81431,319.046 112.80632,315.9615 C 110.28454,312.57732 107.84097,308.71468 107.21821,304.43968 C 107.14662,299.62069 106.77463,294.63531 108.06314,289.9414 C 109.95041,285.60959 113.16493,281.86747 116.91998,279.13525 C 119.57865,277.6425 122.40248,276.40422 125.09625,275.06866 C 126.41914,274.68204 127.83963,274.51279 129.23448,274.48297 z"
       id="path3088" />
    <path
       style="fill:#0e020b;fill-opacity:1;stroke:none;stroke-opacity:1"
       d="M 131.126,284.09409 C 124.46178,284.17391 118.61533,289.58447 117.319,295.98075 C 117.17013,299.2486 116.86113,302.80768 118.89364,305.59186 C 121.42497,309.73417 126.0125,312.52308 130.78993,313.19626 C 138.55547,313.66056 146.20949,307.11165 146.07553,299.15885 C 146.33362,292.68079 142.08526,286.07107 135.57148,284.62216 C 134.126,284.23128 132.62346,284.05139 131.126,284.09409 z M 131.38522,286.7633 C 137.52865,286.54701 143.31414,291.69245 143.33912,297.93946 C 143.84128,304.52384 138.12896,310.50416 131.58687,310.45983 C 122.96809,310.73057 116.81775,299.61693 121.51487,292.34178 C 123.5888,288.97133 127.38522,286.77015 131.38522,286.7633 z"
       id="path3090" />
    <path
       style="fill:#0e020b;fill-opacity:1;stroke:none;stroke-opacity:1"
       d="M 131.28821,238.49455 C 128.22877,239.78323 126.41574,242.91116 124.12548,245.20601 C 120.91119,248.65437 118.23651,252.96642 113.99589,255.17237 C 108.84732,256.65867 103.38363,255.43769 98.125433,255.32278 C 94.738356,255.325 91.060594,254.74893 87.870184,256.0557 C 85.790421,257.38957 87.432832,260.12171 87.582139,261.99905 C 88.492952,268.77626 88.46412,275.64514 89.243201,282.44066 C 83.346104,288.07718 76.75101,292.93266 70.706262,298.33718 C 69.824948,299.17002 68.371255,300.74877 69.896159,301.75889 C 75.549722,307.5286 82.632855,311.78424 88.315077,317.40453 C 89.730607,319.15155 88.68313,321.72807 89.00814,323.84236 C 89.185091,329.35926 88.654286,334.95256 89.396825,340.42417 C 89.856299,341.96666 91.452458,342.53969 92.93978,342.27726 C 98.845328,342.62254 104.80959,342.03016 110.68337,342.71893 C 114.90673,343.79581 117.13554,348.04738 120.22964,350.82721 C 123.54155,354.21857 126.77217,357.77337 130.51049,360.68336 C 133.69306,358.07535 136.45572,354.7107 139.43402,351.7795 C 143.3543,347.99608 146.75001,343.5267 151.35537,340.58739 C 154.98327,339.16868 159.04998,340.41054 162.73211,341.09637 C 166.66251,341.90786 170.79312,341.78864 174.75423,341.40352 C 177.35216,339.24958 176.26131,335.35387 175.8649,332.47841 C 174.97007,327.47997 174.1762,322.45412 173.99572,317.37095 C 178.82834,311.11625 185.66238,306.74169 190.92317,300.85635 C 192.37614,299.15366 190.1541,297.33558 189.22451,296.02469 C 186.30259,292.78115 182.4472,290.58523 179.43976,287.42384 C 177.44769,285.51883 175.46409,283.5979 173.47724,281.68214 C 173.4711,273.49863 174.01754,265.29233 173.61166,257.12147 C 173.14007,255.58127 170.93274,256.27859 169.73266,255.9885 C 162.70349,255.59125 155.56594,256.06428 148.59973,255.19157 C 144.7357,252.76423 141.67881,249.0594 138.72938,245.63807 C 136.67696,243.09422 134.75083,239.95277 131.74908,238.48495 C 131.59586,238.4797 131.43982,238.45732 131.28821,238.49455 z M 133.47736,261.00048 C 137.44419,260.92159 141.33197,261.71072 144.95677,263.27039 C 147.83645,263.83369 149.69038,266.29391 152.31552,267.4239 C 154.74095,269.46831 157.22365,271.55263 159.66067,273.56886 C 163.77175,277.24784 166.29882,282.31371 167.12132,287.78543 C 168.25851,293.21993 169.6131,298.76646 168.60926,304.3417 C 167.76024,311.16099 165.37352,318.01872 160.42277,322.91548 C 158.01528,326.58934 154.37909,329.16101 150.62565,331.36035 C 147.92113,332.71877 145.75632,335.38192 142.52649,335.32334 C 135.53195,335.72478 128.49888,335.99593 121.49743,335.7647 C 115.64294,335.32971 111.40777,330.74727 106.43465,328.27894 C 102.84583,325.52864 99.550073,322.0129 97.769339,317.755 C 97.027825,314.99855 94.394246,313.22214 94.068323,310.24796 C 92.907415,305.75313 91.327345,301.101 92.490301,296.42681 C 93.283295,291.8664 93.77098,287.13124 95.368961,282.79591 C 97.237969,279.83206 98.919812,276.6706 101.54273,274.25057 C 104.77218,270.97692 107.81588,267.33745 112.1236,265.5516 C 115.3963,263.09811 119.72226,263.30442 123.51099,262.04705 C 126.77197,261.29165 130.13346,260.99164 133.47736,261.00048 z"
       id="path3093" />
    <path
       style="fill:#0e020b;fill-opacity:1;stroke:none;stroke-opacity:1"
       d="M 128.667,217.89931 C 119.1545,217.96409 109.94194,220.85901 101.0449,223.94377 C 91.431888,227.69884 82.822359,233.73079 75.093968,240.50664 C 58.418127,255.70587 48.733209,278.2033 48.724398,300.7602 C 49.211601,309.17624 51.480418,317.40723 54.024864,325.39781 C 58.06969,335.30647 63.695624,344.64359 70.821523,352.64509 C 83.967658,367.332 102.5634,377.66719 122.42597,378.99913 C 131.94565,379.02749 141.55939,379.37653 150.99051,377.87006 C 153.11214,377.60685 154.58749,376.04044 156.20413,374.9128 C 159.80365,374.20706 163.39774,373.30363 166.63629,371.49921 C 171.35262,369.11558 175.65293,365.94168 180.25591,363.40058 C 186.17019,358.1689 191.60511,352.34472 196.83073,346.42593 C 202.52131,339.71703 205.90985,331.39786 208.70587,323.14446 C 213.2925,308.15995 214.21769,291.85981 210.01671,276.66187 C 205.09531,257.15512 191.66524,240.50583 174.75395,229.90957 C 165.63082,224.08523 155.46673,219.41818 144.53024,218.60778 C 139.26186,218.094 133.95953,217.87886 128.667,217.89931 z M 122.18598,224.29391 C 123.40259,224.44384 125.67015,224.25499 126.01698,225.78215 C 123.37276,230.28899 119.43156,234.16377 115.98341,238.13929 C 113.65325,240.38524 111.62673,243.30155 108.74387,244.78354 C 104.07137,245.34815 99.302188,244.62654 94.63925,244.12104 C 91.791543,243.53738 88.552503,243.50976 86.141913,241.80706 C 85.197177,240.0046 86.728549,238.19953 88.388666,237.59201 C 92.357291,235.72412 95.913046,233.18724 99.891275,231.36063 C 102.63255,230.70618 105.45546,230.03367 107.81252,228.41296 C 110.44736,227.17278 113.47059,226.97175 116.01221,225.4749 C 117.96466,224.65613 120.06386,224.21835 122.18598,224.29391 z M 140.67848,224.66837 C 144.72695,225.38196 148.5677,227.18557 152.58321,228.18077 C 159.11575,230.16155 165.57134,232.46928 171.17282,236.42408 C 174.14969,238.60737 177.92254,240.15594 179.91025,243.30491 C 180.3515,244.35898 178.55778,244.63167 177.88435,244.73553 C 170.90736,245.37232 163.84475,245.98654 156.84743,245.38843 C 153.9644,244.39228 151.94177,241.77595 149.6463,239.86756 C 145.93422,236.08183 141.90058,232.41032 139.35348,227.73126 C 138.85461,226.65505 139.2161,224.6435 140.67848,224.66837 z M 131.47064,229.18109 C 134.9062,230.9254 137.45022,234.06069 140.34975,236.57617 C 145.02943,240.92625 149.38655,245.73472 154.50466,249.54589 C 162.83251,249.70193 171.18634,249.30848 179.4974,249.90114 C 181.34127,249.92601 183.13188,251.68272 182.34535,253.58374 C 180.91425,261.0797 181.65878,268.77056 181.54006,276.35322 C 181.66947,278.59486 181.19062,281.43761 183.3668,282.86312 C 189.79649,287.98693 195.61258,294.00946 201.95532,299.30091 C 198.4836,303.4329 194.86578,307.47414 190.43019,310.55163 C 187.46098,313.17602 184.62338,315.95774 181.4849,318.3407 C 181.36249,327.96476 181.7562,337.61304 181.21606,347.22204 C 180.64328,348.5494 178.57609,347.9556 177.45252,348.09277 C 169.91612,347.56014 162.36012,346.70606 154.81191,346.73236 C 147.38487,353.71383 140.34907,361.20405 132.34437,367.46202 C 131.31026,368.68628 129.86398,368.08093 128.82062,367.21238 C 121.84949,361.85844 116.3225,354.67015 109.37757,349.22876 C 106.75575,347.99449 103.87713,348.90296 101.17928,349.26769 C 95.784475,349.78922 90.364219,349.9661 84.951326,350.19851 C 83.359341,347.95003 81.450164,345.4688 82.128482,342.53651 C 81.912324,339.96011 80.442881,337.51131 81.150953,334.84834 C 82.024951,329.81744 82.613047,324.12965 79.987346,319.53129 C 77.238757,315.60582 72.745061,313.42114 69.479257,310.00846 C 66.349279,306.9066 62.853328,304.07931 60.392023,300.44981 C 59.551007,299.18134 61.607485,298.20707 62.271258,297.21366 C 68.802066,290.85172 75.745101,284.8892 82.282107,278.59045 C 81.83699,270.6673 81.750253,262.62709 79.880982,254.88822 C 79.670465,252.53213 79.078512,249.91313 79.651293,247.64479 C 89.268662,247.78151 98.895096,248.88155 108.52303,248.64334 C 111.4947,248.55401 113.28053,245.76452 115.77217,244.5339 C 117.6986,243.04611 118.34098,240.53883 120.20807,238.98422 C 123.70218,235.47769 127.07301,231.70987 131.34582,229.20029 C 131.38754,229.19639 131.42838,229.17918 131.47064,229.18109 z M 189.53097,253.15605 C 193.3806,257.61161 196.493,262.84623 199.55085,267.90354 C 202.05435,271.6754 202.59274,276.175 203.36673,280.53956 C 204.08446,284.67804 206.296,288.92139 205.27744,293.15594 C 204.95901,294.18155 203.80219,294.49774 203.0691,293.69362 C 198.32503,290.21607 193.65661,286.29581 189.59819,282.047 C 187.48611,279.53381 186.0665,276.3134 186.53886,272.92558 C 186.76856,267.76664 186.39608,262.47972 187.36103,257.40953 C 187.90169,255.99166 188.25582,254.08377 189.53097,253.15605 z M 74.207237,253.4729 C 76.046579,253.3151 75.54491,255.8529 75.904197,256.98495 C 76.663724,263.92895 76.91528,270.91525 77.241314,277.88954 C 71.807508,282.66395 66.765544,288.01592 60.918747,292.2342 C 59.79589,292.84261 57.893298,293.87157 56.780498,292.8967 C 57.133176,286.95695 58.520306,281.05294 60.093018,275.34514 C 61.418647,272.64895 61.267976,269.39055 62.954268,266.88621 C 64.369579,265.35676 64.559296,263.03236 66.122766,261.54777 C 68.766349,258.8125 69.830368,253.91169 74.207237,253.4729 z M 203.85642,305.99316 C 205.27253,306.45511 204.83676,308.5792 205.0278,309.74735 C 205.19473,311.90308 204.71757,314.02811 203.15552,315.53706 C 202.26954,318.23612 202.31514,321.27706 200.83678,323.8233 C 197.83628,329.7512 194.96819,335.79816 191.23042,341.28831 C 190.65082,342.16293 188.9817,343.87521 188.05234,342.5077 C 186.83256,337.86319 187.50331,332.84701 187.4419,328.05792 C 187.78927,324.42863 187.11553,320.3438 188.9837,317.0829 C 190.70386,315.31174 193.24041,314.28136 195.01344,312.43577 C 197.82932,310.23348 200.35241,307.00795 203.85642,305.99316 z M 57.855867,308.1823 C 61.536074,309.08886 64.051326,312.2983 66.967176,314.53108 C 70.190282,317.43342 73.535442,320.18538 76.924464,322.89182 C 76.713891,329.78929 77.075651,336.73346 76.434787,343.60227 C 76.255274,344.87236 74.858219,345.21439 73.928793,344.4184 C 70.615062,343.18387 70.101423,339.27343 68.225712,336.70142 C 66.396822,333.85885 65.692302,330.36674 63.376734,327.82699 C 61.207405,324.92735 61.072234,321.13899 59.490756,317.93908 C 58.618623,315.01262 56.746688,312.10764 57.154956,308.97923 C 57.274171,308.65573 57.453214,308.20152 57.855867,308.1823 z M 164.3366,350.88982 C 168.31975,351.08616 172.48467,350.87221 176.31929,352.0324 C 177.80505,352.74039 179.16124,355.18701 177.40425,356.34348 C 175.49036,357.67366 173.37751,358.71903 171.68174,360.3377 C 170.44661,360.71999 169.13346,360.95187 168.17721,361.97957 C 166.44562,363.56795 164.46652,364.85749 162.06104,365.06164 C 158.89953,366.17122 155.92495,367.68153 152.69958,368.67181 C 148.67082,370.2961 144.10781,372.73545 139.72793,370.97617 C 138.16851,370.05846 140.02404,368.38834 140.68808,367.50043 C 145.40754,362.42842 150.27366,357.23847 155.52591,352.75721 C 157.96118,350.64906 161.33276,350.93627 164.3366,350.88982 z M 110.06888,355.43133 C 114.61619,359.71189 118.99078,364.31109 121.95554,369.78559 C 122.75242,371.19378 120.51284,371.75021 119.49756,371.58107 C 111.61551,370.01093 104.31267,366.27334 96.69397,363.85185 C 92.943797,361.88109 89.21219,359.57489 86.343545,356.45869 C 85.34921,355.49062 86.433344,354.31979 87.577958,354.43027 C 94.067584,353.55663 100.61588,353.21574 107.15002,352.84853 C 108.12297,353.70946 109.09592,354.5704 110.06888,355.43133 z"
       id="path3095" />
    <path
       style="fill:#0e020b;fill-opacity:1;stroke:none;stroke-opacity:1"
       d="M 129.47352,270.29474 C 122.4174,270.10278 115.89703,273.70834 111.15488,278.69952 C 108.17305,281.80365 104.66504,284.90947 103.88649,289.38963 C 103.08173,292.09154 102.22741,294.79953 102.79172,297.64394 C 103.00885,302.05096 102.99292,306.65703 105.20091,310.62108 C 108.64289,318.72689 116.22389,324.7948 124.80719,326.6268 C 130.47686,326.75014 136.43795,327.25988 141.85947,325.3018 C 147.52824,322.88851 152.26033,318.47269 155.90648,313.58795 C 158.38432,309.2068 159.27986,304.05051 159.63186,299.07047 C 159.48649,292.92006 157.57423,286.74817 154.19741,281.63413 C 150.10432,276.30471 143.75339,273.27992 137.5868,270.96685 C 134.95694,270.25656 132.17622,270.31458 129.47352,270.29474 z M 130.22245,274.70184 C 138.12311,274.57683 145.86366,278.34328 150.65266,284.52542 C 153.97604,288.33854 155.11985,293.39391 155.02786,298.37913 C 155.13119,303.37472 154.66861,308.86205 151.28815,312.75262 C 147.75573,316.99792 143.48465,321.23804 138.03807,322.8342 C 129.16516,324.96823 119.03495,322.47427 112.93012,315.68108 C 109.80389,311.81929 107.14181,307.12219 107.40926,301.93172 C 107.25417,296.68786 106.94581,290.93653 110.15529,286.5021 C 112.86602,282.19603 116.87214,278.93804 121.57148,276.91979 C 124.29386,275.41075 127.04852,274.45314 130.22245,274.70184 z"
       id="path3097" />
    <path
       style="fill:#0e020b;fill-opacity:1;stroke:none;stroke-opacity:1"
       d="M 131.08658,284.07291 C 124.66611,283.98925 119.18433,289.18591 117.40443,295.06664 C 117.23985,298.77472 116.63368,302.95732 119.08469,306.09878 C 122.84632,311.36189 130.05428,315.05903 136.46342,312.43577 C 142.05539,310.35542 146.63092,304.68746 146.08414,298.49438 C 146.39508,291.12723 140.13903,284.19558 132.69963,284.10172 C 132.16256,284.07879 131.62415,284.05111 131.08658,284.07291 z M 131.32662,286.99178 C 137.74886,286.63425 143.87929,292.49804 143.06926,299.02246 C 143.15091,303.54606 139.89996,307.58719 135.93534,309.35369 C 131.80551,311.1331 126.55822,310.19765 123.65501,306.71327 C 119.72967,302.88374 118.69297,295.95893 122.3204,291.55249 C 124.46617,288.8301 127.7383,286.96731 131.32662,286.99178 z"
       id="path3099" />
    <path
       style="fill:#0e020b;fill-opacity:1;stroke:none;stroke-opacity:1"
       d="M 129.3689,199.81487 C 113.39173,199.82455 97.259442,203.19661 83.208688,210.94494 C 70.873143,217.37392 61.185925,227.69591 52.076753,237.99047 C 41.227151,250.72882 33.702908,266.43947 31.671626,283.12908 C 30.601884,292.53929 30.758861,302.07981 31.375899,311.51883 C 33.134001,327.37299 38.949342,342.78907 48.796878,355.39388 C 58.623485,367.87735 70.376044,379.2055 84.472246,386.74089 C 95.522016,392.4239 107.73498,395.53518 120.01319,397.19886 C 133.033,398.08614 146.06625,396.27178 158.72648,393.30064 C 170.48252,390.62065 181.38251,384.83925 190.58429,377.08946 C 205.19296,365.3462 217.97425,350.68013 224.56595,332.91867 C 229.21197,320.6559 231.32464,307.45053 230.69555,294.33981 C 230.1438,274.2215 223.21055,254.22619 210.72057,238.42062 C 202.04293,228.13847 191.96221,218.86284 180.44893,211.83212 C 169.84718,205.5938 157.79395,201.85519 145.58009,200.48697 C 140.20008,199.90051 134.77723,199.76805 129.3689,199.81487 z M 129.28825,205.91759 C 129.86438,205.90711 130.4327,205.90748 131.00884,205.91759 C 146.0049,206.0431 161.24398,208.6309 174.58817,215.67656 C 185.20687,221.17428 194.71278,228.61735 202.494,237.69474 C 219.07948,256.67766 226.50121,282.92841 224.05515,307.94323 C 221.96436,329.73383 211.46879,350.35329 195.53099,365.23351 C 186.11991,374.67633 174.62412,382.14005 161.71063,385.82683 C 148.36218,389.56195 134.37897,391.80031 120.47023,390.9886 C 107.62947,389.16544 94.861266,385.50803 83.531298,379.18643 C 70.867905,371.56358 60.116058,361.02431 51.619722,348.96855 C 43.390953,336.98445 38.387807,322.77064 37.344197,308.23895 C 37.103907,296.912 36.67051,285.38457 39.656241,274.33794 C 42.039715,265.86849 45.934147,257.74471 50.329279,250.11525 C 56.219928,240.60895 64.267383,232.67813 72.696955,225.43553 C 88.431795,212.43313 108.93663,205.89846 129.28825,205.91759 z"
       id="path3101" />
  </g>
</svg>
