<?xml version="1.0" encoding="UTF-8" standalone="no"?>
<!-- Created with Inkscape (http://www.inkscape.org/) -->

<svg
   xmlns:dc="http://purl.org/dc/elements/1.1/"
   xmlns:cc="http://creativecommons.org/ns#"
   xmlns:rdf="http://www.w3.org/1999/02/22-rdf-syntax-ns#"
   xmlns:svg="http://www.w3.org/2000/svg"
   xmlns="http://www.w3.org/2000/svg"
   xmlns:sodipodi="http://sodipodi.sourceforge.net/DTD/sodipodi-0.dtd"
   xmlns:inkscape="http://www.inkscape.org/namespaces/inkscape"
   width="94.832603"
   height="627.83417"
   id="svg2838"
   version="1.1"
   inkscape:version="0.47 r22583"
   sodipodi:docname="Nuovo documento 3">
  <defs
     id="defs2840">
    <inkscape:perspective
       sodipodi:type="inkscape:persp3d"
       inkscape:vp_x="0 : 526.18109 : 1"
       inkscape:vp_y="0 : 1000 : 0"
       inkscape:vp_z="744.09448 : 526.18109 : 1"
       inkscape:persp3d-origin="372.04724 : 350.78739 : 1"
       id="perspective2846" />
    <inkscape:perspective
       id="perspective2856"
       inkscape:persp3d-origin="0.5 : 0.33333333 : 1"
       inkscape:vp_z="1 : 0.5 : 1"
       inkscape:vp_y="0 : 1000 : 0"
       inkscape:vp_x="0 : 0.5 : 1"
       sodipodi:type="inkscape:persp3d" />
  </defs>
  <sodipodi:namedview
     id="base"
     pagecolor="#ffffff"
     bordercolor="#666666"
     borderopacity="1.0"
     inkscape:pageopacity="0.0"
     inkscape:pageshadow="2"
     inkscape:zoom="0.98994949"
     inkscape:cx="-1.08091"
     inkscape:cy="292.57725"
     inkscape:document-units="px"
     inkscape:current-layer="layer1"
     showgrid="false"
     inkscape:window-width="1280"
     inkscape:window-height="968"
     inkscape:window-x="-4"
     inkscape:window-y="-4"
     inkscape:window-maximized="1" />
  <metadata
     id="metadata2843">
    <rdf:RDF>
      <cc:Work
         rdf:about="">
        <dc:format>image/svg+xml</dc:format>
        <dc:type
           rdf:resource="http://purl.org/dc/dcmitype/StillImage" />
        <dc:title></dc:title>
      </cc:Work>
    </rdf:RDF>
  </metadata>
  <g
     inkscape:label="Livello 1"
     inkscape:groupmode="layer"
     id="layer1"
     transform="translate(-376.08091,-156.69917)">
    <g
       id="g2862"
       transform="translate(214.15234,95.964492)">
      <path
         style="fill:#d99c9e"
         d="m 195.59338,684.61943 -3.94941,-3.94941 0.66049,-6.72535 c 2.08096,-21.18883 2.07243,-21.94827 -0.25484,-22.68692 -1.55135,-0.49238 -3.05121,0.0665 -5.33429,1.98755 -2.48688,2.09258 -3.8836,2.55772 -6.43633,2.14347 -2.60213,-0.42227 -3.38217,-0.14479 -3.86443,1.37467 -0.8513,2.68221 -5.31496,5.95589 -8.12086,5.95589 -2.95649,0 -6.36514,-3.3001 -6.36514,-6.16245 0,-1.98788 2.50947,-6.59079 8.7012,-15.95992 1.80489,-2.73109 5.09729,-5.02697 13.38123,-9.33107 l 10.98734,-5.70872 -0.56994,-21.16892 c -0.31347,-11.64291 -0.81941,-24.45118 -1.12432,-28.46283 -0.55308,-7.27685 -0.56411,-7.2999 -4.71494,-9.85114 -2.28832,-1.40647 -8.54807,-7.10835 -13.91057,-12.67085 -9.18714,-9.52979 -9.74317,-10.34659 -9.63169,-14.14887 0.21013,-7.16637 1.22716,-9.93422 4.16826,-11.34385 4.41594,-2.1165 8.71677,0.003 17.66894,8.7056 6.3657,6.18857 8.12605,7.42993 8.75583,6.17444 0.43355,-0.86428 1.09708,-35.77142 1.47452,-77.57142 0.37743,-41.8 0.81927,-78.7 0.98186,-82 1.13977,-23.1338 -2.06198,-153.62279 -6.12187,-249.5 -0.5473,-12.925 -1.29126,-31.028 -1.65324,-40.228883 l -0.65814,-16.72888 8.38277,-8.005722 c 5.90496,-5.639367 9.12824,-8.010274 10.90484,-8.021121 1.84293,-0.01125 4.76935,2.243615 10.86752,8.37363 l 8.34545,8.389029 -0.64555,10.860971 c -0.35505,5.973535 -1.02461,17.835976 -1.48791,26.360976 -0.4633,8.525 -0.88994,64.325 -0.94808,124 -0.0581,59.675 -0.3572,152.7125 -0.66459,206.75 -0.3193,56.13114 -0.18263,98.25 0.31881,98.25 0.48274,0 2.86098,-1.04673 5.28499,-2.32607 3.5291,-1.86258 5.06682,-3.60608 7.71727,-8.75 7.2043,-13.98187 10.22191,-16.57187 13.63331,-11.70142 2.02453,2.89042 1.97009,5.89513 -0.17452,9.63189 -1.88596,3.2861 -1.20306,5.16588 1.16325,3.20201 0.8142,-0.67572 1.8956,-0.97196 2.40311,-0.6583 1.39164,0.86008 0.14412,9.6039 -1.97064,13.81205 -1.02548,2.04059 -1.8645,4.34858 -1.8645,5.12887 0,1.83586 -13.57548,14.66097 -15.51874,14.66097 -3.12551,0 -1.20274,-3.08966 6.12435,-9.84112 4.2104,-3.87962 7.3087,-7.48851 6.94051,-8.08426 -1.08738,-1.75941 -4.60416,0.78379 -11.99748,8.67612 -5.43346,5.80019 -6.56096,7.52948 -5.63595,8.64406 0.89247,1.07536 0.78988,1.75978 -0.4496,2.99925 -0.88327,0.88327 -2.22225,1.60595 -2.9755,1.60595 -2.11628,0 -2.59797,1.46768 -3.04247,9.2702 -0.22653,3.97639 -0.64801,10.6048 -0.93663,14.7298 -1.54801,22.1248 -1.6732,34.99898 -0.34411,35.38952 0.73459,0.21585 4.03562,0.92904 7.33562,1.58485 15.80645,3.14126 21.55031,6.6556 22.92356,14.02563 1.14759,6.1589 2.43352,12.4211 3.12777,15.23152 0.76696,3.10477 -0.13417,7.76848 -1.50104,7.76848 -1.34696,0 -7.28563,-3.86697 -14.18676,-9.23772 -10.54057,-8.20311 -12.57637,-9.19197 -16.72347,-8.12317 -2.44453,0.63001 -3.51096,1.41809 -3.24699,2.3995 0.81387,3.02582 0.56691,5.42788 -0.55974,5.44434 -2.04065,0.0298 -2.66052,1.41788 -1.34243,3.00609 0.70175,0.84555 1.77837,1.47811 2.3925,1.40568 2.49906,-0.29472 3.35095,0.22682 4.50396,2.75741 1.49329,3.27741 0.0302,5.35426 -2.36914,3.36299 -0.86161,-0.71507 -1.8448,-1.02187 -2.18489,-0.68179 -0.9882,0.9882 1.73661,3.66667 3.7301,3.66667 1.00019,0 2.09747,0.45132 2.43839,1.00294 1.04559,1.69181 -0.66444,10.12223 -2.17042,10.70013 -2.17533,0.83476 -2.77567,-0.43259 -1.51528,-3.19884 0.62755,-1.37733 0.81315,-2.48926 0.41244,-2.47096 -1.73959,0.0794 -5.22856,3.96174 -5.22856,5.81801 0,2.9386 -1.24668,3.36556 -10.80014,3.69878 l -8.58564,0.29945 -3.94941,-3.94941 z m 55.67591,-31.0761 c -1.05796,-1.16904 -1.94088,-1.52352 -2.15969,-0.8671 -0.50323,1.5097 1.81438,4.16397 2.99742,3.43281 0.53326,-0.32957 0.16487,-1.45785 -0.83773,-2.56571 z m -32.34072,-68.5973 c 0,-2.45884 -0.12109,-2.53419 -1.63674,-1.01853 -0.9243,0.9243 -1.36266,2.35101 -1.00707,3.27767 0.90402,2.35584 2.64381,0.86918 2.64381,-2.25914 z m 0,-8.56003 c 0,-1.70637 -1.04482,-2.757 -2.09581,-2.10746 -1.00885,0.62351 -0.024,3.44079 1.2028,3.44079 0.49115,0 0.89301,-0.6 0.89301,-1.33333 z m -33.70031,-33.01273 c -1.33054,-2.2396 -7.97289,-7.65394 -9.38991,-7.65394 -0.72941,0 0.66119,2.025 3.09022,4.5 4.15911,4.23782 8.12245,6.22207 6.29969,3.15394 z"
         id="path2872" />
      <path
         style="fill:#e97983"
         d="m 196.75131,683.96933 c -3.17223,-3.4191 -3.85948,-6.13164 -2.78033,-10.97392 1.4777,-6.63067 2.00359,-21.51572 0.81093,-22.95279 -1.68585,-2.03133 -4.75777,-1.58149 -8.03571,1.17671 -3.42199,2.87941 -4.64854,3.10422 -5.456,1 -0.68946,-1.79669 -4.48037,-1.98126 -6.16163,-0.3 -0.66,0.66 -1.2,2.39026 -1.2,3.84501 0,3.91439 -3.35073,6.56784 -6.78028,5.36933 -3.79921,-1.32769 -4.22219,-6.29194 -0.95934,-11.25898 1.32066,-2.01045 3.48985,-5.34277 4.82041,-7.40517 2.38262,-3.69309 11.03163,-9.80056 15.91921,-11.24129 1.375,-0.40532 4.00138,-1.64636 5.8364,-2.75788 l 3.33641,-2.02094 -0.65855,-28.08275 c -0.3622,-15.44551 -1.02851,-28.74382 -1.48068,-29.5518 -0.45217,-0.80798 -3.43066,-3.29821 -6.61888,-5.53383 -3.18821,-2.23562 -7.80794,-6.53907 -10.26607,-9.56323 -2.45812,-3.02416 -5.9844,-6.53551 -7.83618,-7.80301 -3.27948,-2.24473 -3.3502,-2.43938 -2.72474,-7.5 1.28314,-10.38187 6.15846,-12.70429 13.17359,-6.2754 3.92938,3.601 3.98828,5.9188 0.0809,3.18194 -2.9491,-2.0656 -6.8422,-2.09895 -6.8422,-0.0586 0,1.74306 10.85447,12.36395 12.6933,12.42014 0.65631,0.0201 1.85721,-0.91142 2.66868,-2.06995 l 1.47538,-2.1064 1.80356,2.1064 c 0.99196,1.15853 2.82855,2.10641 4.08132,2.10641 l 2.27776,0 0.13684,-31.75 c 0.0752,-17.4625 0.0277,-51.44662 -0.10562,-75.52027 -0.18596,-33.57087 0.0455,-44.1172 0.99316,-45.25911 1.47528,-1.7776 1.52318,8.21539 -0.51278,-106.97062 -0.59537,-33.68355 -1.92422,-76.76307 -3.48566,-113 -0.54509,-12.65 -1.45002,-35.825 -2.01096,-51.5 -0.56095,-15.675 -1.24645,-32.543993 -1.52333,-37.486646 l -0.50344,-8.986641 7.52712,-7.263359 c 5.1501,-4.969641 8.2963,-7.263358 9.96286,-7.263358 1.723,0 4.64162,2.267787 9.97415,7.75 l 7.5384,7.75 -0.47476,5 c -1.18496,12.479526 -1.56375,54.256754 -1.90858,210.500004 -0.41348,187.3427 -0.92269,247.61134 -2.11553,250.38691 -0.71265,1.65825 -0.45834,1.82118 2.0986,1.34446 6.84317,-1.27585 10.43991,-3.42206 13.9068,-8.29832 1.9265,-2.70966 3.50441,-5.60309 3.50647,-6.42985 0.004,-1.74671 3.73902,-8.17991 5.33857,-9.196 0.59984,-0.38104 1.66821,-0.21344 2.37415,0.37245 2.13729,1.77379 1.6699,5.78408 -1.90207,16.32035 -0.55938,1.65 -1.24784,4.125 -1.52991,5.5 -0.28207,1.375 -1.69897,3.7754 -3.14867,5.33422 -7.64842,8.22413 -12.92606,12.78872 -15.40662,13.32503 -1.52394,0.32949 -2.98488,0.94545 -3.24652,1.36879 -0.26164,0.42334 -0.51985,4.88853 -0.57381,9.92263 -0.069,6.44208 -0.44029,9.03887 -1.25348,8.76783 -0.64696,-0.21563 -1.16758,-2.42881 -1.1831,-5.02951 -0.0353,-5.91495 -1.37535,-7.39781 -4.4416,-4.91492 -2.15349,1.7438 -2.20023,2.02423 -0.78698,4.72152 1.3125,2.505 1.32216,3.29919 0.0764,6.28068 -1.25731,3.00918 -1.23957,3.69772 0.14996,5.8184 0.98077,1.49685 2.53665,2.40533 4.1194,2.40533 2.18462,0 2.49873,0.38789 2.22694,2.75 -0.21318,1.85273 -0.80584,2.62947 -1.81642,2.38059 -4.4407,-1.09362 -4.50165,-0.9861 -4.46053,7.86941 l 0.0395,8.5 2.65478,-0.18063 c 2.47711,-0.16854 2.64429,0.0824 2.49804,3.75 -0.16726,4.19419 -2.70045,5.73064 -2.7709,1.68063 -0.0318,-1.8303 -0.31778,-1.60776 -1.53291,1.19306 -1.84959,4.26326 -1.24528,6.05694 2.04067,6.05694 1.99871,0 2.53138,0.5003 2.53138,2.37756 0,3.0046 1.52351,4.22437 6.25,5.00394 2.0625,0.34017 5.4375,0.90219 7.5,1.24892 2.0625,0.34673 4.63763,1.24673 5.72251,2 1.08487,0.75327 2.92763,1.36958 4.09501,1.36958 2.10874,0 5.43248,2.80719 5.43248,4.58819 0,0.5119 -0.9,1.49278 -2,2.17974 -1.3911,0.86875 -2,2.33202 -2,4.80629 0,4.84785 1.53313,7.33276 5.56297,9.01654 2.20492,0.92127 3.6287,2.32474 4.04629,3.98856 1.56524,6.23639 -3.90536,4.39528 -13.98494,-4.70659 -6.82232,-6.16056 -15.23593,-10.43996 -17.24596,-8.77178 -0.805,0.6681 -3.35695,1.25619 -5.671,1.30688 -3.1368,0.0687 -4.152,0.47385 -3.9898,1.59217 0.63027,4.34549 2.06834,9.75293 3.10735,11.68426 0.6463,1.20134 1.17509,3.13619 1.17509,4.29966 0,1.16347 0.6711,3.41316 1.49133,4.99932 1.41204,2.73057 1.34645,3.0561 -1.23352,6.12222 -1.65442,1.96616 -2.605,4.15288 -2.41976,5.56642 0.35126,2.68052 -2.01922,3.11396 -6.31812,1.15525 -1.96907,-0.89717 -2.84989,-0.89717 -3.74706,0 -2.16754,2.16754 -7.21864,1.36693 -9.95013,-1.57713 z M 210.46969,551.6528 c 0.92034,-1.48915 -0.14673,-2.29879 -2.06137,-1.56407 -0.88358,0.33906 -1.32643,1.06965 -0.98412,1.62354 0.81058,1.31154 2.21511,1.28411 3.04549,-0.0595 z m 0.45888,-86.37445 c 0,-0.79254 -0.41891,-1.69988 -0.9309,-2.01631 -1.18889,-0.73478 -2.38461,1.13777 -1.5691,2.45729 0.91956,1.48787 2.5,1.20909 2.5,-0.44098 z m -0.93586,-61.89488 c -0.75219,-0.75219 -1.06414,0.26482 -1.06414,3.46919 0,5.89487 1.40676,7.30975 1.81414,1.82462 0.17277,-2.32632 -0.16473,-4.70854 -0.75,-5.29381 z m 2.54003,-72.39331 c -0.33229,-0.33229 -0.56864,0.25834 -0.52522,1.3125 0.048,1.16495 0.28494,1.4019 0.60416,0.60417 0.28887,-0.72188 0.25335,-1.58438 -0.0789,-1.91667 z m -4.81802,-72.79323 c -0.0554,-6.16019 -0.63744,-7.03804 -3.35108,-5.05378 -1.5528,1.13544 -1.64596,1.61715 -0.5647,2.91998 0.72206,0.87004 1.00858,2.46222 0.6477,3.59926 -0.75886,2.39097 0.0455,4.05694 1.95884,4.05694 0.98711,0 1.34529,-1.51083 1.30924,-5.5224 z m 0.21385,-10.4776 c 0,-2.10908 -1.45488,-2.69104 -2.5,-1 -0.7292,1.17987 0.21667,3 1.55902,3 0.51754,0 0.94098,-0.9 0.94098,-2 z m -1.31067,-10.75 c -0.25153,-0.9625 -0.45733,-0.175 -0.45733,1.75 0,1.925 0.2058,2.7125 0.45733,1.75 0.25152,-0.9625 0.25152,-2.5375 0,-3.5 z m 1.144,-9.80556 c 0,-3.0229 -0.39251,-4.42681 -1.16666,-4.17288 -1.29881,0.42602 -2.1152,5.11721 -1.27263,7.31291 1.12677,2.93632 2.43929,1.24675 2.43929,-3.14003 z m -0.44216,-46.11559 c 0.68548,-5.8324 -0.36879,-8.75123 -2.42002,-6.7 -1.13075,1.13075 -0.19594,12.37115 1.02885,12.37115 0.39855,0 1.02458,-2.55202 1.39117,-5.67115 z m -2.787,-40.05802 c -0.33229,-0.33229 -0.56864,0.25834 -0.52522,1.3125 0.048,1.16495 0.28494,1.4019 0.60416,0.60417 0.28887,-0.72187 0.25335,-1.58437 -0.0789,-1.91667 z m 0.39583,-11.27083 c 0,-1.1 -0.45,-2 -1,-2 -0.55,0 -1,0.9 -1,2 0,1.1 0.45,2 1,2 0.55,0 1,-0.9 1,-2 z m -1.39583,-29.729171 c -1.01652,-1.016515 -1.85525,0.513891 -1.02122,1.863381 0.63003,1.01942 0.86558,1.02021 1.2043,0.004 0.2316,-0.69478 0.14921,-1.53512 -0.18308,-1.867412 z m 17.47478,487.312501 c -0.0434,-1.05416 0.19293,-1.64479 0.52522,-1.3125 0.33229,0.33229 0.36781,1.1948 0.0789,1.91667 -0.31922,0.79773 -0.55618,0.56078 -0.60416,-0.60417 z"
         id="path2870" />
      <path
         style="fill:#d45c65"
         d="m 196.75131,683.96933 c -3.17223,-3.4191 -3.85948,-6.13164 -2.78033,-10.97392 1.4777,-6.63067 2.00359,-21.51572 0.81093,-22.95279 -1.68585,-2.03133 -4.75777,-1.58149 -8.03571,1.17671 -3.42199,2.87941 -4.64854,3.10422 -5.456,1 -0.68946,-1.79669 -4.48037,-1.98126 -6.16163,-0.3 -0.66,0.66 -1.2,2.39026 -1.2,3.84501 0,3.91439 -3.35073,6.56784 -6.78028,5.36933 -3.79921,-1.32769 -4.22219,-6.29194 -0.95934,-11.25898 1.32066,-2.01045 3.48985,-5.34277 4.82041,-7.40517 2.38262,-3.69309 11.03163,-9.80056 15.91921,-11.24129 1.375,-0.40532 4.00138,-1.64636 5.8364,-2.75788 l 3.33641,-2.02094 -0.65855,-28.08275 c -0.3622,-15.44551 -1.02851,-28.74382 -1.48068,-29.5518 -0.45217,-0.80798 -3.43066,-3.29821 -6.61888,-5.53383 -3.18821,-2.23562 -7.80794,-6.53907 -10.26607,-9.56323 -2.45812,-3.02416 -5.9844,-6.53551 -7.83618,-7.80301 -3.27948,-2.24473 -3.3502,-2.43938 -2.72474,-7.5 1.28314,-10.38187 6.15846,-12.70429 13.17359,-6.2754 3.92938,3.601 3.98828,5.9188 0.0809,3.18194 -2.9491,-2.0656 -6.8422,-2.09895 -6.8422,-0.0586 0,1.74306 10.85447,12.36395 12.6933,12.42014 0.65631,0.0201 1.85721,-0.91142 2.66868,-2.06995 l 1.47538,-2.1064 1.80356,2.1064 c 0.99196,1.15853 2.76679,2.10641 3.94408,2.10641 2.13717,0 2.14179,-0.0613 2.95465,-39.25 0.44777,-21.5875 0.73669,-40.375 0.64204,-41.75 -0.0947,-1.375 -0.21921,-17.92471 -0.27681,-36.77714 -0.0772,-25.26561 0.20981,-34.65613 1.09164,-35.71867 0.88728,-1.06911 1.0429,-6.81025 0.60236,-22.22285 -0.3267,-11.42974 -0.82537,-33.15634 -1.10816,-48.28134 -1.18104,-63.16813 -2.56869,-111.75719 -4.49802,-157.5 -2.31266,-54.8313 -3.04097,-71.450389 -3.497,-79.797621 l -0.48065,-8.797617 7.69809,-7.452383 c 5.00587,-4.846094 8.49658,-7.452383 9.98129,-7.452383 1.52756,0 4.52086,2.347572 9.04438,7.093287 3.71866,3.901308 7.05183,7.613808 7.40706,8.25 0.35522,0.636192 0.25765,5.431713 -0.21683,10.656713 -0.47449,5.225 -0.99013,64.850004 -1.14587,132.500004 -0.20826,90.4624 -0.58744,123.51515 -1.43338,124.94737 -0.74978,1.26943 -0.83789,2.76883 -0.2531,4.30695 0.95207,2.50413 1.45582,25.33715 1.19678,54.24568 -0.0862,9.625 -0.11935,18.625 -0.0736,20 0.38306,11.50597 -1.21447,117.92727 -1.79216,119.38691 -0.65233,1.64825 -0.37878,1.8183 2.16274,1.34446 6.84317,-1.27585 10.43991,-3.42206 13.9068,-8.29832 1.9265,-2.70966 3.50441,-5.60309 3.50647,-6.42985 0.004,-1.74671 3.73902,-8.17991 5.33857,-9.196 0.59984,-0.38104 1.66821,-0.21344 2.37415,0.37245 2.13729,1.77379 1.6699,5.78408 -1.90207,16.32035 -0.55938,1.65 -1.24784,4.125 -1.52991,5.5 -0.28207,1.375 -1.69897,3.7754 -3.14867,5.33422 -7.64842,8.22413 -12.92606,12.78872 -15.40662,13.32503 -1.52394,0.32949 -2.98488,0.94545 -3.24652,1.36879 -0.26164,0.42334 -0.51985,4.88853 -0.57381,9.92263 -0.069,6.44208 -0.44029,9.03887 -1.25348,8.76783 -0.64696,-0.21563 -1.16758,-2.42881 -1.1831,-5.02951 -0.0353,-5.91495 -1.37535,-7.39781 -4.4416,-4.91492 -2.15349,1.7438 -2.20023,2.02423 -0.78698,4.72152 1.3125,2.505 1.32216,3.29919 0.0764,6.28068 -1.25731,3.00918 -1.23957,3.69772 0.14996,5.8184 0.98077,1.49685 2.53665,2.40533 4.1194,2.40533 2.18462,0 2.49873,0.38789 2.22694,2.75 -0.21318,1.85273 -0.80584,2.62947 -1.81642,2.38059 -4.4407,-1.09362 -4.50165,-0.9861 -4.46053,7.86941 l 0.0395,8.5 2.65478,-0.18063 c 2.47711,-0.16854 2.64429,0.0824 2.49804,3.75 -0.16726,4.19419 -2.70045,5.73064 -2.7709,1.68063 -0.0318,-1.8303 -0.31778,-1.60776 -1.53291,1.19306 -1.84959,4.26326 -1.24528,6.05694 2.04067,6.05694 1.99871,0 2.53138,0.5003 2.53138,2.37756 0,3.0046 1.52351,4.22437 6.25,5.00394 2.0625,0.34017 5.4375,0.90219 7.5,1.24892 2.0625,0.34673 4.63763,1.24673 5.72251,2 1.08487,0.75327 2.92763,1.36958 4.09501,1.36958 2.10874,0 5.43248,2.80719 5.43248,4.58819 0,0.5119 -0.9,1.49278 -2,2.17974 -1.3911,0.86875 -2,2.33202 -2,4.80629 0,4.84785 1.53313,7.33276 5.56297,9.01654 2.20492,0.92127 3.6287,2.32474 4.04629,3.98856 1.56524,6.23639 -3.90536,4.39528 -13.98494,-4.70659 -6.82232,-6.16056 -15.23593,-10.43996 -17.24596,-8.77178 -0.805,0.6681 -3.35695,1.25619 -5.671,1.30688 -3.1368,0.0687 -4.152,0.47385 -3.9898,1.59217 0.63027,4.34549 2.06834,9.75293 3.10735,11.68426 0.6463,1.20134 1.17509,3.13619 1.17509,4.29966 0,1.16347 0.6711,3.41316 1.49133,4.99932 1.41204,2.73057 1.34645,3.0561 -1.23352,6.12222 -1.65442,1.96616 -2.605,4.15288 -2.41976,5.56642 0.35126,2.68052 -2.01922,3.11396 -6.31812,1.15525 -1.96907,-0.89717 -2.84989,-0.89717 -3.74706,0 -2.16754,2.16754 -7.21864,1.36693 -9.95013,-1.57713 z M 210.46969,551.6528 c 0.92034,-1.48915 -0.14673,-2.29879 -2.06137,-1.56407 -0.88358,0.33906 -1.32643,1.06965 -0.98412,1.62354 0.81058,1.31154 2.21511,1.28411 3.04549,-0.0595 z m 2.2822,-17.26634 c 0.18707,-0.96457 -0.31483,-1.66713 -1.19098,-1.66713 -1.85773,0 -2.97896,1.63015 -2.09972,3.05279 0.90454,1.46356 2.90118,0.62281 3.2907,-1.38566 z m -1.33922,-7.63639 c 1.51051,-2.921 1.4844,-2.99567 -1.60702,-4.5943 -2.59315,-1.34098 -3.29141,-1.39005 -3.99447,-0.28074 -1.22602,1.93446 -1.08502,3.1103 0.67409,5.62179 2.07183,2.95794 3.09155,2.8034 4.9274,-0.74675 z m -2.60408,-8.80656 c 0.60915,-1.13821 0.5895,-2.42071 -0.0547,-3.5719 -0.72901,-1.30268 -0.60449,-2.25705 0.4533,-3.47417 1.60714,-1.84922 3.04909,-8.99647 2.75953,-13.67811 -0.10204,-1.65 -0.15241,-4.125 -0.11192,-5.5 0.42254,-14.34861 0.50409,-64.2309 0.14282,-87.35576 -0.0926,-5.92456 0.28687,-9.36819 1.14632,-10.40393 1.90671,-2.29779 1.48268,-115.59131 -0.45914,-122.67304 -0.74391,-2.713 -1.82612,-5.09058 -2.40493,-5.28352 -1.75503,-0.58501 -2.60277,19.74798 -1.20425,28.88372 0.97397,6.36236 0.96508,9.2272 -0.0438,14.11171 -1.13035,5.4726 -1.08811,6.25869 0.39451,7.34281 1.20161,0.87864 1.40834,1.72027 0.74819,3.04605 -0.80093,1.60854 -1.64663,14.79968 -1.35158,21.08196 0.0581,1.2375 0.097,3.4875 0.0863,5 -0.0106,1.5125 0.097,8.15 0.23911,14.75 0.44712,20.75968 0.11724,31.947 -1.04774,35.53206 -0.9278,2.85517 -1.84224,52.51113 -1.26548,68.71794 0.0636,1.7875 0.0667,4.9375 0.007,7 -0.0599,2.0625 -0.20019,12.3 -0.31179,22.75 -0.11159,10.45 -0.56574,19.7875 -1.00921,20.75 -1.68884,3.66539 1.41502,6.47327 3.28768,2.97418 z m -0.55975,-259.47418 c 0.32893,-3.4375 0.33793,-11.65 0.02,-18.25 -0.31793,-6.6 -0.51527,-13.26546 -0.43854,-14.81213 0.18136,-3.6561 -0.70363,-5.09718 -2.31102,-3.76316 -1.33604,1.10882 -2.13669,10.92331 -1.67849,20.57529 0.17887,3.76798 -0.26705,7.33826 -1.28619,10.29799 -0.49262,1.43064 -0.34051,2.84113 0.40301,3.73701 0.66107,0.79654 0.91861,2.53739 0.57685,3.89909 -0.43904,1.74928 -0.11015,2.75551 1.13833,3.48258 2.79729,1.62906 2.94639,1.41364 3.57604,-5.16667 z m -1.00015,-63.87012 c 0.1719,-21.38684 -0.90796,-56.97076 -2.20887,-72.78776 -0.37731,-4.58738 -1.08966,-7.59001 -1.86125,-7.84526 -0.92245,-0.30517 -1.28103,1.63909 -1.36842,7.4198 -0.0651,4.30834 -0.0336,8.26556 0.0702,8.79383 0.10373,0.52828 0.40536,9.52828 0.6703,20.00001 0.91926,36.33318 1.3182,47.05568 1.86589,50.15054 0.30281,1.71108 0.0721,5.34214 -0.51274,8.06904 -0.75661,3.52796 -0.75144,5.77822 0.0179,7.80179 2.32893,6.12557 3.14682,0.81509 3.32701,-21.60199 z m -2.15358,-91.47295 c 0.0991,-7.275852 -1.65598,-21.9438 -3.06988,-25.656934 -0.57594,-1.5125 -1.51943,-2.75 -2.09666,-2.75 -2.58957,0 -3.21672,5.416907 -1.60358,13.850607 0.87849,4.592834 1.32515,8.790885 0.99258,9.329001 -0.33258,0.538117 -0.0363,3.080346 0.65833,5.649396 2.4985,9.2402 4.99046,9.03475 5.11921,-0.42206 z m 15.91241,484.1764 c -0.0434,-1.05416 0.19293,-1.64479 0.52522,-1.3125 0.33229,0.33229 0.36781,1.1948 0.0789,1.91667 -0.31922,0.79773 -0.55618,0.56078 -0.60416,-0.60417 z"
         id="path2868" />
      <path
         style="fill:#ab5559"
         d="m 196.75131,683.96933 c -3.17223,-3.4191 -3.85948,-6.13164 -2.78033,-10.97392 1.4777,-6.63067 2.00359,-21.51572 0.81093,-22.95279 -1.68585,-2.03133 -4.75777,-1.58149 -8.03571,1.17671 -3.42199,2.87941 -4.64854,3.10422 -5.456,1 -0.68946,-1.79669 -4.48037,-1.98126 -6.16163,-0.3 -0.66,0.66 -1.2,2.39026 -1.2,3.84501 0,3.91439 -3.35073,6.56784 -6.78028,5.36933 -3.79921,-1.32769 -4.22219,-6.29194 -0.95934,-11.25898 1.32066,-2.01045 3.48985,-5.34277 4.82041,-7.40517 2.38262,-3.69309 11.03163,-9.80056 15.91921,-11.24129 1.375,-0.40532 4.00138,-1.64636 5.8364,-2.75788 l 3.33641,-2.02094 -0.65855,-28.08275 c -0.3622,-15.44551 -1.02851,-28.74382 -1.48068,-29.5518 -0.45217,-0.80798 -3.43066,-3.29821 -6.61888,-5.53383 -3.18821,-2.23562 -7.80794,-6.53907 -10.26607,-9.56323 -2.45812,-3.02416 -5.9844,-6.53551 -7.83618,-7.80301 -3.27948,-2.24473 -3.3502,-2.43938 -2.72474,-7.5 1.28314,-10.38187 6.15846,-12.70429 13.17359,-6.2754 3.92938,3.601 3.98828,5.9188 0.0809,3.18194 -2.9491,-2.0656 -6.8422,-2.09895 -6.8422,-0.0586 0,1.74306 10.85447,12.36395 12.6933,12.42014 0.65631,0.0201 1.85721,-0.91142 2.66868,-2.06995 l 1.47538,-2.1064 1.80356,2.1064 c 0.99196,1.15853 2.77051,2.10641 3.95234,2.10641 1.98704,0 2.20176,-0.67739 2.85283,-9 0.61201,-7.82336 0.94502,-9 2.5472,-9 3.72436,0 5.00671,1.16271 5.00671,4.5396 0,2.38411 0.53565,3.49563 1.89203,3.92613 1.04062,0.33028 2.12349,1.4856 2.40638,2.56739 0.79015,3.02153 2.70159,2.33233 2.70159,-0.9741 0,-1.61754 0.4996,-3.24975 1.11021,-3.62713 0.6566,-0.4058 0.88192,-2.09297 0.55147,-4.12929 -0.30731,-1.89373 -0.11912,-4.59945 0.41821,-6.01272 0.74539,-1.96053 0.60576,-2.97976 -0.58911,-4.30007 -1.60745,-1.77621 -1.41905,-2.79616 1.79719,-9.7295 0.75043,-1.61771 0.67178,-3.35224 -0.28321,-6.24589 -1.18836,-3.60077 -1.13593,-4.21199 0.51807,-6.03964 1.65925,-1.83346 1.71591,-2.51854 0.57608,-6.96592 -0.69529,-2.71286 -0.97265,-5.40414 -0.61636,-5.98063 0.35629,-0.57649 -0.35203,-3.05012 -1.57404,-5.49696 -1.83583,-3.6759 -1.99961,-4.71657 -0.94273,-5.99004 0.70351,-0.84768 1.93115,-1.54123 2.72809,-1.54123 1.17928,0 1.13931,-0.30967 -0.2147,-1.66369 -1.09376,-1.09376 -1.47746,-2.59488 -1.12004,-4.38194 0.299,-1.49504 0.25907,-3.00284 -0.0888,-3.35066 -0.57662,-0.57662 -1.62784,-33.17336 -1.45456,-45.10371 0.0399,-2.75 0.082,-9.36324 0.0934,-14.6961 0.0179,-8.34697 0.27454,-9.83189 1.84433,-10.67201 1.60352,-0.85818 1.7753,-2.04095 1.42385,-9.80391 -0.21975,-4.85539 -0.38582,-11.30298 -0.36896,-14.32798 0.0517,-9.2733 0.0335,-19.39554 -0.0385,-21.5 -0.0377,-1.1 -0.0375,-3.575 4.1e-4,-5.5 0.0379,-1.925 -0.0783,-8.675 -0.25812,-15 -0.20321,-7.14645 0.0762,-11.98926 0.73805,-12.79238 0.75854,-0.92045 0.7319,-1.62553 -0.0926,-2.45 -1.91833,-1.91833 -1.40015,-8.22816 0.84238,-10.25762 2.41711,-2.18746 2.59166,-6.18874 0.37675,-8.63619 -1.10064,-1.2162 -1.69596,-3.97817 -1.84906,-8.57874 -0.12419,-3.73179 -0.587,-9.42406 -1.02846,-12.64949 -0.74224,-5.42301 -1.05726,-5.97079 -4.18535,-7.27779 -3.25654,-1.36067 -3.36018,-1.57085 -2.77899,-5.63559 1.03328,-7.2265 1.13908,-16.68753 0.25816,-23.08436 -1.01867,-7.39706 -0.9713,-2.80028 -0.46517,-45.13784 0.23906,-19.99775 0.0244,-36.04428 -0.50081,-37.4363 -1.02566,-2.71838 -1.98473,-27.5977 -2.19106,-56.838548 -0.11713,-16.598942 0.0712,-19.234993 1.35628,-18.987789 0.82077,0.15788 1.72366,1.63156 2.00644,3.274844 0.35672,2.073004 1.16301,3.080641 2.63343,3.291055 1.16561,0.166796 3.10883,1.356579 4.31826,2.643961 1.92603,2.050157 2.03454,2.605895 0.87428,4.477247 -1.12083,1.807738 -1.09385,2.283398 0.1753,3.090726 2.3637,1.503585 2.6998,1.223329 3.31621,-2.7652 0.31876,-2.0625 0.88783,-4.790554 1.26461,-6.062342 0.57501,-1.94092 -0.32952,-3.251205 -5.63131,-8.157364 -5.46207,-5.054484 -6.73111,-5.779643 -9.38293,-5.361626 -1.68662,0.265867 -4.14765,0.07638 -5.46897,-0.421081 l -2.40239,-0.904475 3.76875,-4.171556 c 5.29907,-5.865427 6.98929,-5.542366 15.17735,2.900922 8.13712,8.390769 8.7427,9.34145 7.46786,11.723513 -0.58654,1.095961 -1.11663,23.525743 -1.32972,56.264823 -0.19489,29.94329 -0.7182,55.03106 -1.16291,55.7506 -1.30732,2.11529 -3.56331,-1.80283 -2.91428,-5.06141 0.41757,-2.09651 0.16157,-2.75 -1.07727,-2.75 -1.09835,0 -1.63531,0.89125 -1.6568,2.75 -0.0175,1.5125 -0.6925,3.62351 -1.5,4.69113 -1.96559,2.59874 -2.01522,13.13498 -0.0654,13.8832 2.41166,0.92544 4.70681,-1.72263 5.2952,-6.10942 0.31094,-2.3182 0.95609,-4.21491 1.43367,-4.21491 0.47758,0 0.86833,9.92656 0.86833,22.05902 0,14.45136 -0.34488,21.84587 -1,21.44098 -0.55,-0.33992 -1,-3.03992 -1,-6 0,-5.97716 -0.47068,-6.65415 -3.76169,-5.41049 -2.09987,0.79354 -2.24297,1.37541 -2,8.13259 l 0.26168,7.2779 3.75,-0.11406 c 3.59992,-0.1095 3.75,0.0182 3.75,3.19098 0,1.81778 -0.45,3.58316 -1,3.92308 -0.55,0.33992 -1,-0.0138 -1,-0.786 0,-1.87538 -3.61564,-5.06958 -4.86468,-4.29763 -1.73783,1.07404 0.4526,17.89007 2.25141,17.28413 0.6123,-0.20625 1.00473,-1.46074 0.87206,-2.78775 -0.13266,-1.32701 0.44761,-3.31056 1.28949,-4.40788 2.44866,-3.19162 3.26467,-0.38156 2.86541,9.86748 -0.57803,14.83814 -0.59688,21.18209 -0.11776,39.62765 0.52644,20.2673 -0.26808,32.74672 -2.15928,33.91555 -0.71607,0.44255 -1.54508,3.49712 -1.8441,6.79481 -0.49691,5.48003 -0.36385,6.03773 1.56066,6.541 1.82703,0.47778 2.0892,1.25415 1.99217,5.89941 -0.0614,2.94208 -0.0609,13.1695 10e-4,22.72761 0.11116,17.11892 -0.14228,19.67488 -1.8465,18.62162 -1.73498,-1.07228 -4.29334,6.40733 -2.94038,8.59646 0.62125,1.00521 1.2405,0.44823 2.35264,-2.11607 1.41312,-3.25828 1.52383,-3.32084 1.73471,-0.98039 0.65882,7.31205 0.7729,17.67807 0.40167,36.5 -0.39175,19.86233 -0.31534,19.12384 -2.17063,20.97913 -1.49598,1.49598 -1.4851,1.72208 0.14003,2.9104 1.88296,1.37685 2.01737,7.82358 1.26012,60.43737 l -0.27804,19.32689 2.5,-0.48244 c 6.4829,-1.25104 10.09855,-3.45791 13.49727,-8.2383 1.9265,-2.70966 3.50441,-5.60309 3.50647,-6.42985 0.004,-1.74671 3.73902,-8.17991 5.33857,-9.196 0.59984,-0.38104 1.66821,-0.21344 2.37415,0.37245 2.13729,1.77379 1.6699,5.78408 -1.90207,16.32035 -0.55938,1.65 -1.24784,4.125 -1.52991,5.5 -0.28207,1.375 -1.69897,3.7754 -3.14867,5.33422 -7.64842,8.22413 -12.92606,12.78872 -15.40662,13.32503 -1.52394,0.32949 -2.98488,0.94545 -3.24652,1.36879 -0.26164,0.42334 -0.51985,4.88853 -0.57381,9.92263 -0.069,6.44208 -0.44029,9.03887 -1.25348,8.76783 -0.64696,-0.21563 -1.16758,-2.42881 -1.1831,-5.02951 -0.0353,-5.91495 -1.37535,-7.39781 -4.4416,-4.91492 -2.15349,1.7438 -2.20023,2.02423 -0.78698,4.72152 1.3125,2.505 1.32216,3.29919 0.0764,6.28068 -1.25731,3.00918 -1.23957,3.69772 0.14996,5.8184 0.98077,1.49685 2.53665,2.40533 4.1194,2.40533 2.18462,0 2.49873,0.38789 2.22694,2.75 -0.21318,1.85273 -0.80584,2.62947 -1.81642,2.38059 -4.4407,-1.09362 -4.50165,-0.9861 -4.46053,7.86941 l 0.0395,8.5 2.65478,-0.18063 c 2.47711,-0.16854 2.64429,0.0824 2.49804,3.75 -0.16726,4.19419 -2.70045,5.73064 -2.7709,1.68063 -0.0318,-1.8303 -0.31778,-1.60776 -1.53291,1.19306 -1.84959,4.26326 -1.24528,6.05694 2.04067,6.05694 1.99871,0 2.53138,0.5003 2.53138,2.37756 0,3.0046 1.52351,4.22437 6.25,5.00394 2.0625,0.34017 5.4375,0.90219 7.5,1.24892 2.0625,0.34673 4.63763,1.24673 5.72251,2 1.08487,0.75327 2.92763,1.36958 4.09501,1.36958 2.10874,0 5.43248,2.80719 5.43248,4.58819 0,0.5119 -0.9,1.49278 -2,2.17974 -1.3911,0.86875 -2,2.33202 -2,4.80629 0,4.84785 1.53313,7.33276 5.56297,9.01654 2.20492,0.92127 3.6287,2.32474 4.04629,3.98856 1.56524,6.23639 -3.90536,4.39528 -13.98494,-4.70659 -6.82232,-6.16056 -15.23593,-10.43996 -17.24596,-8.77178 -0.805,0.6681 -3.35695,1.25619 -5.671,1.30688 -3.1368,0.0687 -4.152,0.47385 -3.9898,1.59217 0.63027,4.34549 2.06834,9.75293 3.10735,11.68426 0.6463,1.20134 1.17509,3.13619 1.17509,4.29966 0,1.16347 0.6711,3.41316 1.49133,4.99932 1.41204,2.73057 1.34645,3.0561 -1.23352,6.12222 -1.65442,1.96616 -2.605,4.15288 -2.41976,5.56642 0.35126,2.68052 -2.01922,3.11396 -6.31812,1.15525 -1.96907,-0.89717 -2.84989,-0.89717 -3.74706,0 -2.16754,2.16754 -7.21864,1.36693 -9.95013,-1.57713 z M 210.46969,551.6528 c 0.92034,-1.48915 -0.14673,-2.29879 -2.06137,-1.56407 -0.88358,0.33906 -1.32643,1.06965 -0.98412,1.62354 0.81058,1.31154 2.21511,1.28411 3.04549,-0.0595 z m 8.79954,-118.89937 c -0.27277,-5.56844 -2.34066,-6.14338 -2.34066,-0.65077 0,3.39461 0.36291,4.65563 1.25,4.34345 0.70292,-0.24737 1.18026,-1.86351 1.09066,-3.69268 z M 220.42857,214.136 c 0,-4.22345 -0.29432,-4.95872 -2.08751,-5.21493 -2.8826,-0.41186 -5.07599,2.29387 -3.44884,4.25446 0.66469,0.8009 0.87604,1.99417 0.46966,2.6517 -0.81735,1.3225 2.34861,4.13146 4.02625,3.57225 0.57224,-0.19075 1.04044,-2.55932 1.04044,-5.26348 z m -0.67668,-34.09556 c -0.42944,-2.22992 -2.20795,-2.27795 -2.63295,-0.0711 -0.2108,1.0946 0.27967,1.75 1.30963,1.75 1.00339,0 1.52034,-0.65585 1.32332,-1.67889 z m 0.46287,-14.64457 c 0.0575,-2.8471 -0.39898,-6.09524 -1.01444,-7.2181 -0.61545,-1.12286 -1.04088,-2.90561 -0.94538,-3.96168 0.0956,-1.05676 -0.54711,-2.07 -1.42928,-2.25344 -1.21562,-0.25278 -1.85897,0.94604 -2.6627,4.96168 -1.25609,6.27573 -0.67818,10.25596 2.05548,14.15678 1.7667,2.52101 2.11782,2.66111 2.94862,1.17654 0.51872,-0.92689 0.99018,-4.01469 1.0477,-6.86178 z m -2.0538,-24.11189 c 0.60227,-3.15056 -0.45637,-4.79967 -2.56234,-3.99153 -1.98726,0.76258 -1.97442,0.66476 -0.50953,3.87983 1.4588,3.20172 2.47412,3.23864 3.07187,0.1117 z m 1.72638,-11.01497 c 0.92832,-1.11857 0.93904,-2.72497 0.0468,-7.02271 -0.63625,-3.06482 -1.0103,-7.02467 -0.83121,-8.79968 0.40419,-4.00616 -1.38174,-4.70501 -2.49751,-0.97729 -0.45272,1.5125 -1.29329,3.71959 -1.86795,4.90464 -0.57465,1.18506 -0.74594,2.63826 -0.38063,3.22934 0.3653,0.59107 0.18249,1.97475 -0.40626,3.07483 -1.64207,3.06829 -0.25183,7.04119 2.46395,7.04119 1.24803,0 2.8108,-0.65265 3.47281,-1.45032 z m 0.0412,-26.1087 c 0,-0.24254 -0.45,-0.44098 -1,-0.44098 -0.55,0 -1,0.47655 -1,1.05901 0,0.58246 0.45,0.78091 1,0.44099 0.55,-0.33992 1,-0.81648 1,-1.05902 z m 1.07895,483.14235 c -0.0434,-1.05416 0.19293,-1.64479 0.52522,-1.3125 0.33229,0.33229 0.36781,1.1948 0.0789,1.91667 -0.31922,0.79773 -0.55618,0.56078 -0.60416,-0.60417 z M 198.88,524.46933 c -0.0267,-1.7875 -0.006,-14.1347 0.0458,-27.43823 0.0774,-19.83715 0.37671,-24.75421 1.66396,-27.33457 2.61183,-5.23553 3.75895,-2.22536 3.33812,8.75951 -0.43679,11.40128 -0.43285,17.14747 0.0183,26.76329 0.19675,4.19328 -0.15602,7.90216 -0.87982,9.25 -0.83563,1.55608 -0.90096,2.82422 -0.21183,4.11186 0.71691,1.33956 0.59544,2.39153 -0.43301,3.75 -0.7862,1.03848 -1.44376,2.67564 -1.46126,3.63814 -0.0585,3.21848 -2.03111,1.79615 -2.08034,-1.5 z m 0.50971,-60.81283 c -0.63159,-1.02194 -0.60838,-25.65456 0.0508,-53.93717 0.17306,-7.425 0.77883,-15.3 1.34616,-17.5 0.56734,-2.2 1.08482,-6.025 1.14996,-8.5 0.14901,-5.66115 -0.86346,-18.95693 -1.52508,-20.02746 -0.27354,-0.44259 -0.0613,-1.95154 0.47161,-3.35322 0.62566,-1.64563 0.62524,-2.76093 -0.001,-3.14809 -0.57992,-0.35841 -0.95105,-9.12095 -0.92269,-21.7854 0.0468,-20.88674 -0.56002,-53.77928 -1.46078,-79.18583 -2.15899,-60.89604 -2.67787,-86.5 -1.75298,-86.5 1.56731,0 4.183,3.60788 4.183,5.76972 0,1.16174 0.48555,2.41233 1.07901,2.77911 1.14929,0.7103 0.32096,10.11847 -1.05222,11.95117 -0.4121,0.55 -1.00509,2.66701 -1.31777,4.70446 -0.43512,2.83536 -0.0781,4.32789 1.52172,6.36175 1.78055,2.26361 1.93045,3.12222 1.01175,5.79554 -1.23533,3.59471 -1.13881,32.44001 0.11522,34.43205 0.44796,0.7116 0.39253,1.8366 -0.12317,2.5 -1.77357,2.28154 0.11651,18.20784 2.47977,20.89524 1.1773,1.33877 1.44596,4.44938 1.29552,15 -0.10439,7.32103 0.12498,15.49845 0.50971,18.17205 0.45881,3.18834 0.27825,5.64823 -0.52472,7.14858 -0.77924,1.45603 -0.97822,3.86919 -0.54742,6.63892 0.37224,2.39328 0.7934,6.15141 0.9359,8.35141 0.14249,2.2 0.61269,4.7875 1.04488,5.75 0.43219,0.9625 0.45528,2.5375 0.0513,3.5 -0.40396,0.9625 -0.94076,7.375 -1.19289,14.25 -0.61392,16.74005 -0.64191,15.6439 0.58715,23 1.44651,8.65755 1.45055,26.27569 0.006,27.71989 -0.7611,0.7611 -1.27724,11.79802 -1.61105,34.45 -0.2979,20.21469 -0.88915,33.82199 -1.50256,34.58011 -1.23722,1.52911 -3.41739,1.62389 -4.30533,0.18717 z m -3.46117,-299.78334 c 0,-1.44788 0.46138,-1.91401 1.5,-1.51546 0.825,0.31659 1.5,0.69736 1.5,0.84617 0,0.14882 -0.675,0.83077 -1.5,1.51546 -1.252,1.03907 -1.5,0.89917 -1.5,-0.84617 z m -1.07367,-8.40383 c -0.0405,-1.2375 -0.25953,-6.3 -0.4867,-11.25 -0.22717,-4.95 -0.87218,-19.575 -1.43337,-32.5 -0.56119,-12.925004 -1.29105,-25.838695 -1.62191,-28.697094 -0.55155,-4.764949 -0.37253,-5.409366 2.15306,-7.75 3.55279,-3.292611 4.69001,-3.232597 3.73473,0.19709 -0.42128,1.5125 -0.70814,4.325 -0.63746,6.25 0.0707,1.925 0.24158,7.775 0.37978,13 0.16619,6.282764 0.78484,10.515964 1.82678,12.500004 2.1521,4.09794 2.64104,32.07161 0.66102,37.81865 -0.74212,2.15401 -1.10747,4.54658 -0.8119,5.31682 0.63536,1.65571 -1.5442,7.36453 -2.81168,7.36453 -0.48327,0 -0.91183,-1.0125 -0.95235,-2.25 z"
         id="path2866" />
      <path
         style="fill:#4e4143"
         d="m 210.92857,684.71788 c -2.99723,-2.34273 -5.84852,-2.55687 -6.63837,-0.49855 -0.97245,2.53415 -5.00135,1.71688 -7.77274,-1.57673 -1.42389,-1.69219 -2.57994,-3.37969 -2.56901,-3.75 0.0109,-0.3703 0.65949,-6.66788 1.44123,-13.99463 0.78174,-7.32675 1.17316,-13.96813 0.86982,-14.75863 -1.23429,-3.21651 -6.44511,-2.87568 -11.47457,0.75052 -1.31089,0.94515 -1.98329,0.84539 -3.32142,-0.49274 -2.15133,-2.15132 -2.71175,-2.11316 -5.90985,0.40247 -1.84379,1.45033 -2.58237,2.89738 -2.43902,4.77862 0.11308,1.4841 -0.13408,3.24798 -0.54925,3.91974 -1.05364,1.70482 -6.13768,1.52773 -7.62604,-0.26563 -1.77641,-2.14045 -0.60721,-5.57638 4.47748,-13.15794 4.79999,-7.15707 11.37038,-12.33359 18.28358,-14.40484 2.27081,-0.68035 5.24185,-2.40997 6.60232,-3.8436 l 2.47358,-2.60661 -0.70479,-28.13356 c -0.53241,-21.25247 -1.03367,-28.52984 -2.04941,-29.75373 -0.73954,-0.89109 -4.03074,-3.37528 -7.31379,-5.52042 -3.69742,-2.4159 -7.29627,-5.8709 -9.45623,-9.07824 -1.91788,-2.8479 -5.0754,-6.11514 -7.01671,-7.26054 -3.407,-2.01018 -3.51343,-2.25133 -3.06291,-6.94001 0.54549,-5.67708 1.54165,-7.07666 3.12338,-4.3883 0.623,1.05887 3.92965,4.69593 7.34812,8.08237 6.02979,5.97328 6.43294,6.18969 13.5,7.24654 9.52933,1.42508 12.80021,2.16094 15.54957,3.49821 1.84798,0.89884 2.78048,0.72053 5.06509,-0.96856 2.07558,-1.53454 3.25183,-1.81744 4.54577,-1.09331 0.96011,0.5373 2.3789,0.73391 3.15288,0.43691 0.77398,-0.29701 1.67321,-0.10967 1.99828,0.41631 0.32508,0.52598 1.24806,0.95633 2.05108,0.95633 1.03963,0 1.28751,-0.68738 0.86089,-2.38719 -0.76162,-3.03454 2.60754,-5.61281 7.33457,-5.61281 2.81,0 3.5401,-0.50629 4.68666,-3.25 0.74697,-1.7875 2.262,-4.39893 3.36673,-5.80318 1.10474,-1.40425 2.31518,-4.18734 2.68987,-6.18463 1.27097,-6.77485 7.27355,-9.11112 6.15108,-2.39408 -1.18694,7.10287 -2.49352,11.85754 -3.5483,12.91232 -0.61577,0.61577 -1.11957,2.08783 -1.11957,3.27126 0,3.59951 -12.95622,17.17346 -17.28588,18.11003 -2.97657,0.64388 -5.71412,3.72716 -5.71412,6.43579 0,1.02932 -1.11082,1.87465 -2.94562,2.24161 -3.85802,0.77161 -5.45469,3.68819 -3.89412,7.11326 0.87874,1.92864 0.88871,3.48143 0.0401,6.24652 -0.9677,3.15303 -0.85239,4.12803 0.80541,6.81041 1.62506,2.62939 1.73057,3.43954 0.65909,5.06062 -1.26518,1.91415 -1.68261,17.74564 -0.4991,18.92914 0.31032,0.31033 0.17595,2.64255 -0.2986,5.18271 -0.94825,5.07574 0.0492,7.31822 3.2553,7.31822 1.25177,0 1.87756,0.71318 1.87756,2.13976 0,2.78447 2.7223,4.78855 6.55887,4.82844 1.68238,0.0175 3.93238,0.67203 5,1.45453 1.10009,0.8063 3.08009,1.19593 4.56985,0.89926 2.98771,-0.59497 4.37128,0.88569 4.37128,4.67801 0,1.94945 0.49549,2.48251 2.25,2.4206 2.05476,-0.0725 2.25,0.37135 2.25,5.11514 0,5.77214 2.14373,9.46544 6.78538,11.69012 2.62314,1.25725 4.35965,4.77414 2.35728,4.77414 -2.01664,0 -8.46928,-4.62913 -13.59073,-9.75 -2.88783,-2.8875 -6.01574,-5.25 -6.95092,-5.25 -0.93518,0 -3.08926,-0.71824 -4.78685,-1.5961 -2.41995,-1.25141 -3.54383,-1.35135 -5.2041,-0.4628 -1.16468,0.62331 -3.62779,1.00406 -5.47358,0.8461 -4.20328,-0.35971 -6.29716,2.12462 -4.37919,5.19578 0.68349,1.09443 1.24271,3.02086 1.24271,4.28094 0,1.26009 0.61323,3.1787 1.36274,4.26357 0.7495,1.08488 1.67085,3.54751 2.04745,5.47251 1.89527,9.6878 1.90456,9.56375 -0.85208,11.36997 -1.90039,1.24518 -2.543,2.43155 -2.33916,4.31853 0.35996,3.33218 -1.06558,3.77483 -4.21895,1.31005 z M 202.38745,547.6528 c -1.07627,-1.74144 0.14952,-2.11024 1.52106,-0.45764 0.78875,0.95039 0.86462,1.52417 0.20152,1.52417 -0.58488,0 -1.36004,-0.47994 -1.72258,-1.06653 z m 14.54112,-8.49249 c 0,-0.85746 0.45,-1.2809 1,-0.94098 0.55,0.33992 1,1.04148 1,1.55902 0,0.51754 -0.45,0.94098 -1,0.94098 -0.55,0 -1,-0.70156 -1,-1.55902 z m -42.80902,-7.35389 c -2.45211,-0.62347 -3.38578,-2.18882 -1.65054,-2.76724 1.17057,-0.39019 5.23259,2.28455 4.45799,2.93548 -0.27414,0.23037 -1.53749,0.15466 -2.80745,-0.16824 z M 211.3848,262.64851 c -0.37508,-0.60689 -0.24093,-1.54448 0.29812,-2.08353 0.64011,-0.64011 1.18443,-0.44756 1.56919,0.55511 0.69959,1.82308 -0.88407,3.11933 -1.86731,1.52842 z m -0.81675,-34.62303 c -1.12618,-1.12619 -0.68589,-2.30615 0.86052,-2.30615 0.825,0 1.5,0.42344 1.5,0.94098 0,1.26098 -1.56159,2.1641 -2.36052,1.36517 z m -2.63948,-116.80615 c 0,-0.825 0.45,-1.5 1,-1.5 0.55,0 1,0.675 1,1.5 0,0.825 -0.45,1.5 -1,1.5 -0.55,0 -1,-0.675 -1,-1.5 z m 0.54271,-5.43091 c -0.31644,-0.51199 -0.11799,-1.21355 0.44098,-1.55901 0.55897,-0.34547 1.01631,0.0734 1.01631,0.9309 0,1.75652 -0.60006,2.01516 -1.45729,0.62811 z M 193.08646,79.719326 c 0,-1.375 0.22698,-1.9375 0.50439,-1.25 0.27741,0.6875 0.27741,1.8125 0,2.5 -0.27741,0.6875 -0.50439,0.125 -0.50439,-1.25 z m 27.88795,-1.914354 c -0.77398,-1.446188 -0.7892,-2.085646 -0.0496,-2.085646 1.21231,0 2.53262,2.804513 1.70836,3.628774 -0.29839,0.298385 -1.04481,-0.396022 -1.65872,-1.543128 z m -11.18506,-9.999566 c -2.43303,-1.972494 -2.08799,-3.770983 0.53068,-2.766105 1.74057,0.667921 4.10197,4.680025 2.75451,4.680025 -0.50842,0 -1.98675,-0.861264 -3.28519,-1.91392 z"
         id="path2864" />
    </g>
  </g>
</svg>
