<?xml version="1.0" encoding="UTF-8" standalone="no"?>
<!-- Created with Inkscape (http://www.inkscape.org/) -->

<svg
   xmlns:dc="http://purl.org/dc/elements/1.1/"
   xmlns:cc="http://creativecommons.org/ns#"
   xmlns:rdf="http://www.w3.org/1999/02/22-rdf-syntax-ns#"
   xmlns:svg="http://www.w3.org/2000/svg"
   xmlns="http://www.w3.org/2000/svg"
   xmlns:sodipodi="http://sodipodi.sourceforge.net/DTD/sodipodi-0.dtd"
   xmlns:inkscape="http://www.inkscape.org/namespaces/inkscape"
   width="513.99487"
   height="503.92215"
   id="svg2"
   version="1.1"
   inkscape:version="0.47 r22583"
   sodipodi:docname="seme_carte_ursun_karuta_denari.svg">
  <defs
     id="defs4">
    <inkscape:perspective
       sodipodi:type="inkscape:persp3d"
       inkscape:vp_x="0 : 526.18109 : 1"
       inkscape:vp_y="0 : 1000 : 0"
       inkscape:vp_z="744.09448 : 526.18109 : 1"
       inkscape:persp3d-origin="372.04724 : 350.78739 : 1"
       id="perspective10" />
    <inkscape:perspective
       sodipodi:type="inkscape:persp3d"
       inkscape:vp_x="0 : 0.5 : 1"
       inkscape:vp_y="0 : 1000 : 0"
       inkscape:vp_z="1 : 0.5 : 1"
       inkscape:persp3d-origin="0.5 : 0.33333333 : 1"
       id="perspective3012" />
    <inkscape:perspective
       id="perspective3002"
       inkscape:persp3d-origin="372.04724 : 350.78739 : 1"
       inkscape:vp_z="744.09448 : 526.18109 : 1"
       inkscape:vp_y="0 : 1000 : 0"
       inkscape:vp_x="0 : 526.18109 : 1"
       sodipodi:type="inkscape:persp3d" />
  </defs>
  <sodipodi:namedview
     id="base"
     pagecolor="#ffffff"
     bordercolor="#666666"
     borderopacity="1.0"
     inkscape:pageopacity="0.0"
     inkscape:pageshadow="2"
     inkscape:zoom="1.4"
     inkscape:cx="311.04445"
     inkscape:cy="281.96108"
     inkscape:document-units="px"
     inkscape:current-layer="layer1"
     showgrid="false"
     inkscape:window-width="1280"
     inkscape:window-height="968"
     inkscape:window-x="-4"
     inkscape:window-y="-4"
     inkscape:window-maximized="1" />
  <metadata
     id="metadata7">
    <rdf:RDF>
      <cc:Work
         rdf:about="">
        <dc:format>image/svg+xml</dc:format>
        <dc:type
           rdf:resource="http://purl.org/dc/dcmitype/StillImage" />
        <dc:title></dc:title>
      </cc:Work>
    </rdf:RDF>
  </metadata>
  <g
     inkscape:label="Livello 1"
     inkscape:groupmode="layer"
     id="layer1"
     transform="translate(-63.955551,-367.54396)">
    <g
       transform="translate(29.312811,114.58389)"
       id="layer1-7"
       inkscape:label="Livello 1">
      <g
         transform="translate(-208.57143,-80)"
         id="g3018">
        <path
           id="path3024"
           d="m 427.78572,834.85184 c -4.95,-1.25453 -12.44996,-3.69399 -16.66659,-5.42103 -5.61405,-2.2994 -9.24667,-3.14007 -13.56849,-3.14007 -7.29654,0 -14.45347,-2.10259 -19.96806,-5.86629 -4.11485,-2.80838 -17.12984,-7.37173 -24.51817,-8.59663 -2.62198,-0.43469 -5.35301,-2.15608 -9.24471,-5.82701 -3.03787,-2.86554 -8.41801,-6.78507 -11.95587,-8.71007 -9.90245,-5.38806 -27.74937,-19.65599 -31.13275,-24.88944 -1.61995,-2.50576 -5.51351,-6.36822 -8.65237,-8.58324 -5.66462,-3.9974 -8.95311,-7.88021 -13.99759,-16.52732 -1.44385,-2.475 -4.2042,-6.01755 -6.13411,-7.87234 -1.99754,-1.91977 -4.43097,-5.83782 -5.64957,-9.09633 -1.17735,-3.1482 -3.91163,-7.86715 -6.07618,-10.48655 -4.23874,-5.12946 3.7347,8.8766 -2.3696,-9.5995 -3.38884,-14.31827 -1.61898,-15.89795 -5.00929,-24.57558 -7.35186,-31.70402 -7.09945,-43.21803 -9.6282,-67.98505 2.58054,-24.21914 -0.50957,-24.11949 1.34269,-44.17036 -1.0412,-18.73088 6.19184,-40.31799 11.80572,-59.67226 0.59228,-3.20391 2.17538,-7.56544 3.518,-9.6923 3.18304,-5.04226 5.95326,-12.26061 6.78955,-17.6915 0.75601,-4.90959 2.86523,-9.3826 8.63035,-18.30237 2.19188,-3.39126 3.98524,-6.78909 3.98524,-7.55073 0,-1.86574 3.7215,-9.06029 6.73189,-13.01437 1.34382,-1.76509 4.60143,-4.85505 7.23913,-6.86658 2.6377,-2.01154 6.39245,-5.74238 8.34389,-8.29076 1.95144,-2.54838 5.98133,-6.38766 8.95532,-8.53173 2.97399,-2.14407 6.6345,-5.83818 8.13448,-8.20913 1.49998,-2.37096 4.31982,-5.56672 6.26631,-7.10169 1.9465,-1.53498 8.55431,-7.5806 14.68403,-13.43472 7.44506,-7.11031 13.17035,-11.65484 17.24594,-13.68918 3.35554,-1.67492 7.40554,-4.13731 9,-5.47196 3.90245,-3.26659 12.15374,-7.35265 17.63478,-8.73279 2.60858,-0.65685 6.71309,-2.95938 9.8231,-5.51051 2.93823,-2.41022 7.83948,-5.37618 10.89168,-6.59103 3.0522,-1.21485 7.38895,-3.50434 9.63723,-5.08777 2.60369,-1.83373 6.23425,-3.21659 10,-3.80892 3.25172,-0.51148 8.38722,-1.62849 11.41222,-2.48224 3.025,-0.85376 10.15454,-1.97267 15.84342,-2.48648 7.31859,-0.661 11.90633,-1.64972 15.68776,-3.38091 8.21834,-3.76248 15.10181,-4.87952 22.58574,-3.66518 8.44999,1.37109 21.39125,1.3238 31.33914,-0.11452 l 8.05986,-1.16533 8.33328,3.76258 c 6.74058,3.04346 10.1793,3.93548 17.99204,4.6672 12.63391,1.18327 24.64339,4.49819 35.15876,9.70471 4.675,2.31475 10.975,4.66204 14,5.21619 3.42225,0.62693 7.01109,2.15691 9.5,4.05 2.2,1.67334 7.375,4.6397 11.5,6.59192 4.125,1.95221 9.075,5.05526 11,6.89567 1.925,1.8404 7.75963,5.43288 12.96585,7.98329 5.20622,2.5504 10.83122,6.07176 12.5,7.82523 1.66878,1.75347 6.51841,5.80083 10.77694,8.99414 7.711,5.78217 9.30484,7.43351 14.72245,15.25354 1.56749,2.26259 5.47806,5.86259 8.69016,8 4.80103,3.19472 6.41515,5.04153 9.07156,10.3793 2.07751,4.1745 5.33109,8.45953 9.11149,12 4.244,3.97464 6.36672,6.89812 7.62899,10.5069 3.41809,9.77216 3.9682,10.92658 6.67703,14.01177 2.66647,3.03694 6.07,10.39714 8.08697,17.48823 0.54754,1.925 1.84315,4.69262 2.87912,6.15026 4.54961,6.40142 7.92754,16.11036 8.95445,25.73709 1.53692,14.40769 2.78456,20.83448 5.65168,29.11265 3.72054,10.74225 4.23258,25.65337 1.38389,40.30076 -1.15532,5.94042 -2.09825,12.01542 -2.0954,13.5 0.003,1.48458 -1.30845,6.97424 -2.91399,12.19924 -1.60554,5.225 -3.59951,14.83322 -4.43105,21.35159 -1.34093,10.51147 -1.89883,12.43438 -4.93393,17.00556 -6.51679,9.815 -6.9014,11.0832 -7.62025,25.12643 l -0.67345,13.15633 -4.58721,6.43004 c -2.52297,3.53653 -5.43279,8.84646 -6.46626,11.79986 -1.33002,3.80086 -3.19384,6.52492 -6.37904,9.32326 -2.475,2.17441 -8.1,8.75041 -12.5,14.61335 -4.4,5.86293 -10.025,12.14211 -12.5,13.95373 -8.92449,6.53242 -17.55301,13.84216 -22.59167,19.13875 -4.72044,4.96208 -5.61223,5.46309 -11.02216,6.19224 -6.17548,0.83234 -7.00218,1.45998 -11.73441,8.90886 -1.67585,2.63791 -3.63541,4.00281 -7.9556,5.54135 -4.10756,1.46281 -6.95722,3.3758 -10.05507,6.75 -3.52917,3.84399 -4.94902,4.70894 -7.73205,4.7102 -3.60847,0.002 -5.64611,0.95004 -16.64775,7.74845 -3.78269,2.3375 -7.84072,4.25 -9.01784,4.25 -4.13085,0 -18.1116,5.06301 -22.9029,8.2941 -7.35842,4.96226 -9.75649,5.7059 -18.40026,5.7059 -4.89319,0 -10.74937,0.77142 -15.18285,2 -3.96948,1.1 -8.92875,2 -11.02058,2 -2.09184,0 -5.92589,1.07481 -8.5201,2.38848 -11.25076,5.69717 -15.70682,6.24359 -57.21676,7.01619 -21.98232,0.40914 -24.08124,0.29008 -32.5,-1.84357 z m 73.3,-65.7611 c 0.66,-0.66 1.2,-1.6141 1.2,-2.12022 0,-1.79238 -14.81084,-15.41549 -17.49074,-16.0881 -3.26789,-0.82019 -7.50926,1.58428 -7.50926,4.25706 0,2.24683 3.27921,5.31042 8.5,7.94109 2.2,1.10854 5.09094,3.18433 6.42431,4.61285 2.58473,2.76918 6.83475,3.43826 8.87569,1.39732 z m 76.37126,-2.45499 c 2.31424,-2.09435 2.35212,-6.50932 0.0787,-9.17686 -0.9625,-1.12938 -3.70508,-3.65423 -6.09461,-5.61078 -5.17757,-4.23942 -10.8493,-4.86342 -14.15535,-1.55737 -3.23275,3.23275 -2.50413,4.71504 3.91866,7.97203 2.43026,1.23239 5.99158,3.99284 7.91404,6.13434 3.83557,4.27257 5.57506,4.73957 8.33856,2.23864 z m 38.19037,-18.84501 c 0.35062,-0.91371 0.002,-1.5 -0.89301,-1.5 -0.80774,0 -1.46862,0.675 -1.46862,1.5 0,0.825 0.40186,1.5 0.89301,1.5 0.49116,0 1.15203,-0.675 1.46862,-1.5 z m -30.56163,-1.7 c 1.64618,-1.64618 1.5084,-4.46768 -0.25113,-5.14287 -2.12175,-0.8142 -6.02133,2.66927 -5.24701,4.68711 0.74141,1.93209 3.7707,2.1832 5.49814,0.45576 z m -162.8,-2.3 c 0.99518,-1.19911 0.98609,-1.81184 -0.0453,-3.0546 -3.32565,-4.00715 -9.9547,-4.32882 -9.9547,-0.48305 0,4.00668 7.42946,6.63496 10,3.53765 z m 242.6,-34.9 c 4.02958,-4.02958 4.64275,-9.16535 1.44029,-12.06353 -5.63428,-5.09897 -13.95383,6.15102 -10.00511,13.52927 1.54827,2.89297 4.75488,2.3442 8.56482,-1.46574 z m -32.55576,-1.85572 c 7.00138,-4.17807 7.28113,-6.0356 1.98804,-13.20058 -4.41162,-5.9718 -5.97082,-6.60516 -8.94314,-3.63284 -2.40327,2.40327 -3.87839,14.06151 -2.23545,17.66736 1.44516,3.1718 2.66315,3.06128 9.19055,-0.83394 z m -340.87298,-0.39927 c 2.07675,-1.87943 2.42198,-6.35177 0.62874,-8.14501 -0.66,-0.66 -2.595,-1.2 -4.3,-1.2 -3.74169,0 -5.5,1.55731 -5.5,4.87126 0,5.20709 5.43265,7.85714 9.17126,4.47375 z m 90.25177,-2.35887 c 1.71597,-1.6845 1.79305,-2.32155 0.7159,-5.91678 -0.69786,-2.32925 -3.44389,-6.46336 -6.509,-9.79919 -2.91602,-3.17359 -6.81935,-8.64077 -8.67404,-12.14929 -4.48191,-8.47838 -12.6446,-17.12088 -16.17038,-17.12088 -5.37264,0 -8.10801,6.9019 -5.8524,14.76678 1.88268,6.56451 21.61245,29.88817 27.23167,32.19207 3.0057,1.23234 6.82157,0.41927 9.25825,-1.97271 z m 261.50024,-24.57503 c 3.7543,-3.15904 3.86715,-5.3183 0.48784,-9.33438 -2.71555,-3.22725 -5.48569,-3.93415 -7.15834,-1.82673 -1.81557,2.28749 -3.45123,8.82313 -2.8288,11.30311 0.84433,3.36406 5.41377,3.29575 9.4993,-0.142 z m 55.82673,-13.53114 c 4.10551,-1.51533 2.89266,-5.38381 -3.90851,-12.46652 -7.43881,-7.74675 -9.88024,-8.21305 -14.67079,-2.80204 -2.64702,2.98986 -3.45317,3.39905 -4.684,2.37755 -2.29801,-1.90718 -1.77441,-4.89725 1.5133,-8.64174 3.53423,-4.02527 3.6733,-5.22154 1.00186,-8.61773 -1.74788,-2.22207 -9.36136,-5.72949 -12.43688,-5.72949 -0.59331,0 -2.98815,3.76362 -5.32186,8.36361 -4.65911,9.18357 -5.42234,14.87835 -2.82665,21.09073 1.77661,4.25202 5.10854,6.46826 11.27083,7.4968 5.52477,0.92213 26.70706,0.16738 30.0627,-1.07117 z M 349.08035,636.64028 c 3.49164,-2.21269 4.20537,-5.39014 4.20537,-18.72175 0,-7.92294 0.70152,-16.06031 1.9884,-23.06464 1.12322,-6.11357 1.89262,-14.1383 1.76829,-18.44289 -0.20925,-7.24447 0.003,-8.0641 4.30388,-16.62026 4.51097,-8.9741 4.53826,-9.00353 9.48171,-10.22524 6.92144,-1.71055 9.19622,-3.11144 11.71104,-7.21203 1.20172,-1.9595 7.07087,-8.85055 13.04256,-15.31344 8.25676,-8.93593 12.5759,-12.73973 18.03087,-15.87949 3.94529,-2.27083 8.74825,-5.5923 10.67325,-7.38105 4.64013,-4.31172 6.54916,-5.20976 16.80895,-7.90726 4.78008,-1.25678 11.39594,-3.71409 14.70192,-5.4607 8.53439,-4.50887 15.51679,-6.09313 26.98913,-6.12366 5.90242,-0.0157 11.0244,-0.53549 12.5,-1.26851 1.52028,-0.75522 3.67683,-3.70361 5.50298,-7.52358 1.65164,-3.45492 3.64667,-6.6795 4.43341,-7.16573 0.92849,-0.57383 3.72481,-0.0205 7.96887,1.57701 5.59195,2.1048 7.52128,2.36422 13.32799,1.79204 7.6138,-0.75025 25.90654,0.95178 35.76675,3.32787 3.575,0.86149 8.525,2.7748 11,4.25181 2.475,1.477 6.975,3.50294 10,4.50209 10.76562,3.55586 14.52681,5.61705 18.51051,10.14407 3.44335,3.91298 4.6796,4.6329 8.74193,5.09079 5.7325,0.64613 7.74756,-0.71284 7.74756,-5.22499 0,-3.81389 -1.42299,-5.24658 -6.09531,-6.13688 -6.42031,-1.22338 -8.5622,-2.94588 -9.80616,-7.88609 -0.90273,-3.58507 -1.86942,-4.97852 -4.36433,-6.29106 -1.76261,-0.92728 -4.97872,-3.40036 -7.14689,-5.49573 -4.92479,-4.75943 -6.65451,-5.69024 -10.57416,-5.69024 -1.71509,0 -6.2145,-0.70421 -9.99869,-1.5649 -5.32433,-1.211 -7.89137,-2.45484 -11.35085,-5.5 -3.23598,-2.84842 -5.36412,-3.9351 -7.70646,-3.9351 -1.93582,0 -5.28927,-1.30577 -8.34655,-3.25 -4.75429,-3.02341 -5.70852,-3.24854 -13.68658,-3.22903 -10.58856,0.0259 -13.07039,1.3585 -14.93534,8.01946 -1.54433,5.51582 -5.36917,10.45957 -8.09227,10.45957 -3.05476,0 -5.88836,-5.68181 -5.89267,-11.81574 -0.005,-6.87016 1.05262,-8.67391 6.78217,-11.56869 6.95773,-3.5153 13.98451,-4.62811 30.84636,-4.88505 13.51871,-0.206 15.34713,-0.0333 17.1918,1.62391 1.13531,1.01994 2.20184,2.80867 2.37006,3.97497 0.47356,3.28315 4.46494,4.78184 10.80587,4.05743 7.00482,-0.80027 12,-2.83448 12,-4.88683 0,-1.95465 -5.22035,-4.24444 -12.83813,-5.63116 -6.75657,-1.22994 -7.20861,-1.60469 -9.24214,-7.66181 -1.49896,-4.46483 -1.78195,-4.71893 -5.5,-4.93826 -2.15585,-0.12717 -6.92674,-0.72509 -10.60197,-1.3287 -7.15006,-1.17432 -17.58529,-0.1664 -27.24926,2.63194 -7.41026,2.14575 -9.51772,1.79757 -16.0685,-2.65476 l -6,-4.07798 -7.66257,0.67671 c -5.25982,0.46451 -8.76684,0.2774 -11.18417,-0.59672 -4.29343,-1.55253 -6.65326,-0.13265 -6.65326,4.00318 0,3.65909 -1.71645,5.07756 -6.14424,5.07756 -5.91188,0 -9.05495,3.35684 -9.62944,10.28438 -0.64787,7.81248 0.20985,10.55141 3.53891,11.30067 8.13173,1.8302 10.52191,2.70209 12.31044,4.49062 4.13575,4.13575 -2.51409,9.23688 -11.37384,8.72492 -5.05893,-0.29233 -5.25954,-0.42083 -7.30264,-4.67735 -2.47467,-5.15565 -3.04674,-5.52972 -10.89919,-7.12683 -3.3,-0.67119 -6.9,-1.70584 -8,-2.29921 -1.1,-0.59338 -5.375,-1.86151 -9.5,-2.81807 -4.125,-0.95657 -9.41523,-2.31439 -11.75607,-3.01738 -3.75604,-1.12801 -4.45687,-1.07738 -5.96512,0.43087 -1.61206,1.61206 -1.61171,1.87381 0.006,4.6125 2.49887,4.23026 2.14482,6.37875 -1.93112,11.71853 -2.00544,2.62726 -4.97263,7.61125 -6.59376,11.07552 -1.62113,3.46428 -3.46782,6.63667 -4.10375,7.04976 -0.63594,0.41309 -5.05795,0.75107 -9.82669,0.75107 -10.59528,0 -12.63273,1.2208 -17.59885,10.54493 -3.08548,5.79312 -3.38553,7.04839 -2.92596,12.24082 0.68399,7.72809 2.65064,10.36603 10.32099,13.84393 7.16256,3.24766 9.05057,5.9613 7.31803,10.51821 l -1.00672,2.64789 -12.71853,-0.66005 c -12.58434,-0.65308 -12.78268,-0.62955 -18.79976,2.22984 -6.93409,3.29517 -10.09098,6.73698 -10.99365,11.98588 -0.45358,2.63744 -1.89267,4.77699 -5.19295,7.7205 -5.22229,4.65774 -6.05169,8.79851 -2.54106,12.68619 1.11344,1.23302 3.22443,4.49186 4.6911,7.24186 1.46666,2.75 4.31505,6.125 6.32975,7.5 5.3349,3.64099 7.28805,6.04383 7.28805,8.96606 0,4.08457 -2.64604,6.85354 -9.53361,9.97651 -6.87225,3.11603 -8.36327,5.41951 -7.00748,10.82591 1.71641,6.84444 1.40585,7.53658 -4.43341,9.88078 -3.01098,1.20877 -5.64429,2.70711 -5.8518,3.32965 -0.45117,1.35349 18.09483,19.77898 21.17534,21.03774 2.60386,1.064 7.32487,0.31053 10.44559,-1.66711 l 7e-5,0 z M 385.2965,508.80373 c -2.092,-2.52071 -0.33577,-6.18228 4.16722,-8.68822 3.45685,-1.92377 4.44862,-3.18723 5.74971,-7.32477 1.39586,-4.43894 2.13293,-5.28053 6.56859,-7.5 3.62657,-1.81463 5.4759,-3.52097 6.74569,-6.22412 2.22503,-4.73669 5.11089,-6.60832 10.76267,-6.98014 l 4.49534,-0.29574 -0.20095,4.36706 c -0.23842,5.18152 -2.04773,7.461 -8.53207,10.74927 -3.08176,1.56278 -4.9429,3.23639 -5.3346,4.79708 -0.82784,3.29838 -4.19238,6.23196 -8.92621,7.78289 -2.76775,0.90678 -4.40435,2.21706 -5.3755,4.3037 -2.92539,6.28553 -7.27542,8.44036 -10.11989,5.01299 z m 44.73922,-37.24803 c -5.46492,-0.43091 -6.1735,-2.18556 -2.67742,-6.6301 1.7657,-2.24472 2.8392,-2.63284 7.25,-2.62121 7.36776,0.0194 9.68027,0.82193 9.66211,3.35298 -0.008,1.17335 -0.35508,2.66772 -0.77035,3.32081 -0.86573,1.36151 -5.76688,3.40043 -7.52944,3.13231 -0.65169,-0.0991 -3.3224,-0.34879 -5.9349,-0.55479 z m 49.91667,-27.93163 c -2.75684,-2.75684 1.74179,-7.25547 5.33333,-5.33333 2.47568,1.32495 2.51125,2.22735 0.17126,4.34501 -1.89084,1.71119 -4.34169,2.15122 -5.50459,0.98832 z M 674.02797,609.1968 c 6.79845,-4.43869 9.94992,-8.11693 10.86206,-12.67761 0.46442,-2.32209 -0.0318,-3.65313 -2.36152,-6.33416 -6.20838,-7.14465 -6.44962,-10.89429 -0.7009,-10.89429 5.06911,0 8.36425,1.65492 10.24943,5.14757 3.18514,5.90108 5.00507,7.13548 9.73422,6.60244 7.82351,-0.88182 13.689,-7.36504 10.33613,-11.42469 -0.74892,-0.90679 -3.64279,-2.65928 -6.43082,-3.89442 -2.78804,-1.23515 -6.83804,-3.46034 -9,-4.94486 -3.7001,-2.5407 -4.40047,-2.66489 -11.93085,-2.1157 -4.4,0.32089 -8.53972,0.24386 -9.19938,-0.17118 -2.81641,-1.77202 -5.25666,-9.68847 -5.27866,-17.12457 -0.0194,-6.54901 0.40773,-8.29504 3.61871,-14.79355 4.1681,-8.43558 3.83597,-11.03749 -1.79695,-14.07736 -5.02881,-2.71385 -6.58443,-4.69629 -7.33532,-9.34791 -0.83609,-5.17938 -6.85883,-14.4685 -10.65297,-16.43053 -1.47574,-0.76314 -5.08443,-1.64512 -8.0193,-1.95996 -4.86928,-0.52235 -6.07978,-0.19593 -13.83613,3.73114 -8.05438,4.07796 -8.51368,4.48707 -8.76099,7.80358 -0.42018,5.63477 0.81168,6.66871 6.22145,5.22182 6.65827,-1.78082 8.08523,-1.55044 10.86593,1.75423 2.53853,3.01687 3.01966,4.56311 4.20799,13.52362 0.55519,4.18642 1.359,5.65035 4.94161,9 6.19724,5.79423 6.81851,7.46983 6.06616,16.36079 -0.37406,4.4204 -0.17993,9.95712 0.46069,13.13954 0.60893,3.025 1.48871,12.925 1.95506,22 0.81972,15.95144 2.24911,25.11941 4.33064,27.77622 0.802,1.02366 1.41662,0.97236 3.10567,-0.25919 1.15818,-0.84448 4.9148,-3.36941 8.34804,-5.61097 z m 17.64164,-95.56268 c 4.86533,-4.86533 4.70526,-11.21168 -0.34872,-13.82519 -5.77996,-2.98894 -12.37259,-1.32362 -14.46553,3.65402 -3.78587,9.00394 7.93451,17.05091 14.81425,10.17117 z m -60.49734,-32.2521 c 0.7626,-0.48296 1.6002,-3.10154 1.86132,-5.81909 0.91887,-9.56293 -4.84743,-15.27219 -15.42477,-15.27219 -7.24539,0 -9.89849,1.57133 -8.96085,5.30718 0.49372,1.96715 1.65737,2.91802 4.67876,3.82325 4.10059,1.22857 8.95899,5.19673 8.95899,7.31737 0,1.83412 3.88911,5.55389 5.78896,5.53689 0.94107,-0.008 2.33499,-0.41046 3.09759,-0.89341 z m -27.38655,-27.98229 c 0,-5.30927 -1.93447,-7.0425 -6.19723,-5.55253 -2.18904,0.76513 -2.87245,1.70166 -3.121,4.27692 -0.43438,4.50073 1.32906,6.33632 5.73264,5.96718 3.5241,-0.29541 3.58559,-0.37586 3.58559,-4.69157 z"
           style="fill:#927786"
           sodipodi:nodetypes="csssssssssssscccccsssssssssssssssssssssscccsssssssssssssssssssssssscccssssssssssssssssssccsssssccsssssccsssccssccssccssccsssccsssccssssssccsssccsssssssssccssssssssssssssssssssssssssssssssssssssssssssssscccssssssssssssssssssssscccsssssssssssscccsssscccssssccsssssccssccsssssssssssssssssssssssssssccssccssssssccsssc" />
        <path
           id="path3022"
           d="m 446.28572,827.48108 c 0,-0.57752 2.0385,-2.06811 4.52999,-3.31242 l 4.52999,-2.26239 2.16445,2.16446 c 1.19045,1.19045 1.84249,2.48643 1.44897,2.87994 -1.2143,1.2143 -12.6734,1.69389 -12.6734,0.53041 z m -32,-4.28443 c -1.925,-0.48916 -8.34776,-1.26874 -14.27281,-1.7324 -9.97851,-0.78088 -10.99891,-1.05798 -13.83928,-3.75827 -1.68655,-1.60338 -3.70429,-4.1362 -4.48386,-5.62849 -1.86519,-3.57042 -6.97888,-4.90316 -19.06574,-4.96895 -10.27016,-0.0559 -13.12844,-1.32011 -16.2742,-7.198 -0.82605,-1.5435 -3.19195,-3.26701 -5.90918,-4.30473 -3.90796,-1.49247 -13.07259,-7.70325 -24.89027,-16.86792 -1.77943,-1.37996 -4.3733,-4.91447 -5.76414,-7.85447 -2.91562,-6.1631 -9.80912,-12.85441 -17.39327,-16.88309 -4.42366,-2.34984 -5.62277,-3.62642 -7.59473,-8.08536 -1.53372,-3.46801 -4.03543,-6.71304 -7.25057,-9.40491 -2.69988,-2.26047 -5.63423,-5.82206 -6.52077,-7.91464 -0.88654,-2.09257 -2.78371,-6.51977 -4.21595,-9.83821 -2.48075,-5.74781 -2.53117,-6.20801 -1.06465,-9.71788 0.84668,-2.0264 1.53942,-5.9984 1.53942,-8.82669 0,-4.77072 -0.3252,-5.46294 -4.5,-9.57868 -4.04809,-3.99082 -4.5,-4.90184 -4.5,-9.07168 0,-6.20512 3.68676,-19.55819 6.12155,-22.17163 3.23294,-3.47015 9.5749,-2.40413 11.93524,2.0062 0.87444,1.63392 0.74364,2.45693 -0.63207,3.97708 -0.95408,1.05424 -2.30729,1.91681 -3.00713,1.91681 -2.07275,0 -5.41759,5.04231 -5.41759,8.16698 0,4.23024 2.60838,9.83302 4.57777,9.83302 0.92391,0 3.42317,-1.575 5.55391,-3.5 4.77273,-4.31187 7.22515,-4.40003 10.96711,-0.39424 4.53743,4.85734 3.71691,6.81242 -3.68999,8.79225 -6.94567,1.85654 -9.04648,6.15003 -7.81845,15.97881 0.62564,5.00749 1.288,6.22332 6.30437,11.57236 11.28451,12.03287 13.82624,14.24501 17.12549,14.90486 4.49756,0.89951 6.35646,-1.01251 8.41155,-8.65193 0.91764,-3.41116 3.28254,-9.41336 5.25533,-13.33821 4.85707,-9.66311 4.34694,-11.53494 -4.18709,-15.3639 -8.11081,-3.63907 -9.11488,-6.12744 -4.86574,-12.05864 6.23515,-8.70339 6.27235,-8.16902 -1.27355,-18.29044 -2.95607,-3.96503 -4.36778,-6.86404 -4.38267,-9 -0.0121,-1.73301 -0.91208,-5.11256 -2,-7.51012 -1.93453,-4.26331 -2.5951,-11.3692 -1.35686,-14.596 0.81218,-2.11651 5.58025,-4.5448 8.92392,-4.5448 1.45444,0 5.86428,0.96643 9.79966,2.14763 6.42819,1.9294 7.82526,2.8439 13.74916,9 3.62666,3.7688 6.89942,6.85237 7.27282,6.85237 1.88095,0 16.43089,-6.61119 18.3945,-8.35807 3.44565,-3.06536 4.53042,-8.86915 4.36685,-23.36372 -0.0821,-7.27199 0.27828,-15.14699 0.80075,-17.5 0.52248,-2.35302 1.46669,-9.22821 2.09826,-15.27821 0.63157,-6.05 1.71477,-11.9 2.4071,-13 0.69234,-1.1 2.02146,-4.30958 2.9536,-7.13239 1.9976,-6.04934 3.24474,-7.30457 10.78786,-10.8578 4.73585,-2.23085 7.12667,-4.44004 14.43856,-13.34168 12.43872,-15.14314 19.69778,-21.87925 27.38578,-25.4129 3.575,-1.64318 7.90389,-4.42767 9.61975,-6.18774 3.15049,-3.23166 10.12297,-5.65364 20.24878,-7.03366 2.40269,-0.32745 8.25269,-2.58247 13,-5.01114 9.94612,-5.08833 15.04233,-6.46184 24.13147,-6.50382 11.04873,-0.051 15.15664,-2.06609 19.59428,-9.6116 0.93474,-1.58936 2.68437,-1.91967 12,-2.26543 17.27555,-0.6412 32.15275,-0.30473 42.16184,0.95354 7.92568,0.99636 9.93798,1.65214 14,4.5624 2.60913,1.86933 7.89388,4.32257 11.74388,5.45163 11.08368,3.25045 12.20518,3.84669 14.90273,7.92298 2.0881,3.15533 3.58936,4.15166 8.32247,5.52333 9.3387,2.70638 10.1427,3.19236 11.7853,7.12365 2.7096,6.48499 4.06991,7.38742 10.07231,6.68195 5.16966,-0.60759 5.33332,-0.54757 7.29295,2.67477 1.10253,1.81298 2.30128,5.13403 2.66388,7.38011 0.87199,5.40145 3.46388,11.22876 7.4086,16.65667 3.02729,4.16554 3.18002,4.78166 2.58475,10.42713 -0.43116,4.08912 -0.11912,8.07012 0.9798,12.5 1.79862,7.25044 3.81209,38.32398 3.82301,59 0.007,12.61883 -0.20471,14.12008 -3.2385,23 -1.7851,5.225 -3.54976,10.57719 -3.92147,11.89376 -0.51459,1.82266 -1.79578,2.67708 -5.37003,3.58124 -6.09388,1.54156 -6.92925,2.31683 -10.94036,10.15327 -1.85099,3.61624 -5.64411,9.34175 -8.42916,12.72336 -2.78505,3.3816 -6.24335,8.72646 -7.68511,11.87746 -1.65073,3.60771 -5.10535,8.23626 -9.32967,12.5 -3.90197,3.9384 -7.64528,8.86259 -8.94809,11.77091 -2.85464,6.37255 -4.15968,7.49322 -14.4781,12.43278 -4.67242,2.23675 -10.47859,5.19191 -12.90259,6.56702 -2.42401,1.37511 -5.24639,2.5002 -6.27196,2.5002 -4.6288,0 -15.42452,6.16962 -21.05168,12.03077 -6.84534,7.12998 -9.16934,7.50769 -18.26908,2.96923 -4.44692,-2.21788 -7.42366,-2.99768 -11.5,-3.01258 -4.29776,-0.0157 -7.79518,-1.01635 -16,-4.57773 -12.1386,-5.26887 -17.45018,-5.95561 -21.67962,-2.80296 -4.13692,3.08369 -6.15542,7.17099 -7.20643,14.59244 -0.51383,3.6283 -1.68653,7.74506 -2.606,9.14835 -2.13279,3.25505 -7.41981,5.01212 -12.49925,4.15395 -5.90471,-0.99759 -8.75429,-3.77953 -10.56795,-10.31708 -1.85224,-6.67663 -4.10804,-13.98853 -6.15753,-19.95888 -1.84102,-5.36304 -8.44744,-10.63596 -16.12048,-12.86658 -3.02005,-0.87795 -6.42963,-2.59867 -7.57687,-3.82381 -1.14723,-1.22515 -3.36151,-3.64675 -4.92064,-5.38133 -3.28716,-3.6571 -7.22299,-4.14223 -10.7084,-1.31992 -1.7127,1.38686 -2.37581,3.17335 -2.72044,7.32912 -0.45103,5.43882 -0.41351,5.52867 3.65395,8.75016 2.26031,1.7902 4.10966,3.70171 4.10966,4.2478 0,0.54609 -1.42127,2.41417 -3.15838,4.15128 -3.49982,3.49982 -4.78198,7.59259 -4.81776,15.37875 -0.0254,5.52012 -0.5706,6.25058 -5.43657,7.28357 -3.27975,0.69626 -3.26994,0.65587 -2.07099,8.52545 0.95674,6.27974 -0.81962,7.83875 -9.48977,8.32866 -4.12363,0.233 -7.62608,-0.0282 -8.21019,-0.61232 -1.9485,-1.9485 0.35403,-7.39973 5.28751,-12.51813 2.69288,-2.79382 4.89615,-5.88674 4.89615,-6.87316 0,-3.48508 -5.21695,-7.93697 -10.44562,-8.91379 -4.93747,-0.92242 -8.55438,-3.21038 -8.55438,-5.41126 0,-2.0333 -3.3256,-4.29839 -7.42964,-5.06038 -2.47034,-0.45866 -5.45298,-2.13377 -8.03173,-4.51078 -2.25615,-2.07964 -5.2834,-4.07766 -6.72722,-4.44004 -3.0745,-0.77165 -6.81141,0.92691 -6.81141,3.09604 0,0.83297 -0.68656,2.84213 -1.52568,4.46482 -1.17675,2.27559 -2.21396,2.95034 -4.53518,2.95034 -3.92805,0 -7.43456,-2.36762 -8.95971,-6.04965 -1.63757,-3.95346 -0.21049,-5.55149 5.53603,-6.1992 7.49898,-0.84525 9.39961,-4.04681 5.41196,-9.11629 -3.80006,-4.83099 -9.94661,-3.06996 -12.86352,3.68548 -0.9926,2.29881 -2.76304,5.0369 -3.93431,6.08465 -1.84346,1.64904 -2.12753,2.99261 -2.11428,10 0.008,4.45225 0.34592,8.59787 0.75,9.21248 0.40408,0.6146 3.42115,1.89344 6.70459,2.84186 12.716,3.67299 16.95536,7.54664 18.91231,17.2808 0.61479,3.05802 1.79279,5.8862 2.61779,6.28484 8.3471,4.03336 12.94762,5.38218 17.5,5.13083 2.75,-0.15184 6.55148,-0.36151 8.44774,-0.46594 3.08411,-0.16984 3.51404,0.12655 4.07635,2.81014 1.45367,6.93753 6.25992,11.02893 14.24096,12.12285 3.45971,0.47421 4.77972,1.17999 5.60836,2.99866 0.89372,1.9615 1.83256,2.3802 5.35515,2.38826 2.42239,0.006 6.56301,1.0766 9.56511,2.47423 7.96795,3.70946 14.93254,5.516 21.26539,5.516 6.11621,0 7.61744,0.94363 7.95456,5 0.41029,4.937 0.31638,5.005 -6.76362,4.89764 -3.7125,-0.0563 -8.325,-0.50258 -10.25,-0.99173 z m 43.42287,-67.99118 c 0.56098,-0.52304 0.47135,-1.85148 -0.22856,-3.3876 -1.47875,-3.24552 -5.47221,-3.38984 -7.66841,-0.27713 -1.48345,2.10251 -1.44525,2.36623 0.58267,4.02315 2.12117,1.73311 5.23475,1.58054 7.3143,-0.35842 z m -87.4505,-18.96762 c 11.94679,-7.09746 10.25173,-11.36094 -5.23749,-13.17349 -10.20556,-1.19426 -12.73488,-0.56643 -12.73488,3.16108 0,1.98084 8.74062,14.0653 10.17335,14.0653 0.53735,0 4.0469,-1.8238 7.79902,-4.05289 z m -18.73765,-23.94196 c 5.22842,-5.02393 6.70338,-5.47568 11.42999,-3.50078 6.50099,2.71629 11.41151,3.42812 16.77937,2.43233 12.19004,-2.26136 11.42343,-12.26872 -2.09207,-27.30975 -2.40834,-2.68018 -6.17812,-8.33158 -8.37729,-12.55866 -2.19917,-4.22709 -5.78481,-9.4299 -7.96807,-11.5618 -3.50131,-3.41894 -4.65148,-3.92551 -9.75016,-4.29432 -7.97411,-0.57679 -9.77232,1.04617 -12.2715,11.07564 -1.12759,4.52512 -3.62569,10.62423 -5.96279,14.55817 -2.21221,3.72369 -4.0222,7.47754 -4.0222,8.34187 0,0.86433 2.02039,4.17337 4.48974,7.35341 4.35788,5.61209 4.47138,5.93823 3.86421,11.10424 -0.7759,6.60174 0.44243,8.3545 5.80713,8.3545 3.20758,0 4.66846,-0.72284 8.07364,-3.99485 z m 137.11971,96.3028 c -2.60359,-0.50927 -5.05256,-3.09767 -5.4951,-5.80795 -0.40909,-2.50549 0.51464,-2.80971 6.14067,-2.02229 7.55571,1.05749 11,2.48676 11,4.56466 0,3.29572 -4.72207,4.61985 -11.64557,3.26558 z m 82.64557,-4.70096 c 0,-1.95405 2.77341,-2.79863 5.10045,-1.55323 2.61424,1.3991 1.48025,2.94624 -2.15947,2.94624 -1.84715,0 -2.94098,-0.5181 -2.94098,-1.39301 z m -183.39301,-6.18878 c -0.33385,-0.86998 -0.60699,-3.72524 -0.60699,-6.34501 0,-3.57055 0.52642,-5.23963 2.10238,-6.66585 2.71916,-2.46081 4.45967,-5.96525 5.31914,-10.70991 1.26944,-7.00776 6.16035,-6.21841 14.44948,2.33202 5.45512,5.62708 6.05861,5.97054 10.49066,5.97054 10.73889,0 17.46358,7.22823 11.63339,12.50448 -1.84227,1.66723 -2.56642,1.70851 -8.92486,0.50876 -7.94863,-1.49979 -14.28571,-0.89619 -20.78793,1.98005 -5.58166,2.46904 -12.80475,2.69348 -13.67527,0.42492 z m 206.05968,0.91512 c -1.02356,-1.02356 -0.79079,-9.2329 0.32068,-11.30969 0.54304,-1.01469 2.56804,-2.82181 4.5,-4.01582 4.81398,-2.9752 4.67044,-5.92278 -0.48735,-10.00782 -4.38965,-3.47667 -5.33236,-7.52478 -2.42857,-10.42857 2.40297,-2.40297 4.08396,-1.91123 7.13594,2.08747 1.53595,2.0124 4.42592,5.4999 6.42216,7.75 4.12344,4.64782 5.80172,10.97219 3.66508,13.81142 -0.71203,0.94618 -4.4327,4.20868 -8.26814,7.25 -6.56007,5.20184 -9.29589,6.42693 -10.8598,4.86301 z m -143.09524,-4.90476 c -2.01737,-2.01736 -1.97783,-2.75081 0.25731,-4.77358 3.57517,-3.23548 10.17126,-1.60785 10.17126,2.50983 0,3.57921 -7.48773,5.20459 -10.42857,2.26375 z m 182.42857,-16.42857 c 0,-1.64634 0.51831,-2.06549 2.25,-1.81955 1.2375,0.17575 2.25,0.99455 2.25,1.81955 0,0.825 -1.0125,1.6438 -2.25,1.81955 -1.73169,0.24594 -2.25,-0.17321 -2.25,-1.81955 z M 343.3583,770.65588 c -2.76223,-3.5116 -2.76104,-8.92632 0.002,-10.40521 4.8018,-2.56984 12.92514,1.28138 12.92514,6.12772 0,3.27609 -3.9454,6.91235 -7.5,6.91235 -2.43322,0 -3.92421,-0.72383 -5.42742,-2.63486 z m 208.92742,-3.86514 c -1.01247,-1.21995 -0.96484,-1.5 0.25511,-1.5 0.825,0 2.0602,0.675 2.74489,1.5 1.01247,1.21995 0.96484,1.5 -0.25511,1.5 -0.825,0 -2.0602,-0.675 -2.74489,-1.5 z m -138.50437,-9.50706 c -0.34231,-0.55389 0.10054,-1.28448 0.98412,-1.62354 1.91464,-0.73472 2.98171,0.0749 2.06137,1.56407 -0.83038,1.34358 -2.23491,1.37101 -3.04549,0.0595 z m 271.95447,-21.42875 c -1.32542,-2.02284 -1.46733,-2.94696 -0.58764,-3.82665 0.87968,-0.87968 1.69278,-0.62675 3.36691,1.04738 2.03428,2.03429 2.0803,2.33398 0.58764,3.82664 -1.49267,1.49267 -1.75635,1.41065 -3.36691,-1.04737 z m 22.5499,-24.93707 c 0,-1.90648 4.41756,-9.64924 5.32291,-9.3296 1.50234,0.53042 1.26013,6.29503 -0.3458,8.23006 -1.05898,1.27599 -4.97711,2.14158 -4.97711,1.09954 z m -23.02761,-9.16038 c -1.70509,-2.05452 -0.40448,-4.41917 3.47782,-6.32305 2.40685,-1.18032 2.97757,-1.14448 4.39825,0.27619 1.47532,1.47533 1.48596,1.89479 0.11048,4.35632 -1.79813,3.21792 -5.98365,4.10388 -7.98655,1.69054 z m 8.95275,-13.7438 c -1.96618,-1.77262 -5.00368,-3.98951 -6.75,-4.92643 -5.734,-3.07634 -3.15989,-9.79651 3.75247,-9.79651 4.06594,0 9.66694,2.58305 11.607,5.35287 2.29734,3.27992 1.89075,9.23579 -0.75712,11.09043 -3.04456,2.13249 -3.75031,1.97787 -7.85235,-1.72036 z m 24.74093,-18.30388 c -2.36744,-1.60872 -4.52372,-4.25407 -5.69513,-6.98686 -1.40561,-3.27915 -3.17496,-5.19153 -6.95544,-7.51768 -5.12439,-3.15307 -7.51354,-6.34831 -8.16101,-10.91452 -0.32021,-2.25826 0.0231,-2.5309 3.55019,-2.81959 5.21918,-0.42717 7.86819,0.33687 11.3627,3.2773 1.60683,1.35207 4.90402,3.49643 7.32707,4.76525 l 4.40555,2.30695 0,9.90171 c 0,5.79044 -0.42019,10.04178 -1.01199,10.23904 -0.55659,0.18553 -2.72646,-0.82769 -4.82194,-2.2516 z M 267.99457,639.66626 c -1.20513,-1.20514 -0.78371,-4.0685 0.79115,-5.37552 2.0055,-1.66442 4.71615,0.48764 4.29826,3.41249 -0.29573,2.06979 -3.67806,3.37438 -5.08941,1.96303 z m 419.45289,-4.12552 c -2.00105,-2.0625 -5.84746,-5.10468 -8.54758,-6.76041 -5.89767,-3.61647 -7.11986,-5.33858 -6.24961,-8.80595 0.81553,-3.24931 3.1512,-4.54692 10.26976,-5.7055 4.92406,-0.80141 6.30349,-1.62055 12.37647,-7.3495 7.70545,-7.26893 19.07298,-14.45286 24.12089,-15.24366 4.9893,-0.78161 6.69052,1.12344 8.97834,10.0541 l 2.0247,7.90353 -2.07533,2.57869 c -1.14144,1.41829 -3.15234,4.89678 -4.46868,7.72999 -2.43403,5.23889 -4.95714,7.00196 -8.43894,5.89688 -2.15271,-0.68325 -4.15176,-4.58106 -4.15176,-8.09522 0,-2.09796 0.47034,-2.45493 3.25,-2.4666 5.61859,-0.0236 7.88669,-1.02716 7.55247,-3.34167 -0.35812,-2.48002 -4.1647,-4.62422 -6.92694,-3.90188 -1.07559,0.28127 -2.59295,1.74386 -3.37191,3.2502 -1.23342,2.38518 -2.21043,2.82863 -7.5672,3.43468 -4.63734,0.52466 -6.76558,1.31057 -8.64883,3.19382 -2.64173,2.64173 -2.6426,2.51573 0.083,12.0573 0.81365,2.84834 1.23564,6.11084 0.93774,7.25 -0.88031,3.36632 -4.9823,2.61343 -9.14663,-1.6788 z M 294.27383,610.77642 c -1.96201,-2.36409 -0.8263,-68.67398 1.25862,-73.48568 0.83411,-1.925 4.53861,-6.58412 8.23222,-10.35361 6.33724,-6.4674 6.68301,-7.05908 6.13601,-10.5 -0.31881,-2.00551 -0.87115,-6.42079 -1.22742,-9.81173 -0.69857,-6.64885 -0.0619,-7.80515 6.92965,-12.58519 1.92443,-1.3157 2.71284,-2.93027 3.17402,-6.5 1.1142,-8.62438 2.69378,-10.85017 9.16261,-12.91106 6.55094,-2.08705 7.08254,-3.02275 7.2465,-12.75508 l 0.0997,-5.91666 6.75,-6.34817 c 3.7125,-3.49149 10.8,-10.22718 15.75,-14.96819 13.75141,-13.17082 20.4838,-17.95784 26.35004,-18.73603 6.09523,-0.80856 9.49846,-3.3951 12.64996,-9.61428 1.33854,-2.64148 3.68613,-5.80139 5.21686,-7.02202 2.73664,-2.18224 3.11956,-2.20795 22.91706,-1.53894 l 20.13392,0.68039 4.41205,-5.80972 4.41205,-5.80971 9.95403,-0.6873 c 5.47472,-0.37802 13.24595,-1.39052 17.26941,-2.25 9.36417,-2.00036 13.68042,-1.97361 17.20196,0.10662 3.81497,2.25356 5.36733,5.45111 4.61177,9.49932 -0.34197,1.83225 -0.91716,5.08968 -1.27821,7.23875 l -0.65646,3.90738 5.27926,-0.62525 c 5.81198,-0.68834 10.0263,-2.9002 10.0263,-5.26223 0,-0.83964 -0.71778,-2.91465 -1.59507,-4.61113 -1.49341,-2.88794 -1.47182,-3.24961 0.33879,-5.67471 1.06362,-1.42461 4.47365,-3.57396 7.57784,-4.77635 3.19296,-1.23677 7.11413,-3.74497 9.02929,-5.77563 3.58476,-3.80096 5.45401,-4.25066 10.44152,-2.512 6.09469,2.12461 5.76281,2.70444 -11.79469,20.60639 -5.04508,5.14406 -5.0791,5.22167 -4.43084,10.10851 0.56172,4.23445 0.3537,5.20375 -1.48428,6.91609 -2.6587,2.47695 -8.53298,4.29154 -13.89282,4.29154 -5.0272,0 -8.63893,-2.89512 -10.51068,-8.42525 -1.08526,-3.20642 -2.04739,-4.17406 -5.25381,-5.28393 -2.15889,-0.74728 -5.58897,-2.69552 -7.62241,-4.32942 -2.03344,-1.6339 -4.87524,-3.41863 -6.3151,-3.96606 -6.08312,-2.3128 -19.37814,0.0161 -23.01152,4.03094 -1.59969,1.76764 -1.69009,2.49337 -0.664,5.33096 2.10629,5.82486 1.52897,7.64106 -4.06222,12.77939 l -5.25,4.82476 -0.53037,10.12212 c -0.4471,8.53297 -0.83959,10.35268 -2.5,11.59065 -2.70576,2.01738 -7.83412,1.05416 -12.69299,-2.38404 -2.16866,-1.53456 -6.04552,-4.14012 -8.61525,-5.79012 -2.56973,-1.65 -6.85768,-4.67656 -9.52878,-6.72569 -5.07454,-3.89293 -9.9712,-5.4364 -13.59658,-4.28574 -1.17582,0.37318 -5.26494,3.68406 -9.08694,7.35749 -7.71694,7.41696 -8.28307,9.19465 -4.92405,15.46184 2.73506,5.10303 3.42629,11.31713 1.80115,16.1921 -1.60884,4.82606 -5.09038,6.3582 -14.64193,6.44356 -7.68174,0.0687 -9.5926,-0.86348 -12.18426,-5.94356 -1.10359,-2.16322 -2.87548,-4.39817 -3.93752,-4.96656 -2.47556,-1.32488 -9.63124,-1.3346 -12.09426,-0.0164 -2.07848,1.11236 -3.64783,6.00547 -4.14737,12.93117 l -0.32085,4.44817 4.43482,1.29185 c 5.46878,1.59304 6.22211,2.69508 5.46078,7.98853 -0.57184,3.97596 1.15147,14.18315 4.05475,24.01636 0.68091,2.30621 0.97064,4.57931 0.64384,5.05134 -0.32681,0.47204 -2.84419,1.68816 -5.59419,2.7025 -2.75,1.01434 -7.0495,2.86672 -9.55445,4.11641 -2.50495,1.24969 -7.1854,2.9592 -10.401,3.79891 -4.098,1.07014 -6.95419,2.60833 -9.55012,5.14319 -2.03697,1.98905 -5.90088,5.05422 -8.58646,6.8115 -2.68559,1.75727 -5.04364,4.02974 -5.24011,5.04993 -0.21204,1.10106 1.06162,3.33383 3.134,5.49401 1.92018,2.00152 4.63205,5.88912 6.02638,8.63912 3.07727,6.06919 12.9162,16.66605 19.41074,20.90602 8.62258,5.62928 6.48767,10.90334 -4.93683,12.19587 -4.92799,0.55754 -6.49495,1.26653 -10.06918,4.55593 -2.32814,2.1426 -6.50409,5.18588 -9.2799,6.76285 -2.89488,1.64461 -6.20559,4.61807 -7.76419,6.97327 -2.9152,4.40517 -6.34729,5.4275 -8.70077,2.59174 z m 18.01189,-27.92666 c 0,-1.34254 -0.48921,-2.74333 -1.08713,-3.11287 -1.67419,-1.0347 -3.18979,1.10601 -2.44482,3.45319 0.93132,2.93431 3.53195,2.68373 3.53195,-0.34032 z m 26.8,-74.75902 c 1.92902,-1.92902 1.39,-5.63084 -1.05,-7.21109 -3.23293,-2.09379 -14.32892,-3.18326 -16.24287,-1.59483 -1.99456,1.65534 -1.91791,5.89453 0.14786,8.17718 1.30916,1.4466 3.14802,1.82874 8.8,1.82874 4.2239,0 7.63561,-0.4906 8.34501,-1.2 z m 102.2,-96.74098 c 0,-1.47974 -1.4621,-2.01245 -3.82646,-1.39415 -3.1832,0.83242 -2.65136,2.33513 0.82646,2.33513 1.65,0 3,-0.42344 3,-0.94098 z m 271.0044,149.69098 c -1.6842,-6.67281 -2.792,-8.6961 -5.41593,-9.89164 -3.96627,-1.80716 -7.05019,-0.37845 -9.12771,4.22866 -2.58361,5.72943 -5.29505,7.27945 -11.66346,6.66753 -5.88468,-0.56545 -8.7973,-3.14243 -8.7973,-7.78355 0,-5.49754 0.64804,-5.971 8.17273,-5.971 8.05515,0 10.82727,-1.1298 10.82727,-4.41274 0,-3.65922 2.35658,-4.94367 7.76394,-4.23172 3.21185,0.42288 5.31492,1.35105 6.53469,2.88401 0.98925,1.24325 3.55924,4.48101 5.71109,7.19503 4.4431,5.60385 5.52267,9.03492 4.05633,12.8917 -0.7887,2.07445 -1.68586,2.67372 -4.00276,2.67372 -2.67825,0 -3.09682,-0.43828 -4.05889,-4.25 z m -24.4813,-25.72448 c -1.54977,-1.71247 -1.61949,-2.37861 -0.52537,-5.02003 0.69383,-1.67505 2.5658,-3.81602 4.15994,-4.7577 1.8536,-1.09495 4.17776,-4.30131 6.44738,-8.89467 1.95193,-3.95038 4.4143,-7.96565 5.47195,-8.92281 1.82745,-1.65382 2.01885,-1.65354 3.8522,0.006 4.31152,3.90187 6.60882,13.10483 3.8208,15.30612 -0.6875,0.54282 -3.94,1.25098 -7.22777,1.5737 -7.03167,0.69021 -8.52223,2.15508 -8.52223,8.37538 0,4.0688 -0.15851,4.30887 -2.84501,4.30887 -1.56476,0 -3.64911,-0.88852 -4.63189,-1.97448 z m -413.5231,-39.52552 c 0,-1.49071 0.4306,-2.35191 1,-2 0.55,0.33992 1,1.23992 1,2 0,0.76008 -0.45,1.66008 -1,2 -0.5694,0.35191 -1,-0.50929 -1,-2 z m 418.14982,-3.13708 c -5.07729,-1.47736 -9.83091,-3.61963 -12.12797,-5.4656 l -3.77778,-3.03591 -9.87203,0.7721 c -5.42962,0.42466 -10.43454,0.73709 -11.12204,0.6943 -0.6875,-0.0428 -2.08864,-0.13406 -3.11364,-0.20281 -1.025,-0.0687 -3.05,-1.31136 -4.5,-2.76136 -3.52259,-3.52259 -3.40295,-7.67862 0.38184,-13.26412 3.54559,-5.2325 3.62645,-6.38794 0.88142,-12.59355 -1.70428,-3.85281 -2.03207,-6.25258 -1.73814,-12.72508 0.31453,-6.92605 0.67166,-8.22736 2.71117,-9.87885 3.2987,-2.67112 6.57324,-2.36894 10.28701,0.94931 2.772,2.47678 3.24816,3.63857 3.62468,8.844 0.42938,5.93607 0.38996,6.04164 -4.17543,11.18203 -4.96291,5.58796 -5.73915,8.7898 -2.78017,11.46763 2.13634,1.93336 6.72116,2.19228 7.8037,0.4407 0.41276,-0.66786 1.25359,-3.44821 1.86852,-6.17855 1.31709,-5.84805 3.20328,-7.43871 7.19627,-6.06876 2.06687,0.70912 3.59046,2.59131 5.80277,7.16855 1.80429,3.73305 5.19213,8.32084 8.5,11.51066 4.4091,4.25174 14,18.83173 14,21.28265 0,0.69586 -0.44527,0.59924 -9.85018,-2.13734 z m 32.27019,-5.93762 c -0.85451,-4.55492 0.99657,-6.8982 3.14731,-3.98417 2.19544,2.97459 1.87886,7.55887 -0.52201,7.55887 -1.44997,0 -2.12784,-0.92301 -2.6253,-3.5747 z M 609.03572,482.2344 c -1.127,-0.67172 -1.75,-2.27136 -1.75,-4.49335 0,-3.27219 0.1795,-3.45031 3.47695,-3.45031 6.56487,0 8.80763,8.09566 2.42219,8.74335 -1.31953,0.13384 -3.18664,-0.22602 -4.14914,-0.79969 z M 307.09249,466.57776 c -0.86361,-0.98286 -1.86586,-2.75888 -2.22722,-3.94671 -1.0426,-3.42721 -3.15095,-4.53561 -8.54797,-4.4938 -6.46011,0.05 -6.47326,-1.2243 -0.0744,-7.20967 6.6583,-6.22806 7.86638,-6.08009 8.24294,1.00965 0.3044,5.7312 0.40525,5.8777 5.73307,8.32804 2.5343,1.16556 3.67192,3.84235 2.45453,5.77547 -1.53418,2.43617 -3.72681,2.64715 -5.58093,0.53702 z m 401.74993,-9.50953 c -2.23135,-3.18571 -1.92474,-4.77749 0.92025,-4.77749 2.66579,0 6.17411,4.13755 5.05023,5.95602 -1.10417,1.78658 -4.34118,1.14762 -5.97048,-1.17853 z M 572.2979,455.9843 c -6.75866,-2.31287 -3.97714,-6.0513 5.46531,-7.34553 2.42704,-0.33266 5.13703,-0.0895 6.37265,0.57177 2.35969,1.26287 2.8701,4.95996 0.94986,6.8802 -1.51301,1.51301 -8.21857,1.45719 -12.78782,-0.10644 z M 311.98027,443.04074 c -1.40556,-1.04102 -1.51824,-1.85884 -0.67401,-4.89176 0.55753,-2.00297 1.73257,-4.23838 2.61119,-4.96757 1.3619,-1.13027 1.87556,-0.98241 3.48289,1.00255 4.70295,5.8079 0.26181,13.06505 -5.42007,8.85678 z m 21.06931,-12.5 c -1.43489,-1.6241 -3.51679,-10.25 -2.47388,-10.25 0.25617,0 2.11104,0.68744 4.12193,1.52764 4.81987,2.01387 6.5996,5.69718 4.09177,8.4683 -2.23002,2.46414 -3.72862,2.53048 -5.73982,0.25406 z m 355.43614,0.55 c -0.66,-0.66 -1.2,-1.56 -1.2,-2 0,-1.19165 2.77866,-0.96715 3.55385,0.28713 1.02966,1.66603 -0.95586,3.11086 -2.35385,1.71287 z m -79.7,-0.71022 c -5.47466,-0.90317 -6.5,-1.72454 -6.5,-5.20701 0,-2.15653 1.19494,-4.2639 4.25303,-7.50056 l 4.25304,-4.50137 4.99696,1.15203 c 2.74834,0.63362 8.25947,1.12785 12.24697,1.09829 6.35129,-0.0471 7.25,0.17076 7.25,1.7575 0,2.25318 -4.86515,9.07351 -8.52722,11.95409 -2.87832,2.26409 -9.16408,2.70022 -17.97278,1.24703 z m -29.6976,-1.03884 c -4.06445,-0.79041 -6.8024,-2.61609 -6.8024,-4.53588 0,-0.68203 1.35,-2.9388 3,-5.01506 4.76456,-5.99542 4.17824,-7.32991 -5.89549,-13.41846 -6.90674,-4.17443 -7.64136,-10.15433 -1.99056,-16.20352 2.37249,-2.53976 3.3822,-2.97168 5.63806,-2.41179 3.16916,0.78656 6.71081,3.83271 9.0514,7.78505 2.36269,3.98965 4.7362,4.33977 9.06825,1.33766 4.58536,-3.17766 8.14263,-3.27091 13.34022,-0.3497 4.09041,2.29894 6.78812,6.13484 6.78812,9.65208 0,2.85791 -1.73297,3.60868 -8.3298,3.60868 -7.48007,0 -8.6702,1.44626 -8.6702,10.53614 0,9.69201 -2.89247,11.40775 -15.1976,9.0148 z m 95.1976,-10.05094 c -2.11492,-2.11492 -2.68822,-6.45663 -0.99105,-7.50553 1.86626,-1.15342 4.7665,0.54919 5.99738,3.52082 2.25274,5.4386 -0.97966,8.01138 -5.00633,3.98471 z M 353.23716,397.20001 c -1.61381,-3.01545 0.48612,-7.42546 4.39082,-9.22102 5.32785,-2.44999 10.66645,-3.89888 12.19898,-3.3108 2.25985,0.86719 1.72526,5.15239 -1.05497,8.4565 -2.24237,2.66491 -9.69727,6.16605 -13.12923,6.16605 -0.70767,0 -1.79019,-0.94083 -2.4056,-2.09073 z m 286.3773,-4.36703 c -3.63805,-1.58253 -6.0616,-5.20938 -4.51471,-6.75627 0.60406,-0.60406 3.07775,-0.71346 6.25415,-0.27659 6.25165,0.85982 10.94256,4.56782 8.8969,7.03269 -1.50846,1.81759 -6.45813,1.81766 -10.63634,1.7e-4 z m -261.49411,-9.25033 c -3.23221,-0.49528 -4.05205,-2.23529 -2.49827,-5.30225 1.83574,-3.6235 5.71079,-5.86533 11.66364,-6.74775 7.48855,-1.11006 9,-0.67193 9,2.60891 0,7.23736 -7.41091,11.08904 -18.16537,9.44109 z m 240.41606,-2.78249 c -1.78712,-0.77676 -3.79432,-2.60844 -4.46043,-4.0704 -1.047,-2.29791 -0.95343,-2.84654 0.69044,-4.04857 2.60452,-1.90447 5.15308,-1.74615 10.04978,0.62431 3.68459,1.78367 6.46952,5.24134 6.46952,8.03229 0,1.44622 -9.06444,1.06398 -12.74931,-0.53763 z M 400.60767,368.21269 c -2.45998,-2.45998 1.22345,-6.92195 5.71419,-6.92195 3.13166,0 6.28414,3.08904 5.79215,5.6756 -0.27119,1.4257 -1.43901,1.88861 -5.34385,2.1182 -2.86276,0.16833 -5.49467,-0.20403 -6.16249,-0.87185 z m 202.17805,-0.92195 c -0.33992,-0.55 0.30852,-1 1.44098,-1 1.13246,0 2.05902,0.45 2.05902,1 0,0.55 -0.64844,1 -1.44098,1 -0.79254,0 -1.7191,-0.45 -2.05902,-1 z m -17.24384,-0.9748 c -3.40154,-0.80752 -6.25616,-2.68399 -6.25616,-4.11246 0,-2.23902 3.88872,-2.79478 9.1159,-1.30281 12.80354,3.65446 10.23236,8.5233 -2.85974,5.41527 z m -146.03365,-10.5819 c -2.81635,-1.97265 -2.85514,-5.03436 -0.0826,-6.51819 3.16342,-1.69301 13.34475,-0.70144 15.8226,1.54098 2.71452,2.45661 2.57852,3.20276 -0.91287,5.00823 -3.83879,1.98512 -11.97301,1.9681 -14.82715,-0.031 z m 89.52654,-1.42605 c -3.28037,-2.58035 -3.57992,-6.18638 -0.74905,-9.01725 2.35257,-2.35257 4.41656,-2.43182 12.5,-0.48 3.3,0.79682 8.7,1.46567 12,1.48634 10.23395,0.0641 18.50475,5.25433 13.91248,8.73059 -1.51601,1.14759 -3.77825,1.30193 -10.91248,0.7445 -11.30458,-0.88328 -9.8711,-0.88097 -17.50095,-0.0283 -5.78331,0.64632 -6.80441,0.48781 -9.25,-1.43589 z m -27.99905,-2.17953 c -5.6552,-2.06546 -1.739,-7.83772 5.31752,-7.83772 3.54653,0 6.93248,2.33075 6.93248,4.77204 0,1.7468 -4.18338,4.23613 -6.97251,4.14901 -1.39012,-0.0434 -3.76499,-0.53092 -5.27749,-1.08333 z"
           style="fill:#b54d58" />
        <path
           id="path3020"
           d="m 446.28572,827.48108 c 0,-0.57752 2.0385,-2.06811 4.52999,-3.31242 l 4.52999,-2.26239 2.16445,2.16446 c 1.19045,1.19045 1.84249,2.48643 1.44897,2.87994 -1.2143,1.2143 -12.6734,1.69389 -12.6734,0.53041 z m -32,-4.28443 c -1.925,-0.48916 -8.34776,-1.26874 -14.27281,-1.7324 -9.97851,-0.78088 -10.99891,-1.05798 -13.83928,-3.75827 -1.68655,-1.60338 -3.70429,-4.1362 -4.48386,-5.62849 -1.86519,-3.57042 -6.97888,-4.90316 -19.06574,-4.96895 -10.27016,-0.0559 -13.12844,-1.32011 -16.2742,-7.198 -0.82605,-1.5435 -3.19195,-3.26701 -5.90918,-4.30473 -3.90796,-1.49247 -13.07259,-7.70325 -24.89027,-16.86792 -1.77943,-1.37996 -4.3733,-4.91447 -5.76414,-7.85447 -2.91562,-6.1631 -9.80912,-12.85441 -17.39327,-16.88309 -4.42366,-2.34984 -5.62277,-3.62642 -7.59473,-8.08536 -1.53372,-3.46801 -4.03543,-6.71304 -7.25057,-9.40491 -2.69988,-2.26047 -5.63423,-5.82206 -6.52077,-7.91464 -0.88654,-2.09257 -2.78371,-6.51977 -4.21595,-9.83821 -2.48075,-5.74781 -2.53117,-6.20801 -1.06465,-9.71788 0.84668,-2.0264 1.53942,-5.9984 1.53942,-8.82669 0,-4.77072 -0.3252,-5.46294 -4.5,-9.57868 -4.04809,-3.99082 -4.5,-4.90184 -4.5,-9.07168 0,-6.20512 3.68676,-19.55819 6.12155,-22.17163 3.23294,-3.47015 9.5749,-2.40413 11.93524,2.0062 0.87444,1.63392 0.74364,2.45693 -0.63207,3.97708 -0.95408,1.05424 -2.30729,1.91681 -3.00713,1.91681 -2.07275,0 -5.41759,5.04231 -5.41759,8.16698 0,4.23024 2.60838,9.83302 4.57777,9.83302 0.92391,0 3.42317,-1.575 5.55391,-3.5 4.77273,-4.31187 7.22515,-4.40003 10.96711,-0.39424 4.53743,4.85734 3.71691,6.81242 -3.68999,8.79225 -6.94567,1.85654 -9.04648,6.15003 -7.81845,15.97881 0.62564,5.00749 1.288,6.22332 6.30437,11.57236 11.28451,12.03287 13.82624,14.24501 17.12549,14.90486 4.49756,0.89951 6.35646,-1.01251 8.41155,-8.65193 0.91764,-3.41116 3.28254,-9.41336 5.25533,-13.33821 4.85707,-9.66311 4.34694,-11.53494 -4.18709,-15.3639 -8.11081,-3.63907 -9.11488,-6.12744 -4.86574,-12.05864 6.23515,-8.70339 6.27235,-8.16902 -1.27355,-18.29044 -2.95607,-3.96503 -4.36778,-6.86404 -4.38267,-9 -0.0121,-1.73301 -0.91208,-5.11256 -2,-7.51012 -1.93453,-4.26331 -2.5951,-11.3692 -1.35686,-14.596 0.81218,-2.11651 5.58025,-4.5448 8.92392,-4.5448 1.45444,0 5.86428,0.96643 9.79966,2.14763 6.42819,1.9294 7.82526,2.8439 13.74916,9 3.62666,3.7688 6.89942,6.85237 7.27282,6.85237 1.88095,0 16.43089,-6.61119 18.3945,-8.35807 3.44565,-3.06536 4.53042,-8.86915 4.36685,-23.36372 -0.0821,-7.27199 0.27828,-15.14699 0.80075,-17.5 0.52248,-2.35302 1.46669,-9.22821 2.09826,-15.27821 0.63157,-6.05 1.71477,-11.9 2.4071,-13 0.69234,-1.1 2.02146,-4.30958 2.9536,-7.13239 1.9976,-6.04934 3.24474,-7.30457 10.78786,-10.8578 4.73585,-2.23085 7.12667,-4.44004 14.43856,-13.34168 12.43872,-15.14314 19.69778,-21.87925 27.38578,-25.4129 3.575,-1.64318 7.90389,-4.42767 9.61975,-6.18774 3.15553,-3.23683 10.11546,-5.65093 20.30353,-7.04241 2.4328,-0.33227 7.8328,-2.36573 12,-4.51879 11.03889,-5.70346 12.46002,-6.10252 24.80811,-6.96626 12.45839,-0.87145 15.11368,-1.96825 18.44851,-7.62037 2.97451,-5.04142 5.56741,-5.23661 14.3237,-1.07826 l 7.4964,3.56002 0,4.06444 c 0,2.66811 1.03064,5.89064 3,9.38015 3.38981,6.0064 3.72473,9.80225 1.38159,15.65833 -1.681,4.20122 -1.6598,5.31231 0.47688,24.99566 1.64558,15.15926 3.39959,56.46853 2.66604,62.78884 -0.52117,4.49044 -0.11648,7.99745 1.81681,15.74424 1.98271,7.94483 2.61238,13.61877 3.10365,27.96692 0.33896,9.9 1.03539,25.2 1.54762,34 0.51223,8.8 0.94844,22.12608 0.96936,29.61351 0.0381,13.62113 0.74257,19.4014 3.4059,27.9446 1.38379,4.43879 1.32924,4.77909 -2.08381,13 -1.92764,4.64304 -3.83801,9.11689 -4.24527,9.94189 -1.33171,2.6977 -6.71918,2.32228 -13.40328,-0.93399 -4.63285,-2.25698 -7.72399,-3.07032 -11.71452,-3.08235 -4.2091,-0.0127 -7.76827,-1.03521 -15.92097,-4.57397 -12.1386,-5.26887 -17.45018,-5.95561 -21.67962,-2.80296 -4.13692,3.08369 -6.15542,7.17099 -7.20643,14.59244 -0.51383,3.6283 -1.68653,7.74506 -2.606,9.14835 -2.13279,3.25505 -7.41981,5.01212 -12.49925,4.15395 -5.90471,-0.99759 -8.75429,-3.77953 -10.56795,-10.31708 -1.85224,-6.67663 -4.10804,-13.98853 -6.15753,-19.95888 -1.84102,-5.36304 -8.44744,-10.63596 -16.12048,-12.86658 -3.02005,-0.87795 -6.42963,-2.59867 -7.57687,-3.82381 -1.14723,-1.22515 -3.36151,-3.64675 -4.92064,-5.38133 -3.28716,-3.6571 -7.22299,-4.14223 -10.7084,-1.31992 -1.7127,1.38686 -2.37581,3.17335 -2.72044,7.32912 -0.45103,5.43882 -0.41351,5.52867 3.65395,8.75016 2.26031,1.7902 4.10966,3.70171 4.10966,4.2478 0,0.54609 -1.42127,2.41417 -3.15838,4.15128 -3.49982,3.49982 -4.78198,7.59259 -4.81776,15.37875 -0.0254,5.52012 -0.5706,6.25058 -5.43657,7.28357 -3.27975,0.69626 -3.26994,0.65587 -2.07099,8.52545 0.95674,6.27974 -0.81962,7.83875 -9.48977,8.32866 -4.12363,0.233 -7.62608,-0.0282 -8.21019,-0.61232 -1.9485,-1.9485 0.35403,-7.39973 5.28751,-12.51813 2.69288,-2.79382 4.89615,-5.88674 4.89615,-6.87316 0,-3.48508 -5.21695,-7.93697 -10.44562,-8.91379 -4.93747,-0.92242 -8.55438,-3.21038 -8.55438,-5.41126 0,-2.0333 -3.3256,-4.29839 -7.42964,-5.06038 -2.47034,-0.45866 -5.45298,-2.13377 -8.03173,-4.51078 -2.25615,-2.07964 -5.2834,-4.07766 -6.72722,-4.44004 -3.0745,-0.77165 -6.81141,0.92691 -6.81141,3.09604 0,0.83297 -0.68656,2.84213 -1.52568,4.46482 -1.17675,2.27559 -2.21396,2.95034 -4.53518,2.95034 -3.92805,0 -7.43456,-2.36762 -8.95971,-6.04965 -1.63757,-3.95346 -0.21049,-5.55149 5.53603,-6.1992 7.49898,-0.84525 9.39961,-4.04681 5.41196,-9.11629 -3.80006,-4.83099 -9.94661,-3.06996 -12.86352,3.68548 -0.9926,2.29881 -2.76304,5.0369 -3.93431,6.08465 -1.84346,1.64904 -2.12753,2.99261 -2.11428,10 0.008,4.45225 0.34592,8.59787 0.75,9.21248 0.40408,0.6146 3.42115,1.89344 6.70459,2.84186 12.716,3.67299 16.95536,7.54664 18.91231,17.2808 0.61479,3.05802 1.79279,5.8862 2.61779,6.28484 8.3471,4.03336 12.94762,5.38218 17.5,5.13083 2.75,-0.15184 6.55148,-0.36151 8.44774,-0.46594 3.08411,-0.16984 3.51404,0.12655 4.07635,2.81014 1.45367,6.93753 6.25992,11.02893 14.24096,12.12285 3.45971,0.47421 4.77972,1.17999 5.60836,2.99866 0.89372,1.9615 1.83256,2.3802 5.35515,2.38826 2.42239,0.006 6.56301,1.0766 9.56511,2.47423 7.96795,3.70946 14.93254,5.516 21.26539,5.516 6.11621,0 7.61744,0.94363 7.95456,5 0.41029,4.937 0.31638,5.005 -6.76362,4.89764 -3.7125,-0.0563 -8.325,-0.50258 -10.25,-0.99173 z m 43.42287,-67.99118 c 0.56098,-0.52304 0.47135,-1.85148 -0.22856,-3.3876 -1.47875,-3.24552 -5.47221,-3.38984 -7.66841,-0.27713 -1.48345,2.10251 -1.44525,2.36623 0.58267,4.02315 2.12117,1.73311 5.23475,1.58054 7.3143,-0.35842 z m -87.4505,-18.96762 c 11.94679,-7.09746 10.25173,-11.36094 -5.23749,-13.17349 -10.20556,-1.19426 -12.73488,-0.56643 -12.73488,3.16108 0,1.98084 8.74062,14.0653 10.17335,14.0653 0.53735,0 4.0469,-1.8238 7.79902,-4.05289 z m -18.73765,-23.94196 c 5.22842,-5.02393 6.70338,-5.47568 11.42999,-3.50078 6.50099,2.71629 11.41151,3.42812 16.77937,2.43233 12.19004,-2.26136 11.42343,-12.26872 -2.09207,-27.30975 -2.40834,-2.68018 -6.17812,-8.33158 -8.37729,-12.55866 -2.19917,-4.22709 -5.78481,-9.4299 -7.96807,-11.5618 -3.50131,-3.41894 -4.65148,-3.92551 -9.75016,-4.29432 -7.97411,-0.57679 -9.77232,1.04617 -12.2715,11.07564 -1.12759,4.52512 -3.62569,10.62423 -5.96279,14.55817 -2.21221,3.72369 -4.0222,7.47754 -4.0222,8.34187 0,0.86433 2.02039,4.17337 4.48974,7.35341 4.35788,5.61209 4.47138,5.93823 3.86421,11.10424 -0.7759,6.60174 0.44243,8.3545 5.80713,8.3545 3.20758,0 4.66846,-0.72284 8.07364,-3.99485 z m 137.11971,96.3028 c -2.60359,-0.50927 -5.05256,-3.09767 -5.4951,-5.80795 -0.40909,-2.50549 0.51464,-2.80971 6.14067,-2.02229 7.55571,1.05749 11,2.48676 11,4.56466 0,3.29572 -4.72207,4.61985 -11.64557,3.26558 z m 82.64557,-4.70096 c 0,-1.95405 2.77341,-2.79863 5.10045,-1.55323 2.61424,1.3991 1.48025,2.94624 -2.15947,2.94624 -1.84715,0 -2.94098,-0.5181 -2.94098,-1.39301 z m -183.39301,-6.18878 c -0.33385,-0.86998 -0.60699,-3.72524 -0.60699,-6.34501 0,-3.57055 0.52642,-5.23963 2.10238,-6.66585 2.71916,-2.46081 4.45967,-5.96525 5.31914,-10.70991 1.26944,-7.00776 6.16035,-6.21841 14.44948,2.33202 5.45512,5.62708 6.05861,5.97054 10.49066,5.97054 10.73889,0 17.46358,7.22823 11.63339,12.50448 -1.84227,1.66723 -2.56642,1.70851 -8.92486,0.50876 -7.94863,-1.49979 -14.28571,-0.89619 -20.78793,1.98005 -5.58166,2.46904 -12.80475,2.69348 -13.67527,0.42492 z m 206.05968,0.91512 c -1.02356,-1.02356 -0.79079,-9.2329 0.32068,-11.30969 0.54304,-1.01469 2.56804,-2.82181 4.5,-4.01582 4.81398,-2.9752 4.67044,-5.92278 -0.48735,-10.00782 -4.38965,-3.47667 -5.33236,-7.52478 -2.42857,-10.42857 2.40297,-2.40297 4.08396,-1.91123 7.13594,2.08747 1.53595,2.0124 4.42592,5.4999 6.42216,7.75 4.12344,4.64782 5.80172,10.97219 3.66508,13.81142 -0.71203,0.94618 -4.4327,4.20868 -8.26814,7.25 -6.56007,5.20184 -9.29589,6.42693 -10.8598,4.86301 z m -143.09524,-4.90476 c -2.01737,-2.01736 -1.97783,-2.75081 0.25731,-4.77358 3.57517,-3.23548 10.17126,-1.60785 10.17126,2.50983 0,3.57921 -7.48773,5.20459 -10.42857,2.26375 z m 182.42857,-16.42857 c 0,-1.64634 0.51831,-2.06549 2.25,-1.81955 1.2375,0.17575 2.25,0.99455 2.25,1.81955 0,0.825 -1.0125,1.6438 -2.25,1.81955 -1.73169,0.24594 -2.25,-0.17321 -2.25,-1.81955 z M 343.3583,770.65588 c -2.76223,-3.5116 -2.76104,-8.92632 0.002,-10.40521 4.8018,-2.56984 12.92514,1.28138 12.92514,6.12772 0,3.27609 -3.9454,6.91235 -7.5,6.91235 -2.43322,0 -3.92421,-0.72383 -5.42742,-2.63486 z m 70.42305,-13.3722 c -0.34231,-0.55389 0.10054,-1.28448 0.98412,-1.62354 1.91464,-0.73472 2.98171,0.0749 2.06137,1.56407 -0.83038,1.34358 -2.23491,1.37101 -3.04549,0.0595 z m 271.95447,-21.42875 c -1.32542,-2.02284 -1.46733,-2.94696 -0.58764,-3.82665 0.87968,-0.87968 1.69278,-0.62675 3.36691,1.04738 2.03428,2.03429 2.0803,2.33398 0.58764,3.82664 -1.49267,1.49267 -1.75635,1.41065 -3.36691,-1.04737 z m 22.5499,-24.93707 c 0,-1.90648 4.41756,-9.64924 5.32291,-9.3296 1.50234,0.53042 1.26013,6.29503 -0.3458,8.23006 -1.05898,1.27599 -4.97711,2.14158 -4.97711,1.09954 z m -23.02761,-9.16038 c -1.70509,-2.05452 -0.40448,-4.41917 3.47782,-6.32305 2.40685,-1.18032 2.97757,-1.14448 4.39825,0.27619 1.47532,1.47533 1.48596,1.89479 0.11048,4.35632 -1.79813,3.21792 -5.98365,4.10388 -7.98655,1.69054 z m 8.95275,-13.7438 c -1.96618,-1.77262 -5.00368,-3.98951 -6.75,-4.92643 -5.734,-3.07634 -3.15989,-9.79651 3.75247,-9.79651 4.06594,0 9.66694,2.58305 11.607,5.35287 2.29734,3.27992 1.89075,9.23579 -0.75712,11.09043 -3.04456,2.13249 -3.75031,1.97787 -7.85235,-1.72036 z m 24.74093,-18.30388 c -2.36744,-1.60872 -4.52372,-4.25407 -5.69513,-6.98686 -1.40561,-3.27915 -3.17496,-5.19153 -6.95544,-7.51768 -5.12439,-3.15307 -7.51354,-6.34831 -8.16101,-10.91452 -0.32021,-2.25826 0.0231,-2.5309 3.55019,-2.81959 5.21918,-0.42717 7.86819,0.33687 11.3627,3.2773 1.60683,1.35207 4.90402,3.49643 7.32707,4.76525 l 4.40555,2.30695 0,9.90171 c 0,5.79044 -0.42019,10.04178 -1.01199,10.23904 -0.55659,0.18553 -2.72646,-0.82769 -4.82194,-2.2516 z M 267.99457,639.66626 c -1.20513,-1.20514 -0.78371,-4.0685 0.79115,-5.37552 2.0055,-1.66442 4.71615,0.48764 4.29826,3.41249 -0.29573,2.06979 -3.67806,3.37438 -5.08941,1.96303 z m 418.62757,-4.88242 c -2.44373,-2.47879 -6.20408,-5.40526 -8.35634,-6.50326 -9.46685,-4.82963 -6.76049,-12.21669 5.16649,-14.10209 4.30875,-0.68112 5.96476,-1.69387 11.85371,-7.2492 7.71469,-7.27765 19.08106,-14.46239 24.13139,-15.25357 4.9893,-0.78161 6.69052,1.12344 8.97834,10.0541 l 2.0247,7.90353 -2.07533,2.57869 c -1.14144,1.41829 -3.15234,4.89678 -4.46868,7.72999 -2.43403,5.23889 -4.95714,7.00196 -8.43894,5.89688 -2.15271,-0.68325 -4.15176,-4.58106 -4.15176,-8.09522 0,-2.09796 0.47034,-2.45493 3.25,-2.4666 5.61859,-0.0236 7.88669,-1.02716 7.55247,-3.34167 -0.35812,-2.48002 -4.1647,-4.62422 -6.92694,-3.90188 -1.07559,0.28127 -2.59295,1.74386 -3.37191,3.2502 -1.23342,2.38518 -2.21043,2.82863 -7.5672,3.43468 -4.63734,0.52466 -6.76558,1.31057 -8.64883,3.19382 -2.64173,2.64173 -2.6426,2.51573 0.083,12.0573 2.95561,10.34661 -1.32914,12.62994 -9.03421,4.8143 z M 294.27383,610.77642 c -1.96201,-2.36409 -0.8263,-68.67398 1.25862,-73.48568 0.83411,-1.925 4.53861,-6.58412 8.23222,-10.35361 6.33724,-6.4674 6.68301,-7.05908 6.13601,-10.5 -0.31881,-2.00551 -0.87115,-6.42079 -1.22742,-9.81173 -0.69857,-6.64885 -0.0619,-7.80515 6.92965,-12.58519 1.92443,-1.3157 2.71284,-2.93027 3.17402,-6.5 1.1142,-8.62438 2.69378,-10.85017 9.16261,-12.91106 6.55094,-2.08705 7.08254,-3.02275 7.2465,-12.75508 l 0.0997,-5.91666 6.75,-6.34817 c 3.7125,-3.49149 10.8,-10.22718 15.75,-14.96819 13.75141,-13.17082 20.4838,-17.95784 26.35004,-18.73603 6.09523,-0.80856 9.49846,-3.3951 12.64996,-9.61428 1.33854,-2.64148 3.68613,-5.80139 5.21686,-7.02202 2.73664,-2.18224 3.11956,-2.20795 22.91706,-1.53894 l 20.13392,0.68039 4.41205,-5.80972 4.41205,-5.80971 9.95403,-0.6873 c 5.47472,-0.37802 13.24595,-1.39052 17.26941,-2.25 9.36417,-2.00036 13.68042,-1.97361 17.20196,0.10662 3.81497,2.25356 5.36733,5.45111 4.61177,9.49932 -0.34197,1.83225 -0.91716,5.08968 -1.27821,7.23875 l -0.65646,3.90738 5.27926,-0.62525 c 5.81198,-0.68834 10.0263,-2.9002 10.0263,-5.26223 0,-0.83964 -0.71778,-2.91465 -1.59507,-4.61113 -1.49341,-2.88794 -1.47182,-3.24961 0.33879,-5.67471 1.06362,-1.42461 4.47365,-3.57396 7.57784,-4.77635 3.19296,-1.23677 7.11413,-3.74497 9.02929,-5.77563 3.58476,-3.80096 5.45401,-4.25066 10.44152,-2.512 6.09469,2.12461 5.76281,2.70444 -11.79469,20.60639 -5.04508,5.14406 -5.0791,5.22167 -4.43084,10.10851 0.56172,4.23445 0.3537,5.20375 -1.48428,6.91609 -2.6587,2.47695 -8.53298,4.29154 -13.89282,4.29154 -5.0272,0 -8.63893,-2.89512 -10.51068,-8.42525 -1.08526,-3.20642 -2.04739,-4.17406 -5.25381,-5.28393 -2.15889,-0.74728 -5.58897,-2.69552 -7.62241,-4.32942 -2.03344,-1.6339 -4.87524,-3.41863 -6.3151,-3.96606 -6.08312,-2.3128 -19.37814,0.0161 -23.01152,4.03094 -1.59969,1.76764 -1.69009,2.49337 -0.664,5.33096 2.10629,5.82486 1.52897,7.64106 -4.06222,12.77939 l -5.25,4.82476 -0.53037,10.12212 c -0.4471,8.53297 -0.83959,10.35268 -2.5,11.59065 -2.70576,2.01738 -7.83412,1.05416 -12.69299,-2.38404 -2.16866,-1.53456 -6.04552,-4.14012 -8.61525,-5.79012 -2.56973,-1.65 -6.85768,-4.67656 -9.52878,-6.72569 -5.07454,-3.89293 -9.9712,-5.4364 -13.59658,-4.28574 -1.17582,0.37318 -5.26494,3.68406 -9.08694,7.35749 -7.71694,7.41696 -8.28307,9.19465 -4.92405,15.46184 2.73506,5.10303 3.42629,11.31713 1.80115,16.1921 -1.60884,4.82606 -5.09038,6.3582 -14.64193,6.44356 -7.68174,0.0687 -9.5926,-0.86348 -12.18426,-5.94356 -1.10359,-2.16322 -2.87548,-4.39817 -3.93752,-4.96656 -2.47556,-1.32488 -9.63124,-1.3346 -12.09426,-0.0164 -2.07848,1.11236 -3.64783,6.00547 -4.14737,12.93117 l -0.32085,4.44817 4.43482,1.29185 c 5.46878,1.59304 6.22211,2.69508 5.46078,7.98853 -0.57184,3.97596 1.15147,14.18315 4.05475,24.01636 0.68091,2.30621 0.97064,4.57931 0.64384,5.05134 -0.32681,0.47204 -2.84419,1.68816 -5.59419,2.7025 -2.75,1.01434 -7.0495,2.86672 -9.55445,4.11641 -2.50495,1.24969 -7.1854,2.9592 -10.401,3.79891 -4.098,1.07014 -6.95419,2.60833 -9.55012,5.14319 -2.03697,1.98905 -5.90088,5.05422 -8.58646,6.8115 -2.68559,1.75727 -5.04364,4.02974 -5.24011,5.04993 -0.21204,1.10106 1.06162,3.33383 3.134,5.49401 1.92018,2.00152 4.63205,5.88912 6.02638,8.63912 3.07727,6.06919 12.9162,16.66605 19.41074,20.90602 8.62258,5.62928 6.48767,10.90334 -4.93683,12.19587 -4.92799,0.55754 -6.49495,1.26653 -10.06918,4.55593 -2.32814,2.1426 -6.50409,5.18588 -9.2799,6.76285 -2.89488,1.64461 -6.20559,4.61807 -7.76419,6.97327 -2.9152,4.40517 -6.34729,5.4275 -8.70077,2.59174 z m 18.01189,-27.92666 c 0,-1.34254 -0.48921,-2.74333 -1.08713,-3.11287 -1.67419,-1.0347 -3.18979,1.10601 -2.44482,3.45319 0.93132,2.93431 3.53195,2.68373 3.53195,-0.34032 z m 26.8,-74.75902 c 1.92902,-1.92902 1.39,-5.63084 -1.05,-7.21109 -3.23293,-2.09379 -14.32892,-3.18326 -16.24287,-1.59483 -1.99456,1.65534 -1.91791,5.89453 0.14786,8.17718 1.30916,1.4466 3.14802,1.82874 8.8,1.82874 4.2239,0 7.63561,-0.4906 8.34501,-1.2 z m 102.2,-96.74098 c 0,-1.47974 -1.4621,-2.01245 -3.82646,-1.39415 -3.1832,0.83242 -2.65136,2.33513 0.82646,2.33513 1.65,0 3,-0.42344 3,-0.94098 z m 271.0044,149.69098 c -1.6842,-6.67281 -2.792,-8.6961 -5.41593,-9.89164 -3.96627,-1.80716 -7.05019,-0.37845 -9.12771,4.22866 -2.58361,5.72943 -5.29505,7.27945 -11.66346,6.66753 -5.88468,-0.56545 -8.7973,-3.14243 -8.7973,-7.78355 0,-5.49754 0.64804,-5.971 8.17273,-5.971 8.05515,0 10.82727,-1.1298 10.82727,-4.41274 0,-3.65922 2.35658,-4.94367 7.76394,-4.23172 3.21185,0.42288 5.31492,1.35105 6.53469,2.88401 0.98925,1.24325 3.55924,4.48101 5.71109,7.19503 4.4431,5.60385 5.52267,9.03492 4.05633,12.8917 -0.7887,2.07445 -1.68586,2.67372 -4.00276,2.67372 -2.67825,0 -3.09682,-0.43828 -4.05889,-4.25 z m -24.4813,-25.72448 c -1.54977,-1.71247 -1.61949,-2.37861 -0.52537,-5.02003 0.69383,-1.67505 2.5658,-3.81602 4.15994,-4.7577 1.8536,-1.09495 4.17776,-4.30131 6.44738,-8.89467 1.95193,-3.95038 4.4143,-7.96565 5.47195,-8.92281 1.82745,-1.65382 2.01885,-1.65354 3.8522,0.006 4.31152,3.90187 6.60882,13.10483 3.8208,15.30612 -0.6875,0.54282 -3.94,1.25098 -7.22777,1.5737 -7.03167,0.69021 -8.52223,2.15508 -8.52223,8.37538 0,4.0688 -0.15851,4.30887 -2.84501,4.30887 -1.56476,0 -3.64911,-0.88852 -4.63189,-1.97448 z m -413.5231,-39.52552 c 0,-1.49071 0.4306,-2.35191 1,-2 0.55,0.33992 1,1.23992 1,2 0,0.76008 -0.45,1.66008 -1,2 -0.5694,0.35191 -1,-0.50929 -1,-2 z m 418.14982,-3.13708 c -5.07729,-1.47736 -9.83091,-3.61963 -12.12797,-5.4656 l -3.77778,-3.03591 -9.87203,0.7721 c -5.42962,0.42466 -10.43454,0.73709 -11.12204,0.6943 -0.6875,-0.0428 -2.08864,-0.13406 -3.11364,-0.20281 -1.025,-0.0687 -3.05,-1.31136 -4.5,-2.76136 -3.52259,-3.52259 -3.40295,-7.67862 0.38184,-13.26412 3.54559,-5.2325 3.62645,-6.38794 0.88142,-12.59355 -1.70428,-3.85281 -2.03207,-6.25258 -1.73814,-12.72508 0.31453,-6.92605 0.67166,-8.22736 2.71117,-9.87885 3.2987,-2.67112 6.57324,-2.36894 10.28701,0.94931 2.772,2.47678 3.24816,3.63857 3.62468,8.844 0.42938,5.93607 0.38996,6.04164 -4.17543,11.18203 -4.96291,5.58796 -5.73915,8.7898 -2.78017,11.46763 2.13634,1.93336 6.72116,2.19228 7.8037,0.4407 0.41276,-0.66786 1.25359,-3.44821 1.86852,-6.17855 1.31709,-5.84805 3.20328,-7.43871 7.19627,-6.06876 2.06687,0.70912 3.59046,2.59131 5.80277,7.16855 1.80429,3.73305 5.19213,8.32084 8.5,11.51066 4.4091,4.25174 14,18.83173 14,21.28265 0,0.69586 -0.44527,0.59924 -9.85018,-2.13734 z m 32.27019,-5.93762 c -0.85451,-4.55492 0.99657,-6.8982 3.14731,-3.98417 2.19544,2.97459 1.87886,7.55887 -0.52201,7.55887 -1.44997,0 -2.12784,-0.92301 -2.6253,-3.5747 z m -114.71877,-6.0574 c -1.57471,-1.57471 -0.64005,-3.49831 1.54876,-3.18745 1.2375,0.17575 2.25,0.98839 2.25,1.80585 0,1.58876 -2.63373,2.54663 -3.79876,1.3816 z M 307.09249,466.57776 c -0.86361,-0.98286 -1.86586,-2.75888 -2.22722,-3.94671 -1.0426,-3.42721 -3.15095,-4.53561 -8.54797,-4.4938 -6.46011,0.05 -6.47326,-1.2243 -0.0744,-7.20967 6.6583,-6.22806 7.86638,-6.08009 8.24294,1.00965 0.3044,5.7312 0.40525,5.8777 5.73307,8.32804 2.5343,1.16556 3.67192,3.84235 2.45453,5.77547 -1.53418,2.43617 -3.72681,2.64715 -5.58093,0.53702 z m 401.74993,-9.50953 c -2.23135,-3.18571 -1.92474,-4.77749 0.92025,-4.77749 2.66579,0 6.17411,4.13755 5.05023,5.95602 -1.10417,1.78658 -4.34118,1.14762 -5.97048,-1.17853 z m -136.0567,-2.42035 c -2.09987,-2.09987 -0.59147,-3.75385 4.7258,-5.18192 6.71045,-1.80223 10.605,0.99398 6.75152,4.84746 -2.48393,2.48393 -9.13406,2.67772 -11.47732,0.33446 z M 311.98027,443.04074 c -1.40556,-1.04102 -1.51824,-1.85884 -0.67401,-4.89176 0.55753,-2.00297 1.73257,-4.23838 2.61119,-4.96757 1.3619,-1.13027 1.87556,-0.98241 3.48289,1.00255 4.70295,5.8079 0.26181,13.06505 -5.42007,8.85678 z m 21.06931,-12.5 c -1.43489,-1.6241 -3.51679,-10.25 -2.47388,-10.25 0.25617,0 2.11104,0.68744 4.12193,1.52764 4.81987,2.01387 6.5996,5.69718 4.09177,8.4683 -2.23002,2.46414 -3.72862,2.53048 -5.73982,0.25406 z m 355.43614,0.55 c -0.66,-0.66 -1.2,-1.56 -1.2,-2 0,-1.19165 2.77866,-0.96715 3.55385,0.28713 1.02966,1.66603 -0.95586,3.11086 -2.35385,1.71287 z m -79.7,-0.71022 c -5.47466,-0.90317 -6.5,-1.72454 -6.5,-5.20701 0,-2.15653 1.19494,-4.2639 4.25303,-7.50056 l 4.25304,-4.50137 4.99696,1.15203 c 2.74834,0.63362 8.25947,1.12785 12.24697,1.09829 6.35129,-0.0471 7.25,0.17076 7.25,1.7575 0,2.25318 -4.86515,9.07351 -8.52722,11.95409 -2.87832,2.26409 -9.16408,2.70022 -17.97278,1.24703 z m -29.6976,-1.03884 c -4.06445,-0.79041 -6.8024,-2.61609 -6.8024,-4.53588 0,-0.68203 1.35,-2.9388 3,-5.01506 4.76456,-5.99542 4.17824,-7.32991 -5.89549,-13.41846 -6.90674,-4.17443 -7.64136,-10.15433 -1.99056,-16.20352 2.37249,-2.53976 3.3822,-2.97168 5.63806,-2.41179 3.16916,0.78656 6.71081,3.83271 9.0514,7.78505 2.36269,3.98965 4.7362,4.33977 9.06825,1.33766 4.58536,-3.17766 8.14263,-3.27091 13.34022,-0.3497 4.09041,2.29894 6.78812,6.13484 6.78812,9.65208 0,2.85791 -1.73297,3.60868 -8.3298,3.60868 -7.48007,0 -8.6702,1.44626 -8.6702,10.53614 0,9.69201 -2.89247,11.40775 -15.1976,9.0148 z m 95.1976,-10.05094 c -2.11492,-2.11492 -2.68822,-6.45663 -0.99105,-7.50553 1.86626,-1.15342 4.7665,0.54919 5.99738,3.52082 2.25274,5.4386 -0.97966,8.01138 -5.00633,3.98471 z M 353.23716,397.20001 c -1.61381,-3.01545 0.48612,-7.42546 4.39082,-9.22102 5.32785,-2.44999 10.66645,-3.89888 12.19898,-3.3108 2.25985,0.86719 1.72526,5.15239 -1.05497,8.4565 -2.24237,2.66491 -9.69727,6.16605 -13.12923,6.16605 -0.70767,0 -1.79019,-0.94083 -2.4056,-2.09073 z m 286.3773,-4.36703 c -3.63805,-1.58253 -6.0616,-5.20938 -4.51471,-6.75627 0.60406,-0.60406 3.07775,-0.71346 6.25415,-0.27659 6.25165,0.85982 10.94256,4.56782 8.8969,7.03269 -1.50846,1.81759 -6.45813,1.81766 -10.63634,1.7e-4 z m -261.49411,-9.25033 c -3.23221,-0.49528 -4.05205,-2.23529 -2.49827,-5.30225 1.83574,-3.6235 5.71079,-5.86533 11.66364,-6.74775 7.48855,-1.11006 9,-0.67193 9,2.60891 0,7.23736 -7.41091,11.08904 -18.16537,9.44109 z m 240.41606,-2.78249 c -1.78712,-0.77676 -3.79432,-2.60844 -4.46043,-4.0704 -1.047,-2.29791 -0.95343,-2.84654 0.69044,-4.04857 2.60452,-1.90447 5.15308,-1.74615 10.04978,0.62431 3.68459,1.78367 6.46952,5.24134 6.46952,8.03229 0,1.44622 -9.06444,1.06398 -12.74931,-0.53763 z M 400.60767,368.21269 c -2.45998,-2.45998 1.22345,-6.92195 5.71419,-6.92195 3.13166,0 6.28414,3.08904 5.79215,5.6756 -0.27119,1.4257 -1.43901,1.88861 -5.34385,2.1182 -2.86276,0.16833 -5.49467,-0.20403 -6.16249,-0.87185 z m 202.17805,-0.92195 c -0.33992,-0.55 0.30852,-1 1.44098,-1 1.13246,0 2.05902,0.45 2.05902,1 0,0.55 -0.64844,1 -1.44098,1 -0.79254,0 -1.7191,-0.45 -2.05902,-1 z m -17.24384,-0.9748 c -3.40154,-0.80752 -6.25616,-2.68399 -6.25616,-4.11246 0,-2.23902 3.88872,-2.79478 9.1159,-1.30281 12.80354,3.65446 10.23236,8.5233 -2.85974,5.41527 z m -146.03365,-10.5819 c -2.81635,-1.97265 -2.85514,-5.03436 -0.0826,-6.51819 3.16342,-1.69301 13.34475,-0.70144 15.8226,1.54098 2.71452,2.45661 2.57852,3.20276 -0.91287,5.00823 -3.83879,1.98512 -11.97301,1.9681 -14.82715,-0.031 z m 89.52654,-1.42605 c -3.28037,-2.58035 -3.57992,-6.18638 -0.74905,-9.01725 2.35257,-2.35257 4.41656,-2.43182 12.5,-0.48 3.3,0.79682 8.7,1.46567 12,1.48634 10.23395,0.0641 18.50475,5.25433 13.91248,8.73059 -1.51601,1.14759 -3.77825,1.30193 -10.91248,0.7445 -11.30458,-0.88328 -9.8711,-0.88097 -17.50095,-0.0283 -5.78331,0.64632 -6.80441,0.48781 -9.25,-1.43589 z m -27.99905,-2.17953 c -5.6552,-2.06546 -1.739,-7.83772 5.31752,-7.83772 3.54653,0 6.93248,2.33075 6.93248,4.77204 0,1.7468 -4.18338,4.23613 -6.97251,4.14901 -1.39012,-0.0434 -3.76499,-0.53092 -5.27749,-1.08333 z"
           style="fill:#594b50" />
      </g>
    </g>
  </g>
</svg>
