<?xml version="1.0" encoding="UTF-8" standalone="no"?>
<!-- Created with Inkscape (http://www.inkscape.org/) -->
<svg
   xmlns:dc="http://purl.org/dc/elements/1.1/"
   xmlns:cc="http://creativecommons.org/ns#"
   xmlns:rdf="http://www.w3.org/1999/02/22-rdf-syntax-ns#"
   xmlns:svg="http://www.w3.org/2000/svg"
   xmlns="http://www.w3.org/2000/svg"
   xmlns:sodipodi="http://sodipodi.sourceforge.net/DTD/sodipodi-0.dtd"
   xmlns:inkscape="http://www.inkscape.org/namespaces/inkscape"
   id="svg3390"
   version="1.0"
   inkscape:version="0.46"
   width="241.02"
   height="240"
   viewBox="0 0 261.5625 330.9375"
   sodipodi:docname="Seme_denari_carte_marocchine.svg"
   sodipodi:version="0.32"
   inkscape:output_extension="org.inkscape.output.svg.inkscape">
  <metadata
     id="metadata3396">
    <rdf:RDF>
      <cc:Work
         rdf:about="">
        <dc:format>image/svg+xml</dc:format>
        <dc:type
           rdf:resource="http://purl.org/dc/dcmitype/StillImage" />
        <dc:title />
      </cc:Work>
    </rdf:RDF>
  </metadata>
  <defs
     id="defs3394">
    <inkscape:perspective
       sodipodi:type="inkscape:persp3d"
       inkscape:vp_x="0 : 165.46875 : 1"
       inkscape:vp_y="0 : 1000 : 0"
       inkscape:vp_z="261.5625 : 165.46875 : 1"
       inkscape:persp3d-origin="130.78125 : 110.3125 : 1"
       id="perspective2547" />
  </defs>
  <sodipodi:namedview
     pagecolor="#ffffff"
     bordercolor="#666666"
     borderopacity="1"
     objecttolerance="10"
     gridtolerance="10"
     guidetolerance="10"
     inkscape:pageopacity="0"
     inkscape:pageshadow="2"
     inkscape:window-width="1264"
     inkscape:window-height="764"
     id="namedview3392"
     showgrid="false"
     inkscape:zoom="1.0824912"
     inkscape:cx="130.78125"
     inkscape:cy="74.2067"
     inkscape:window-x="0"
     inkscape:window-y="0"
     inkscape:window-maximized="1"
     inkscape:current-layer="g3400" />
  <g
     id="g3400"
     transform="translate(-7.0574626,-38.511491)"
     style="display:inline">
    <path
       style="fill:#b0a037"
       d="M 108.03545,357.29887 C 78.355896,353.63849 50.82147,339.58808 28.235296,316.57807 C 18.801224,306.96695 14.62545,301.55225 4.6286782,285.96749 C -4.5247851,271.69741 -5.7143811,269.27342 -11.02972,254.06096 C -16.850005,237.40335 -18.497559,225.44557 -18.458595,200.14299 C -18.431053,182.25752 -18.017804,177.18726 -15.796263,167.478 C -11.128326,147.07675 -4.1124494,128.69966 -0.41848094,127.19806 C 0.47526874,126.83477 1.5362439,124.67565 1.9392427,122.40005 C 2.3422405,120.12444 3.9489203,116.99179 5.5096431,115.43858 C 7.0703639,113.88538 8.3473197,111.68327 8.3473197,110.54498 C 8.3473197,109.4067 9.6721426,107.55583 11.29137,106.43193 C 12.910601,105.30802 14.76417,102.78174 15.410411,100.81797 C 16.056652,98.854178 18.740834,95.676496 21.375257,93.756445 C 24.009681,91.836394 30.196895,86.13084 35.124619,81.077463 C 40.052343,76.024073 46.193437,70.55699 48.771495,68.928378 C 55.467044,64.69868 79.048129,52.545636 80.559646,52.545636 C 81.25869,52.545636 82.641996,51.822008 83.633657,50.937575 C 86.618835,48.27519 106.06289,45.888061 124.26688,45.949073 C 142.92819,46.011616 158.62337,48.888453 180.33148,56.22539 C 226.5318,71.84025 264.89031,120.84672 272.61977,174.13197 C 275.3779,193.14592 275.6962,200.20729 274.45671,214.88104 C 271.13787,254.17107 256.19554,287.52091 229.77457,314.60732 C 214.74081,330.01968 187.85823,347.32671 175.37229,349.63148 C 173.01787,350.06608 165.95224,351.67486 159.67088,353.20655 C 148.53649,355.92164 126.83381,358.78656 119.78579,358.4717 C 117.85345,358.38547 112.56579,357.85762 108.03545,357.29887 L 108.03545,357.29887 z M 59.740229,224.70221 C 59.740229,222.45542 59.372018,221.82579 58.560723,222.68519 C 57.911996,223.37241 57.710016,224.84234 58.111879,225.9517 C 59.169767,228.87204 59.740229,228.43432 59.740229,224.70221 z M 199.07211,86.420437 C 200.45739,85.472101 200.29348,85.244128 198.21556,85.229164 C 196.80226,85.218919 195.64592,85.755041 195.64592,86.420437 C 195.64592,87.936252 196.85793,87.936252 199.07211,86.420437 z"
       id="path3404"
       inkscape:connector-curvature="0" />
    <path
       style="fill:#2a2415"
       d="M 118.37479,356.06315 C 84.067036,352.40878 55.910998,338.69596 31.221576,313.61698 C 1.8992543,283.83196 -13.351907,246.22913 -13.351907,203.71781 C -13.351907,185.55227 -11.747198,173.75014 -7.0810444,157.59748 C 1.1595701,129.07129 11.990484,110.64241 33.017433,89.369657 C 55.180126,66.947875 80.26034,53.669916 110.10041,48.560386 C 131.21993,44.944082 146.34943,45.630833 173.93935,51.458128 C 206.47829,58.330713 226.79013,69.096154 249.37949,91.442039 C 279.98483,121.71745 294.60264,157.69906 294.45956,202.40609 C 294.27618,259.70513 265.39483,307.98425 213.48247,337.7704 C 192.19883,349.98248 145.5399,358.95675 118.37479,356.06315 z M 165.37046,343.77026 C 177.30653,340.65778 191.4007,334.86044 197.53162,330.54153 C 199.50564,329.1509 202.04776,328.3768 203.44951,328.73944 C 205.18535,329.18852 206.27629,328.573 207.16517,326.64296 C 207.85725,325.14025 210.01159,322.98267 211.95263,321.84835 C 217.11712,318.83018 237.93362,298.37156 242.95412,291.3798 C 256.3032,272.78924 265.39241,252.25456 270.73255,228.62165 C 273.13663,217.98253 273.3471,214.56999 272.6747,197.13451 C 271.61107,169.55487 267.79297,153.60207 257.14845,132.26302 C 249.81544,117.56255 225.97342,86.851863 220.17091,84.632633 C 218.86552,84.133351 213.85108,81.082416 209.02775,77.852776 C 195.54183,68.822789 191.61687,66.896252 177.56092,62.407522 C 146.0668,52.349989 125.14273,52.078737 94.664943,61.332891 C 49.314323,75.102991 12.064496,115.74763 -1.0884849,165.81296 C -4.8159937,180.00131 -6.0089349,210.00582 -3.5606595,227.99244 C -2.0004476,239.45477 4.4977368,259.85716 10.067707,270.78147 C 29.012462,307.93757 59.986304,333.41299 99.267676,344.14682 C 108.74163,346.73563 118.86991,347.55662 136.6035,347.17323 C 150.10407,346.88138 156.20938,346.15914 165.37046,343.77026 z M 112.12098,336.4173 C 99.04224,334.08753 84.086478,328.66717 71.856392,321.82438 C 58.359365,314.27271 36.6878,294.30199 28.75093,282.10191 C 6.3638228,247.68986 -0.47543882,210.79208 8.0553146,170.44924 C 14.758082,138.75111 36.960244,105.24393 62.915122,87.655615 C 86.31003,71.802058 107.44732,65.103621 133.54321,65.273499 C 170.5006,65.514061 198.9835,77.748306 224.83749,104.48701 C 243.85042,124.15058 255.65364,147.16404 261.62272,176.20923 C 264.7441,191.39774 263.50784,221.16322 259.10762,236.76472 C 250.29165,268.02291 232.59428,294.69105 208.85061,312.49698 C 197.60756,320.92842 175.92,331.29755 162.92222,334.45596 C 149.89704,337.62106 124.40388,338.60528 112.12098,336.4173 L 112.12098,336.4173 z M 129.8708,327.3271 C 129.8708,324.28377 121.38489,301.49601 119.51811,299.52638 C 118.30057,298.24177 117.12656,298.69585 113.23472,301.95671 C 104.6236,309.17171 94.060889,320.96373 94.710051,322.63734 C 95.062342,323.54563 99.873226,325.23433 105.56802,326.44868 C 111.19197,327.64794 116.34424,328.79686 117.01752,329.00179 C 117.69079,329.20677 120.8582,329.41748 124.05624,329.47007 C 128.93069,329.55018 129.8708,329.20374 129.8708,327.3271 L 129.8708,327.3271 z M 162.83992,325.41184 C 175.3787,322.1801 176.99006,321.24094 175.8884,317.80699 C 175.08494,315.30257 154.40162,293.99398 153.57139,294.81531 C 152.39915,295.97505 142.11207,324.07535 142.11207,326.11776 C 142.11207,329.29102 148.65355,329.06825 162.83992,325.41184 L 162.83992,325.41184 z M 82.321745,302.29924 C 82.090618,294.31622 81.424296,287.28895 80.841025,286.68309 C 80.213928,286.03169 77.859424,286.83925 75.079642,288.65917 C 72.494152,290.35186 67.553178,293.15335 64.099702,294.88466 C 60.646226,296.61596 57.411335,298.68771 56.911054,299.48851 C 55.117244,302.35993 76.316889,317.95528 80.905788,317.14003 C 82.445526,316.86651 82.674129,314.47047 82.321745,302.29924 L 82.321745,302.29924 z M 196.95888,310.32479 C 214.17283,298.69901 218.40849,293.85334 214.45255,290.31155 C 211.28494,287.47555 192.20998,279.68839 190.25171,280.43183 C 189.17613,280.84015 188.60333,283.40905 188.55318,288.04943 C 188.51154,291.90025 188.08169,298.95232 187.59792,303.72069 C 186.24731,317.03349 186.62791,317.30198 196.95888,310.32479 z M 49.060546,288.42338 C 51.256424,284.36422 57.647394,264.10626 57.647394,261.20502 C 57.647394,258.73342 56.895829,258.3814 50.123069,257.6811 C 45.984692,257.25317 38.548127,256.90305 33.597369,256.90305 C 26.220454,256.90305 24.595995,257.24738 24.595995,258.81109 C 24.595995,263.45956 42.99532,290.81226 46.122202,290.81226 C 47.027527,290.81226 48.349783,289.73728 49.060546,288.42338 L 49.060546,288.42338 z M 232.98726,274.70367 C 237.90152,267.38132 242.49041,258.80908 242.49041,256.95131 C 242.49041,256.15958 237.71817,255.69204 229.63709,255.69204 C 219.12889,255.69204 216.78377,256.01769 216.78377,257.47705 C 216.78377,259.71889 223.90214,277.57028 225.60947,279.61012 C 227.63209,282.0266 228.42768,281.4975 232.98726,274.70367 L 232.98726,274.70367 z M 141.19399,270.34502 C 143.26245,270.27099 144.56035,269.5476 144.56035,268.46867 C 144.56035,265.83789 137.28734,255.69204 135.40148,255.69204 C 133.53198,255.69204 127.76882,262.09251 125.81146,266.34255 C 124.0945,270.07054 126.33343,271.50656 132.93113,270.90899 C 135.62422,270.66504 139.34251,270.41128 141.19399,270.34502 L 141.19399,270.34502 z M 115.11834,258.41687 C 119.31368,253.8299 124.86312,245.85988 127.76307,240.25668 C 130.60552,234.76459 133.58115,230.26858 134.37563,230.26557 C 135.17011,230.26313 138.17036,234.62387 141.04287,239.95733 C 146.64156,250.3527 156.56014,263.30812 160.5287,265.40934 C 162.42388,266.41276 163.11687,266.28762 163.67818,264.84059 C 164.12698,263.68346 162.36999,260.754 159.00907,257.0558 C 156.04527,253.79456 151.89398,247.92191 149.78399,244.00548 C 145.00165,235.12881 139.66382,219.17407 139.66382,213.75644 C 139.66382,209.97596 139.95273,209.67237 143.55021,209.67237 C 154.76313,209.67237 174.27729,219.88948 186.12946,231.96574 C 189.13103,235.02409 192.21003,237.52635 192.9717,237.52635 C 193.73335,237.52635 194.99615,236.13755 195.7779,234.4401 C 196.90045,232.0027 196.83371,230.66596 195.46053,228.08211 C 192.87994,223.22648 184.33265,215.56859 173.63333,208.52618 C 168.41548,205.09174 164.14634,201.51845 164.14634,200.58554 C 164.14634,198.97305 173.87775,191.51273 175.9961,191.50127 C 178.23435,191.48906 192.55582,177.59505 194.78408,173.27396 C 196.84234,169.28257 197.02034,164.86375 195.12287,164.86375 C 194.79901,164.86375 189.81288,169.19361 184.04261,174.48572 C 178.27231,179.77779 170.34721,185.79713 166.43129,187.86198 C 159.75792,191.38085 142.74795,195.67155 140.62272,194.37214 C 139.33803,193.58665 139.40669,188.64607 140.75016,185.20571 C 141.3476,183.6757 142.51016,179.42654 143.33361,175.76315 C 145.26581,167.16699 151.71529,155.6459 160.01072,145.97186 C 166.57189,138.32027 167.85579,135.79871 165.19057,135.79871 C 160.04908,135.79871 145.50162,153.34206 139.48521,166.79788 C 138.13878,169.80918 136.40926,172.06594 135.64185,171.81287 C 134.87443,171.5598 132.4306,167.89382 130.21107,163.66626 C 125.36558,154.43707 121.56335,149.20914 114.12681,141.55116 C 108.70412,135.96698 106.45832,135.00379 102.42816,136.5338 C 99.335807,137.70778 100.1162,139.96465 106.14741,147.28944 C 115.37497,158.4962 121.26226,170.18364 123.83382,182.40059 C 125.09298,188.38243 125.69638,193.69891 125.17473,194.21498 C 123.47474,195.89681 109.8799,192.52769 100.72955,188.15692 C 94.964233,185.40301 88.581375,180.92395 82.766905,175.55192 C 73.532263,167.01994 70.007879,166.2993 74.766076,173.91595 C 78.390625,179.71791 87.763197,187.78366 97.97099,193.88537 C 103.14146,196.97604 106.59242,199.84631 106.56251,201.03123 C 106.53432,202.14944 102.6852,205.36998 97.721308,208.42866 C 82.387137,217.87734 71.262097,229.84606 72.943134,235.08592 C 74.085797,238.64765 75.523388,238.1001 78.45917,232.98496 C 83.687329,223.87566 106.15704,210.91622 118.47527,209.90563 L 124.97436,209.37242 L 124.97436,214.46591 C 124.97436,219.45622 120.37845,234.57013 116.67312,241.765 C 114.23593,246.4974 110.62676,251.57459 105.69439,257.20931 C 101.80868,261.64829 100.88455,264.15412 102.53207,265.78404 C 104.73321,267.96167 108.29565,265.87648 115.11841,258.41687 L 115.11834,258.41687 z M 23.92674,241.26892 C 24.939767,239.33087 26.193341,237.55971 26.712458,237.33301 C 27.231576,237.10632 29.746814,234.21132 32.301883,230.8997 C 39.243732,221.90228 38.551104,220.32222 24.846139,213.89107 C 15.361431,209.44033 13.346041,208.86347 12.739977,210.42597 C 11.804756,212.83704 14.309548,230.59874 16.714743,238.61135 C 18.833355,245.66925 21.17552,246.53232 23.92674,241.26892 z M 251.41169,234.99942 C 254.28965,225.31089 255.6744,208.46132 253.5927,208.46132 C 251.48344,208.46132 230.02005,218.23306 227.83624,220.18758 C 226.28486,221.5761 227.46803,223.22407 236.37809,232.08495 C 242.06657,237.74202 247.2838,242.36979 247.97195,242.36887 C 248.6601,242.36794 250.20795,239.05169 251.41169,234.99942 z M 65.993755,225.97188 C 65.483588,219.93777 62.543898,218.77765 62.543898,224.61041 C 62.543898,226.94273 62.892469,229.74962 63.318504,230.84798 C 64.623906,234.21345 66.41461,230.94955 65.993755,225.97188 L 65.993755,225.97188 z M 77.027393,207.55303 C 80.170413,205.05526 83.114896,202.49887 83.570683,201.87219 C 84.708676,200.30749 81.22132,193.9288 79.227886,193.9288 C 78.339619,193.9288 76.615821,192.83887 75.397219,191.5067 C 70.72133,186.39512 68.710563,189.35682 68.681243,201.39876 C 68.665339,207.93001 69.463697,212.09446 70.731699,212.09446 C 71.051308,212.09446 73.884371,210.05081 77.027393,207.55303 L 77.027393,207.55303 z M 200.61671,201.21019 C 200.81396,195.6641 200.47543,190.6318 199.8644,190.0273 C 198.79073,188.9651 187.33788,197.6874 186.32095,200.34178 C 185.74507,201.84494 197.31951,212.13545 199.03395,211.6445 C 199.70721,211.45171 200.41945,206.75627 200.61671,201.21019 z M 255.39181,186.08393 C 253.80333,171.4093 247.86732,151.78581 245.70023,154.04508 C 245.42339,154.33372 241.21312,160.53067 236.34417,167.8161 C 229.57305,177.94763 227.77296,181.50716 228.68856,182.95416 C 229.34694,183.99465 234.68136,186.5576 240.5428,188.64959 C 246.40423,190.74159 251.53553,192.78523 251.9457,193.19099 C 252.35587,193.59678 253.49011,193.9288 254.46621,193.9288 C 255.92126,193.9288 256.08802,192.51542 255.39183,186.08393 L 255.39181,186.08393 z M 16.605102,191.56124 C 17.002463,190.92518 21.992682,188.65163 27.694478,186.50894 C 35.786379,183.46805 38.06138,182.09741 38.06138,180.26314 C 38.06138,177.92338 22.660531,158.80853 20.775396,158.80853 C 19.188641,158.80853 17.722057,162.45378 15.659422,171.52449 C 13.124218,182.67335 12.134349,190.17417 13.0127,191.58018 C 13.928662,193.0464 15.683087,193.03716 16.605102,191.56126 L 16.605102,191.56124 z M 53.874807,145.92954 C 55.492506,144.51977 45.780076,118.76557 43.325466,117.95611 C 40.776245,117.11544 25.820119,140.56003 25.820119,145.39675 C 25.820119,148.00541 25.996435,148.02861 39.591536,147.20744 C 47.165816,146.74993 53.593288,146.17489 53.874807,145.92954 L 53.874807,145.92954 z M 140.76036,140.83962 C 142.85034,137.61745 144.56035,134.38436 144.56035,133.65496 C 144.56035,131.97276 141.72262,131.21999 134.81731,131.07038 C 128.43035,130.93199 124.97432,131.81975 124.97432,133.59874 C 124.97432,135.74772 133.65287,146.69809 135.35601,146.69809 C 136.23842,146.69809 138.67035,144.06177 140.76036,140.83962 L 140.76036,140.83962 z M 239.84947,139.95698 C 241.0905,139.55285 240.67585,138.01441 238.15613,133.67435 C 233.71933,126.03233 225.54148,115.21096 224.2031,115.21096 C 223.61445,115.21096 221.37252,119.43449 219.22099,124.59656 C 217.06947,129.75863 214.81465,134.49986 214.21025,135.13262 C 212.67447,136.74055 212.8358,141.5612 214.44314,142.09128 C 215.93629,142.58365 237.29273,140.7896 239.84947,139.95698 z M 81.860453,102.6987 C 82.265876,84.543979 82.341438,84.607881 70.053277,92.715248 C 60.0264,99.330679 53.018617,106.27189 54.693616,107.92898 C 56.365031,109.58256 78.791205,118.69962 80.293722,118.33639 C 81.006653,118.16403 81.660922,111.63373 81.860453,102.6987 z M 199.24809,110.27302 C 211.67992,105.24691 213.08471,103.99474 210.03354,100.65928 C 206.27747,96.553222 188.24585,84.934861 185.62934,84.934861 C 184.63511,84.934861 184.8103,113.45162 185.81064,114.44126 C 186.28043,114.90603 187.34079,115.02965 188.167,114.71601 C 188.99322,114.40235 193.9797,112.403 199.24809,110.27302 z M 123.25536,92.129584 C 125.43762,85.841224 127.40571,79.333783 127.62887,77.668608 C 128.00217,74.883209 127.60406,74.610504 122.65164,74.259871 C 117.22226,73.875475 97.499216,78.200214 94.692951,80.390477 C 93.860022,81.04057 93.584597,82.275606 94.080882,83.135011 C 95.646645,85.846389 116.96407,104.22215 118.15256,103.88497 C 118.77681,103.70786 121.07309,98.417932 123.25536,92.129584 z M 164.77651,92.626182 C 168.65261,87.531383 171.88676,82.507242 171.96356,81.461422 C 172.12351,79.282619 166.96646,77.324098 154.05807,74.661403 C 145.77886,72.953583 143.33622,73.064731 143.33622,75.149268 C 143.33622,77.232643 155.59388,101.88949 156.62962,101.88949 C 157.23433,101.88949 160.90044,97.72101 164.77651,92.626182 z"
       id="path3402"
       inkscape:connector-curvature="0" />
  </g>
</svg>
