<?xml version="1.0" encoding="UTF-8" standalone="no"?>
<!-- Created with Inkscape (http://www.inkscape.org/) -->
<svg
   xmlns:dc="http://purl.org/dc/elements/1.1/"
   xmlns:cc="http://creativecommons.org/ns#"
   xmlns:rdf="http://www.w3.org/1999/02/22-rdf-syntax-ns#"
   xmlns:svg="http://www.w3.org/2000/svg"
   xmlns="http://www.w3.org/2000/svg"
   xmlns:sodipodi="http://sodipodi.sourceforge.net/DTD/sodipodi-0.dtd"
   xmlns:inkscape="http://www.inkscape.org/namespaces/inkscape"
   width="200"
   height="200.6546"
   id="svg2469"
   sodipodi:version="0.32"
   inkscape:version="0.46"
   version="1.0"
   sodipodi:docname="denaritrentine.svg"
   inkscape:output_extension="org.inkscape.output.svg.inkscape">
  <defs
     id="defs2471">
    <inkscape:perspective
       sodipodi:type="inkscape:persp3d"
       inkscape:vp_x="0 : 526.18109 : 1"
       inkscape:vp_y="0 : 1000 : 0"
       inkscape:vp_z="744.09448 : 526.18109 : 1"
       inkscape:persp3d-origin="372.04724 : 350.78739 : 1"
       id="perspective2477" />
    <inkscape:perspective
       id="perspective2486"
       inkscape:persp3d-origin="372.04724 : 350.78739 : 1"
       inkscape:vp_z="744.09448 : 526.18109 : 1"
       inkscape:vp_y="0 : 1000 : 0"
       inkscape:vp_x="0 : 526.18109 : 1"
       sodipodi:type="inkscape:persp3d" />
  </defs>
  <sodipodi:namedview
     id="base"
     pagecolor="#ffffff"
     bordercolor="#666666"
     borderopacity="1.0"
     inkscape:pageopacity="0.0"
     inkscape:pageshadow="2"
     inkscape:zoom="0.98994949"
     inkscape:cx="20.213255"
     inkscape:cy="29.807226"
     inkscape:document-units="px"
     inkscape:current-layer="layer1"
     showgrid="false"
     inkscape:window-width="640"
     inkscape:window-height="669"
     inkscape:window-x="184"
     inkscape:window-y="95" />
  <metadata
     id="metadata2474">
    <rdf:RDF>
      <cc:Work
         rdf:about="">
        <dc:format>image/svg+xml</dc:format>
        <dc:type
           rdf:resource="http://purl.org/dc/dcmitype/StillImage" />
      </cc:Work>
    </rdf:RDF>
  </metadata>
  <g
     inkscape:label="Livello 1"
     inkscape:groupmode="layer"
     id="layer1"
     transform="translate(-133.47001,-369.41612)">
    <g
       id="g2492"
       transform="matrix(0.8496842,0,0,0.8496842,-100.10084,192.12116)">
      <path
         style="fill:#ea0a0d"
         d="M 374.79913,443.90445 C 361.84342,442.4157 349.34933,437.59529 337.9142,431.42375 C 307.62116,415.09235 284.18634,385.58861 277.22144,351.6977 C 274.33082,336.02997 273.82614,319.85716 277.44756,304.2861 C 279.15619,292.11645 283.81473,280.09667 290.15602,269.48921 C 304.65455,246.20056 325.74012,226.70651 351.55992,216.81521 C 365.65566,210.85751 381.21056,208.68778 396.41097,208.65983 C 412.04674,209.89893 427.97425,211.68007 442.01157,219.26479 C 472.09326,232.96426 496.08876,260.14382 505.14451,292.00504 C 511.63703,308.93722 510.53065,327.60068 509.44257,345.40296 C 506.01275,367.31224 496.15246,388.40379 481.27782,404.93239 C 468.69918,420.49691 450.82984,431.13004 432.41949,438.38676 C 413.98345,444.76314 394.12905,445.92948 374.79913,443.90445 z M 412.57144,438.52725 C 434.33432,434.8095 454.70454,424.67467 470.77088,409.51683 C 486.07684,394.87272 496.91867,375.57225 502.37015,355.14684 C 506.74961,342.06004 504.24599,327.85694 504.97204,314.28904 C 505.54552,297.30724 496.68726,281.93647 488.9856,267.42954 C 470.71016,237.06661 437.41972,215.19314 401.53623,214.47587 C 376.55713,212.23408 350.90296,218.30383 330.42491,233.03716 C 301.23462,252.49494 281.0708,285.86544 279.99406,321.22948 C 279.7381,344.5177 283.69356,368.79633 297.54312,388.14388 C 316.60278,417.3906 349.13683,438.70886 384.58506,439.62635 C 393.91783,440.15603 403.31634,439.88448 412.57144,438.52725 z M 383.07144,419.01651 C 337.07237,414.30739 298.78857,370.79928 301.03086,324.39668 C 301.92388,288.91039 325.17413,255.01238 358.22757,241.84253 C 373.77653,233.52608 391.84004,235.66458 408.77129,236.00615 C 437.19531,241.91338 464.36105,260.63352 475.56195,288.12055 C 482.00288,301.94186 486.12882,317.07665 484.29466,332.41476 C 483.7888,339.32504 485.0339,346.60272 481.35744,352.84772 C 473.65782,375.34322 459.03231,395.92325 437.90412,407.52921 C 421.44718,416.60233 401.78504,421.15089 383.07144,419.01651 z"
         id="path2500" />
      <path
         style="fill:#004ca3"
         d="M 374.79913,443.90445 C 361.84342,442.4157 349.34933,437.59529 337.9142,431.42375 C 307.62116,415.09235 284.18634,385.58861 277.22144,351.6977 C 274.33082,336.02997 273.82614,319.85716 277.44756,304.2861 C 279.15619,292.11645 283.81473,280.09667 290.15602,269.48921 C 304.65455,246.20056 325.74012,226.70651 351.55992,216.81521 C 365.65566,210.85751 381.21056,208.68778 396.41097,208.65983 C 412.04674,209.89893 427.97425,211.68007 442.01157,219.26479 C 472.09326,232.96426 496.08876,260.14382 505.14451,292.00504 C 511.63703,308.93722 510.53065,327.60068 509.44257,345.40296 C 506.01275,367.31224 496.15246,388.40379 481.27782,404.93239 C 468.69918,420.49691 450.82984,431.13004 432.41949,438.38676 C 413.98345,444.76314 394.12905,445.92948 374.79913,443.90445 z M 412.57144,438.52725 C 434.33432,434.8095 454.70454,424.67467 470.77088,409.51683 C 486.07684,394.87272 496.91867,375.57225 502.37015,355.14684 C 506.74961,342.06004 504.24599,327.85694 504.97204,314.28904 C 505.54552,297.30724 496.68726,281.93647 488.9856,267.42954 C 470.71016,237.06661 437.41972,215.19314 401.53623,214.47587 C 376.55713,212.23408 350.90296,218.30383 330.42491,233.03716 C 301.23462,252.49494 281.0708,285.86544 279.99406,321.22948 C 279.7381,344.5177 283.69356,368.79633 297.54312,388.14388 C 316.60278,417.3906 349.13683,438.70886 384.58506,439.62635 C 393.91783,440.15603 403.31634,439.88448 412.57144,438.52725 z M 383.07144,419.01651 C 337.07237,414.30739 298.78857,370.79928 301.03086,324.39668 C 301.92388,288.91039 325.17413,255.01238 358.22757,241.84253 C 373.77653,233.52608 391.84004,235.66458 408.77129,236.00615 C 437.19531,241.91338 464.36105,260.63352 475.56195,288.12055 C 482.00288,301.94186 486.12882,317.07665 484.29466,332.41476 C 483.7888,339.32504 485.0339,346.60272 481.35744,352.84772 C 473.65782,375.34322 459.03231,395.92325 437.90412,407.52921 C 421.44718,416.60233 401.78504,421.15089 383.07144,419.01651 z M 401.93491,408.05695 C 406.74192,401.17298 415.58556,396.98111 412.25153,386.00519 C 411.20705,381.7835 413.05218,375.67309 410.2191,372.59171 C 399.64514,365.11469 403.97877,382.77766 402.51066,388.82091 C 390.90024,396.72158 398.70576,362.01853 390.9009,375.45079 C 391.41555,379.94121 387.02644,395.95687 384.21432,384.41629 C 385.36822,378.15312 381.79449,364.03077 376.15406,375.76186 C 375.15792,383.6227 370.92208,399.42871 379.79603,402.50875 C 381.0871,412.06812 395.21775,408.43446 401.93491,408.05695 z M 358.55963,389.25613 C 367.85562,386.72768 363.00563,371.36676 372.33424,366.8876 C 373.40358,355.62052 362.85894,371.79797 359.03772,374.11124 C 350.93911,376.27328 360.35024,360.3932 363.4234,357.48606 C 360.10528,355.67216 343.29851,364.87527 353.27535,354.76698 C 350.54975,350.51317 342.84587,352.84035 338.00702,351.92874 C 336.89153,361.17407 324.38089,359.42886 326.57824,369.35606 C 323.09174,380.10059 336.29025,379.24264 336.62569,388.40841 C 343.53792,391.61678 351.32179,390.50234 358.55963,389.25613 z M 442.97623,389.68954 C 452.65801,386.28506 460.42371,374.4321 457.30768,363.88389 C 450.55518,359.08271 449.08291,349.30297 438.75923,350.72926 C 434.01425,350.75514 421.20804,337.42718 426.23117,348.96273 C 432.70691,352.84998 434.20239,361.43677 440.52602,364.94815 C 439.52976,373.89031 424.2215,356.02445 431.38732,366.57879 C 430.73132,380.45287 418.86627,360.32607 414.00549,363.38525 C 417.30012,371.23019 421.43661,382.20341 427.02611,388.06205 C 432.19227,390.07983 437.49677,391.72665 442.97623,389.68954 z M 335.8938,344.91531 C 342.57594,340.19964 327.85069,331.42665 340.42522,331.3258 C 350.93806,333.54774 344.94498,326.62157 344.15893,322.13291 C 346.48547,314.94408 354.94258,326.75187 351.78129,316.56629 C 343.46437,313.28772 331.95904,307.29788 322.82971,311.5196 C 310.62909,311.71101 308.12218,327.63212 314.06562,335.8532 C 315.69723,343.41754 330.20161,355.03581 335.8938,344.91531 z M 331.32144,320.93839 C 325.23771,315.13064 342.73962,320.40075 333.04764,321.63007 L 331.32143,320.93838 L 331.32144,320.93839 z M 463.3786,341.87405 C 475.76766,339.32896 473.41854,322.82774 470.43315,313.74998 C 465.69926,309.50127 456.28257,300.31203 451.84267,309.72729 C 447.70624,311.71237 428.64014,313.54784 436.76845,317.46422 C 441.98104,313.54873 455.91372,315.47501 449.05051,323.43327 C 438.87971,322.17026 448.3986,335.96766 437.68439,334.668 C 428.95491,340.43365 449.31992,341.96249 453.77681,342.66045 C 456.99813,343.19495 460.24083,342.57902 463.3786,341.87405 z M 446.07144,331.00504 C 446.35914,322.33433 451.27809,334.63898 446.07144,331.00504 z M 343.07144,341.00504 C 347.47224,341.25318 359.77528,337.40413 348.86759,336.74776 C 347.00741,336.16139 335.82466,344.24712 343.07144,341.00504 z M 347.51456,302.06134 C 348.43364,298.3834 344.09762,288.93249 352.71167,294.10917 C 356.2907,298.72653 369.51144,306.77923 362.82369,295.07968 C 355.54231,292.405 352.46373,270.60379 362.30698,282.90782 C 363.06427,290.54624 378.62975,297.97716 372.7692,285.22448 C 366.05961,279.40614 366.86197,267.84305 357.85649,264.34104 C 347.12723,258.99839 335.78888,265.89817 330.61644,274.00504 C 322.69814,279.3794 325.89097,294.65903 334.39534,298.43116 C 336.64983,302.98785 343.27554,303.60805 347.51456,302.06134 z M 448.28983,301.46494 C 449.58034,294.07264 460.52608,294.09328 459.57144,287.10403 C 462.82294,276.20538 451.11538,275.01039 449.18784,266.24234 C 440.58706,261.742 428.35962,258.69731 421.71017,265.5548 C 421.53379,272.88987 406.88425,277.61422 416.90986,283.83 C 422.63736,285.4021 428.69793,267.48429 431.4639,278.10739 C 428.41197,282.39831 415.5303,299.90596 429.01256,294.47324 C 433.66113,294.11998 445.29466,283.91832 437.86603,294.52829 C 433.60753,298.36829 430.00786,304.77564 439.09397,302.48081 C 442.16955,302.33523 445.29138,302.23271 448.28983,301.46494 z M 401.32144,288.75504 C 397.75271,284.82133 398.50119,293.59529 401.32144,288.75504 z M 382.55612,278.23929 C 381.79603,271.37513 387.68264,261.57924 389.55649,273.52301 C 395.05315,284.88089 400.53777,255.49949 403.00696,271.25504 C 411.87136,280.59589 416.38669,252.62056 406.80312,251.89194 C 403.01188,241.46601 386.96721,247.01423 377.62355,246.82089 C 372.77063,256.57271 374.17392,270.60506 379.56204,280.37468 C 381.2768,286.47486 382.85465,280.81332 382.55612,278.23929 z"
         id="path2498" />
      <path
         style="fill:#a20707"
         d="M 366.71478,442.89395 C 345.51409,436.34999 324.5418,426.37285 309.29181,409.74184 C 293.77509,395.495 283.54035,376.04411 278.4225,355.77809 C 274.47606,335.33731 274.23797,313.85434 279.83248,293.72937 C 284.1423,281.93441 288.6186,269.84254 296.71808,259.97296 C 313.62582,235.67315 340.17826,218.21169 368.95711,211.49175 C 388.3669,207.51544 408.54426,209.06101 427.71528,213.46977 C 451.44392,221.94127 473.67014,236.24373 487.97182,257.39324 C 496.55705,268.53703 502.29349,281.53659 505.86952,295.03001 C 511.3788,311.81673 510.17261,330.06039 509.21418,347.46822 C 508.17894,358.94775 502.06347,369.06514 498.5848,379.86426 C 490.14412,395.31877 478.93744,409.59875 464.88482,420.41255 C 446.68445,432.92787 425.73,444.41805 402.95205,443.37431 C 390.88133,443.45067 378.75643,443.86967 366.71478,442.89395 z M 413.68134,438.79266 C 425.80121,437.04814 437.00517,431.63106 448.2023,426.81717 C 462.92071,417.0506 477.76968,406.23914 486.57531,390.4919 C 493.27968,380.37995 499.21977,369.67714 501.75974,357.74334 C 507.35739,343.31529 504.21926,327.46457 505.02782,312.38302 C 506.35739,300.84868 500.10745,290.92329 496.33343,280.49939 C 484.83462,255.0429 464.37841,233.51191 438.4043,222.72633 C 428.10918,216.90091 416.49898,214.93277 404.84405,214.29382 C 387.39937,211.80772 369.32253,214.63973 352.85243,220.61197 C 323.03451,232.61234 298.42936,257.18272 286.57358,287.01985 C 280.98798,298.81831 281.28703,312.18102 277.88182,324.635 C 279.85738,336.03572 281.89545,347.64161 283.9263,359.12906 C 289.77787,381.45956 304.29899,401.04343 321.8208,415.72256 C 339.11801,429.98834 360.71395,438.40287 383.03499,440.07567 C 393.24243,441.1042 403.54662,440.07984 413.68134,438.79266 z M 374.07144,417.44629 C 352.01578,411.53176 330.89598,399.21611 318.17803,379.77292 C 311.77306,369.78065 305.57754,359.15802 303.6705,347.21638 C 300.51505,327.59848 300.29905,306.4974 310.04926,288.57125 C 322.34167,261.49981 348.49341,241.32882 377.62703,235.94738 C 393.55323,235.34417 410.10535,234.20632 425.06261,240.87138 C 450.69907,250.70181 471.45468,272.32412 479.43487,298.71586 C 484.64175,310.93417 485.35164,324.18195 483.94687,337.23923 C 482.68324,354.03509 474.91271,369.94054 465.15443,383.45762 C 451.31751,401.95515 429.84463,413.96432 407.33366,418.08508 C 396.34427,418.39887 384.85021,420.02316 374.07144,417.44629 z M 401.93491,408.05695 C 406.74192,401.17298 415.58556,396.98111 412.25153,386.00519 C 411.20705,381.7835 413.05218,375.67309 410.2191,372.59171 C 399.64514,365.11469 403.97877,382.77766 402.51066,388.82091 C 390.90024,396.72158 398.70576,362.01853 390.9009,375.45079 C 391.41555,379.94121 387.02644,395.95687 384.21432,384.41629 C 385.36822,378.15312 381.79449,364.03077 376.15406,375.76186 C 375.15792,383.6227 370.92208,399.42871 379.79603,402.50875 C 381.0871,412.06812 395.21775,408.43446 401.93491,408.05695 z M 358.55963,389.25613 C 367.85562,386.72768 363.00563,371.36676 372.33424,366.8876 C 373.40358,355.62052 362.85894,371.79797 359.03772,374.11124 C 350.93911,376.27328 360.35024,360.3932 363.4234,357.48606 C 360.10528,355.67216 343.29851,364.87527 353.27535,354.76698 C 350.54975,350.51317 342.84587,352.84035 338.00702,351.92874 C 336.89153,361.17407 324.38089,359.42886 326.57824,369.35606 C 323.09174,380.10059 336.29025,379.24264 336.62569,388.40841 C 343.53792,391.61678 351.32179,390.50234 358.55963,389.25613 z M 442.97623,389.68954 C 452.65801,386.28506 460.42371,374.4321 457.30768,363.88389 C 450.55518,359.08271 449.08291,349.30297 438.75923,350.72926 C 434.01425,350.75514 421.20804,337.42718 426.23117,348.96273 C 432.70691,352.84998 434.20239,361.43677 440.52602,364.94815 C 439.52976,373.89031 424.2215,356.02445 431.38732,366.57879 C 430.73132,380.45287 418.86627,360.32607 414.00549,363.38525 C 417.30012,371.23019 421.43661,382.20341 427.02611,388.06205 C 432.19227,390.07983 437.49677,391.72665 442.97623,389.68954 z M 403.42105,349.58282 C 413.60786,347.99781 415.86199,332.85443 418.45488,325.1422 C 413.17106,315.81591 411.28289,300.70022 396.75941,303.11102 C 384.89043,300.52742 374.36628,308.61371 369.69131,318.72804 C 363.65055,329.0485 374.99086,337.99889 376.78341,347.98848 C 384.91382,351.56681 394.86785,351.65116 403.42105,349.58282 z M 386.92188,340.01105 C 377.08229,333.94081 383.12543,309.93588 395.11088,318.40928 C 408.27768,319.64163 404.21408,342.40959 391.91035,340.89797 L 389.31133,340.68737 L 386.92188,340.01104 L 386.92188,340.01105 z M 335.8938,344.91531 C 342.57594,340.19964 327.85069,331.42665 340.42522,331.3258 C 350.93806,333.54774 344.94498,326.62157 344.15893,322.13291 C 346.48547,314.94408 354.94258,326.75187 351.78129,316.56629 C 343.46437,313.28772 331.95904,307.29788 322.82971,311.5196 C 310.62909,311.71101 308.12218,327.63212 314.06562,335.8532 C 315.69723,343.41754 330.20161,355.03581 335.8938,344.91531 z M 331.32144,320.93839 C 325.23771,315.13064 342.73962,320.40075 333.04764,321.63007 L 331.32143,320.93838 L 331.32144,320.93839 z M 463.3786,341.87405 C 475.76766,339.32896 473.41854,322.82774 470.43315,313.74998 C 465.69926,309.50127 456.28257,300.31203 451.84267,309.72729 C 447.70624,311.71237 428.64014,313.54784 436.76845,317.46422 C 441.98104,313.54873 455.91372,315.47501 449.05051,323.43327 C 438.87971,322.17026 448.3986,335.96766 437.68439,334.668 C 428.95491,340.43365 449.31992,341.96249 453.77681,342.66045 C 456.99813,343.19495 460.24083,342.57902 463.3786,341.87405 z M 446.07144,331.00504 C 446.35914,322.33433 451.27809,334.63898 446.07144,331.00504 z M 343.07144,341.00504 C 347.47224,341.25318 359.77528,337.40413 348.86759,336.74776 C 347.00741,336.16139 335.82466,344.24712 343.07144,341.00504 z M 347.51456,302.06134 C 348.43364,298.3834 344.09762,288.93249 352.71167,294.10917 C 356.2907,298.72653 369.51144,306.77923 362.82369,295.07968 C 355.54231,292.405 352.46373,270.60379 362.30698,282.90782 C 363.06427,290.54624 378.62975,297.97716 372.7692,285.22448 C 366.05961,279.40614 366.86197,267.84305 357.85649,264.34104 C 347.12723,258.99839 335.78888,265.89817 330.61644,274.00504 C 322.69814,279.3794 325.89097,294.65903 334.39534,298.43116 C 336.64983,302.98785 343.27554,303.60805 347.51456,302.06134 z M 448.28983,301.46494 C 449.58034,294.07264 460.52608,294.09328 459.57144,287.10403 C 462.82294,276.20538 451.11538,275.01039 449.18784,266.24234 C 440.58706,261.742 428.35962,258.69731 421.71017,265.5548 C 421.53379,272.88987 406.88425,277.61422 416.90986,283.83 C 422.63736,285.4021 428.69793,267.48429 431.4639,278.10739 C 428.41197,282.39831 415.5303,299.90596 429.01256,294.47324 C 433.66113,294.11998 445.29466,283.91832 437.86603,294.52829 C 433.60753,298.36829 430.00786,304.77564 439.09397,302.48081 C 442.16955,302.33523 445.29138,302.23271 448.28983,301.46494 z M 401.32144,288.75504 C 397.75271,284.82133 398.50119,293.59529 401.32144,288.75504 z M 382.55612,278.23929 C 381.79603,271.37513 387.68264,261.57924 389.55649,273.52301 C 395.05315,284.88089 400.53777,255.49949 403.00696,271.25504 C 411.87136,280.59589 416.38669,252.62056 406.80312,251.89194 C 403.01188,241.46601 386.96721,247.01423 377.62355,246.82089 C 372.77063,256.57271 374.17392,270.60506 379.56204,280.37468 C 381.2768,286.47486 382.85465,280.81332 382.55612,278.23929 z"
         id="path2496" />
      <path
         style="fill:#32181b"
         d="M 366.71478,442.89395 C 345.51409,436.34999 324.5418,426.37285 309.29181,409.74184 C 293.77509,395.495 283.54035,376.04411 278.4225,355.77809 C 274.47606,335.33731 274.23797,313.85434 279.83248,293.72937 C 284.1423,281.93441 288.6186,269.84254 296.71808,259.97296 C 313.62582,235.67315 340.17826,218.21169 368.95711,211.49175 C 388.3669,207.51544 408.54426,209.06101 427.71528,213.46977 C 451.44392,221.94127 473.67014,236.24373 487.97182,257.39324 C 496.55705,268.53703 502.29349,281.53659 505.86952,295.03001 C 511.3788,311.81673 510.17261,330.06039 509.21418,347.46822 C 508.17894,358.94775 502.06347,369.06514 498.5848,379.86426 C 490.14412,395.31877 478.93744,409.59875 464.88482,420.41255 C 446.68445,432.92787 425.73,444.41805 402.95205,443.37431 C 390.88133,443.45067 378.75643,443.86967 366.71478,442.89395 z M 413.68134,438.79266 C 425.74245,437.01105 436.97459,431.75126 448.07143,426.81641 C 463.71475,417.32746 477.90355,405.12758 487.4031,389.3149 C 494.55005,379.43277 499.10843,368.07933 502.14893,356.34694 C 506.38677,345.03436 504.92756,332.36725 505.28751,320.45297 C 506.05466,308.29448 503.39101,296.83336 498.70875,285.77545 C 487.62508,258.77212 467.1814,235.07102 440.02037,223.48215 C 429.82969,217.93857 418.63764,214.85707 407.03877,214.53453 C 388.8885,211.68531 370.02105,214.34308 352.85243,220.61197 C 323.03451,232.61234 298.42936,257.18272 286.57358,287.01985 C 280.98798,298.81831 281.28703,312.18102 277.88182,324.635 C 279.85738,336.03572 281.89545,347.64161 283.9263,359.12906 C 289.77787,381.45956 304.29899,401.04343 321.8208,415.72256 C 339.11801,429.98834 360.71395,438.40287 383.03499,440.07567 C 393.24243,441.1042 403.54662,440.07984 413.68134,438.79266 z M 374.07144,417.44629 C 352.00306,411.5669 330.97504,399.15294 318.19158,379.79034 C 311.7747,369.79764 305.58274,359.16339 303.6705,347.21638 C 300.51505,327.59848 300.29905,306.4974 310.04926,288.57125 C 322.34167,261.49981 348.49341,241.32882 377.62703,235.94738 C 393.62028,235.30938 410.25543,234.23605 425.24689,240.97712 C 449.91852,250.57977 470.19223,271.02361 478.5832,296.27434 C 483.45507,308.17737 485.78553,320.95324 484.11873,333.78488 C 482.45747,368.2941 458.45708,400.19432 426.33684,412.5385 C 410.91929,419.7712 393.32654,419.20382 376.74591,418.20885 L 375.325,417.87233 L 374.07143,417.44629 L 374.07144,417.44629 z M 404.7142,409.30054 C 417.53656,405.91809 412.07293,389.05847 415.60573,379.61655 C 421.50539,382.97767 421.66827,392.57201 430.60509,391.83357 C 435.80502,396.95637 439.19009,397.61961 443.3643,391.81332 C 452.88521,392.34067 451.78898,380.98065 459.46394,378.89614 C 463.58748,369.38054 460.56192,359.77779 452.99303,354.2805 C 450.31204,346.36099 462.35658,349.77442 465.10971,344.00504 C 475.61052,340.08668 482.75202,326.8658 475.61382,316.45833 C 471.93905,305.92161 463.76981,301.91317 453.0842,301.02571 C 454.95343,295.13193 464.60131,293.1046 461.57143,283.85396 C 464.51299,272.58203 451.56298,273.67583 450.30409,264.32533 C 442.48666,259.806 436.79761,250.97209 426.23443,258.26002 C 421.49675,262.95108 412.42378,270.57385 413.34486,257.99255 C 416.24642,241.03903 396.67732,243.81217 385.71939,244.10787 C 371.30704,241.03843 371.28706,258.89364 373.11484,268.53242 C 373.96433,280.09683 363.75351,268.89674 363.51112,263.59527 C 357.39875,260.18166 348.08168,250.29798 343.66839,261.76789 C 334.64057,263.87171 328.30349,271.56505 324.65233,279.24872 C 321.58981,288.42604 334.55341,304.58153 318.98034,305.53051 C 313.55591,312.53506 304.03195,315.49679 307.10421,326.74354 C 304.96471,338.62608 314.65668,343.80403 321.35958,351.16905 C 328.53062,351.09232 338.66334,354.52295 327.16042,358.72124 C 323.01161,368.47856 324.68174,380.59118 332.78146,386.18432 C 337.29062,391.74567 345.48066,395.35611 351.73912,396.46155 C 356.68086,389.55066 367.68821,391.0859 368.24831,380.12312 C 376.28528,368.62096 369.92011,394.11144 372.44667,398.73496 C 373.32703,412.03608 388.47974,411.18426 398.31614,410.54382 C 400.47749,410.30526 402.6267,409.91732 404.7142,409.30054 z M 408.57144,366.50504 C 410.72272,361.63254 410.72266,371.37757 408.57144,366.50504 z M 380.32144,360.3428 C 375.33526,356.14061 367.80147,352.18307 364.57143,346.88799 C 363.79606,336.26504 356.68248,328.89544 356.35326,318.83879 C 352.62921,309.92567 366.49732,315.07809 366.10376,306.24807 C 369.83905,302.182 372.41242,298.37385 376.78793,297.80004 C 382.36019,288.55722 397.52216,295.7395 406.55698,291.05943 C 414.45723,294.35689 411.8868,304.56397 421.91332,304.0551 C 424.77167,311.34336 422.12835,321.3281 430.55325,324.59655 C 431.70019,331.83366 421.33315,332.76823 423.04788,341.03106 C 420.97692,346.8858 421.22221,352.24291 414.93107,354.48323 C 412.02775,366.79179 394.70874,357.99814 385.47255,361.68398 C 383.7152,361.40862 382.021,360.84743 380.32144,360.3428 z M 403.42105,349.58282 C 413.60786,347.99781 415.86199,332.85443 418.45488,325.1422 C 413.17106,315.81591 411.28289,300.70022 396.75941,303.11102 C 384.89043,300.52742 374.36628,308.61371 369.69131,318.72804 C 363.65055,329.0485 374.99086,337.99889 376.78341,347.98848 C 384.91382,351.56681 394.86785,351.65116 403.42105,349.58282 z M 386.92188,340.01105 C 377.08229,333.94081 383.12543,309.93588 395.11088,318.40928 C 408.27768,319.64163 404.21408,342.40959 391.91035,340.89797 L 389.31133,340.68737 L 386.92188,340.01104 L 386.92188,340.01105 z M 424.07144,354.00504 C 425.25879,350.98177 429.53565,357.67875 424.07143,354.00504 L 424.07144,354.00504 z M 443.6004,348.0441 C 440.7792,342.74225 455.92668,350.33117 445.33647,348.7258 L 443.60039,348.0441 L 443.6004,348.0441 z M 349.06873,346.00067 C 351.2439,340.95247 356.03549,347.36118 349.06874,346.00068 L 349.06873,346.00067 z M 337.32144,307.92493 C 331.64422,300.13036 353.59618,311.96816 339.43862,308.64397 L 337.32143,307.92494 L 337.32144,307.92493 z M 366.57144,296.00504 C 368.73355,292.21479 370.76544,300.00532 366.57144,296.00504 z M 418.57144,289.50504 C 420.72272,284.63254 420.72266,294.37757 418.57144,289.50504 z M 407.98264,281.50729 C 407.55849,264.04045 414.85643,290.92113 407.98264,281.50729 z"
         id="path2494" />
    </g>
  </g>
</svg>
