<?xml version="1.0" encoding="UTF-8" standalone="no"?>
<svg
   xmlns:dc="http://purl.org/dc/elements/1.1/"
   xmlns:cc="http://creativecommons.org/ns#"
   xmlns:rdf="http://www.w3.org/1999/02/22-rdf-syntax-ns#"
   xmlns:svg="http://www.w3.org/2000/svg"
   xmlns="http://www.w3.org/2000/svg"
   xmlns:sodipodi="http://sodipodi.sourceforge.net/DTD/sodipodi-0.dtd"
   xmlns:inkscape="http://www.inkscape.org/namespaces/inkscape"
   version="1.1"
   id="svg112"
   width="256.59592"
   height="261.93054"
   viewBox="0 0 256.59592 261.93054"
   sodipodi:docname="Seme_denari_carte_aluette.svg"
   inkscape:version="1.0.2-2 (e86c870879, 2021-01-15)">
  <metadata
     id="metadata118">
    <rdf:RDF>
      <cc:Work
         rdf:about="">
        <dc:format>image/svg+xml</dc:format>
        <dc:type
           rdf:resource="http://purl.org/dc/dcmitype/StillImage" />
        <dc:title />
      </cc:Work>
    </rdf:RDF>
  </metadata>
  <defs
     id="defs116" />
  <sodipodi:namedview
     pagecolor="#ffffff"
     bordercolor="#666666"
     borderopacity="1"
     objecttolerance="10"
     gridtolerance="10"
     guidetolerance="10"
     inkscape:pageopacity="0"
     inkscape:pageshadow="2"
     inkscape:window-width="1920"
     inkscape:window-height="1001"
     id="namedview114"
     showgrid="false"
     inkscape:zoom="3.7672837"
     inkscape:cx="130.74805"
     inkscape:cy="154.94462"
     inkscape:window-x="-9"
     inkscape:window-y="-9"
     inkscape:window-maximized="1"
     inkscape:current-layer="g120"
     inkscape:document-rotation="0" />
  <g
     inkscape:groupmode="layer"
     inkscape:label="Image"
     id="g120"
     transform="translate(-31428.766,666.83861)">
    <g
       id="g124"
       transform="matrix(0.00718391,0,0,0.00718391,31349.374,-714.51564)">
      <path
         id="path128"
         style="fill:#d6b43d;stroke-width:96"
         d="m 27408.416,7418.3928 c -4621.961,24.4153 -7988.433,2362.4425 -11165.915,5640.1932 -1953.742,2576.853 -2947.72,4247.697 -3546.225,6703.827 -892.363,3662.058 -1036.336,7693.911 96.414,11307.234 1532.628,4028.569 3654.191,6786.587 7114.91,9183.734 3630.041,2344.57 7801.206,3030.361 12058.506,1846.47 3502.972,-838.442 6599.019,-2076.085 8950.181,-5025.417 3402.483,-4371.082 5522.264,-9369.665 5166.958,-14776.037 -98.695,-2562.499 -1195.68,-4938.685 -2712.106,-6961.212 -1307.88,-1776.349 -2444.811,-2349.902 -3836.277,-4047.056 -2454.459,-1917.2398 -5242.105,-2614.4025 -8010.126,-3926.1666 -1165.939,-473.2317 -2834.826,53.7192 -4116.32,54.4304 z M 46184.883,23825.799 c 1197.611,259.748 -74.863,-1161.632 0,0 z"
         sodipodi:nodetypes="ccaccccccccccc" />
      <path
         style="fill:#2c2b29;stroke-width:96"
         d="m 26752.02,42959.327 c -255.189,-70.128 -687.189,-157.502 -960,-194.166 -272.81,-36.662 -547.258,-108.02 -609.884,-158.572 -73.206,-59.094 -182.81,-55.013 -306.957,11.428 -157.083,84.068 -234.318,62.241 -414.136,-117.039 -127.23,-126.848 -509.826,-239.364 -771.406,-343.197 -198.839,-78.929 -402.674,-144.76 -605.665,-212.299 -94.17,-31.332 -189.079,-60.413 -283.972,-89.482 -93.177,-28.543 -187.188,-54.335 -280.207,-83.39 -150.358,-46.965 -303.223,-87.604 -449.131,-146.968 -274.806,-111.808 -532.459,-261.848 -798.873,-392.397 -268.055,-131.352 -529.994,-276.107 -804.534,-393.301 -131.712,-56.224 -269.586,-96.815 -403.255,-148.214 -69.888,-26.873 -144.127,-45.387 -208.441,-83.73 -258.066,-153.856 -434.023,-424.174 -693.288,-576 -77.103,-45.152 -174.555,-48.56 -250.271,-96 -133.717,-83.781 -238.848,-207.337 -345.351,-323.77 -114.09,-124.726 -181.275,-292.857 -312.57,-399.322 -137.432,-111.441 -329.657,-135.15 -476.57,-233.757 -123.04,-82.584 -234.734,-183.754 -332.383,-295.215 -215.408,-245.878 -549.126,-617.3 -549.126,-812.51 0,-77.169 -125.725,-143.658 -305.085,-161.343 -251.812,-24.83 -341.813,-103.268 -515.416,-449.195 -115.683,-230.511 -340.384,-501.453 -499.335,-602.095 -171.316,-108.469 -311.343,-294.687 -343.865,-457.297 -36.636,-183.177 -175.956,-231.08 -280.552,-330.958 -261.643,-249.843 -612.439,-398.472 -859.368,-662.867 -238.755,-255.643 -408.321,-569.507 -582.733,-872.719 -176.105,-306.156 -321.968,-629.117 -465.89,-951.656 -47.524,-106.504 -88.83,-215.691 -131.123,-324.378 -36.682,-94.27 -77.2,-187.356 -106.346,-284.221 -18.278,-60.746 -36.324,-122.337 -42.739,-185.448 -8.08,-79.495 15.524,-160.343 5.731,-239.645 -40.586,-328.671 -82.592,-957.604 -264.653,-957.604 -66.345,0 -81.743,-89.52 -120.626,-135.993 -87.083,-104.081 -186.965,-200.615 -252.126,-319.654 -67.305,-122.957 -95.681,-263.604 -137.788,-397.303 -40.671,-129.14 -76.492,-259.801 -110.835,-390.766 -133.518,-509.16 -250.922,-1022.438 -370.05,-1535.156 -72.168,-310.607 -155.083,-619.253 -208.817,-933.573 -34.367,-201.034 -75.685,-403.631 -72.384,-607.555 1.202,-74.253 29.657,-146.092 33.502,-220.255 15.512,-299.169 -39.757,-598.148 -42.529,-897.707 -2.918,-315.464 -4.947,-632.212 27.291,-946.038 17.544,-170.783 63.913,-337.43 90.128,-507.098 134.137,-868.158 230.026,-2012.414 343.453,-2612.902 24.933,-132 52.834,-480.363 62.001,-774.14 9.999,-320.44 83.378,-635.953 183.411,-788.622 93.68,-142.975 166.743,-437.215 166.743,-671.512 0,-229.366 63.426,-500.886 140.947,-603.378 77.52,-102.491 142.32,-257.01 144,-343.374 1.68,-86.365 67.587,-280.765 146.462,-432 78.874,-151.236 143.674,-340.962 144,-421.613 0.288,-80.653 115.917,-234.955 150.396,-360.517 55.59,-202.44 11.304,-428.294 88.367,-623.573 113.012,-286.374 346.527,-509.167 529.828,-756.518 86.917,-117.288 198.314,-217.63 270.083,-344.753 54.7,-96.89 61.667,-216.426 118.637,-312 91.957,-154.269 207.06,-183.6 351.898,-408 144.838,-224.4 450.332,-641.806 678.876,-927.569 228.544,-285.763 438.558,-634.691 466.699,-775.395 30.996,-154.98 221.955,-385.362 484.422,-584.431 535.269,-405.976 919.914,-781.575 1892.628,-1848.122 417.584,-457.866 830.144,-832.483 916.8,-832.483 86.656,0 205.761,-48.204 264.676,-107.1187 58.914,-58.9143 188.451,-156.1143 287.857,-216 99.407,-59.8848 324.487,-195.2813 500.18,-300.8813 175.692,-105.6 432.797,-281.3029 571.342,-390.4509 138.546,-109.1481 403.102,-256.6628 587.902,-327.8107 184.8,-71.1478 404.201,-187.045 487.559,-257.5491 83.358,-70.5041 249.489,-128.1893 369.181,-128.1893 119.691,0 332.29,-80.4153 472.44,-178.7005 140.151,-98.2854 406.807,-206.3645 592.57,-240.176 185.762,-33.8114 498.806,-147.7961 695.652,-253.2994 196.846,-105.5033 421.394,-191.8241 498.993,-191.8241 77.6,0 282.956,-61.4682 456.348,-136.596 1198.637,-519.3508 3549.038,-782.956 6237.654,-699.5734 1444.508,44.7988 1425.57,169.9897 2119.586,345.4438 294.747,74.5149 579.672,185.3281 861.752,298.7256 149.872,60.2493 296.935,127.9644 440.315,202.3537 38.31,19.8765 71.988,48.7512 111.95,65.0546 275.1,112.2329 596.418,89.9254 864,219.0609 69.407,33.4959 113.217,109.4311 183.921,140.095 76.193,33.0448 165.697,19.1171 245.666,41.5308 86.653,24.2869 168.088,64.4705 250.81,99.905 574.365,246.0334 1655.871,659.7918 1703.603,782.042 17.6,45.0769 114.8,81.958 216,81.958 101.2,0 184,35.5263 184,78.9473 0,148.9655 729.231,349.64 1048.616,593.0527 101.675,77.4894 180.019,181.5587 270.551,271.8154 30.568,30.4746 58.377,64.0712 92.055,91.0694 176.29,141.3262 390.518,229.5462 570.123,366.6342 188.102,143.573 434.935,445.179 527.867,474.674 92.931,29.495 195.688,137.819 228.347,240.717 32.658,102.9 112.274,187.09 176.922,187.09 123.22,0 925.519,773.135 925.519,891.876 0,37.735 280.8,350.795 624,695.688 343.2,344.894 624,679.913 624,744.486 0,64.574 280.8,387.767 624,718.208 471.818,454.278 624,665.347 624,865.461 0,145.563 154.375,499.066 343.055,785.562 713.464,1083.34 1121.109,1839.669 1298.177,2408.59 40.707,589.937 294.227,1084.576 388.373,1626.129 39.938,237.6 139.517,799.2 221.286,1248 346.501,1901.834 432.311,3295.032 298.595,4848 -27.277,316.8 -61.271,904.159 -75.541,1305.242 -15.711,441.618 -77.911,791.858 -157.698,887.999 -72.465,87.316 -143.137,363.957 -157.05,614.758 -37.807,681.558 -133.857,1167.474 -290.738,1470.849 -77.253,149.389 -140.459,364.294 -140.459,477.565 0,113.271 -87.981,329.506 -195.514,480.521 -107.532,151.016 -240.694,416.885 -295.914,590.82 -104.971,330.646 -141.034,425.484 -430.55,1132.246 -261.802,639.108 -754.195,1455.978 -1037.225,1720.734 -136.838,128.004 -248.797,290.004 -248.797,360 0,69.996 -42.322,127.266 -94.049,127.266 -51.727,0 -178.628,162 -282.003,360 -194.281,372.118 -1360.093,1656 -1503.71,1656 -44.642,0 -320.359,231.409 -612.703,514.242 -1633.444,1580.301 -1992.913,1893.497 -3027.535,2637.8 -525.073,377.736 -1672.636,975.958 -1872.169,975.958 -142.081,0 -416.049,126.481 -1203.493,555.608 -465.959,253.929 -1080.897,500.481 -1250.647,501.431 -102.131,0.576 -401.691,66.955 -665.691,147.519 -264,80.563 -577.572,122.379 -696.828,92.923 -119.256,-29.454 -335.256,7.507 -480,82.133 -193.097,99.559 -576.409,129.559 -1439.56,112.669 -891.81,-17.452 -1202.36,8.275 -1283.755,106.348 -142.103,171.225 -1875.445,160.68 -2515.837,-15.304 z m 4527.492,-2166.651 c 61.868,-268.028 112.488,-608.338 112.488,-756.246 0,-147.906 64.8,-322.7 144,-388.43 79.2,-65.73 144,-176.988 144,-247.237 0,-257.897 207.743,-571.9 455.683,-688.763 492.46,-232.115 720.585,-152.813 1449.846,504 381.057,343.2 735.525,624 787.708,624 52.183,0 144.087,108 204.23,240 156.585,343.666 536.176,328.743 610.503,-24 30.595,-145.2 97.682,-341.357 149.081,-435.905 51.399,-94.548 67.121,-214.511 34.937,-266.586 -32.183,-52.074 -80.192,-383.856 -106.686,-737.291 -26.494,-353.436 -64.805,-669.526 -85.137,-702.423 -63.225,-102.3 151.773,-761.795 248.347,-761.795 50.318,0 91.488,-64.8 91.488,-144 0,-184.661 229.587,-186.057 382.072,-2.323 64.671,77.922 343.78,248.686 620.245,379.474 276.464,130.789 558.131,304.634 625.927,386.323 67.797,81.689 204.532,148.525 303.859,148.525 99.326,0 338.14,84.44 530.695,187.644 367.296,196.859 628.742,150.077 736.931,-131.86 80.683,-210.258 -77.152,-966.162 -379.707,-1818.492 -264.086,-743.956 -265.225,-756.722 -79.962,-896.151 142.773,-107.452 336.902,-126.819 807.774,-80.587 340.908,33.471 664.908,97.336 720,141.921 315.761,255.545 843.159,466.275 1314.263,525.136 693.015,86.586 779.72,-71.267 371.436,-676.229 -158.155,-234.343 -315.73,-543.371 -350.167,-686.729 -90.081,-375.014 -395.917,-957.204 -621.165,-1182.452 -121.546,-121.546 -182.713,-290.116 -164.017,-452.017 28.216,-244.323 55.585,-257.339 509.816,-242.441 1993.535,65.383 2813.428,0.384 2901.878,-230.141 32.507,-84.71 -65.055,-254.227 -240.894,-418.564 -162.541,-151.906 -350.434,-428.034 -417.541,-613.616 -67.108,-185.581 -153.643,-337.421 -192.301,-337.421 -130.083,0 -739.033,-814.392 -804.758,-1076.261 -57.41,-228.737 -32.804,-266.496 208.257,-319.579 150.347,-33.108 338.159,-82.684 417.359,-110.17 79.2,-27.484 457.561,-66.383 840.802,-86.439 800.301,-41.884 1463.198,-317.136 1463.198,-607.557 0,-178.742 -593.67,-775.994 -771.341,-775.994 -50.962,0 -92.659,-87.469 -92.659,-194.376 0,-113.616 -90.33,-228.72 -217.409,-277.035 -228.99,-87.061 -1289,-1038.029 -1216.699,-1091.537 241.026,-178.377 729.009,-454.706 1242.108,-703.362 343.2,-166.321 702.723,-390.094 798.94,-497.275 96.218,-107.179 301.418,-247.259 456,-311.29 154.583,-64.03 281.06,-151.466 281.06,-194.302 0,-42.836 95.808,-108.293 212.907,-145.459 207.047,-65.713 204.05,-74.967 -108.871,-336.205 -177.134,-147.878 -499.394,-297.119 -716.907,-332.006 -217.321,-34.856 -537.998,-145.675 -712.616,-246.263 -174.619,-100.59 -386.765,-182.89 -471.437,-182.89 -174.793,0 -666.73,-514.851 -753.669,-788.774 -79.74,-251.237 573.897,-1180.448 935.818,-1330.361 163.164,-67.585 415.991,-324.665 597.006,-607.048 172.693,-269.399 385.937,-549.107 473.877,-621.571 263.258,-216.931 203.242,-428.88 -104.108,-367.664 -155.117,30.896 -340.857,-3.754 -450.348,-84 -102.492,-75.12 -305.142,-136.582 -450.335,-136.582 -145.192,0 -287.462,-37.985 -316.155,-84.412 -29.019,-46.953 -319.09,-27.218 -653.666,44.474 -568.564,121.831 -624.023,117.254 -1012.956,-83.587 -652.736,-337.069 -650.796,-613.358 10.593,-1508.475 771.664,-1044.362 1033.109,-1462.909 1008.26,-1614.125 -14.63,-89.031 5.424,-212.89 44.569,-275.241 39.143,-62.352 32.372,-137.346 -15.046,-166.652 -104.045,-64.302 -1624.403,209.678 -1859.613,335.117 -287.632,153.396 -1100.845,109.53 -1167.032,-62.951 -98.968,-257.906 -64.534,-602.807 68.226,-683.378 182.347,-110.665 738.629,-1557.19 738.019,-1919.104 -0.288,-168.484 42.684,-333.034 95.484,-365.666 52.8,-32.632 96,-118.566 96,-190.964 0,-100.793 -67.89,-112.163 -289.775,-48.527 -259.946,74.551 -1120.177,450.174 -1556.922,679.834 -91.684,48.212 -232.084,87.657 -312,87.657 -79.916,0 -145.303,62.25 -145.303,138.334 0,172.551 -56.408,204.65 -500.337,284.721 -280.838,50.653 -395.426,25.182 -540.824,-120.216 -186.175,-186.175 -187.212,-604.772 -2.083,-840.524 45.645,-58.127 110.336,-317.327 143.759,-576 33.422,-258.673 144.563,-562.782 246.979,-675.797 176.974,-195.29 372.715,-1113.885 290.141,-1361.608 -72.264,-216.794 -113.393,-192.952 -1064.079,616.845 -192.257,163.764 -468.358,326.588 -613.558,361.828 -145.2,35.241 -264,106.452 -264,158.246 0,51.794 -51.391,94.171 -114.201,94.171 -62.809,0 -317.181,219.637 -565.269,488.083 -339.86,367.748 -506.968,480.173 -677.799,456 -173.156,-24.502 -224.067,-88.793 -215.456,-272.083 20.199,-429.945 125.079,-1095.181 239.373,-1518.318 85.616,-316.958 85.198,-497.427 -1.785,-768 -78.593,-244.4906 -86.35,-495.3751 -25.122,-812.6416 78.433,-406.4215 67.455,-470.2611 -95.902,-557.6865 -147.912,-79.1602 -248.031,-45.2773 -505.163,170.9595 -176.38,148.3276 -409.672,422.5575 -518.427,609.3999 -108.755,186.8419 -372.501,501.4127 -586.104,699.0447 -213.603,197.634 -452.149,482.67 -530.102,633.416 -108.455,209.728 -227.004,284.96 -504.891,320.407 -199.736,25.477 -406.357,6.595 -459.157,-41.966 -80.282,-73.832 -140.789,-1064.105 -142.646,-2334.615 -0.288,-211.5885 -23.997,-251.5565 -89.281,-150.6419 -66.349,102.5605 -105.704,47.5714 -155.349,-217.0603 -36.569,-194.9302 -105.179,-378.3297 -152.465,-407.5547 -135.167,-83.5414 -468.252,54.6924 -468.252,194.332 0,69.3752 -151.2,241.4625 -336,382.4163 -184.8,140.9538 -337.202,308.0812 -338.671,371.3941 -1.469,63.313 -131.069,284.8101 -288,492.2158 -156.931,207.4062 -286.703,466.6067 -288.382,575.9997 -1.68,109.394 -63.919,279.254 -138.309,377.465 -120.629,159.254 -166.467,164.75 -423.856,50.818 -158.73,-70.26 -313.314,-226.215 -343.52,-346.565 -30.206,-120.351 -96.786,-218.819 -147.956,-218.819 -51.171,0 -120.669,-172.8 -154.441,-384 -33.772,-211.2 -95.651,-384 -137.507,-384 -41.857,0 -102.578,-120.5444 -134.938,-267.8765 -132.389,-602.7602 -724.42,-1200.5874 -724.42,-731.5116 0,83.9365 -87.386,224.3365 -194.191,312 -106.805,87.6634 -323.706,523.2485 -482.004,967.9668 -158.297,444.7186 -336.268,866.9623 -395.489,938.3203 -59.222,71.357 -81.44,155.977 -49.373,188.043 98.723,98.724 -109.795,390.181 -318.127,444.661 -156.735,40.987 -226.738,-18.954 -340.718,-291.751 C 25367.225,10266.377 24753.521,9504 24556.273,9504 c -94.75,0 -172.273,-64.8 -172.273,-144 0,-79.2 -33.729,-144 -74.953,-144 -41.224,0 -123.872,-129.6 -183.661,-288 -81.509,-215.9408 -169.755,-288 -352.697,-288 -203.874,0 -254.589,56.5022 -308.46,343.6622 -37.638,200.6275 -19.034,430.3739 44.698,552 60.045,114.5861 124.348,666.0628 142.898,1225.5038 29.514,890.096 12.579,1030.373 -135.554,1122.883 -247.405,154.507 -837.365,-34.505 -1245.248,-398.955 -299.099,-267.249 -717.635,-514.439 -1151.023,-679.801 -79.2,-30.218 -283.892,-139.811 -454.872,-243.538 -287.893,-174.654 -601.128,-176.44 -601.128,-3.429 0,230.069 498.591,1153.674 622.789,1153.674 166.931,0 169.323,20.497 58.212,498.76 -87.236,375.501 23.331,632.039 408.242,947.199 249.29,204.116 137.172,533.432 -203.801,598.614 -143.192,27.373 -303.794,22.42 -356.895,-11.006 -53.101,-33.426 -168.319,-48.986 -256.042,-34.577 -87.723,14.408 -187.472,-19.07 -221.666,-74.396 -34.194,-55.327 -136.178,-100.594 -226.631,-100.594 -90.454,0 -322.196,-130.019 -514.984,-288.93 -192.787,-158.911 -484.328,-315.69 -647.871,-348.4 -163.542,-32.708 -320.697,-97.248 -349.234,-143.422 -64.87,-104.961 -543.579,5.645 -638.532,147.533 -110.126,164.561 27.153,756.337 226.274,975.406 99.077,109.003 180.139,249.99 180.139,313.303 0,146.766 187.886,483.544 423.627,759.332 114.075,133.454 186.799,369.806 192,624 8.093,395.525 -1.239,408.701 -279.627,394.891 -918.879,-45.581 -1691.452,-125.459 -1787.489,-184.814 -60.583,-37.442 -244.782,-78.086 -409.331,-90.318 -164.549,-12.232 -417.98,-54 -563.18,-92.817 -318.66,-85.191 -337.719,52.829 -66.04,478.236 101.159,158.4 212.568,352.8 247.575,432 35.006,79.2 121.115,211.353 191.35,293.673 158.121,185.326 544.936,862.384 815.871,1428.048 145.386,303.54 176.872,468.85 109.707,576 -121.373,193.634 -1105.45,280.707 -1936.397,171.337 -595.37,-78.364 -1083.185,13.643 -1216.565,229.458 -78.119,126.399 144.037,477.009 474.679,749.142 164.901,135.722 491.991,430.721 726.867,655.554 234.876,224.834 488.565,408.788 563.755,408.788 110.096,281.328 159.446,388.772 44.497,585.188 -119.78,202.77 -238.441,278.812 -435.084,278.812 -148.712,0 -409.397,57.355 -579.301,127.456 -169.904,70.1 -632.917,207.494 -1028.917,305.319 -396,97.824 -778.217,229.829 -849.371,293.343 -200.624,179.084 18.837,490.357 390.978,554.544 765.944,132.11 938.393,189.113 938.393,310.188 0,70.981 186.965,238.625 415.479,372.543 749.439,439.201 787.271,841.354 131.188,1394.527 -157.914,133.144 -367.114,317.68 -464.891,410.08 -97.777,92.4 -232.959,168 -300.404,168 -67.446,0 -337.446,190.448 -600,423.218 l -477.372,423.217 270.25,104.783 c 148.637,57.63 377.582,104.782 508.767,104.782 131.185,0 363.057,64.402 515.271,143.115 152.215,78.713 570.88,220.16 930.366,314.326 435.313,114.029 663.663,223.398 683.705,327.464 46.292,240.377 -238.922,842.324 -432.024,911.789 -220.505,79.323 -772.698,667.132 -951.469,1012.836 -75.785,146.558 -199.964,266.47 -275.951,266.47 -121.844,0 -336.912,273.255 -336.912,428.065 0,167.42 564.725,221.834 1579.487,152.191 909.406,-62.414 1178.919,-50.417 1405.376,62.554 385.432,192.28 514.215,452.397 320.09,646.523 -82.868,82.867 -184.77,150.667 -226.451,150.667 -41.68,0 -233.16,344.285 -425.509,765.077 -192.349,420.792 -476.168,909.086 -630.708,1085.097 -400.783,456.467 -284.948,567.55 478.512,458.881 340.562,-48.474 856.803,-161.131 1147.203,-250.348 1020.154,-313.415 1290.731,-180.454 1076.926,529.198 -64.309,213.452 -163.609,571.695 -220.666,796.095 -57.058,224.4 -147.251,537.6 -200.431,696 -163.981,488.432 -263.489,952.34 -214.734,1001.095 25.567,25.566 185.179,-27.195 354.695,-117.249 169.515,-90.054 543.456,-232.74 830.979,-317.083 287.523,-84.342 675.551,-257.167 862.284,-384.056 413.774,-281.166 689.139,-292.642 919.304,-38.312 154.697,170.938 160.372,234.031 50.89,565.768 -67.774,205.355 -97.829,414.465 -66.79,464.687 31.038,50.222 -17.566,303.226 -108.012,562.232 C 20570.001,37372.087 20496,37800 20496,38064 c 0,424.689 24.89,483.535 216,510.677 118.8,16.872 216,-12.617 216,-65.531 0,-52.914 75.6,-120.459 168,-150.099 92.4,-29.64 293.519,-162.15 446.932,-294.468 153.413,-132.319 349.612,-240.579 435.999,-240.579 86.388,0 317.369,-151.2 513.291,-336 195.923,-184.8 437.234,-336 536.246,-336 226.508,0 433.924,241.482 363.979,423.758 -29.169,76.012 3.014,184.723 71.523,241.578 89.053,73.907 125.837,435.236 129.049,1267.638 3.34,867.373 37.448,1185.154 133.735,1246.176 231.073,146.444 361.422,90.446 524.774,-225.443 88.252,-170.661 325.798,-483.861 527.878,-696 202.081,-212.139 393.616,-504.507 425.635,-649.707 32.018,-145.2 97.982,-264 146.587,-264 48.604,0 88.372,-62.25 88.372,-138.334 0,-172.854 56.142,-204.593 505.254,-285.642 298.409,-53.853 370.449,-35.171 414.118,107.391 29.076,94.922 110.142,302.185 180.145,460.585 70.004,158.4 182.633,538.413 250.287,844.474 67.654,306.06 158.825,578.61 202.601,605.666 43.777,27.055 79.595,157.482 79.595,289.837 0,307.877 162.166,612.023 326.321,612.023 126.473,0 633.679,-652.317 633.679,-814.973 0,-46.559 81.728,-173.837 181.618,-282.84 99.89,-109.003 298.817,-424.987 442.061,-702.187 283.076,-547.797 457.298,-617.864 867.698,-348.959 151.976,99.578 236.85,245.531 237.256,408 0.384,139.127 88.595,382.559 196.106,540.959 107.509,158.4 254.767,424.923 327.24,592.273 72.471,167.35 218.898,350.904 325.393,407.898 106.493,56.993 221.062,190.071 254.595,295.727 108.293,341.201 300.094,204.936 415.545,-295.222 z m -2578.161,-3867.324 c -27.723,-27.723 -416.468,-70.815 -863.878,-95.759 -447.41,-24.945 -1021.475,-124.165 -1275.7,-220.488 l -462.227,-175.135 c -960.111,-241.97 -457.532,-60.128 -960.111,-241.97 -279.366,0 -825.396,-251.473 -1219.902,-561.822 -193.343,-152.098 -453.187,-308.236 -577.433,-346.972 -352.774,-109.984 -1498.596,-925.805 -1723.543,-1227.155 -68.994,-92.428 -181.099,-168.051 -249.122,-168.051 -140.776,0 -441.435,-303.372 -441.435,-445.418 0,-51.866 -302.4,-403.981 -672,-782.481 -369.6,-378.499 -672,-732.943 -672,-787.654 0,-54.71 -194.4,-366.636 -432,-693.168 -262.522,-360.781 -432,-696.922 -432,-856.822 0,-144.719 -45.48,-291.234 -101.068,-325.589 -55.587,-34.355 -84.024,-112.504 -63.194,-173.665 20.829,-61.162 -106.49,-379.353 -282.933,-707.092 -176.443,-327.739 -320.805,-670.579 -320.805,-761.867 0,-236.903 -297.17,-1407.816 -386.336,-1522.244 -99.057,-127.123 -48.774,-3151.637 55.194,-3319.86 44.496,-71.996 89.713,-403.28 100.482,-736.19 10.769,-332.909 68.544,-664.284 128.387,-736.391 59.843,-72.107 124.963,-258.764 144.709,-414.793 37.329,-294.96 591.461,-1714.105 748.356,-1916.561 49.356,-63.687 66.778,-152.944 38.716,-198.348 -91.815,-148.561 200.512,-825.459 443.046,-1025.889 130.423,-107.782 385.954,-411.968 567.846,-675.968 181.893,-264 509.979,-666.991 729.079,-895.536 219.102,-228.544 424.712,-498.544 456.912,-600 32.202,-101.455 91.636,-184.464 132.078,-184.464 40.442,0 199.531,-128.4 353.531,-285.333 154,-156.933 329.032,-286.533 388.959,-288 59.927,-1.469 179.724,-110.667 266.213,-242.667 86.49,-132 206.267,-240 266.173,-240 59.906,0 328.91,-165.129 597.787,-366.952 268.877,-201.824 791.268,-490.349 1160.868,-641.168 369.6,-150.818 775.026,-352.89 900.947,-449.048 125.92,-96.157 338.53,-174.832 472.467,-174.832 133.937,0 526.317,-113.136 871.955,-251.412 598.076,-239.269 1004.917,-287.806 2746.631,-327.676 921.282,-21.09 3010.274,225.609 3321.689,392.274 102.453,54.831 227.105,74.461 277.003,43.622 49.897,-30.838 263.283,31.964 474.192,139.561 210.907,107.597 506.566,195.631 657.02,195.631 307.266,0 2223.559,1129.12 2227.611,1312.555 1.363,61.905 148.261,160.666 326.433,219.468 196.135,64.73 532.339,342.271 852.129,703.445 1049.618,1185.449 1510.232,1750.492 1511.07,1853.653 0.48,57.817 87.253,183.312 192.853,278.879 105.6,95.567 192,226.144 192,290.173 0,156.482 725.531,1104.302 989.903,1706.397 182.324,415.235 275.249,864.286 404.413,1299.002 51.221,172.39 104.965,344.25 146.928,519.125 36.393,151.661 45.174,309.857 90.756,459.014 36.833,120.528 59.549,315.166 146.529,348.543 123.843,47.524 145.009,304.631 136.709,1660.728 -5.395,882.474 -52.25,1903.416 -104.11,2268.758 -51.859,365.343 -90.783,815.46 -86.496,1000.26 4.282,184.8 -78.202,504.39 -183.309,710.198 -105.107,205.81 -168.172,411.305 -140.143,456.656 28.029,45.351 -38.171,207.63 -147.11,360.62 -108.938,152.992 -198.07,328.804 -198.07,390.696 0,292.253 -736.007,1811.97 -1012.406,2090.431 -170.659,171.93 -384.386,468.753 -474.952,659.605 -90.565,190.853 -235.759,366.721 -322.653,390.818 -154.309,42.794 -685.989,784.315 -685.989,956.732 0,47.766 -118.8,159.558 -264,248.426 -145.2,88.869 -410.254,292.582 -589.009,452.698 -178.755,160.116 -366.341,291.12 -416.858,291.12 -50.517,0 -190.863,75.6 -311.881,168 -121.016,92.4 -316.724,232.8 -434.905,312 -118.18,79.2 -270.326,197.033 -338.103,261.851 -67.778,64.818 -332.485,201.453 -588.238,303.632 -255.753,102.18 -712.59,319.146 -1015.192,482.149 -302.602,163.003 -630.202,296.368 -728,296.368 -97.797,0 -210.08,32.4 -249.516,72 -112.331,112.798 -1188.155,310.491 -1928.298,354.344 -369.6,21.898 -996.055,68.074 -1392.122,102.613 -396.067,34.54 -742.804,40.117 -770.527,12.395 z M 31104,35899.236 c 237.6,-50.813 626.4,-128.771 864,-173.239 237.6,-44.469 709.448,-195.41 1048.551,-335.424 339.103,-140.015 650.137,-254.573 691.188,-254.573 41.049,0 260.402,-118.8 487.449,-264 227.046,-145.2 499.212,-318.544 604.812,-385.211 105.6,-66.666 372.331,-204.129 592.737,-305.474 220.405,-101.346 657.228,-435.601 970.719,-742.79 313.49,-307.188 662.879,-549.478 954.307,-864.637 224.638,-242.931 410.344,-519.309 606.972,-785.42 125.752,-170.189 279.641,-453.753 366.151,-518.588 144.708,-108.449 547.761,-860.946 834.435,-1557.88 271.657,-660.424 401.093,-574.869 548.703,-890.849 26.464,-56.65 41.999,-117.872 59.362,-177.939 117.734,-407.294 -1.872,-552.177 303.313,-1235.212 47.182,-105.6 113.953,-408 148.379,-672 82.103,-629.619 103.973,-3223.797 27.576,-3271.013 -32.641,-20.172 -88.629,-257.416 -124.418,-527.209 -35.789,-269.791 -99.736,-469.548 -171.642,-698.154 -74.593,-237.15 -173.924,-465.896 -268.594,-695.77 -289.308,-702.489 -628.132,-1383.982 -914.601,-2087.634 -50.405,-123.81 -74.564,-259.506 -141.399,-375.276 -491.593,-851.522 -1104.069,-1534.714 -1870.317,-2280.944 -81.326,-79.2 -352.573,-345.838 -602.774,-592.529 -250.2,-246.691 -727.066,-647.79 -1059.703,-891.331 -578.555,-423.59 -1613.369,-964.817 -1776.782,-929.289 -69.134,15.031 -535.568,-166.634 -930.424,-362.378 -79.2,-39.262 -378.267,-81.306 -664.594,-93.432 -286.325,-12.126 -588.725,-55.301 -672,-95.944 -190.204,-92.835 -2972.055,-63.507 -3199.621,33.731 -92.518,39.534 -280.213,43.768 -417.1,9.408 -168.167,-42.207 -356.686,1.143 -581.273,133.648 -182.813,107.861 -448.718,197.486 -590.899,199.165 -142.182,1.68 -342.37,66.48 -444.861,144 -102.492,77.521 -330.648,140.947 -507.013,140.947 -196.476,0 -342.065,55.769 -375.923,144 -30.392,79.2 -113.916,144 -185.61,144 -71.693,0 -176.591,86.4 -233.106,192 -56.515,105.6 -188.715,192 -293.777,192 -135.448,0 -207.781,83.79 -248.623,288 -65.65,328.25 -110.566,350.728 -268.701,134.464 -100.698,-137.712 -150.164,-127.819 -479.98,96 -202.242,137.245 -444.463,249.536 -538.269,249.536 -96.863,0 -225.184,123.412 -296.987,285.625 -69.536,157.094 -247.608,335.819 -395.715,397.167 -281.587,116.637 -453.948,348.812 -453.948,611.481 0,185.436 -452.387,625.727 -642.917,625.727 -74.184,0 -198.055,151.2 -275.27,336 -77.214,184.8 -182.132,336 -233.151,336 -129.379,0 -451.166,657.15 -531.518,1085.46 -46.135,245.918 -149.13,405.111 -331.986,513.127 -223.463,132.003 -273.602,238.953 -319.217,680.913 -29.762,288.372 -121.575,598.857 -204.027,689.965 -82.453,91.109 -149.914,240.692 -149.914,332.405 0,91.714 -51.902,261.113 -115.338,376.441 -133.221,242.202 -173.959,621.275 -203.078,1889.689 -11.515,501.6 -50.697,958.826 -87.073,1016.058 -86.645,136.325 -3.753,1209.062 118.221,1529.866 52.397,137.817 95.268,393.687 95.268,568.602 0,174.914 64.8,473.114 144,662.667 79.2,189.552 144,470.339 144,623.969 0,153.631 64.325,332.713 142.943,397.961 78.618,65.248 124.029,149.235 100.913,186.638 -23.116,37.403 13.888,175.788 82.232,307.521 68.344,131.733 150.862,345.495 183.372,475.027 32.51,129.532 157.22,340.82 277.131,469.53 119.912,128.711 218.784,279.881 219.716,335.935 0.96,56.053 98.893,206.431 217.693,334.173 246.572,265.13 265.732,350.003 96,425.26 -77.825,34.507 -69.39,47.299 24,36.398 179.146,-20.909 768,529.789 768,718.237 0,166.266 1449.654,1517.596 1781.536,1660.701 128.246,55.299 373.865,233.417 545.819,395.818 171.955,162.402 431.445,323.181 576.645,357.287 145.2,34.105 264,104.387 264,156.181 0,51.794 86.987,94.171 193.303,94.171 201.741,0 522.696,154.917 745.842,360 71.813,66 213.883,120 315.712,120 103.686,0 185.143,65.848 185.143,149.666 0,82.316 43.026,123.074 95.614,90.573 52.587,-32.501 452.187,29.354 888,137.456 435.812,108.101 1008.386,230.669 1272.386,272.372 599.481,94.699 2638.26,44.724 3216,-78.831 z m -3058.509,-1403.842 c -325.031,-83.685 180.867,-76.401 -925.491,-396.618 -813.681,-235.507 -1805.815,-607.582 -1872.962,-702.408 -26.929,-38.031 -164.149,-98.056 -304.934,-133.39 -140.785,-35.335 -330.648,-146.76 -421.917,-247.612 -91.27,-100.851 -205.465,-183.366 -253.769,-183.366 -296.08,0 -1623.826,-1146.386 -1882.781,-1625.606 -87.8,-162.483 -343.645,-500.393 -568.544,-750.91 -535.647,-596.661 -887.093,-1138.96 -887.093,-1368.827 0,-101.65 -86.4,-338.645 -192,-526.657 -483.524,-1260.586 -225.008,-346.188 -483.524,-1260.586 -68.462,-244.521 -123.014,-514.521 -121.227,-600 1.786,-85.477 -60.215,-228.481 -137.783,-317.783 -105.872,-121.889 -124.381,-283.441 -74.241,-648 36.736,-267.098 30.338,-485.631 -14.216,-485.631 -118.253,0 -83.78,-866.475 47.035,-1182.25 61.576,-148.636 111.956,-453.196 111.956,-676.8 0,-223.602 52.075,-458.625 115.722,-522.272 65.786,-65.786 110.394,-343.341 103.373,-643.2 -9.322,-398.004 21.186,-527.478 124.278,-527.478 75.145,0 142.027,-43.2 148.627,-96 6.595,-52.8 20.749,-128.4 31.443,-168 10.693,-39.6 55.142,-243.812 98.774,-453.805 43.633,-209.994 175.829,-457.71 293.769,-550.482 117.941,-92.772 243.062,-282.725 278.048,-422.119 34.985,-139.394 234.24,-510.333 442.788,-824.307 208.548,-313.975 379.178,-611.01 379.178,-660.075 0,-49.067 32.815,-89.212 72.921,-89.212 40.106,0 353.306,-261.336 696,-580.747 342.694,-319.411 731.079,-652.649 863.079,-740.531 132,-87.881 412.8,-294.228 624,-458.549 556.212,-432.75 1050.426,-697.422 1438.07,-770.145 186.781,-35.04 441.17,-143.605 565.312,-241.254 340.743,-268.029 1550.608,-479.036 2719.685,-474.329 1431.987,5.769 1704.389,30.871 1875.772,172.875 81.858,67.825 380.206,149.47 662.997,181.432 303.925,34.352 765.416,190.01 1128.631,380.681 346.278,181.78 756.482,322.567 939.846,322.567 246.011,0 415.908,87.812 696.522,360 204.13,198 615.493,576 914.139,840 298.647,264 687.861,670.282 976.663,1051.692 163.284,215.643 275.377,465.824 422.589,692.743 329.638,508.12 749.137,960.149 1030.803,1496.349 135.368,257.696 263.589,565.632 311.011,816 47.421,250.369 156.076,757.616 241.454,1127.216 194.468,841.846 308.195,1656.078 274.531,1965.505 -14.211,130.627 18.338,290.735 72.333,355.794 53.994,65.06 67.875,167.311 30.846,227.225 -37.03,59.915 -83.848,388.459 -104.04,730.099 -20.194,341.639 -80.016,702.07 -132.94,800.958 -52.923,98.888 -96.224,309.687 -96.224,468.442 0,158.755 -43.2,315.345 -96,347.977 -52.8,32.632 -96,124.301 -96,203.709 0,208.245 -950.238,2231.536 -1373.617,2924.769 -399.747,654.538 -1471.379,1731.052 -1949.158,1958.036 -164.326,78.068 -353.216,207.54 -419.754,287.715 -66.54,80.174 -185.026,145.771 -263.303,145.771 -78.278,0 -334.354,129.6 -569.059,288 -234.703,158.4 -470.651,288 -524.327,288 -53.676,0 -235.11,101.761 -403.187,226.135 -287.727,212.912 -1235.797,418.49 -2273.595,493 -1222.426,87.767 -1159.703,220.924 -1746.999,230.308 -182.04,2.909 -367.196,-8.654 -543.51,-54.049 z m 1568.044,-1178.627 c 80.555,-155.778 146.465,-350.178 146.465,-432 0,-81.821 43.2,-148.767 96,-148.767 52.8,0 96,-94.416 96,-209.813 0,-115.397 84.583,-299.846 187.961,-409.888 146.249,-155.675 209.924,-431.874 286.929,-1244.588 92.271,-973.825 85.989,-1065.515 -92.825,-1354.843 -105.487,-170.681 -182.341,-391.001 -170.786,-489.599 31.902,-272.235 -126.095,-1086.623 -222.356,-1146.115 -46.707,-28.867 -84.923,-120.774 -84.923,-204.236 0,-345.779 -662.759,-544.381 -977.499,-292.918 -330.28,263.878 -880.91,1362.685 -893.511,1783.041 -6.845,228.271 -55.348,444.271 -107.788,480 -121.584,82.835 -97.024,840.583 39.444,1216.959 57.433,158.4 171.193,518.243 252.799,799.65 81.607,281.408 228.966,627.008 327.466,768 98.5,140.993 208.088,376.249 243.532,522.792 74.657,308.682 379.979,645.558 585.092,645.558 77.844,0 207.444,-127.454 288,-283.233 z m -6067.903,-2308.29 c 178.534,-105.338 537.403,-219.028 797.487,-252.645 267.009,-34.513 605.924,-160.103 778.476,-288.477 168.077,-125.045 394.877,-227.355 504,-227.355 109.123,0 198.405,-39.347 198.405,-87.436 0,-48.09 190.905,-179.852 424.232,-292.804 482.451,-233.549 522.915,-274.858 850.034,-867.76 538.241,-975.563 645.734,-1205.788 645.734,-1383.019 0,-102.225 73.877,-267.496 164.171,-367.269 157.104,-173.598 142.712,-201.447 -334.342,-647.006 -541.063,-505.343 -740.671,-534.86 -1144.945,-169.309 -116.112,104.991 -275.904,166.032 -355.089,135.646 -83.821,-32.166 -270.597,63.033 -447.038,227.854 -237.643,221.992 -391.585,283.103 -713.155,283.103 -451.999,0 -573.986,97.998 -657.244,528 -30.67,158.4 -92.567,482.4 -137.549,720 -44.983,237.6 -218.347,620.189 -385.252,850.198 -270.515,372.792 -299.15,474.42 -263.729,936 21.855,284.791 2.045,517.802 -44.016,517.802 -46.062,0 -148.403,129.6 -227.423,288 -168.461,337.69 -95.798,357.878 347.243,96.477 z m 12025.74,-5.933 c 98.636,-159.596 -40.27,-570.544 -192.851,-570.544 -81.503,0 -163.578,-137.299 -200.855,-336 -34.669,-184.8 -101.426,-336 -148.35,-336 -46.924,0 -85.316,-62.575 -85.316,-139.054 0,-76.479 -108,-255.588 -240,-398.018 -283.928,-306.364 -298.153,-395.028 -72,-448.78 135.437,-32.19 119.55,-59.97 -81.968,-143.328 -239.34,-99.002 -658.535,-676.417 -665.226,-916.307 -5.129,-183.921 -349.605,-546.513 -519.207,-546.513 -85.594,0 -178.66,-60.03 -206.815,-133.399 -28.154,-73.369 -306.158,-226.365 -617.788,-339.99 -311.628,-113.625 -592.186,-247.996 -623.462,-298.602 -31.276,-50.605 -187.961,-92.009 -348.187,-92.009 -209.361,0 -305.272,53.345 -340.906,189.609 -27.386,104.724 -195.58,242.402 -375.698,307.533 -307.181,111.078 -322.555,137.691 -264.82,458.391 79.03,438.985 122.949,508.511 282.535,447.273 99.347,-38.124 117.441,17.7 74.816,230.828 -62.735,313.673 155.083,944.948 460.42,1334.384 313.981,400.458 1869.659,1255.982 2283.868,1255.982 146.183,0 402.736,47.741 570.118,106.091 235.128,81.965 338.678,77.584 455.378,-19.269 128.023,-106.25 178.61,-89.495 331.861,109.91 99.446,129.397 181.772,267.668 182.946,307.268 3.235,109.128 270.083,86.111 341.507,-29.457 z m -5213.507,-4824.676 c 91.226,-115.428 166.826,-257.173 168,-314.989 1.171,-57.817 88.535,-183.312 194.135,-278.879 154.087,-139.447 192,-295.677 192,-791.185 0,-538.524 -38.374,-670.862 -300.283,-1035.563 -165.156,-229.975 -370.356,-446.646 -456,-481.492 -218.766,-89.007 -1644.245,-50.232 -1831.176,49.809 -251.894,134.81 -564.715,877.814 -591.144,1404.067 -32.978,656.645 133.86,1014.688 667.945,1433.445 442.933,347.287 452.262,349.684 1118.658,287.43 530.348,-49.543 706.963,-107.015 837.865,-272.643 z M 24816,26169.993 c 264,-14.31 609.6,-97.747 768,-185.414 158.4,-87.668 317.405,-159.662 353.343,-159.988 35.939,-0.288 213.397,-97.791 394.35,-216.591 274.162,-179.993 346.636,-304.017 434.763,-744 58.166,-290.4 134.148,-625.2 168.847,-744 49.963,-171.058 24.629,-216 -121.758,-216 -101.666,0 -268.705,-63.426 -371.197,-140.947 -102.491,-77.52 -257.327,-142.32 -344.077,-144 -86.751,-1.68 -179.542,-59.896 -206.201,-129.37 -26.66,-69.474 -301.282,-182.097 -610.271,-250.275 -308.99,-68.177 -681.701,-168.232 -828.249,-222.345 -210.825,-77.847 -302.589,-65.681 -439.559,58.276 -95.21,86.163 -290.229,156.661 -433.375,156.661 -143.145,0 -429.623,86.4 -636.616,192 -206.993,105.6 -422.198,192 -478.234,192 -56.036,0 -272.687,113.032 -481.446,251.183 -208.76,138.152 -442.276,227.119 -518.924,197.706 -76.647,-29.411 -191.006,8.755 -254.132,84.817 -63.125,76.062 -196.953,138.294 -297.395,138.294 -107.699,0 -221.032,101.027 -276.245,246.25 -141.41,371.936 -118.14,425.75 184.105,425.75 325.303,0 460.363,235.59 222.284,387.735 -129.906,83.017 -89.559,94.848 194.018,56.894 293.665,-39.304 389.671,-7.699 534.02,175.815 292.025,371.248 1703.409,771.509 2323.949,659.058 132,-23.92 456,-55.199 720,-69.509 z M 34896,26208 c 32.632,-52.8 205.432,-96 384,-96 178.568,0 349.947,-40.901 380.843,-90.892 110.113,-178.165 930.586,-678.904 1020.922,-623.073 108.073,66.793 950.235,-405.708 950.235,-533.135 0,-150.141 -446.919,-576.9 -604.151,-576.9 -82.574,0 -208.291,-58.156 -279.371,-129.236 -71.08,-71.08 -300.965,-203.322 -510.857,-293.873 -209.891,-90.551 -511.221,-232.665 -669.621,-315.811 -229.893,-120.672 -1194.902,-252.395 -1728,-235.872 -296.006,9.178 -825.971,208.602 -1010.027,380.076 -116.638,108.665 -390.697,227.014 -609.021,262.999 -578.262,95.309 -670.139,197.91 -474.222,529.573 128.458,217.462 139.085,319.462 52.975,508.453 -142.026,311.713 -16.543,771.185 223.199,817.276 101.803,19.572 293.096,81.427 425.096,137.457 274.624,116.569 350.304,135.142 1008,247.386 689.292,117.637 1371.062,123.115 1440,11.572 z m -7238.957,-3241.616 c 472.044,-490.295 488.078,-533.008 337.913,-900.186 -72.474,-177.208 -161.659,-570.299 -198.188,-873.535 -47.643,-395.484 -121.706,-590.062 -262,-688.327 -107.571,-75.346 -167.724,-182.068 -133.673,-237.163 80.804,-130.744 -281.615,-491.173 -493.886,-491.173 -285.477,0 -987.209,-308.752 -987.209,-434.359 0,-66.15 -162,-148.436 -360,-182.857 -491.794,-85.494 -898.66,-245.58 -1128,-443.822 -205.86,-177.945 -1158.313,-416.057 -1304.023,-326.004 -163.819,101.247 -89.157,344.631 191.957,625.746 153.965,153.964 240.365,304.39 192,334.28 -121.403,75.032 -109.994,198.026 32.297,348.159 66.128,69.772 190.742,278.057 276.92,462.857 536.075,1149.55 739.5,1607.069 792.728,1782.91 58.949,194.738 689.623,617.09 921.467,617.09 163.761,0 1324.669,561.998 1394.583,675.12 113.924,184.334 388.677,82.788 727.114,-268.736 z m 4812.332,134.488 c 278.644,-124.92 692.933,-305.502 920.643,-401.294 426.594,-179.455 837.342,-585.666 985.05,-974.166 46.298,-121.776 124.652,-221.412 174.118,-221.412 49.466,0 119.026,-172.176 154.58,-382.614 35.553,-210.438 272.224,-796.511 525.937,-1302.385 l 461.293,-919.772 -228.312,-246.353 c -185.512,-200.172 -254.666,-224.483 -368.891,-129.684 -78.027,64.757 -230.09,88.261 -341.746,52.823 -138.743,-44.035 -302.027,13.082 -526.201,184.069 -244.859,186.762 -439.097,248.138 -787.441,248.816 -572.67,1.114 -1411.103,449.552 -1646.705,880.74 -87.835,160.751 -256.633,440.07 -375.108,620.708 -118.474,180.638 -243.172,510.507 -277.106,733.043 -33.934,222.534 -93.367,447.809 -132.074,500.609 -114.74,156.515 -206.402,809.534 -142.08,1012.196 32.784,103.292 119.349,187.804 192.367,187.804 73.018,0 167.307,58.466 209.531,129.924 181.214,306.68 559.28,315.155 1202.145,26.948 z M 29424,22272 c 32.632,-52.8 165.417,-96 295.077,-96 271.454,0 615.982,-478.983 616.564,-857.184 0.192,-128.251 40.632,-365.851 89.854,-528 49.222,-162.149 144.422,-484.131 211.557,-715.516 67.134,-231.385 172.362,-471 233.84,-532.477 266.542,-266.543 244.612,-529.014 -105.922,-1267.693 -192.658,-405.99 -411.192,-799.066 -485.629,-873.504 -74.438,-74.437 -136.097,-207.854 -137.022,-296.483 -1.889,-181.108 -882.872,-1169.143 -1042.467,-1169.143 -122.742,0 -326.349,382.311 -485.704,912 -63.539,211.2 -161.727,478.791 -218.195,594.649 -56.468,115.857 -79.169,385.857 -50.446,600 28.722,214.142 20.971,389.351 -17.225,389.351 -38.197,0 -134.518,137.398 -214.049,305.328 -135.075,285.215 -129.899,332.98 78.583,725.08 122.751,230.863 223.184,480.756 223.184,555.317 0,74.56 58.254,320.675 129.452,546.92 71.2,226.245 184.827,648.955 252.506,939.355 67.679,290.4 162.145,603.6 209.925,696 95.209,184.122 322.514,223.452 416.117,72 z"
         id="path126"
         sodipodi:nodetypes="sssssaaaaaaaaaaaaaaasssssaaaaaaaasaaaaaaaaaaassssssscaaaaasssssssssssssssssssaaaaaaaasssaaaasssssssssccssssssssssssssssssssssssssssssssssssssssssssssssssssssssssssssssssssssssssssssssssssssssssssssssssssssssssssssssssssscsssssssscssssssssssssssssssssscsssssssssssssssssssssssssssssssscsssssssssccssssssssssscsssssssssssssssssssssssssssssssssssssssssssssssssssssssscssssssssccsssssssssssssssssssssssssssssssssssssssssscssaaaasssssssssssssssssssssssssssssssssaassaassssaaaasssssssscssssssssssssssssssssssssssssssssssscsssssssssssssssssassssssssccssssssssscsssssssssssssssssssaaassssssssssssssssssaasssssssssssssssssssssssssssssssssssssssssssssssssssssssssssssssssssssssssssssssscssssssssssssssssssssscsssssssssssssssssssssssssssssssssssssssssssscssssssssssssssscssssssssssssssssss" />
    </g>
  </g>
</svg>
