<?xml version="1.0"?>
<svg xmlns="http://www.w3.org/2000/svg" height="570" width="570" xmlns:xlink="http://www.w3.org/1999/xlink">
<use xlink:href="#b" transform="translate(-.010299 -.022012)"/>
<circle cy="402.8" cx="413.97" r="277.22" transform="matrix(-1.01 0 0 -1.01 703.12 691.84)"/>
<circle id="m" transform="matrix(.97577 0 0 .97577 -118.94 -108.06)" cy="402.8" cx="413.97" r="277.22" fill="#fef137"/>
<circle cy="402.8" cx="413.97" r="277.22" transform="matrix(.8928 0 0 .8928 -84.599 -74.644)"/>
<use xlink:href="#m" transform="matrix(.76154 0 0 .76154 67.961 67.977)"/>
<circle cy="411.18" cx="392.57" r="167.45" transform="matrix(1.0302 0 0 1.0302 -119.43 -138.6)"/>
<polygon transform="matrix(2.6498 0 0 2.6516 -444.66 -474.05)" stroke="#000" points="204.89 256.13 218.2 253.52 213.8 240.69 227.35 241.23 226.03 227.73 239.09 231.38 240.92 217.94 252.79 224.5 257.66 211.85 267.7 220.97 275.36 209.78 283.02 220.97 293.05 211.85 297.93 224.5 309.8 217.94 311.62 231.38 324.68 227.73 323.36 241.23 336.91 240.69 332.51 253.52 345.82 256.13 338.58 267.59 350.93 273.19 341.24 282.68 351.97 290.98 340.35 297.98 348.87 308.53 335.96 312.66 341.82 324.89 328.29 325.93 331.18 339.18 317.78 337.08 317.53 350.64 304.98 345.5 301.6 358.63 290.58 350.74 284.27 362.74 275.36 352.52 266.45 362.74 260.14 350.74 249.11 358.63 245.74 345.5 233.19 350.64 232.94 337.08 219.54 339.18 222.42 325.93 208.9 324.89 214.76 312.66 201.84 308.53 210.36 297.98 198.75 290.98 209.47 282.68 199.78 273.19 212.13 267.59" stroke-width="1.509" fill="none"/>
<circle transform="matrix(1.9301 0 0 1.9301 80.308 -399.23)" cy="354.43" cx="106.05" r="61.397" fill="#cf2c38"/>
<use xlink:href="#g" transform="matrix(-1 0 0 1 569.98 0)"/>
<path d="m279.14 313.06c-1.32 0-2.62 0.61-4.22 1.4-1.6 0.8-3.46 1.82-5.56 2.75-8.38 3.45-12.11 3.48-21.56 0.78 0.35-1.51 0.24-3.08 0.3-4.71l-1.62-0.1c-0.19 5.2-1.66 9.63-4.29 14.31l1.14 0.91c1.58-2.68 2.99-5.48 3.93-8.47 27.63 7.37 53.79 7.07 79.91 0.13 0.78 2.49 1.72 5.06 2.75 7.72l1.38-0.72c-1.8-4.63-3.26-9.04-4.13-13l-1.5 0.43c0.26 1.18 0.59 2.4 0.94 3.63-9.75 3.07-13.63 1.97-20.03-1-4.09-1.9-7.54-4.03-10.91-4.03-1.89 0-3.16 0.73-4.25 1.34-2.62 1.46-5.17 1.56-7.75 0-1.04-0.63-2.38-1.37-4.53-1.37zm0 2c1.73 0 2.43 0.48 3.5 1.09 3.17 1.82 6.28 1.94 9.72 0.06 1.15-0.63 1.92-1.12 3.31-1.12 2.42 0 5.97 1.94 10.06 3.84 1.93 0.89 4.01 1.75 6.19 2.35-5.9 0.97-11.87 1.61-17.87 1.87 1.83-0.88 3.05-2.43 3.95-3.52l-1.3-0.76c-1.25 1.8-5.34 4.41-10.19 4.41-7.73 0-15.54-0.68-23.31-1.94 2.56-0.54 4.9-1.4 6.97-2.31 2.19-0.98 4.11-1.98 5.66-2.75s2.77-1.22 3.31-1.22zm-7.34 14.02-1.22 0.6c9.29 11.22 24.51 10.39 33.18 0.03l-1.07-0.63c-8.63 9.8-23.64 8.56-30.89 0zm-1.06 24.4 0.89 0.52c9.32-10.28 25.1-11.11 33.26 0.65l1.19-1.01c-9.69-13.09-26.38-11.84-35.34-0.16z"/>
<circle stroke-width="3.9259" cy="423.27" transform="matrix(1.0189 0 0 1.0189 -91.295 -146.28)" stroke="#000" cx="369.31" r="106.98" fill="none"/>
<circle stroke-width="2.3351" cy="423.73" transform="matrix(1.713 0 0 1.713 -408.97 -440.86)" stroke="#000" cx="405.13" r="57.211" fill="none"/>
<g id="g" transform="translate(-.010299 -.022012)">
<g transform="translate(-119.66,-119.67)">
<path d="m323.12 372.56c18.27 11.7 38.25 10.62 57.47 0.06-19.73-10.17-39.61-11.98-57.47-0.06z" stroke="#000" stroke-width="2" fill="none"/>
<circle stroke-width="2.2098" d="M 359.19631,374.779999 C 359.19631,379.853452 355.083463,383.966299 350.01001,383.966299 344.936556,383.966299 340.823709,379.853452 340.823709,374.779999 340.823709,369.706545 344.936556,365.593699 350.01001,365.593699 355.083463,365.593699 359.19631,369.706545 359.19631,374.779999 z" cy="374.78" transform="matrix(.90506 0 0 .90506 32.589 33.429)" stroke="#000" cx="350.01" r="9.1863" fill="none"/>
<circle transform="matrix(1.4062,0,0,1.4062,-141.52,-150.97)" cy="372.34" cx="349.08" r="1.8605"/>
<path d="m348.15 355.12 0.29 0.89c16.86-1.14 29.7 6.52 33.87 16.65-0.43 3.13-3.6 6.56-8.22 9.59-4.62 3.04-11.02 5.57-17.26 6.3l0.17 0.98c12.06-1.02 26.44-7.63 27.45-17.09-4.71-12.82-22.62-19.97-36.3-17.32zm-11.61 3.02c-5.76 2.54-12.94 6.07-15.22 14.39 2.14 11 13.46 15.55 20.57 16.43l0.33-1.14c-8.55-1.1-16.95-7.17-18.72-15.23 1.78-6.25 7.34-10.69 13.49-13.26z"/>
</g>
<path d="m208.87 222.11 0.52 2.06c20.73-14.05 48.47-10.12 63.43 9.71l1.25-0.33c-15.74-21.96-44.94-26.24-65.2-11.44z"/>
<path d="m292.82 305.59 1.52-0.61c-2.19-4.45-5.18-7.81-9.79-7.97-2.29 0-2.99-0.54-3.84-1.31-0.86-0.76-1.86-1.94-3.91-2.5-2.03-0.55-3.98-0.29-5.75-0.22-1.76 0.08-3.63 0.24-5.03-0.59-2.79-1.66-4.09-6.34-4.09-6.34l-1 0.43s0.57 5.09 4.4 7.38c1.92 1.14 3.93 1.2 5.78 1.12 1.86-0.08 3.6-0.27 5.16 0.16 1.55 0.42 2.08 1.15 3.09 2.06 1.02 0.91 2.52 1.81 5.19 1.81 3.32 0 6.63 3.16 8.27 6.58z"/>
<path d="m207.28 317.45-0.17 1.02c5.27 4.46 10.5 11.66 14.01 18.17l1.75-0.97c-2.49-6.19-9.79-13.76-15.59-18.22z"/>
<path d="m208.25 327.11-0.33 0.76c2.59 2.2 3.88 4.33 5.83 7.73l1.44-0.51c-1.38-3.23-3.71-5.66-6.94-7.98z"/>
<g id="k">
<g id="l">
<circle id="a" transform="matrix(1.3419,0,0,1.3419,-6.0867,-1641.5)" cy="1327.4" cx="216.92" r="17.512" fill="#fef137"/>
<use xlink:href="#a" transform="translate(55.484,11.082)"/>
</g>
<use xlink:href="#l" transform="matrix(.70737 .70684 -.70684 .70737 284.62 -117.97)"/>
</g>
<use xlink:href="#k" transform="matrix(.0010708 1 -1 .0010708 569.41 -.36923)"/>
<g id="h">
<g id="i">
<g id="j">
<circle id="b" transform="matrix(.95535 0 0 .95535 77.765 -1210.1)" cy="1327.4" cx="216.92" r="17.512" fill="#fef137"/>
<use xlink:href="#b" transform="translate(50.469,5.8709)"/>
</g>
<use xlink:href="#j" transform="matrix(.90275 .43017 -.43017 .90275 151.04 -94.271)"/>
</g>
<use xlink:href="#i" transform="matrix(.62393 .78148 -.78148 .62393 329.89 -115.41)"/>
</g>
<use xlink:href="#h" transform="matrix(1,0,0,-1,0,570)"/>
<g transform="translate(.35355)">
<g id="c">
<g id="d">
<circle id="e" cy="892.21" cx="428.03" r="4.0718" transform="translate(-120.55,-804.04)"/>
<use xlink:href="#e" transform="translate(44.492,10.726)"/>
</g>
<use xlink:href="#d" transform="matrix(.87268 .48829 -.48829 .87268 168.18 -107.07)"/>
</g>
<use xlink:href="#c" transform="matrix(.60735 .79444 -.79444 .60735 338.41 -109.99)"/>
<use xlink:href="#c" transform="matrix(.99237 .12326 .12326 -.99237 -31.223 531.23)"/>
</g>
<use xlink:href="#d" transform="matrix(-.30038 .95382 -.95382 -.30038 641.32 97.374)"/>
</g>
<use xlink:href="#a" transform="matrix(1 0 0 -1 -.010299 569.98)"/>
</svg>