<?xml version="1.0" encoding="UTF-8" standalone="no"?>
<svg xmlns="http://www.w3.org/2000/svg" width="190" height="625" version="1.0">
  <g transform="rotate(12.379 731.18993332 -280.36520728)">
    <path fill="#3c6d3d" d="M211.41638 125.70874c-1.55194.00338-3.28054.13404-5.3125.34375-10.9136 1.12639-27.17275 8.30267-31.65625 13.96875-2.6055 3.29269-2.53219 3.29673 2 .1875 22.8407-15.66933 46.4617-14.12659 50.1875 3.28125l1.21875 5.65625-4.4375-6.03125c-5.3965-7.32771-10.8424-10.03125-20.25-10.03125-12.7766 0-28.4373 10.49502-40.9375 27.40625-3.0725 4.1567-6.0934 7.98042-6.6875 8.5-2.5159 2.20029-13.42294 22.98338-12.53125 23.875.5368.53682 3.15289-3.36128 5.8125-8.65625 5.7779-11.50369 14.27206-22.50135 25.46875-33 11.2447-10.54357 18.5567-14.15662 28.8125-14.25 16.9801-.15459 23.059 12.31743 17.875 36.75-4.5972 21.66668-5.36285 24.54208-6.65625 25.53125-.6794.51959-3.21784 4.20804-5.65625 8.21875-2.4384 4.01071-6.41706 9.53732-8.84375 12.28125-2.4268 2.74393-5.1623 5.83582-6.0625 6.875-3.2375 3.73713-12.88681 11.7265-20.1875 16.6875-9.1277 6.20244-24.55504 7.07943-30.78125 1.75-7.7169-6.60542-8.82305-25.9664-2.40625-42.65625 2.6063-6.779 2.55209-8.92213-.125-4.3125-3.002 5.16886-7.2239 21.90375-7.25 28.78125-.0319 8.39662 4.84691 18.99312 10.4375 22.65625 3.5976 2.35722 7.30864 2.85953 15.03125 2.0625 11.764-1.21416 20.48635-6.54288 37.28125-22.84375 5.9372-5.76252 11.1985-9.82261 11.6875-9.03125 1.4504 2.34676-7.36316 13.87663-21.15625 27.71875-14.2152 14.26573-44.37289 12.74398-52.9375-2.6875-3.8032-6.85258-3.9606-10.85823-1.3125-35.125.7295-6.68557.47309-8.59942-.875-6.59375-1.0476 1.55876-1.89034 4.5528-1.90625 6.6875-.0159 2.13469-2.7236 8.11046-6 13.25-11.3492 17.80296-13.58484 24.92208-13.65625 43.34375-.0708 18.25456.0824 18.67773 17.8125 49.125 11.3505 19.49171 13.80691 30.9534 13.5625 63.28125-.2804 37.08057 1.49071 44.65947 19.375 81.84375 7.7168 16.04459 15.84629 33.72535 18.0625 39.3125 2.2162 5.58713 5.57379 14.01123 7.4375 18.6875 10.7227 26.90541 19.08364 48.21158 24.65625 62.8125 6.2423 16.35554 11.81435 23.83871 6.46875 8.6875-1.5238-4.3188-2.3766-8.27966-1.875-8.78125 1.7385-1.7385 5.3247 10.06443 6.1875 20.40625.4768 5.71546 2.99625 15.81868 5.59375 22.46875 2.5975 6.6501 7.5381 21.73509 11 33.5 3.4619 11.76493 6.8309 22.26109 7.5 23.34375 1.2478 2.01896 7.21411 21.52271 10.6875 35 1.0713 4.1567 1.94914 10.47947 1.96875 14.0625.0197 3.583.77789 8.48275 1.6875 10.875.9095 2.39226 2.627 4.34377 3.8125 4.34375 3.9637 0 27.79574-18.37924 44.40625-34.25 8.6151-8.23144 19.3261-27.50818 20.8125-37.40625.7603-5.06313.2397-14.52919-1.25-22.8125-1.4018-7.79381-2.73696-18.84706-2.96875-24.5625-.5059-12.4735-7.6711-57.21741-10.4375-65.1875-1.0821-3.11753-2.254-12.70509-2.625-21.3125-.3711-8.60739-1.5473-18.40686-2.625-21.75-1.0777-3.34312-4.21685-13.70992-6.96875-23.0625-2.7519-9.35257-7.78841-24.22952-11.1875-33.0625-10.0252-26.05196-16.33145-60.04822-15.28125-82.40625.4828-10.27869 1.80085-22.51122 2.90625-27.1875 2.7099-11.46337 5.5973-45.46661 7-82.1875 1.1788-30.86038.87169-33.89286-7.4375-70.34375-5.2706-23.12087-14.75595-36.29713-43.84375-61.03125-12.31921-10.47538-15.89991-13.01464-22.625-13zm-7.375 15.1875c-7.13187.00157-17.16368 4.78838-27.34375 13.8125-19.4498 17.24137-30.91724 39.64849-31.96875 62.46875-.6152 13.3531-.22451 15.61943 3.3125 19.375 7.903 8.3914 19.46351 3.77793 36.1875-14.40625 24.2543-26.37202 35.1674-53.8677 29.5-74.375-1.27953-4.62989-4.8078-6.87608-9.6875-6.875zm-60.53125 37.5625c-.5196 0-1.85644 1.67165-2.96875 3.75-1.1123 2.07835-1.58211 3.78126-1.0625 3.78125.5195 0 1.85646-1.7029 2.96875-3.78125 1.1123-2.07835 1.58211-3.75 1.0625-3.75z"/>
    <path fill="#fef137" d="M261.33792 679.72606c-.5655-1.82699-1.8199-4.80501-2.7877-6.61784s-1.7596-4.96558-1.7596-7.00611c0-2.04056-.8542-4.23799-1.8982-4.88322-1.044-.64522-1.8982-2.83108-1.8982-4.85746 0-4.48256 9.0092-5.24999 10.6749-.90931.5857 1.52626 2.9079 3.33914 5.1604 4.02865 7.0696 2.16403 8.9762 4.58223 6.8077 8.6342-1.0745 2.00761-2.7649 3.14878-3.7565 2.53591-.9916-.61284-1.8029.64449-1.8029 2.79409 0 2.1496-.8542 3.90837-1.8982 3.90837s-1.8982 1.28127-1.8982 2.84726c0 3.93846-3.6873 3.58451-4.9435-.47454zm-27.1755-67.70144c-.0824-2.00097.3662-3.12209.9969-2.49134.6308.63074.6982 2.26791.1499 3.63816-.6059 1.51423-1.0557 1.06446-1.1468-1.14682zm-7.7426-14.01482c0-1.87919-.8051-4.22817-1.7893-5.21997-1.8937-1.90851-5.1057-13.42447-7.5721-27.14883-.8167-4.54411-2.5523-8.92177-3.857-9.72813-1.7775-1.09853-1.8177-1.80882-.1603-2.83315 1.2894-.79689 1.7498-3.47134 1.1038-6.41232-.9883-4.49973-.2469-5.41839 6.8563-8.49569 7.2047-3.12135 8.125-3.16337 9.6486-.44073.9264 1.65532 2.7026 3.86813 3.9472 4.91734 10.1731 8.57637 12.4641 11.45558 15.351 19.29278 2.5239 6.85143 2.8021 9.82046 1.2007 12.81266-2.1809 4.07508-7.6453 5.38904-7.6453 1.83836 0-1.13101-1.0677-1.6971-2.3727-1.25802-1.3315.44801-2.1049 3.01631-1.7624 5.85269.5145 4.25968-.1179 5.05435-4.0218 5.05435-4.285 0-4.5665.56915-3.7552 7.59269.6986 6.04806.2618 7.59268-2.1472 7.59268-1.6634 0-3.0243-1.53752-3.0243-3.41671zm-3.1588-81.17949c-.6279-1.63616-.174-3.94244 1.0086-5.12506 1.6015-1.6015 2.1502-.84235 2.1502 2.97485 0 5.71103-1.4212 6.67845-3.1588 2.15021zm-5.0666-19.17048c-.696-.69598-1.2654-2.97379-1.2654-5.06177 0-4.59652 2.4007-2.66143 3.2006 2.5798.6039 3.95681.1376 4.55477-1.9352 2.48197zm-31.1616-16.89712c-1.305-1.40639-2.3727-3.88274-2.3727-5.50302 0-1.62028-1.7084-4.40869-3.7963-6.19648-4.8369-4.14145-4.8369-7.38647 0-8.65134 3.8521-1.00736 5.3786-5.14451 1.8981-5.14451-2.3343 0-2.5093-6.16672-.245-8.63668.9092-.9918 2.2067-4.15225 2.8834-7.02323.9295-3.94359.5252-5.21997-1.6531-5.21997-1.8102 0-2.8834-1.76627-2.8834-4.74543 0-2.60998-.7616-4.74543-1.6924-4.74543-1.6384 0-4.9331-9.01272-4.3247-11.8301.5724-2.65034-5.7812-19.50484-8.5191-22.59911-1.5132-1.71018-2.8616-4.69979-2.9965-6.6436-.4055-5.8457 2.3326-14.20727 4.2619-13.0149.9918.61296 3.3157.33624 5.1643-.61497 5.9225-3.04751 8.1065-.54079 8.1065 9.30476 0 9.1756.0992 9.33268 5.8975 9.33268 4.3704 0 5.6243.7123 4.8421 2.75058-.7054 1.83842-.1433 2.40056 1.6951 1.69509 2.0383-.78216 2.7506.47177 2.7506 4.8421 0 3.24369.7616 5.89759 1.6924 5.89759 1.7614 0 4.9319 9.15365 4.2133 12.16417-.2264.94832.6322 2.36931 1.908 3.15777 2.1934 1.3556 2.9145 30.35527 1.2947 52.06313-.5343 7.15899-.9451 7.62861-7.1936 8.22164-3.6449.34594-7.0616 1.31913-7.5927 2.16266-.5311.84353-2.0334.383-3.3384-1.0234zm-11.3616-96.86234c1.7111-1.71107-.645-6.59364-2.599-5.38601-.9346.57762-1.6993 2.28107-1.6993 3.78545 0 2.79523 2.2615 3.63735 4.2983 1.60056zm-28.99015-74.31762c-.00859-1.82699-4.2791-7.87255-9.49002-13.43457-7.97044-8.50749-9.28222-10.91802-8.2637-15.18537 1.82325-7.63911 2.72118-8.45781 5.34327-4.8719 2.24935 3.07617 2.51794 3.05512 4.42157-.34648 1.92727-3.44385 2.24629-3.3661 6.49969 1.58389 5.69264 6.6249 7.93014 6.61987 6.43274-.01448l-1.1781-5.21997 4.7655 5.69451c4.2912 5.1278 4.4606 5.92023 1.7019 7.96249-2.7841 2.06105-2.6895 2.87337 1.0376 8.90386 4.0601 6.56942 4.0636 6.65601.3481 8.6445-2.0642 1.10474-4.2956 3.71785-4.9587 5.80696-1.4837 4.6747-6.63836 5.04355-6.65985.47656z"/>
    <path fill="#cf2c38" d="m210.96654 127.7881-16.26394.92937-17.19331 9.29368-10.68773 10.22305-14.4052 16.26394-9.75837 14.86989-9.29368 18.12268-2.32342 9.75836-4.64684 27.41636 5.57621 14.86989 11.6171 7.89962 13.01115 2.78811 18.12268-.92937L191.44981 250l13.94052-17.19331 15.79926-26.0223 11.15242-38.10409-.92937-28.81041-9.75836-8.829-10.68774-3.25279z"/>
    <path fill="#fef137" d="m300.32323 655.54627-15.7719 16.42906-9.85743 16.42906-7.22879 16.42906-3.94297 20.37204-2.62865 16.42906 1.97148 1.97149 13.14325-7.22879 17.08623-13.14325 15.11473-14.45757 8.54311-10.5146 11.17177-22.34352v-17.74339l-7.22879-5.91446-20.37204 3.28581z"/>
    <path d="M211.40625 125.71875c-1.55194.00338-3.28054.13404-5.3125.34375-.82864.08552-1.67967.22305-2.5625.375-.57059.09821-1.13068.18881-1.71875.3125-5.39078 1.012-10.8477 3.00579-15.78125 5.4375-.22025.10446-.43908.20674-.65625.3125-.08374.04231-.16661.08245-.25.125-2.57168 1.26545-4.90545 2.61921-6.8125 3.96875-.14366.10166-.29882.17965-.4375.28125-.89135.60225-1.73688 1.20829-2.53125 1.8125-9.80103 7.45476-19.09253 17.9081-22.78125 23.125-7.23054 10.22602-12.74278 19.96101-17.25 29.8125-1.43893 3.14508-3.13487 7.4198-4.53125 12.0625-.00942.03132-.02186.0624-.03125.09375-.80632 1.58828-1.44042 3.91886-1.5 5.71875-.17695.81921-.32652 1.64911-.46875 2.46875-.91789 2.81539-3.07395 7.14535-5.53125 11-11.3492 17.80296-13.58485 24.92208-13.65625 43.34375-.0708 18.25456.0824 18.67773 17.8125 49.125 11.3505 19.49171 13.8069 30.9534 13.5625 63.28125-.2804 37.08057 1.52195 44.65947 19.40625 81.84375 7.7168 16.04459 15.8463 33.72535 18.0625 39.3125 2.2162 5.58713 5.54255 14.01123 7.40625 18.6875 10.7227 26.90541 19.08365 48.21158 24.65625 62.8125 6.2423 16.35554 11.81435 23.83871 6.46875 8.6875-1.5238-4.3188-2.34536-8.27966-1.84375-8.78125 1.7385-1.7385 5.29346 10.06443 6.15625 20.40625.4768 5.71546 2.99626 15.81868 5.59375 22.46875 2.5975 6.6501 7.5381 21.73509 11 33.5 3.4619 11.76493 6.86216 22.26109 7.53125 23.34375 1.2478 2.01896 7.18286 21.52271 10.65625 35 1.0713 4.1567 1.94915 10.47947 1.96875 14.0625.0197 3.583.77791 8.48275 1.6875 10.875.9095 2.39226 2.627 4.34377 3.8125 4.34375 3.9637 0 27.79576-18.37924 44.40625-34.25 8.6151-8.23144 19.35735-27.50818 20.84375-37.40625.7603-5.06313.23971-14.52919-1.25-22.8125-1.4018-7.79381-2.73695-18.84706-2.96875-24.5625-.5059-12.4735-7.67111-57.21741-10.4375-65.1875-1.0821-3.11753-2.28526-12.70509-2.65625-21.3125-.3711-8.60739-1.54729-18.40686-2.625-21.75-1.0777-3.34312-4.21684-13.70992-6.96875-23.0625-2.7519-9.35257-7.7884-24.22952-11.1875-33.0625-10.0252-26.05196-16.33145-60.04822-15.28125-82.40625.4828-10.27869 1.80086-22.51122 2.90625-27.1875 2.7099-11.46337 5.59729-45.46661 7-82.1875 1.1788-30.86038.8717-33.89286-7.4375-70.34375-5.2706-23.12087-14.75595-36.29713-43.84375-61.03125-12.31921-10.47538-15.89991-13.01464-22.625-13zm-4.4375 3.65625c10.11142.09179 17.70817 4.87709 19.6875 14.125l1.21875 5.65625-4.46875-6.03125c-5.3965-7.32771-10.8424-10.03125-20.25-10.03125-12.7766 0-28.4373 10.49502-40.9375 27.40625-3.0725 4.1567-6.06214 7.98042-6.65625 8.5-2.5159 2.20029-13.4542 22.98338-12.5625 23.875.5368.53682 3.15289-3.36128 5.8125-8.65625 5.7779-11.50369 14.27205-22.50135 25.46875-33 11.2447-10.54357 18.55671-14.15662 28.8125-14.25 16.9801-.15459 23.05901 12.31743 17.875 36.75-4.5972 21.66668-5.3316 24.54208-6.625 25.53125-.6794.51959-3.2491 4.20804-5.6875 8.21875s-6.41706 9.53732-8.84375 12.28125c-2.4268 2.74393-5.13105 5.83582-6.03125 6.875-3.2375 3.73713-12.91805 11.7265-20.21875 16.6875-9.1277 6.20244-24.55505 7.07943-30.78125 1.75-7.7169-6.60542-8.7918-25.9664-2.375-42.65625 2.6063-6.779 2.52085-8.92213-.15625-4.3125-3.002 5.16886-7.19265 21.90375-7.21875 28.78125-.0319 8.39662 4.8469 18.99312 10.4375 22.65625 3.5976 2.35722 7.30866 2.85953 15.03125 2.0625 11.764-1.21416 20.4551-6.54288 37.25-22.84375 5.9372-5.76252 11.19851-9.82261 11.6875-9.03125 1.4504 2.34676-7.36315 13.87663-21.15625 27.71875-14.2152 14.26573-44.3729 12.74398-52.9375-2.6875-3.6454-6.56825-3.87689-10.72115-1.5625-32.40625 1.26565-7.16847 4.10929-14.72147 6.28125-19.46875 4.4352-9.69407 9.81196-19.26623 16.9375-29.34375 3.39659-4.80374 12.71035-15.28411 22.15625-22.46875 6.25839-4.7602 16.39348-9.77485 25.6875-11.4375 1.4086-.15003 2.79622-.26206 4.125-.25zm-2.9375 11.53125c-7.13187.00157-17.16367 4.78838-27.34375 13.8125-19.4498 17.24137-30.91726 39.64849-31.96875 62.46875-.6152 13.3531-.2245 15.61943 3.3125 19.375 7.903 8.3914 19.4635 3.77793 36.1875-14.40625 24.2543-26.37202 35.1674-53.8677 29.5-74.375-1.27953-4.62989-4.8078-6.87608-9.6875-6.875zm-1.75 3.8125c8.13864-.26268 11.01126 6.87016 9.1875 21.90625-2.4092 19.86263-28.37996 59.24056-44.59375 67.625-17.5977 9.10016-25.89309-6.77511-17.4375-33.375 5.6792-17.86574 27.65404-46.11498 40.84375-52.5 4.83297-2.33961 8.81531-3.55346 12-3.65625zm-4.3125 13.96875c-.82134-.00388-1.74314.01877-2.8125.03125-10.3029.12026-16.462 4.48204-26.8125 19.0625-10.1214 14.2578-17.553 36.19817-15.3125 45.125.9597 3.82389 2.341 4.6875 7.625 4.6875 15.1446 0 39.9251-36.81883 42.625-63.3125.497-4.87671.43688-5.56662-5.3125-5.59375zm-3.03125.875c4.6146 0 4.684.2711 3.625 10.53125-.6593 6.38873-3.4346 15.02926-7.0625 22-6.953 13.3597-7.9582 14.75434-17.5 24.4375-6.8427 6.94399-14.818 9.52881-17.25 5.59375-1.2875-2.08326 2.46981-23.2653 4.5-25.375.8207-.85277 1.3754 3.38885 1.25 9.4375-.2074 10.00969.1231 10.95393 3.5625 10.375 5.3594-.90212 10.3888-6.07285 17.75-18.21875 12.2508-20.21369 10.85715-33.9069-2.59375-25.59375-6.734 4.16179-8.44465 3.3787-4.21875-1.90625 4.6644-5.83336 13.33629-11.28125 17.9375-11.28125zm-9.8125 15.125c3.7133 0 4.00466.62624 2.71875 6.125-.7899 3.37732-2.9839 9.32185-4.875 13.21875-1.8912 3.89691-4.12206 7.09375-4.96875 7.09375-2.2346 0-1.95825-1.01443 2.28125-8.5625 3.9502-7.03305 3.60045-10.34375-1.09375-10.34375-1.4974 0-2.71875-.66866-2.71875-1.5 0-2.87619 4.52655-6.03125 8.65625-6.03125zm-16.5625 9.9375c.14087.0396.21875.17771.21875.4375 0 1.03918-1.25545 3.54533-2.78125 5.5625-1.5257 2.01717-2.78125 2.82042-2.78125 1.78125 0-1.03918 1.25555-3.54533 2.78125-5.5625 1.14435-1.51288 2.13989-2.33754 2.5625-2.21875zm9.1875 3.90625c.94847-.10329.50681 1.64008-1.375 5.15625-1.0757 2.01004-2.77865 3.65625-3.78125 3.65625-2.9649 0-2.07975-2.92992 1.96875-6.59375 1.55944-1.41128 2.61842-2.15678 3.1875-2.21875zm62.21875 13.3125c.22584-.01.45895.05819.71875.21875 1.0392.64225 1.90625 1.99091 1.90625 2.96875 0 .97785-.86705 1.75-1.90625 1.75-1.0392 0-1.875-1.3174-1.875-2.9375 0-1.21507.47872-1.96999 1.15625-2zm-74.03125.125c.23478-.02505.53088.23815.875.78125 1.0805 1.70529 3.10945 2.10639 6.09375 1.1875l4.5-1.40625L172.8125 207.5c-6.0185 6.5147-7.69136 6.24936-7.65625-1.1875.01348-2.86154.26473-4.28864.78125-4.34375zm105.5.53125c.5208-.2299 1.74441 3.20441 3.5 9.96875 2.1016 8.09733 3.37489 18.22678 3 23.625-.4709 6.78202-.75916 7.5599-1.03125 2.8125-.2085-3.63711-1.61939-11.70245-3.125-17.9375-1.5055-6.23505-2.67711-13.88247-2.625-17 .01505-.90191.10765-1.39212.28125-1.46875zm-57.46875 4.3125c.20125.03415.28125.43732.28125 1.1875 0 1.01375-1.32139 3.51408-2.9375 5.53125-2.7706 3.45819-2.8086 3.39136-.6875-1.0625 1.89365-3.97618 2.90099-5.73138 3.34375-5.65625zm9.4375 3.75c3.075 0 6.51226 14.57846 6.71875 28.5625.2106 14.25811 2.52546 15.24105 7.21875 3.03125 2.656-6.90963 3.09805-7.3098 3.21875-2.9375.1116 4.04699-3.043 12.31071-7.0625 18.53125-.3163.48949-1.3457-.34634-2.3125-1.875-1.5387-2.43304-1.79695-2.4497-1.90625.03125-.0688 1.55876-.57605 6.66746-1.15625 11.34375-1.2373 9.97383-1.9923 11.28092-3.6875 6.40625-4.1531-11.94282-9.23215-21.34051-14.40625-26.6875-3.2531-3.36175-5.40795-6.62334-4.78125-7.25 1.9683-1.96828 12.42426 7.02826 14.78125 12.71875 1.2396 2.99249 3.13209 5.97271 4.1875 6.625 2.9832 1.84374-.2261-8.74185-4.4375-14.65625-4.6325-6.50568-4.60511-7.93877.125-6.4375 4.898 1.55457 4.89799-1.89995 0-6.09375-4.4424-3.80372-4.99331-7.05634-.9375-5.5 1.7264.66248 2.84375.00275 2.84375-1.6875 0-1.52615-1.076-2.8107-2.375-2.84375-1.4312-.03642-1.05485-1.05817.96875-2.59375 1.9874-1.50812 2.85835-3.76411 2.15625-5.59375-.6488-1.6908-.26656-3.09375.84375-3.09375zm20.90625 2.0625c.9486.2001 2.0525 2.23048 2.71875 5.96875 3.3 18.51496 3.8976 27.53721 3.5 52.375-.351 21.92536-.9912 27.64214-3.25 28.90625-1.5487.86667-2.81249 3.27563-2.8125 5.34375 0 3.83065-6.83405 18.71876-8.59375 18.71875-.532 0-1.74761-1.91185-2.6875-4.25-1.5677-3.90044-1.7026-3.93644-1.8125-.46875-.0659 2.07875 1.24395 9.72618 2.90625 17 5.3815 23.54844 5.23175 46.82681-.40625 65.65625-.5446 1.81855-.2145 3.3125.75 3.3125s3.0855-5.73557 4.6875-12.75l2.90625-12.75.46875 9.4375c.6021 11.79395.64345 10.98263-.96875 28.1875-1.3831 14.75874.9593 19.87169 3.75 8.1875 1.2719-5.32519 1.5617-5.58356 2.25-1.875.4365 2.35203-.44745 8.52915-1.96875 13.71875-1.5213 5.18962-2.07455 9.87732-1.21875 10.40625 2.1055 1.30124 2.80725-.24344 5.65625-12.34375 3.2394-13.75825 4.83296-8.47381 1.78125 5.90625-2.8656 13.50347-1.4212 16.35753 2.5625 5.09375l2.875-8.15625.15625 7.75c.1609 8.35839-3.039 19.65625-5.5625 19.65625-.8549 0-2.1277-2.56996-2.8125-5.6875-.6847-3.11752-2.11979-5.65624-3.1875-5.65625-1.1355 0-1.33831 1.37874-.5 3.3125.7884 1.81856 2.51186 13.08075 3.84375 25.03125 1.3319 11.95051 3.01006 24.48498 3.71875 27.875 1.4373 6.8759 4.58381 10.1101 4.6875 4.8125.0369-1.87989 1.29614-5.52705 2.78125-8.125 2.3903-4.18134 2.69934-4.28255 2.71875-.9375.012 2.07835-.7369 7.11944-1.6875 11.21875-2.0268 8.74011-.76461 12.15016 2.75 7.34375 2.1103-2.88605 2.23466-2.14804.84375 5.0625-2.1248 11.01516-2.10445 11.75011-.03125 10.46875.9593-.59284 2.28466-3.63534 2.96875-6.75.6841-3.11469 2.04906-5.16952 3.03125-4.5625 1.8513 1.14415 1.60649 6.71877-.375 8.375-1.9144 1.60022-3.75604 16.99997-2.03125 17 .8926 0 2.55989-1.91183 3.6875-4.25 2.0247-4.19802 2.02995-4.17709 2.15625.84375.0703 2.7964-.7108 5.60774-1.75 6.25-1.0391.64225-1.875 4.14413-1.875 7.78125 0 3.9275.7529 6.13105 1.875 5.4375 1.0392-.64225 1.90625-3.33618 1.90625-6 0-4.09098.41859-4.48673 2.8125-2.5 1.5587 1.29366 2.84374 1.69503 2.84375.875 0-4.19771 2.1656 2.0051 6.5 18.6875 4.1571 15.99977 4.44439 18.89922 2.125 21.21875-4.4485 4.4484-5.41079 3.11219-4.1875-5.8125.6521-4.75788.37854-8.5-.59375-8.5-.9556 0-2.29691 3.81093-3 8.5-.7032 4.68906-1.84915 8.89093-2.53125 9.3125-1.9703 1.21773-12.1085-26.49709-15.4375-42.1875-.9686-4.56555-2.48759-9.25636-3.375-10.40625-4.5299-5.86971-13.4754-36.21427-16.4375-55.78125-1.3711-9.05738-7.42555-31.60073-11.21875-41.71875-6.2507-16.6734-10.4896-33.29255-12.5625-49.4375-1.5424-12.01277-2.74205-16.12408-4.53125-15.4375-1.3423.51508-2.90195-.63641-3.46875-2.53125-.5668-1.89487-.61115 5.49491-.09375 16.40625.5173 10.91134.9642 28.77617 1 39.6875.0625 19.06966 2.61386 19.75665 3.46875.9375.6531-14.37854 3.38975-.8554 3.15625 15.59375-.1217 8.57355.4082 15.56286 1.1875 15.5625.7794-.00036 1.45285-2.74767 1.46875-6.125.0337-7.15347 3.53059-14.40551 3.875-8.03125.3609 6.68049-.24635 20.60279-1.15625 26.4375-.869 5.57208-.8342 5.61214 1.25.96875 1.1661-2.59794 2.9541-6.58854 4-8.84375 1.0604-2.28668 1.3164-7.3083.5625-11.34375-1.6913-9.05351-.2847-7.83514 3.4375 2.96875 2.5733 7.46894 2.54366 8.75442-.15625 12.875-3.5042 5.34808-5.64966 24.27103-2.53125 22.34375 1.0995-.67954 2.0309-3.09819 2.0625-5.375.0538-3.87685.18215-3.9147 2.09375-.625 1.4685 2.52694 1.47844 4.81145-.03125 8.125-2.6121 5.73277-2.74435 13.87502-.21875 13.875 1.0391 0 1.93551-1.49393 2-3.3125.1839-5.18882 13.41205 25.6448 27.34375 63.75l4.46875 12.25-4 4.28125c-2.2312 2.37501-3.01579 4.28123-1.75 4.28125 1.2529 0 2.77681-1.28501 3.375-2.84375 1.8287-4.76565 3.98029-3.16325 5.3125 3.9375.7912 4.21793.42546 7.75752-.96875 9.4375-1.7652 2.12693-1.6382 2.68751.625 2.6875 1.5749 0 3.36921 1.35625 4 3 1.5553 4.05293 1.47151 4.56248-.8125 4.5625-2.9927 0-10.22576 7.33671-8.71875 8.84375.7277.72765 2.62495-.53705 4.21875-2.8125 5.4792-7.82268 6.83371-5.3773 9.25 16.65625 1.4432 13.15936 3.40075 16.78933 6.96875 13.03125 1.3933-1.4675 3.70481-5.22625 5.125-8.34375 1.4202-3.11753 3.33209-7.13302 4.25-8.9375 2.1133-4.15437 2.13961-9 .0625-9-.8747 0-2.54524 3.20811-3.71875 7.125-1.1735 3.91686-3.41285 8.81661-4.96875 10.875-5.4183 7.16846-3.44565-5.14368 2.59375-16.1875 3.048-5.57366 5.1364-10.82882 4.625-11.65625-.5114-.82741-.08821-1.50003.9375-1.5 1.0257 0 2.45521 4.79502 3.1875 10.65625 1.4863 11.89578-.06604 15.81333-12.21875 30.84375-7.8721 9.73618-19.06249 26.65037-19.0625 28.8125 0 .81443-.7595 1.50003-1.6875 1.5-2.0898 0-4.35146-5.46497-3.09375-7.5.5085-.82272-1.68451-9.03454-4.875-18.25-3.1906-9.21544-6.256-18.70735-6.8125-21.0625-.5941-2.51418-2.19105-4.04545-3.90625-3.75-1.8889.32541-3.49265-1.65193-4.53125-5.5625-.8833-3.32616-2.59476-6.64174-3.78125-7.375-1.505-.93018-1.7735.04655-.875 3.21875 3.512 12.39883 2.77085 14.4797-1.28125 3.59375-2.5144-6.75464-5.95916-15.56996-7.65625-19.59375-1.6971-4.02382-3.0439-8.71457-3-10.40625.0439-1.69166 2.16705 1.97886 4.71875 8.125 10.0088 24.10743 8.1655 11.49701-2.1875-14.96875-3.6586-9.35257-7.43625-18.47469-8.40625-20.28125-3.4772-6.47576-17.20395-47.9335-19.09375-57.65625-1.0605-5.45567-2.6891-9.90625-3.625-9.90625-.9359 0-1.71876-.8995-1.71875-2 0-1.1005.86706-1.48601 1.90625-.84375 2.5 1.5451 2.46195 1.29553-1.65625-10.5625-4.6052-13.26005-10.02114-24.40626-11.84375-24.40625-1.5229 0 2.06436 9.45735 8.03125 21.1875 3.894 7.65523 4.60106 11.81258 1.71875 10.03125-1.6234-1.00331-4.03505-5.76432-9.59375-18.9375-1.2319-2.91932-10.30066-22.35427-16.53125-35.40625-.3721-.77938.25475-1.4375 1.40625-1.4375s2.9575 2.25793 4 5c1.0425 2.74206 2.37165 4.50341 2.96875 3.90625.5972-.59715-1.5659-6.72235-4.8125-13.59375-8.0168-16.96763-11.43595-27.2026-11.46875-34.40625-.0151-3.32618-.87685-10.13778-1.90625-15.125-1.1421-5.53309-1.22526-12.73541-.21875-18.5L159 370.21875l.21875 9.8125c.3902 17.22206 3.2095 12.34809 3.6875-6.375.4235-16.58799-1.83474-30.33417-5.40625-32.71875-.7783-.51959-3.5142-6.0462-6.0625-12.28125-6.2995-15.41288-20.28851-37.27601-20.3125-31.75-.0099 2.27682.8358 4.67024 1.875 5.3125 1.0391.64225 1.875 2.07985 1.875 3.21875 0 3.16298-7.27465-4.14193-8.65625-8.6875-.669-2.2011-2.49365-5.43442-4.03125-7.1875-1.5377-1.75307-2.16405-4.18016-1.40625-5.40625.7578-1.22609 1.67845-6.33996 2.03125-11.375.3528-5.03505 1.94005-12.2856 3.53125-16.09375l2.875-6.90625 6.15625 4.65625c3.3754 2.57264 6.9432 7.38177 7.9375 10.65625.9943 3.27448 2.54321 5.9375 3.4375 5.9375.8943 0 1.10065-1.6341.46875-3.625-.6319-1.99091-.28806-4.15162.78125-4.8125 2.1178-1.30887 14.03025 16.00056 19.78125 28.78125 1.9764 4.39218 4.3062 8.00001 5.1875 8 .8814 0 1.59375-.37914 1.59375-.84375 0-1.0634-7.48165-14.85723-13.09375-24.15625-2.3413-3.87953-3.8819-8.12116-3.4375-9.4375.4516-1.33724 2.2192.31904 4 3.75 1.7529 3.37732 4.01875 6.12501 5.03125 6.125 2.6349 0 2.28485-2.30142-1.09375-7.125-1.6486-2.35372-2.08785-4.21876-.96875-4.21875 1.0981 0 2 .86709 2 1.90625 0 1.03918 1.25504 1.87499 2.78125 1.875 1.6902 0 2.35-1.11739 1.6875-2.84375-.7546-1.96659.14385-2.81249 2.90625-2.8125 2.1896 0 4.5957-.15786 5.375-.34375.7794-.1859 1.74029 1.30805 2.125 3.3125.3847 2.00445 1.96955 5.32791 3.53125 7.40625 2.8395 3.77881 2.84075 3.77882 1.53125 0-.7202-2.07835-1.74795-6.31996-2.28125-9.4375l-.96875-5.65625 4.125 6.125c2.2668 3.37732 4.90665 6.15624 5.84375 6.15625 2.3397 0 2.13055-2.58822-.40625-5.125-1.1561-1.15609-1.73045-3.21483-1.28125-4.5625.4908-1.47225 2.22795-.08167 4.34375 3.5 1.9367 3.27858 4.25135 5.52806 5.15625 4.96875.905-.5593.26079-3.15813-1.4375-5.75-5.0363-7.68631-1.48314-7.39392 5.71875.46875 6.4499 7.04164 15.28824 29.59819 13.03125 33.25-1.2315 1.99274 5.39465 22.32554 7.28125 22.34375 2.1117.02038 1.71705-7.11784-.46875-8.46875-1.0392-.64225-1.90625-2.02334-1.90625-3.0625 0-1.03918.7826-1.41037 1.75-.8125 2.9603 1.82961 3.68314-1.39814 4.15625-18.5625.2817-10.22174 1.309-17.03013 2.6875-17.84375 4.1271-2.43592 9.07585-14.439 11.40625-27.75 2.3909-13.65674 1.9979-17.02492-1.375-12.21875-1.4872 2.11911-1.70061 1.66388-.875-1.9375.5955-2.59793 1.1108-7.07978 1.125-9.9375.01785-3.59396.8014-5.23135 1.75-5.03125zm-33.6875 22.75c.65636-.02704 1.4118.1021 2.09375.375 1.5073.60315 1.04485 1.03433-1.15625 1.125-1.9917.08204-3.09665-.37216-2.46875-1 .3139-.31392.87489-.47296 1.53125-.5zm-84.96875 7.3125c2.1826 0 2.1393 3.26427-.0625 4.625-.9487.58637-2.24515 4.27477-2.90625 8.1875-.661 3.91271-2.09035 8.36876-3.15625 9.90625-1.3978 2.01632-1.61995.70121-.78125-4.75 1.454-9.45013 4.72385-17.96875 6.90625-17.96875zm74.4375 5.6875c4.1375 0 13.12446 9.60803 18.21875 19.5 2.0479 3.97669 3.4466 8.86128 3.125 10.875-.374 2.34167-2.2915-.50506-5.3125-7.9375-3.4134-8.3978-6.76875-13.12086-12.09375-17.03125-5.1333-3.7696-6.3209-5.40625-3.9375-5.40625zM246 252.8125c-1.48638.10796-3.34697 4.19698-3.375 8.3125-.0159 2.33815-.8983 4.25001-1.9375 4.25-1.0392 0-1.90059 1.91185-1.9375 4.25-.0368 2.33815-1.29615 6.3708-2.78125 8.96875-1.4851 2.59794-2.71319 6.2127-2.75 8.03125-.1006 4.97022 2.78131 3.96128 5.5-1.90625 3.7795-8.15679 9.36995-29.44989 8.21875-31.3125-.27592-.44647-.59449-.61866-.9375-.59375zm-114.53125 3.09375c-1.8935 0-4.0814 6.23464-4.125 11.8125-.0141 1.81855.77541 3.3125 1.75 3.3125.9746 0 1.67599-1.49395 1.5625-3.3125-.1136-1.81856.4198-5.22435 1.1875-7.5625.7902-2.40652.64191-4.25001-.375-4.25zm6.09375 4.53125c-.25252-.01967-.52523.15023-.875.5-1.1009 1.10086-1.44241 4.24127-.75 7 1.7457 6.95528 2.71876 6.22852 2.71875-2 0-3.67875-.33619-5.441-1.09375-5.5zm125.25 4 .28125 9.90625c.1561 5.45567-.10419 9.90625-.5625 9.90625-1.8168 0-2.0845-3.18597-.9375-11.3125l1.21875-8.5zm-86.53125.9375c-4.8507 0 3.73439 30.29074 13.9375 49.1875 4.8362 8.95697 6.19911 13.21427 4.9375 15.46875-1.0976 1.9613-1.05035 3.53551.15625 4.28125 1.052.6502 1.93751 3.47146 1.9375 6.28125 0 3.48568 1.3494 5.72745 4.25 7 3.4915 1.53184 4.3598 1.23801 4.875-1.625.345-1.91722-.43024-6.19008-1.71875-9.46875-4.8771-12.41022-9.5027-23.0474-11.1875-25.78125-4.7152-7.65116-11.7218-23.62011-12.3125-28.0625-.3653-2.74735-.8085-5.44917-1-5.96875-.6783-1.84085-1.24715-4.73557-1.53125-8-.1583-1.81856-1.21324-3.31249-2.34375-3.3125zM245.75 279.9375c-.42409-.02855-1.32617 2.42955-3.28125 7.9375-1.998 5.6287-5.0225 11.75391-6.6875 13.59375-1.665 1.83983-2.43536 4.278-1.71875 5.4375.7166 1.15952 2.2962 1.77547 3.5 1.375 3.1693-1.05443 8.6038-16.3039 8.5625-24.03125-.01479-2.76817-.04516-4.29029-.375-4.3125zm-23.09375 4.84375c.1861-.02551.41398.0497.6875.21875 1.1428.70626 2.65925 4.25713 3.34375 7.90625 1.2036 6.41541.28589 10.25544-1.6875 7.0625-.5293-.85645-1.58595-4.86704-2.34375-8.90625-.78593-4.18961-.80645-6.1707 0-6.28125zm-63.3125 1.375c-1.1005 0-1.48595.83584-.84375 1.875 1.4963 2.42105 2.84374 2.42106 2.84375 0 0-1.03917-.89951-1.87499-2-1.875zm-31.3125.34375c-.38663.14236-.624 1.16244-.5625 2.65625.0907 2.20107.55315 2.63224 1.15625 1.125.5458-1.36391.47156-2.99715-.15625-3.625-.15697-.15696-.30862-.2037-.4375-.15625zm127.78125 1.53125c1.0391 0 1.875 1.22131 1.875 2.71875s-.8359 3.26401-1.875 3.90625c-1.0392.64225-1.90626-.57908-1.90625-2.71875 0-2.13968.86705-3.90624 1.90625-3.90625zm6.84375 4.3125c.26097-.08255.38945 1.03507.4375 3.25.1014 4.67629-.91316 15.96479-2.28125 25.0625-1.368 9.09772-3.06211 17.09341-3.75 17.78125-2.1266 2.12664-1.13219-10.75971 2.4375-31.5 1.69818-9.86653 2.65804-14.43615 3.15625-14.59375zm-98.90625.5625c-1.07619-.04439-.14634 3.38788 2.4375 8.9375 2.5113 5.3937 4.58355 10.88852 4.59375 12.1875.0102 1.29897.86706 2.34374 1.90625 2.34375 1.0391 0 1.875-.84574 1.875-1.875 0-3.80151-8.2656-20.64983-10.5625-21.53125-.08963-.03439-.17825-.05954-.25-.0625zM161.15625 305c-.22475-.0353-.4218.0468-.59375.21875-.5906.5906 1.034 5.4416 3.625 10.8125 2.591 5.37091 4.71876 10.69992 4.71875 11.8125 0 1.11258 1.02765 3.85519 2.28125 6.125 4.308 7.80092 3.67395-1.07424-.84375-11.9375-4.73812-11.39333-7.61428-16.78418-9.1875-17.03125zm88.5625 1.9375c.44676-.17404.38071.83439-.21875 2.5-.6852 1.90354-1.25 6.38537-1.25 9.9375 0 4.28083-.90025 6.43751-2.65625 6.4375-2.2717 0-2.2771-1.24607 0-8.8125 1.4605-4.85294 3.22456-9.30353 3.90625-9.90625.08521-.07534.15493-.13139.21875-.15625zm-112.375 3c.07056-.00655.15341-.00581.25.03125 1.4555.55851 4.89741 5.73935 7.625 11.5 7.341 15.50451 4.8788 16.0754-3.25.75-3.84478-7.24848-5.68336-12.18293-4.625-12.28125zm22.25 10.15625c-.41596-.06634-.80641.11891-1.1875.5-.7154.71542 2.02165 9.37706 6.96875 22 3.3872 8.64263 3.77719 2.36344.5625-9.09375-2.42027-8.62585-4.54124-13.11879-6.34375-13.40625zm65.59375 4.625c-.85892-.1665-1.5 1.00277-1.5 2.875 0 2.13968.86705 3.90625 1.90625 3.90625 2.4532 0 2.4532-5.1089 0-6.625-.1299-.08028-.28355-.13246-.40625-.15625zm39.0625 1.96875c.11391.04244.24398.23775.375.5625.5242 1.29897.52421 3.41978 0 4.71875-.5241 1.29897-.96874.22293-.96875-2.375 0-1.94845.25202-3.03357.59375-2.90625zm7.5625 3.84375c.10893-.00983.21435.14895.34375.46875.5175 1.27919.54151 3.81792.0625 5.65625-.4791 1.83834-.89901.80503-.9375-2.3125-.02887-2.33814.20447-3.783.53125-3.8125zm-82.875 3.65625c-.67752.17393-1.15625 1.27025-1.15625 2.875 0 2.13968.86715 3.875 1.90625 3.875 2.4532 0 2.4532-5.07763 0-6.59375-.25977-.16056-.52416-.21423-.75-.15625zm56.40625.0625c.11391.04244.24397.23776.375.5625.5242 1.29896.52419 3.41977 0 4.71875-.5241 1.29897-.9375.22292-.9375-2.375 0-1.94845.22076-3.03356.5625-2.90625zm-62.46875 5.28125c-.53241.02284-.75.85576-.75 2.59375 0 2.11301.62685 4.49524 1.40625 5.28125.7793.78601 1.7052-.01888 2.0625-1.78125.3572-1.76236-.26965-4.11337-1.40625-5.25-.56092-.56095-.99305-.85745-1.3125-.84375zm-7.28125.09375c-1.34051.28656-1.36553 13.33455.125 17.21875.6308 1.64376 1.44919 3.00001 1.8125 3 1.2215 0-.32635-18.76379-1.65625-20.09375-.10092-.10092-.19188-.1441-.28125-.125zm93.4375 1.3125c1.0392 0 1.82311 1.07603 1.75 2.375-.073 1.29897-.8569 4.04664-1.75 6.125-1.3607 3.16668-1.6387 2.80212-1.75-2.34375-.073-3.37731.7109-6.15625 1.75-6.15625zm-12.5.375c.12888-.04745.24927-.00071.40625.15625.6278.62785.70204 2.22981.15625 3.59375-.6031 1.50724-1.0343 1.07607-1.125-1.125-.0615-1.49381.17587-2.48264.5625-2.625zm-7.875 2.34375c.90227.05003 1.48397 2.37368 1.46875 6.15625-.0159 3.95823-.8676 8.47249-1.875 10.03125-1.3264 2.05254-1.82285.38773-1.84375-6.03125-.016-4.87475.80465-9.389 1.84375-10.03125.14186-.08768.27735-.13215.40625-.125zm-48.5625 6.8125c-.60214.02618-.96875 1.00817-.96875 2.875 0 1.62009.8814 2.40271 1.9375 1.75 1.0561-.65272 1.4104-1.97013.8125-2.9375-.70862-1.14655-1.31292-1.70787-1.78125-1.6875zM145.15625 351c.45927-.11539 1.01145 3.87882 1.40625 12.0625.3084 6.3931-.07574 12.23203-.84375 13-.7679.76797-1.37501-4.8169-1.375-12.4375 0-8.28287.35323-12.50961.8125-12.625zm109.9375 1.40625c.28892.12524.39037 2.88587.5 8.84375.1195 6.49485-.10149 11.81251-.5 11.8125-1.7205 0-2.4031-9.83501-1.125-16.4375.54587-2.81965.90028-4.31616 1.125-4.21875zm-62.1875 2.28125c-.29479-.03623-.7741.59726-1.5 1.84375-1.0638 1.8268-1.41845 4.18781-.78125 5.21875 1.9536 3.1609 2.84134 2.08971 2.78125-3.34375-.02773-2.50709-.12098-3.67217-.5-3.71875zm13.625 1.375c-1.0894 0-1.56699 1.49396-1.0625 3.3125.5045 1.81856 1.47675 8.181 2.15625 14.15625.6795 5.97526 2.0297 10.87501 3 10.875 1.0012 0 1.31036-4.30881.71875-9.9375-1.5064-14.33096-2.5765-18.40625-4.8125-18.40625zm-6.4375 7.625c-.60214.02619-.96875 1.00817-.96875 2.875 0 1.62009.8814 2.40272 1.9375 1.75 1.0561-.65271 1.4104-1.97013.8125-2.9375-.70862-1.14655-1.31292-1.70787-1.78125-1.6875zm-48.1875 13.15625c1.0391 0 1.82299.62686 1.75 1.40625-.0731.77938-.8569 3.14041-1.75 5.21875-1.4389 3.3485-1.66364 3.16669-1.78125-1.4375-.0731-2.85773.74205-5.18751 1.78125-5.1875zM252.875 378.8125c.52151 0 1.25185.60197 2 1.8125.6422 1.03918.25675 1.875-.84375 1.875s-2-.83582-2-1.875c0-1.21053.32224-1.8125.84375-1.8125zm-68.15625 2.15625c-.38661.14235-.62408 1.16245-.5625 2.65625.0906 2.20107.55315 2.63223 1.15625 1.125.5458-1.36393.47165-2.99716-.15625-3.625-.15695-.15696-.30863-.2037-.4375-.15625zm-34.6875 6.25 2.90625 14.1875c1.5872 7.79382 3.3313 16.51727 3.875 19.375.5437 2.85773.51415 5.18749-.03125 5.1875-2.8646 0-5.3497-9.73294-6-23.375l-.75-15.375zm62.5625 5.6875 1.8125 4.5625c1.9652 4.91577 1.55609 8.80612-.6875 6.5625-.7578-.75773-1.3158-3.56546-1.25-6.25l.125-4.875zm36.59375 7.03125c.11599-.05423.26553.26933.40625 1 .4504 2.33815.45039 6.16187 0 8.5-.4503 2.33815-.8125.42629-.8125-4.25 0-3.21495.15106-5.1307.40625-5.25zm-85.96875 1.46875c-4.9718 0 .41305 22.00286 8.90625 36.375 6.7343 11.3958 6.56034 8.20371-.46875-8.21875-3.5977-8.40549-6.53125-18.17372-6.53125-21.71875 0-3.54504-.86705-6.43751-1.90625-6.4375zm6.1875 1.3125c-.20686.01415-.33877.44693-.375 1.3125-.082 1.95981 1.7869 8.50038 4.125 14.53125 2.3382 6.03086 4.51565 9.76719 4.84375 8.3125.328-1.4547-.6536-5.45656-2.1875-8.875-1.5339-3.41846-3.66845-8.75747-4.71875-11.875-.77312-2.29478-1.34273-3.42984-1.6875-3.40625zm45.375 5.46875c.24649-.13719.69386 1.59434 1.59375 5.4375.9665 4.12779 1.48985 8.81859 1.15625 10.40625-.8783 4.1806-3.2617-5.36613-3.0625-12.25.06532-2.25755.12079-3.48704.3125-3.59375zm-68.09375 4.96875c.22239-.12941.61035.69801 1.28125 2.40625.8162 2.07835 2.93045 8.32309 4.71875 13.875 1.7883 5.55194 2.99295 10.3606 2.65625 10.6875-1.3288 1.29005-9.1307-19.15918-9-23.59375.06295-2.13531.12136-3.24559.34375-3.375zm108.53125 2.0625c.3068-.04894.4035 1.10475.46875 3.65625.131 5.12596-.7746 6.54773-2.375 3.78125-.4509-.77939-.11735-3.10915.71875-5.1875.58061-1.44327.94888-2.21194 1.1875-2.25zm-97.0625 16.59375c.21918-.01584.71483.40846 1.53125 1.21875 1.2912 1.28166 1.86294 2.79326 1.28125 3.375-.5817.58173-1.63426-.48039-2.34375-2.34375-.57679-1.51469-.75055-2.22963-.46875-2.25zm23.3125 2.46875c-.47307-.02669-.40881 1.02685.15625 3.1875.6681 2.55486 1.5283 3.38382 2 1.96875.4544-1.3631-.0896-3.37082-1.1875-4.46875-.43816-.43815-.75372-.67537-.96875-.6875zm86.4375 8.8125c.4691 0 1.11619.90429 1.8125 2.71875.5981 1.55876.2566 2.81249-.75 2.8125-1.0065 0-1.81249-1.25372-1.8125-2.8125 0-1.81447.2809-2.71875.75-2.71875zm-110.0625 1c.52102-.07469 2.00641 1.94158 3.71875 5.1875 2.1076 3.99498 3.393 7.70062 2.875 8.21875-1.1974 1.19737-6.89254-9.75706-6.78125-13.03125.00861-.25323.06727-.35776.1875-.375zm21.03125 3.0625c-.36468.03731-.48684.97256-.5 2.90625-.0159 2.33814.80456 4.25001 1.84375 4.25 2.3673 0 2.36731-2.0244 0-5.6875-.64798-1.00265-1.06011-1.49777-1.34375-1.46875zm82 8.5c.32168-.09463.45047.74945.46875 2.4375.045 4.15406-1.00285 9.88095-4.65625 25.96875-1.8257 8.03919 2.41859 4.23737 4.8125-4.3125 3.5256-12.59223 4.17405-9.16045 1.21875 6.46875-4.0955 21.65915-7.9067 21.8442-9.9375.4375-.543-5.72376-.16594-12.17893.84375-14.3125 1.0096-2.13354 3.1492-7.28081 4.75-11.4375 1.3374-3.47258 2.08641-5.12834 2.5-5.25zm10.9375 10.875c.11392.04244.24395.20651.375.53125.5241 1.29897.5241 3.4198 0 4.71875-.5242 1.29897-.96875.2542-.96875-2.34375 0-1.94845.252-3.03356.59375-2.90625zm-90.84375 3.5c-.07345.01947-.15684.06309-.21875.125-.4953.49527-.34125 1.79796.34375 2.90625 1.8631 3.01448 2.96509 2.45436 1.6875-.875-.53839-1.40313-1.29835-2.29255-1.8125-2.15625zm-9.65625 1.40625c.95979.02484 3.00737 3.69462 4 7.90625.6736 2.85773.90376 5.18749.53125 5.1875-1.049 0-5.0625-9.33587-5.0625-11.78125 0-.91972.21132-1.32078.53125-1.3125zm101.09375 10.28125-.28125 13.0625c-.1868 9.30283-1.00751 13.31991-2.875 13.9375-1.7685.58487-2.12185.06968-1.09375-1.59375.8392-1.35788 2.12629-7.62654 2.875-13.9375l1.375-11.46875zm-60.0625 2.8125c-1.0392 0-1.87499.89949-1.875 2 0 1.10051.83579 1.48599 1.875.84375 2.421-1.49629 2.42099-2.84376 0-2.84375zm24.5625 3.78125c1.0392 0 1.90625.38549 1.90625.84375s-.86706 1.35775-1.90625 2c-1.0392.64225-1.875.25676-1.875-.84375 0-1.1005.83579-2 1.875-2zM205.75 490.25c-1.0392 0-3.15995.8364-4.71875 1.84375-1.5588 1.00735-2.00795 1.84374-.96875 1.84375 1.0392 0 3.16005-.83639 4.71875-1.84375 1.5588-1.00736 2.00795-1.84374.96875-1.84375zm-25.125 2.46875c1.77173.27979 10.84601 20.68173 18.8125 42.65625 5.0489 13.92654 8.77765 25.72231 8.28125 26.21875-.4964.49642-1.70399-1.12132-2.6875-3.59375-.9835-2.47244-4.75785-11.72952-8.40625-20.5625-9.5231-23.05538-16.41431-41.6839-16.3125-44.15625.01738-.42231.12922-.59144.3125-.5625zm30.90625 3.15625c-1.6201 0-2.96876.83585-2.96875 1.875 0 2.44473 3.23899 2.44475 4.75 0 .6422-1.03917-.16115-1.87499-1.78125-1.875zm27.96875.34375c.12887-.04745.28055-.00071.4375.15625.6278.62785.70204 2.26108.15625 3.625-.6032 1.50723-1.0343 1.07606-1.125-1.125-.0615-1.49381.14463-2.51389.53125-2.65625zm-22.3125 5.3125c-1.6201 0-2.93749.86708-2.9375 1.90625 0 2.44473 3.20784 2.44473 4.71875 0 .6422-1.03917-.16115-1.90625-1.78125-1.90625zm-9.25 5.9375c-.63241.04914-1.23166.17845-1.71875.375-1.299.52414-.25416.96876 2.34375.96875 2.598 0 3.67399-.4446 2.375-.96875-.81188-.32759-1.94598-.45689-3-.375zm8.1875 5.40625c-1.0392 0-1.87499.86708-1.875 1.90625 0 1.03918.8358 1.875 1.875 1.875 1.0391 0 1.90625-.83582 1.90625-1.875 0-1.03917-.86715-1.90625-1.90625-1.90625zm84.15625 11.65625c.4967-.00243.87501 3.7024.875 8.65625 0 5.28407.52554 10.95002 1.15625 12.59375 1.1385 2.96669-2.02924 4.29621-3.71875 1.5625-1.1139-1.80235.23419-21.45294 1.5625-22.78125.03397-.03397.09189-.03109.125-.03125zM213 525.125c-.45252-.0242-1.00924.05694-1.59375.28125-1.5588.59817-2.84376 1.43537-2.84375 1.84375 0 .4084 1.28495.74997 2.84375.75 1.5587 0 2.84376-.8372 2.84375-1.84375 0-.62909-.49581-.99092-1.25-1.03125zm70.21875 3.28125c.11599-.05423.23428.26932.375 1 .4504 2.33815.45041 6.16185 0 8.5-.4503 2.33814-.8125.42627-.8125-4.25 0-3.21494.18232-5.1307.4375-5.25zm22.59375 6.1875c.10892-.00983.24563.1177.375.4375.5176 1.27918.54161 3.84915.0625 5.6875-.479 1.83834-.89899.77377-.9375-2.34375-.02888-2.33815.17324-3.75176.5-3.78125zm-25.5 33.09375c-1.0146 0-1.84376 1.17744-1.84375 2.625 0 1.44759-1.30709 3.12435-2.9375 3.75-2.0561.789-2.58481 2.39149-1.6875 5.21875.7116 2.24192 1.2427 7.34549 1.1875 11.34375-.1157 8.38284 2.4309 9.65348 4.3125 2.15625 2.2764-9.06973 2.89395-25.09374.96875-25.09375zm-28.28125 24.53125c-1.0391 0-1.87501.86709-1.875 1.90625 0 1.03918.8359 1.87502 1.875 1.875 1.0392 0 1.87499-.83581 1.875-1.875 0-1.03917-.8358-1.90624-1.875-1.90625zm-3.4375 5.9375c-.90981.10729-2.34216 1.02895-3.6875 2.4375-3.118 3.26443-3.06255 3.31988 1.15625 1.15625 2.4271-1.24474 3.8833-2.77293 3.25-3.40625-.15835-.15833-.41548-.22326-.71875-.1875zm38.4375 9.6875c.10334.01066.17355.04854.21875.09375.3617.36169-.94565 5.2741-2.90625 10.90625-3.6109 10.37318-5.15649 10.10304-6.25-1.09375-.4273-4.3751.47055-6.21344 3.96875-8.0625 2.1812-1.15286 4.24539-1.91836 4.96875-1.84375zm5.59375.59375c.56492-.05284 1.03931.84322 1.5625 2.84375.6136 2.34653.68704 4.98494.15625 5.84375-.5308.85883-1.7721 1.56251-2.75 1.5625-2.2017 0-2.28139-5.72317-.125-9.125.4497-.7094.8173-1.0933 1.15625-1.125zm-34.9375 12.125c-1.0392 0-1.875.89953-1.875 2 0 1.10051.8358 1.48602 1.875.84375 2.421-1.4963 2.421-2.84373 0-2.84375zm31.59375.59375c.48297-.19017.4961.92046.46875 3.1875-.0314 2.59793-1.71094 8.12455-3.71875 12.28125l-3.65625 7.5625-.0625-6.09375c-.0353-3.35221 1.64434-8.87884 3.71875-12.28125 1.81025-2.96905 2.76703-4.46608 3.25-4.65625zm-21.40625.0625c-.22584.03797-.45895.15194-.71875.3125-1.0392.64225-1.90624 1.54171-1.90625 2 0 .45825.86706.81247 1.90625.8125 1.0392 0 1.875-.89947 1.875-2 0-.82538-.47872-1.23891-1.15625-1.125zm-4.5 5.03125c-1.0392 0-1.90626.89947-1.90625 2 0 1.1005.86704 1.45473 1.90625.8125 2.4211-1.4963 2.42109-2.81252 0-2.8125zm-16.59375 24.625c1.08653.06774 4.28815 7.85562 8.1875 20.3125 2.6953 8.6103 4.50416 16.67566 4.03125 17.9375-.9695 2.58745-.5174 3.69852-7.6875-19.09375-2.7196-8.64507-4.92225-16.71038-4.90625-17.9375.01095-.84473.12426-1.23438.375-1.21875zm-5.625 2.625c.4216-.42163 2.69905 5.22695 5.09375 12.53125 2.3946 7.30432 3.98464 13.6403 3.53125 14.09375-.4535.45347-2.76221-5.16384-5.125-12.5-2.3628-7.3362-3.9216-13.7034-3.5-14.125zm71.15625 2.96875c9.1936 0 13.50639 2.43489 13.25 7.46875-.1007 1.97794-.44524 2.14102-1.09375.53125-.5281-1.31088-2.5949-3.22824-4.5625-4.28125-9.3932-5.02706-35.98934 22.73845-48.15625 50.25-4.1199 9.31586-6.27679 23.5-3.5625 23.5 2.4712 0 23.55175-15.59551 34.84375-25.78125 8.9462-8.06982 11.28069-9.54069 8.625-5.40625-2.0025 3.11753-5.80836 7.39041-8.46875 9.46875-2.6603 2.07835-7.40655 6.32001-10.53125 9.4375-3.1248 3.11753-10.42986 8.8531-16.21875 12.75-5.7889 3.89691-11.07794 7.09377-11.78125 7.09375-2.3943 0-1.30035-20.28682 1.53125-28.3125 1.5517-4.39801 2.27286-8.96796 1.59375-10.15625-.6792-1.18833-.49156-1.47401.40625-.65625.8977.81775 2.92426-1.74502 4.53125-5.6875 5.1572-12.65252 15.435-27.74851 23.1875-34.0625 6.1195-4.98403 9.21106-6.15626 16.40625-6.15625zm2.59375 7.5625c4.248 0 5.15626.82679 5.15625 4.78125 0 4.25631-.43596 4.57606-3.90625 2.71875-5.7073-3.05445-10.9499 1.09056-24.875 19.71875-6.5134 8.71333-12.85586 17.41732-14.09375 19.34375-5.0857 7.91474-1.99905-.53301 4.34375-11.875 9.3812-16.77508 26.62121-34.68749 33.375-34.6875zm-4.8125 10.21875c1.31903-.07443 2.53503.44128 3.65625 1.5625 2.0363 2.03631.88015 4.954-6.59375 16.59375-4.9901 7.7714-12.2606 16.90394-16.125 20.28125-3.8644 3.37732-7.91554 6.12502-9.03125 6.125-3.3342 0-.09674-9.6401 6.34375-18.875 3.2613-4.67629 8.3208-12.0392 11.25-16.34375 4.16329-6.11819 7.59813-9.17999 10.5-9.34375zm-57.375 13.0625c.54187-.16929 1.48369 2.00051 2.15625 5.0625.7173 3.26615.86325 6.35539.34375 6.875-.5196.51959-1.5327-1.73383-2.25-5-.7174-3.26614-.86335-6.35541-.34375-6.875.03247-.03247.05763-.05121.09375-.0625zm10.65625 10.71875c1.0392 0 1.87501.80338 1.875 1.78125 0 .97784-.83581 2.29523-1.875 2.9375-1.0392.64225-1.90626-.12993-1.90625-1.75 0-1.6201.86704-2.96878 1.90625-2.96875zm10.28125 18.28125c.55691-.1262 1.10519.97631 2.25 3.4375 1.6985 3.65143 1.6155 5.07742-.4375 6.78125-3.4109 2.83079-5.7521-2.55852-3.375-7.78125.68539-1.50581 1.12934-2.33934 1.5625-2.4375z"/>
  </g>
</svg>