<?xml version="1.0" encoding="UTF-8" standalone="no"?>
<!-- Created with Inkscape (http://www.inkscape.org/) -->
<svg
   xmlns:dc="http://purl.org/dc/elements/1.1/"
   xmlns:cc="http://web.resource.org/cc/"
   xmlns:rdf="http://www.w3.org/1999/02/22-rdf-syntax-ns#"
   xmlns:svg="http://www.w3.org/2000/svg"
   xmlns="http://www.w3.org/2000/svg"
   xmlns:sodipodi="http://sodipodi.sourceforge.net/DTD/sodipodi-0.dtd"
   xmlns:inkscape="http://www.inkscape.org/namespaces/inkscape"
   width="200"
   height="570"
   id="svg20735"
   sodipodi:version="0.32"
   inkscape:version="0.45.1"
   version="1.0"
   sodipodi:docbase="C:\Documents and Settings\Flanker\Desktop\Temporanei\SVG\Piacentine SVG"
   sodipodi:docname="Suit Spade.svg"
   inkscape:output_extension="org.inkscape.output.svg.inkscape"
   inkscape:export-filename="C:\Documents and Settings\Alessandro\Documenti\Visual Studio 2005\Projects\ConsoleApplication1\ConsoleApplication1\Media\cards\carte\S3.nuovo.png"
   inkscape:export-xdpi="300"
   inkscape:export-ydpi="300">
  <defs
     id="defs20737" />
  <sodipodi:namedview
     id="base"
     pagecolor="#ffffff"
     bordercolor="#666666"
     borderopacity="1.0"
     inkscape:pageopacity="0.0"
     inkscape:pageshadow="2"
     inkscape:zoom="0.70789474"
     inkscape:cx="61.901654"
     inkscape:cy="371.21992"
     inkscape:document-units="px"
     inkscape:current-layer="layer1"
     inkscape:window-width="1280"
     inkscape:window-height="1003"
     inkscape:window-x="0"
     inkscape:window-y="0"
     inkscape:showpageshadow="false"
     width="200px"
     height="570px" />
  <metadata
     id="metadata20740">
    <rdf:RDF>
      <cc:Work
         rdf:about="">
        <dc:format>image/svg+xml</dc:format>
        <dc:type
           rdf:resource="http://purl.org/dc/dcmitype/StillImage" />
      </cc:Work>
    </rdf:RDF>
  </metadata>
  <g
     inkscape:label="Livello 1"
     inkscape:groupmode="layer"
     id="layer1"
     transform="translate(-381.89119,-9.82697)">
    <path
       sodipodi:nodetypes="cccccc"
       d="M 1507.6639,542.96508 L 1427.5459,542.15868 L 1427.4839,-290.40132 L 1467.9299,-337.20978 L 1509.2039,-288.42675 L 1507.6639,542.96508 z "
       style="fill:none;fill-opacity:1;fill-rule:evenodd;stroke:none;stroke-width:1px;stroke-linecap:butt;stroke-linejoin:miter;stroke-opacity:1"
       id="path2472" />
    <g
       id="g6133"
       transform="translate(1754.964,-301.84986)">
      <path
         transform="matrix(2.6041243,0,0,2.6039105,-1372.7704,-2175.1415)"
         d="M 47.07113 1162.5522 A 8.7866106 8.7866106 0 1 1  29.497909,1162.5522 A 8.7866106 8.7866106 0 1 1  47.07113 1162.5522 z"
         sodipodi:ry="8.7866106"
         sodipodi:rx="8.7866106"
         sodipodi:cy="1162.5522"
         sodipodi:cx="38.284519"
         id="path4310"
         style="fill:#cf2c38;fill-opacity:1;stroke:#000000;stroke-width:2.68815398;stroke-linecap:round;stroke-linejoin:round;stroke-miterlimit:4;stroke-dasharray:none;stroke-opacity:1"
         sodipodi:type="arc" />
      <path
         sodipodi:nodetypes="cc"
         id="path4312"
         d="M -1277.3706,865.09808 C -1267.8111,867.12064 -1260.0627,860.69911 -1259.0525,851.55976"
         style="fill:none;fill-opacity:1;stroke:#000000;stroke-width:6;stroke-linecap:round;stroke-linejoin:round;stroke-miterlimit:4;stroke-dasharray:none;stroke-opacity:1" />
    </g>
    <path
       transform="matrix(1.4211274,1.5823464e-2,-1.5846455e-2,1.4190655,-4118.6675,-1690.202)"
       d="M 3229.2896 1406.9587 A 20.789125 20.789125 0 1 1  3187.7114,1406.9587 A 20.789125 20.789125 0 1 1  3229.2896 1406.9587 z"
       sodipodi:ry="20.789125"
       sodipodi:rx="20.789125"
       sodipodi:cy="1406.9587"
       sodipodi:cx="3208.5005"
       id="path4317"
       style="fill:#fef137;fill-opacity:1;fill-rule:nonzero;stroke:#000000;stroke-width:5.63307142;stroke-linecap:butt;stroke-linejoin:miter;stroke-miterlimit:4;stroke-dasharray:none;stroke-dashoffset:0;stroke-opacity:1"
       sodipodi:type="arc" />
    <path
       transform="matrix(1.4211274,1.5823464e-2,-1.5846455e-2,1.4190655,-3992.3354,-1690.202)"
       d="M 3229.2896 1406.9587 A 20.789125 20.789125 0 1 1  3187.7114,1406.9587 A 20.789125 20.789125 0 1 1  3229.2896 1406.9587 z"
       sodipodi:ry="20.789125"
       sodipodi:rx="20.789125"
       sodipodi:cy="1406.9587"
       sodipodi:cx="3208.5005"
       id="path4319"
       style="fill:#fef137;fill-opacity:1;fill-rule:nonzero;stroke:#000000;stroke-width:5.63307142;stroke-linecap:butt;stroke-linejoin:miter;stroke-miterlimit:4;stroke-dasharray:none;stroke-dashoffset:0;stroke-opacity:1"
       sodipodi:type="arc" />
    <g
       id="g4321"
       transform="matrix(0.7498433,0,0,0.7498433,389.04545,-43.81738)">
      <path
         id="path4323"
         d="M 39.70622,507.29203 C 33.3772,507.22156 28.18304,512.2847 28.11247,518.60453 C 28.0419,524.92436 33.12719,530.12779 39.45622,530.19828 C 45.78524,530.26875 50.9794,525.17438 51.04997,518.85453 C 51.12054,512.5347 46.03525,507.36248 39.70622,507.29203 z M 39.70622,539.22953 C 33.3772,539.15906 28.18304,544.25345 28.11247,550.57328 C 28.0419,556.89311 33.12719,562.06529 39.45622,562.13578 C 45.78524,562.20625 50.9794,557.14313 51.04997,550.82328 C 51.12054,544.50345 46.03525,539.29998 39.70622,539.22953 z "
         style="fill:#3c6d3d;fill-opacity:1;fill-rule:nonzero;stroke:#000000;stroke-width:6.66805983;stroke-linecap:butt;stroke-linejoin:miter;stroke-miterlimit:4;stroke-dasharray:none;stroke-dashoffset:0;stroke-opacity:1" />
      <path
         style="fill:#3c6d3d;fill-opacity:1;fill-rule:nonzero;stroke:#000000;stroke-width:6.66805983;stroke-linecap:butt;stroke-linejoin:miter;stroke-miterlimit:4;stroke-dasharray:none;stroke-dashoffset:0;stroke-opacity:1"
         d="M 12.159345,534.58891 C 12.088875,540.91793 17.152015,546.11209 23.471845,546.18266 C 29.791675,546.25323 34.995105,541.16794 35.065595,534.83891 C 35.136065,528.50989 30.041695,523.31573 23.721845,523.24516 C 17.402015,523.17459 12.229795,528.25988 12.159345,534.58891 z M 44.096845,534.58891 C 44.026375,540.91793 49.120765,546.11209 55.440595,546.18266 C 61.760425,546.25323 66.932605,541.16794 67.003095,534.83891 C 67.073565,528.50989 62.010445,523.31573 55.690595,523.24516 C 49.370765,523.17459 44.167295,528.25988 44.096845,534.58891 z "
         id="path4325" />
      <path
         transform="matrix(1.8952325,2.1102361e-2,-2.1133022e-2,1.8924828,-6007.4201,-2193.2625)"
         d="M 3212.362 1405.7278 A 6.0497122 6.0497122 0 1 1  3200.2625,1405.7278 A 6.0497122 6.0497122 0 1 1  3212.362 1405.7278 z"
         sodipodi:ry="6.0497122"
         sodipodi:rx="6.0497122"
         sodipodi:cy="1405.7278"
         sodipodi:cx="3206.3123"
         id="path4327"
         style="fill:#3c6d3d;fill-opacity:1;fill-rule:nonzero;stroke:#000000;stroke-width:3.52066946;stroke-linecap:butt;stroke-linejoin:miter;stroke-miterlimit:4;stroke-dasharray:none;stroke-dashoffset:0;stroke-opacity:1"
         sodipodi:type="arc" />
    </g>
    <g
       transform="matrix(0.7498433,0,0,0.7498433,515.37755,-43.81738)"
       id="g4329">
      <path
         style="fill:#3c6d3d;fill-opacity:1;fill-rule:nonzero;stroke:#000000;stroke-width:6.66805983;stroke-linecap:butt;stroke-linejoin:miter;stroke-miterlimit:4;stroke-dasharray:none;stroke-dashoffset:0;stroke-opacity:1"
         d="M 39.70622,507.29203 C 33.3772,507.22156 28.18304,512.2847 28.11247,518.60453 C 28.0419,524.92436 33.12719,530.12779 39.45622,530.19828 C 45.78524,530.26875 50.9794,525.17438 51.04997,518.85453 C 51.12054,512.5347 46.03525,507.36248 39.70622,507.29203 z M 39.70622,539.22953 C 33.3772,539.15906 28.18304,544.25345 28.11247,550.57328 C 28.0419,556.89311 33.12719,562.06529 39.45622,562.13578 C 45.78524,562.20625 50.9794,557.14313 51.04997,550.82328 C 51.12054,544.50345 46.03525,539.29998 39.70622,539.22953 z "
         id="path4331" />
      <path
         id="path4333"
         d="M 12.159345,534.58891 C 12.088875,540.91793 17.152015,546.11209 23.471845,546.18266 C 29.791675,546.25323 34.995105,541.16794 35.065595,534.83891 C 35.136065,528.50989 30.041695,523.31573 23.721845,523.24516 C 17.402015,523.17459 12.229795,528.25988 12.159345,534.58891 z M 44.096845,534.58891 C 44.026375,540.91793 49.120765,546.11209 55.440595,546.18266 C 61.760425,546.25323 66.932605,541.16794 67.003095,534.83891 C 67.073565,528.50989 62.010445,523.31573 55.690595,523.24516 C 49.370765,523.17459 44.167295,528.25988 44.096845,534.58891 z "
         style="fill:#3c6d3d;fill-opacity:1;fill-rule:nonzero;stroke:#000000;stroke-width:6.66805983;stroke-linecap:butt;stroke-linejoin:miter;stroke-miterlimit:4;stroke-dasharray:none;stroke-dashoffset:0;stroke-opacity:1" />
      <path
         sodipodi:type="arc"
         style="fill:#3c6d3d;fill-opacity:1;fill-rule:nonzero;stroke:#000000;stroke-width:3.52066946;stroke-linecap:butt;stroke-linejoin:miter;stroke-miterlimit:4;stroke-dasharray:none;stroke-dashoffset:0;stroke-opacity:1"
         id="path4335"
         sodipodi:cx="3206.3123"
         sodipodi:cy="1405.7278"
         sodipodi:rx="6.0497122"
         sodipodi:ry="6.0497122"
         d="M 3212.362 1405.7278 A 6.0497122 6.0497122 0 1 1  3200.2625,1405.7278 A 6.0497122 6.0497122 0 1 1  3212.362 1405.7278 z"
         transform="matrix(1.8952325,2.1102361e-2,-2.1133022e-2,1.8924828,-6007.4201,-2193.2625)" />
    </g>
    <path
       style="fill:#fef137;fill-opacity:1;stroke:#000000;stroke-width:7;stroke-linecap:round;stroke-linejoin:round;stroke-miterlimit:4;stroke-dasharray:none;stroke-opacity:1"
       d="M 455.552,361.80255 C 444.6455,405.61325 451.892,489.18595 460.802,516.89625 L 502.9583,516.89625 C 511.8684,489.18595 519.1461,405.61325 508.2395,361.80255 L 455.552,361.80255 z "
       id="path4538"
       sodipodi:nodetypes="ccccc" />
    <path
       style="fill:#fef137;fill-opacity:1;stroke:#000000;stroke-width:6;stroke-linecap:round;stroke-linejoin:round;stroke-miterlimit:4;stroke-dasharray:none;stroke-opacity:1"
       d="M 453.9109,376.60305 C 471.3854,398.39895 491.1083,421.83765 512.0698,443.63355"
       id="path4543"
       sodipodi:nodetypes="cc" />
    <path
       style="fill:#fef137;fill-opacity:1;stroke:#000000;stroke-width:6;stroke-linecap:round;stroke-linejoin:round;stroke-miterlimit:4;stroke-dasharray:none;stroke-opacity:1"
       d="M 451.9394,389.08905 C 470.2431,412.63735 488.9737,433.55715 510.7554,457.10545"
       id="path4340"
       sodipodi:nodetypes="cc" />
    <path
       sodipodi:nodetypes="cc"
       id="path4342"
       d="M 450.9537,419.64718 C 468.4282,441.44308 486.8368,463.23888 507.7983,485.03478"
       style="fill:#fef137;fill-opacity:1;stroke:#000000;stroke-width:6;stroke-linecap:round;stroke-linejoin:round;stroke-miterlimit:4;stroke-dasharray:none;stroke-opacity:1" />
    <path
       sodipodi:nodetypes="cc"
       id="path4344"
       d="M 450.4204,434.0057 C 468.0665,456.3822 488.0862,478.75878 508.784,501.13528"
       style="fill:#fef137;fill-opacity:1;stroke:#000000;stroke-width:6;stroke-linecap:round;stroke-linejoin:round;stroke-miterlimit:4;stroke-dasharray:none;stroke-opacity:1" />
    <path
       style="fill:#fef137;fill-opacity:1;stroke:#000000;stroke-width:6;stroke-linecap:round;stroke-linejoin:round;stroke-miterlimit:4;stroke-dasharray:none;stroke-opacity:1"
       d="M 452.2927,463.98517 C 466.3785,481.35212 481.1603,498.71903 497.457,516.08598"
       id="path4346"
       sodipodi:nodetypes="cs" />
    <path
       style="fill:#fef137;fill-opacity:1;stroke:#000000;stroke-width:6;stroke-linecap:round;stroke-linejoin:round;stroke-miterlimit:4;stroke-dasharray:none;stroke-opacity:1"
       d="M 453.7386,480.84149 C 463.6015,492.93097 474.0904,505.02047 484.9382,517.10996"
       id="path4553"
       sodipodi:nodetypes="cs" />
    <path
       sodipodi:nodetypes="cs"
       id="path4349"
       d="M 483.8602,361.66446 C 493.1539,372.88477 502.8041,384.10506 513.0316,395.32537"
       style="fill:#fef137;fill-opacity:1;stroke:#000000;stroke-width:6;stroke-linecap:round;stroke-linejoin:round;stroke-miterlimit:4;stroke-dasharray:none;stroke-opacity:1" />
    <path
       sodipodi:nodetypes="cs"
       id="path4351"
       d="M 471.3992,361.42907 C 484.1523,377.47301 498.0996,393.51699 512.616,409.56095"
       style="fill:#fef137;fill-opacity:1;stroke:#000000;stroke-width:6;stroke-linecap:round;stroke-linejoin:round;stroke-miterlimit:4;stroke-dasharray:none;stroke-opacity:1" />
    <path
       style="fill:#fef137;fill-opacity:1;stroke:#000000;stroke-width:3.5;stroke-linecap:round;stroke-linejoin:round;stroke-miterlimit:4;stroke-dasharray:none;stroke-opacity:1"
       d="M 513.3841,419.31858 C 509.0251,415.26608 505.0385,411.21358 501.5552,407.16108"
       id="path4353"
       sodipodi:nodetypes="cc" />
    <path
       sodipodi:nodetypes="cc"
       id="path5530"
       d="M 512.5627,426.13663 C 508.2037,422.08413 504.2171,418.03163 500.7338,413.97913"
       style="fill:#fef137;fill-opacity:1;stroke:#000000;stroke-width:3.5;stroke-linecap:round;stroke-linejoin:round;stroke-miterlimit:4;stroke-dasharray:none;stroke-opacity:1" />
    <path
       style="fill:#fef137;fill-opacity:1;stroke:#000000;stroke-width:3.5;stroke-linecap:round;stroke-linejoin:round;stroke-miterlimit:4;stroke-dasharray:none;stroke-opacity:1"
       d="M 511.9055,432.95468 C 507.5465,428.90218 503.5599,424.84968 500.0766,420.79718"
       id="path5532"
       sodipodi:nodetypes="cc" />
    <path
       sodipodi:nodetypes="cc"
       id="path5558"
       d="M 511.9055,466.96286 C 507.5465,462.91036 503.5599,458.85786 500.0766,454.80536"
       style="fill:#fef137;fill-opacity:1;stroke:#000000;stroke-width:3.5;stroke-linecap:round;stroke-linejoin:round;stroke-miterlimit:4;stroke-dasharray:none;stroke-opacity:1" />
    <path
       style="fill:#fef137;fill-opacity:1;stroke:#000000;stroke-width:3.5;stroke-linecap:round;stroke-linejoin:round;stroke-miterlimit:4;stroke-dasharray:none;stroke-opacity:1"
       d="M 508.4554,469.7558 C 504.0964,465.7033 500.1098,461.6508 496.6265,457.5983"
       id="path5560"
       sodipodi:nodetypes="cc" />
    <path
       sodipodi:nodetypes="cc"
       id="path5562"
       d="M 508.784,476.656 C 504.425,472.6035 500.4384,468.551 496.9551,464.4985"
       style="fill:#fef137;fill-opacity:1;stroke:#000000;stroke-width:3.5;stroke-linecap:round;stroke-linejoin:round;stroke-miterlimit:4;stroke-dasharray:none;stroke-opacity:1" />
    <path
       style="fill:#fef137;fill-opacity:1;stroke:#000000;stroke-width:3.5;stroke-linecap:round;stroke-linejoin:round;stroke-miterlimit:4;stroke-dasharray:none;stroke-opacity:1"
       d="M 502.8695,504.09253 C 498.5105,500.04003 494.5239,495.98753 491.0406,491.93503"
       id="path5564"
       sodipodi:nodetypes="cc" />
    <path
       sodipodi:nodetypes="cc"
       id="path5566"
       d="M 501.0623,509.02125 C 496.7033,504.96875 492.7167,500.91625 489.2334,496.86375"
       style="fill:#fef137;fill-opacity:1;stroke:#000000;stroke-width:3.5;stroke-linecap:round;stroke-linejoin:round;stroke-miterlimit:4;stroke-dasharray:none;stroke-opacity:1" />
    <path
       style="fill:#fef137;fill-opacity:1;stroke:#000000;stroke-width:3.5;stroke-linecap:round;stroke-linejoin:round;stroke-miterlimit:4;stroke-dasharray:none;stroke-opacity:1"
       d="M 453.0894,455.29822 C 456.3799,459.35072 460.8966,464.71755 465.0826,469.09863"
       id="path5568"
       sodipodi:nodetypes="cc" />
    <path
       sodipodi:nodetypes="cc"
       id="path5570"
       d="M 453.2537,448.39801 C 456.5442,452.45051 461.0609,457.81734 465.2469,462.19842"
       style="fill:#fef137;fill-opacity:1;stroke:#000000;stroke-width:3.5;stroke-linecap:round;stroke-linejoin:round;stroke-miterlimit:4;stroke-dasharray:none;stroke-opacity:1" />
    <path
       style="fill:#fef137;fill-opacity:1;stroke:#000000;stroke-width:3.5;stroke-linecap:round;stroke-linejoin:round;stroke-miterlimit:4;stroke-dasharray:none;stroke-opacity:1"
       d="M 451.7751,405.18958 C 455.0656,409.24208 461.3895,417.07327 465.5755,421.45435"
       id="path5572"
       sodipodi:nodetypes="cc" />
    <path
       sodipodi:nodetypes="cc"
       id="path5574"
       d="M 449.6393,408.63968 C 452.9298,412.69218 455.9679,417.07327 460.1539,421.45435"
       style="fill:#fef137;fill-opacity:1;stroke:#000000;stroke-width:3.5;stroke-linecap:round;stroke-linejoin:round;stroke-miterlimit:4;stroke-dasharray:none;stroke-opacity:1" />
    <path
       sodipodi:nodetypes="cc"
       id="path5576"
       d="M 451.2822,398.12508 C 454.5727,402.17758 460.8966,410.00877 465.0826,414.38985"
       style="fill:#fef137;fill-opacity:1;stroke:#000000;stroke-width:3.5;stroke-linecap:round;stroke-linejoin:round;stroke-miterlimit:4;stroke-dasharray:none;stroke-opacity:1" />
    <g
       id="g5585"
       transform="translate(1748.6571,-301.84986)">
      <path
         id="path4368"
         transform="translate(-125.00029,-509.06639)"
         d="M -1141.7813,826 C -1148.3718,835.75447 -1163.6028,849.92955 -1172.125,855.5625 L -1172.125,1157.75 L -1141.7813,1157.75 L -1111.4063,1157.75 L -1111.4063,855.5625 C -1119.9284,849.92955 -1135.1906,835.75447 -1141.7813,826 z "
         style="fill:#3e609e;fill-opacity:1;fill-rule:evenodd;stroke:#000000;stroke-width:4;stroke-linecap:butt;stroke-linejoin:miter;stroke-miterlimit:4;stroke-dasharray:none;stroke-opacity:1" />
      <path
         style="fill:#3e609e;fill-opacity:1;fill-rule:evenodd;stroke:#000000;stroke-width:4;stroke-linecap:round;stroke-linejoin:round;stroke-miterlimit:4;stroke-dasharray:none;stroke-opacity:1"
         d="M -1266.7659,320.62793 L -1266.7659,651.38002"
         id="path4370"
         sodipodi:nodetypes="cc" />
      <path
         sodipodi:nodetypes="cc"
         id="path5581"
         d="M -1257.5656,328.51388 L -1257.5656,659.26597"
         style="fill:#3e609e;fill-opacity:1;fill-rule:evenodd;stroke:#000000;stroke-width:4;stroke-linecap:round;stroke-linejoin:round;stroke-miterlimit:4;stroke-dasharray:none;stroke-opacity:1" />
      <path
         style="fill:#3e609e;fill-opacity:1;fill-rule:evenodd;stroke:#000000;stroke-width:4;stroke-linecap:round;stroke-linejoin:round;stroke-miterlimit:4;stroke-dasharray:none;stroke-opacity:1"
         d="M -1246.3938,339.68565 L -1246.3938,670.43774"
         id="path5583"
         sodipodi:nodetypes="cc" />
    </g>
    <path
       transform="matrix(1.1250219,0,0,0.9140053,516.9446,-426.74173)"
       d="M -41.841006 1038.2845 A 12.761506 25.523012 0 1 1  -67.364018,1038.2845 A 12.761506 25.523012 0 1 1  -41.841006 1038.2845 z"
       sodipodi:ry="25.523012"
       sodipodi:rx="12.761506"
       sodipodi:cy="1038.2845"
       sodipodi:cx="-54.602512"
       id="path4374"
       style="fill:#cf2c38;fill-opacity:1;stroke:#000000;stroke-width:6.90308428;stroke-linecap:round;stroke-linejoin:round;stroke-miterlimit:4;stroke-dasharray:none;stroke-opacity:1"
       sodipodi:type="arc" />
    <path
       sodipodi:type="arc"
       style="fill:#cf2c38;fill-opacity:1;stroke:#000000;stroke-width:6.90308428;stroke-linecap:round;stroke-linejoin:round;stroke-miterlimit:4;stroke-dasharray:none;stroke-opacity:1"
       id="path4376"
       sodipodi:cx="-54.602512"
       sodipodi:cy="1038.2845"
       sodipodi:rx="12.761506"
       sodipodi:ry="25.523012"
       d="M -41.841006 1038.2845 A 12.761506 25.523012 0 1 1  -67.364018,1038.2845 A 12.761506 25.523012 0 1 1  -41.841006 1038.2845 z"
       transform="matrix(1.1250219,0,0,0.9140053,569.6958,-426.36632)" />
    <path
       sodipodi:nodetypes="cc"
       id="path4378"
       d="M 510.0539,508.92869 C 516.0094,514.18445 515.6115,531.26576 510.0539,535.9584"
       style="fill:none;fill-opacity:1;stroke:#000000;stroke-width:6;stroke-linecap:round;stroke-linejoin:round;stroke-miterlimit:4;stroke-dasharray:none;stroke-opacity:1" />
    <path
       sodipodi:type="arc"
       style="fill:#cf2c38;fill-opacity:1;stroke:#000000;stroke-width:6.35221386;stroke-linecap:round;stroke-linejoin:round;stroke-miterlimit:4;stroke-dasharray:none;stroke-opacity:1"
       id="path4380"
       sodipodi:cx="-54.602512"
       sodipodi:cy="1038.2845"
       sodipodi:rx="12.761506"
       sodipodi:ry="25.523012"
       d="M -41.841006 1038.2845 A 12.761506 25.523012 0 1 1  -67.364018,1038.2845 A 12.761506 25.523012 0 1 1  -41.841006 1038.2845 z"
       transform="matrix(1.2260894,0,0,0.9904298,548.1815,-503.6527)" />
    <path
       style="fill:none;fill-opacity:1;stroke:#000000;stroke-width:6;stroke-linecap:round;stroke-linejoin:round;stroke-miterlimit:4;stroke-dasharray:none;stroke-opacity:1"
       d="M 455.7071,508.41806 C 457.2586,508.62712 458.7953,510.03981 459.1799,510.95213"
       id="path4382"
       sodipodi:nodetypes="cc" />
    <path
       style="fill:none;fill-opacity:1;stroke:#000000;stroke-width:6;stroke-linecap:round;stroke-linejoin:round;stroke-miterlimit:4;stroke-dasharray:none;stroke-opacity:1"
       d="M 482.3634,510.05031 C 488.8538,515.74554 488.4203,534.2551 482.3634,539.34012"
       id="path4384"
       sodipodi:nodetypes="cc" />
    <path
       transform="matrix(1.3383969,1.7390253e-2,-1.4923958e-2,1.5595769,-4098.9041,-1905.553)"
       d="M 3448 1404.375 A 9.5 14.125 0 1 1  3429,1404.375 A 9.5 14.125 0 1 1  3448 1404.375 z"
       sodipodi:ry="14.125"
       sodipodi:rx="9.5"
       sodipodi:cy="1404.375"
       sodipodi:cx="3438.5"
       id="path2474"
       style="fill:none;fill-opacity:1;fill-rule:nonzero;stroke:none;stroke-width:2;stroke-linecap:butt;stroke-linejoin:miter;stroke-miterlimit:4;stroke-dasharray:none;stroke-dashoffset:0;stroke-opacity:1"
       sodipodi:type="arc" />
    <path
       style="fill:#000000;fill-opacity:1;stroke:none;stroke-width:1;stroke-linecap:round;stroke-linejoin:round;stroke-miterlimit:4;stroke-dasharray:none;stroke-opacity:1"
       d="M 481.89121,287.35562 C 472.39385,303.8035 444.77202,317.7475 444.77202,352.40725 C 444.77202,369.81676 451.70294,384.90732 462.58132,384.90732 C 471.15568,384.90732 471.57869,388.95051 481.89121,388.95051 C 492.20379,388.95051 492.6268,384.90732 501.20116,384.90732 C 512.07955,384.90732 519.01039,369.81676 519.01039,352.40725 C 519.01039,317.7475 491.38863,303.8035 481.89121,287.35562 z "
       id="path4388" />
    <g
       id="g4390"
       transform="matrix(0.7061914,0,0,0.8240904,396.18422,-91.08196)">
      <path
         transform="matrix(1.1206897,0,0,1.040404,365.06756,-413.20505)"
         d="M -200.29761 903.2514 A 17.159914 29.290197 0 1 1  -234.61743,903.2514 A 17.159914 29.290197 0 1 1  -200.29761 903.2514 z"
         sodipodi:ry="29.290197"
         sodipodi:rx="17.159914"
         sodipodi:cy="903.2514"
         sodipodi:cx="-217.45752"
         id="path4392"
         style="opacity:1;fill:#cf2c38;fill-opacity:1;stroke:#000000;stroke-width:8.49778461;stroke-linecap:round;stroke-linejoin:round;stroke-miterlimit:4;stroke-dasharray:none;stroke-opacity:1"
         sodipodi:type="arc" />
      <path
         sodipodi:nodetypes="cc"
         transform="translate(340.89372,-376.11832)"
         id="path4394"
         d="M -221.59957,892.0087 C -213.57634,888.80355 -215.01008,917.25547 -220.71199,915.67755"
         style="opacity:1;fill:none;fill-opacity:1;stroke:#000000;stroke-width:5.24338055;stroke-linecap:round;stroke-linejoin:round;stroke-miterlimit:4;stroke-dasharray:none;stroke-opacity:1" />
      <path
         sodipodi:nodetypes="cszc"
         transform="translate(340.89372,-376.11832)"
         id="path4396"
         d="M -224.85404,886.68321 C -224.37511,884.01043 -220.79336,881.46985 -217.17075,883.15142 C -212.53963,885.30113 -208.90455,892.41432 -208.90455,902.14916 C -208.90455,911.88401 -211.95147,924.43148 -219.52855,922.52413"
         style="opacity:1;fill:none;fill-opacity:1;stroke:#000000;stroke-width:5.24338055;stroke-linecap:round;stroke-linejoin:round;stroke-miterlimit:4;stroke-dasharray:none;stroke-opacity:1" />
    </g>
    <path
       style="fill:#fef137;fill-opacity:1;stroke:none;stroke-width:1;stroke-linecap:round;stroke-linejoin:round;stroke-miterlimit:4;stroke-dasharray:none;stroke-opacity:1"
       d="M 481.89121,299.67115 C 475.09757,307.91833 453.11391,324.16362 453.11391,352.10391 C 453.11391,366.13825 458.49021,378.32028 466.92087,378.32028 C 469.51541,378.32028 471.39883,375.80556 471.39883,373.24698 C 471.39883,370.68839 469.5611,368.19942 466.92087,368.19942 C 463.54697,368.19942 460.79663,357.54757 460.79663,350.99653 C 460.79663,329.91877 476.17388,315.05572 481.89121,307.73179 C 487.60853,315.05572 502.98578,329.91877 502.98578,350.99653 C 502.98578,357.54757 500.23545,368.19942 496.86154,368.19942 C 494.22131,368.19942 492.38366,370.68839 492.38366,373.24698 C 492.38366,375.80556 494.267,378.32028 496.86154,378.32028 C 505.2922,378.32028 510.6685,366.13825 510.6685,352.10391 C 510.6685,324.16362 488.68491,307.91833 481.89121,299.67115 z M 481.89121,366.86028 C 477.67538,366.86028 474.2524,369.75769 474.2524,373.32423 C 474.2524,376.89077 477.67538,379.76242 481.89121,379.76244 C 486.10703,379.76244 489.53001,376.89077 489.53001,373.32423 C 489.53001,369.75769 486.10703,366.8603 481.89121,366.86028 z "
       id="path4398" />
  </g>
</svg>
